<svg xmlns="http://www.w3.org/2000/svg" viewBox="0 0 1460 1588.6491799549694" width="1460" height="1588.6491799549694">
<rect width="1460" height="1588.6491799549694" fill="#ffffff" />
<defs><marker id="arrowhead" markerWidth="10" markerHeight="7" refX="10" refY="3.5" orient="auto"><polygon points="0 0, 10 3.5, 0 7" fill="#000000" /></marker></defs>
<g transform="translate(210, 50)">
<path d="M 170.8897994667184,66.32405974422 Q 360.8419314355983,144.63718807358964 546.7067057411762,225.36678906562156" fill="none" stroke="#000000" stroke-width="1.5" marker-end="url(#arrowhead)" />

<path d="M 385.824059995298,66.16867305335472 Q 483.038457144207,143.74697194690452 575.9281553006931,225.36678906562156" fill="none" stroke="#000000" stroke-width="1.5" marker-end="url(#arrowhead)" />

<path d="M 600.7970058053974,62.74458640579542 Q 602.4736843598323,143.5315399537285 605.1173671256103,225.36678906562156" fill="none" stroke="#000000" stroke-width="1.5" marker-end="url(#arrowhead)" />

<path d="M 816.5552453745607,61.30242686145357 Q 725.408586155919,143.38305736501206 633.6521674846408,225.36678906562156" fill="none" stroke="#000000" stroke-width="1.5" marker-end="url(#arrowhead)" />

<path d="M 588.6770721333062,275.36678906562156 Q 542.9057637747383,338.0131843991767 500.65987806202315,404.0132950641273" fill="none" stroke="#000000" stroke-width="1.5" marker-end="url(#arrowhead)" />

<path d="M 481.2773785837314,472.0132950641273 Q 493.4453804385938,560.2633157126766 501.20754808384584,646.6782443051634" fill="none" stroke="#000000" stroke-width="1.5" marker-end="url(#arrowhead)" />

<path d="M 1072.138381101746,60 Q 797.7317434805252,355.2960417107788 527.2781924775076,646.6782443051634" fill="none" stroke="#000000" stroke-width="1.5" marker-end="url(#arrowhead)" />

<path d="M 525.5290220463619,646.6782443051634 Q 594.3252535821289,567.7442389418011 664.7910936794653,484.51061305365874" fill="none" stroke="#000000" stroke-width="1.5" marker-end="url(#arrowhead)" />

<path d="M 701.703681889408,484.51061305365874 Q 705.310352963132,562.6565889542253 708.269713527917,642.5256150634668" fill="none" stroke="#000000" stroke-width="1.5" marker-end="url(#arrowhead)" />

<path d="M 694.1439085298568,688.5256150634668 Q 651.983268121661,755.2995302968775 606.7934463673644,821.7389405666036" fill="none" stroke="#000000" stroke-width="1.5" marker-end="url(#arrowhead)" />

<path d="M 593.4403433405571,867.7389405666036 Q 596.3934046315028,926.3128142132628 602.0630582465166,982.4805885497481" fill="none" stroke="#000000" stroke-width="1.5" marker-end="url(#arrowhead)" />

<path d="M 602.775177865112,1022.4805885497481 Q 601.2107320887828,1078.6054274731723 598.5196558732051,1130.0982406042167" fill="none" stroke="#000000" stroke-width="1.5" marker-end="url(#arrowhead)" />

<path d="M 597.1085799386084,1176.0982406042167 Q 597.3468018388849,1232.1240225655101 594.7391035386726,1284.7491800138523" fill="none" stroke="#000000" stroke-width="1.5" marker-end="url(#arrowhead)" />

<path d="M 594.9294095830471,1330.7491800138523 Q 597.9580961211832,1384.2422362256766 598.2956222711157,1442.6491799549694" fill="none" stroke="#000000" stroke-width="1.5" marker-end="url(#arrowhead)" />

<g><path d="M 5.565034920720791,6.910198213429976
    L 193.1562257508922,5.900121200158173
    Q 200.09944322056836,5.7165948909256254 199.5713357422763,12.146538564706862
    L 200.31150214372974,60.44525074629782
    Q 200.47243412526876,66.26892729523351 194.7784458186361,65.59658646368989
    L 6.405913083431369,67.16697793683997
    Q 0.8599390713210596,67.16549048125162 -0.12310211754374904,60.4397477275139
    L 0.25856537609361113,12.143621720316878
    Q 0.7174396001704736,6.759246185312077 6.117578690685332,6.149998986178252 Z" fill="#a5d8ff" stroke="#1864ab" stroke-width="2.2" />
<line x1="-0.4093954083218705" y1="49.161267499975764" x2="5.990466480223404" y2="66.7342317497023" stroke="#1864ab" stroke-width="0.7" opacity="0.25" />
<line x1="-0.11213536174182082" y1="23.284333494937787" x2="14.710929354412656" y2="66.06398324510519" stroke="#1864ab" stroke-width="0.7" opacity="0.25" />
<line x1="2.6646284668604494" y1="6.1675828576226195" x2="23.761960959811404" y2="66.43213265079976" stroke="#1864ab" stroke-width="0.7" opacity="0.25" />
<line x1="11.961301599027138" y1="6.191820591091528" x2="32.52470914085643" y2="66.76464316518104" stroke="#1864ab" stroke-width="0.7" opacity="0.25" />
<line x1="20.77070425899001" y1="6.004490840454309" x2="42.12357718802377" y2="66.23342151395991" stroke="#1864ab" stroke-width="0.7" opacity="0.25" />
<line x1="30.25398248348938" y1="5.979728633472405" x2="50.82869109026797" y2="66.75312726613629" stroke="#1864ab" stroke-width="0.7" opacity="0.25" />
<line x1="38.99271838189452" y1="6.4917867408221355" x2="59.83303914384305" y2="66.754021796698" stroke="#1864ab" stroke-width="0.7" opacity="0.25" />
<line x1="47.90161062763946" y1="6.269441561260464" x2="69.2890769315054" y2="66.6154490334884" stroke="#1864ab" stroke-width="0.7" opacity="0.25" />
<line x1="56.64141381115678" y1="6.310411519800255" x2="78.27114613045342" y2="65.92511839634972" stroke="#1864ab" stroke-width="0.7" opacity="0.25" />
<line x1="66.14382444236253" y1="6.6269778788300755" x2="87.03345049636846" y2="66.31575733223144" stroke="#1864ab" stroke-width="0.7" opacity="0.25" />
<line x1="74.86100000054284" y1="5.855957175772346" x2="96.42757095049274" y2="66.37083086164785" stroke="#1864ab" stroke-width="0.7" opacity="0.25" />
<line x1="83.76502505746248" y1="6.471652296917455" x2="104.67764041924238" y2="66.31540975817552" stroke="#1864ab" stroke-width="0.7" opacity="0.25" />
<line x1="93.11266304392484" y1="6.7872623234579805" x2="114.30403007008863" y2="65.91577022589627" stroke="#1864ab" stroke-width="0.7" opacity="0.25" />
<line x1="101.89223537468206" y1="5.989699769670551" x2="122.6913849806042" y2="66.67195235840336" stroke="#1864ab" stroke-width="0.7" opacity="0.25" />
<line x1="111.32368390892225" y1="6.6599738165041344" x2="132.23738144179515" y2="66.75234781406107" stroke="#1864ab" stroke-width="0.7" opacity="0.25" />
<line x1="119.50861124825315" y1="6.767365982108458" x2="141.42475023194038" y2="66.1472332312187" stroke="#1864ab" stroke-width="0.7" opacity="0.25" />
<line x1="128.80883593678664" y1="5.992471077253867" x2="149.75866580649017" y2="66.50693727678208" stroke="#1864ab" stroke-width="0.7" opacity="0.25" />
<line x1="137.65756755308394" y1="6.216695522820373" x2="158.8782257386265" y2="66.58394739950745" stroke="#1864ab" stroke-width="0.7" opacity="0.25" />
<line x1="147.24716781098596" y1="5.882564589694084" x2="167.54146841977854" y2="66.44394992553862" stroke="#1864ab" stroke-width="0.7" opacity="0.25" />
<line x1="155.78595714628318" y1="6.534155893391016" x2="177.4633683114007" y2="66.1002488407612" stroke="#1864ab" stroke-width="0.7" opacity="0.25" />
<line x1="165.24794031733836" y1="6.686188870437036" x2="186.41911291450742" y2="66.70177502611477" stroke="#1864ab" stroke-width="0.7" opacity="0.25" />
<line x1="174.35281274743102" y1="6.33100817032755" x2="194.7856149220679" y2="66.17406321840826" stroke="#1864ab" stroke-width="0.7" opacity="0.25" />
<line x1="183.34536706857034" y1="6.386842415595311" x2="199.7986720393892" y2="54.960983220336075" stroke="#1864ab" stroke-width="0.7" opacity="0.25" />
<line x1="192.14065051724765" y1="6.205834511456487" x2="200.11465871013206" y2="28.823039323536896" stroke="#1864ab" stroke-width="0.7" opacity="0.25" />
<text x="100" y="36.324059744219994" text-anchor="middle" dominant-baseline="central" font-family="'Virgil', 'Segoe Print', 'Comic Sans MS', 'Patrick Hand', cursive" font-size="18" font-weight="600" fill="#000000"><tspan x="100" dy="0">API Calls</tspan></text></g>
<g><path d="M 256.52450072068314,5.283358484385462
    L 444.3169428715817,6.285188944963738
    Q 449.6898509624385,5.273339310464507 449.3545448600822,12.144106249399192
    L 450.48806303481615,59.45057862718822
    Q 450.03503374488355,66.32568321583149 443.2991351575329,66.2483744303463
    L 256.76824939802754,66.42755704960727
    Q 250.54525264229815,66.22888394681794 249.9850556584206,60.324484439571094
    L 250.0111150334269,12.512739972176314
    Q 250.14564852263575,5.481483990299603 255.74980000097713,5.326088430148957 Z" fill="#a5d8ff" stroke="#1864ab" stroke-width="2.2" />
<line x1="250.14759255269746" y1="48.703456329739964" x2="255.99135001395553" y2="66.19904025222058" stroke="#1864ab" stroke-width="0.7" opacity="0.25" />
<line x1="250.463202579238" y1="23.615560266300495" x2="264.5917104816763" y2="66.13887874289867" stroke="#1864ab" stroke-width="0.7" opacity="0.25" />
<line x1="252.66564002545056" y1="5.860058033958921" x2="274.34789261418337" y2="66.4532650734036" stroke="#1864ab" stroke-width="0.7" opacity="0.25" />
<line x1="262.33591407228414" y1="6.406054495149874" x2="283.4282880698411" y2="66.46556507219066" stroke="#1864ab" stroke-width="0.7" opacity="0.25" />
<line x1="271.44330623788846" y1="6.593423285295103" x2="291.8231734869987" y2="65.82139372749953" stroke="#1864ab" stroke-width="0.7" opacity="0.25" />
<line x1="279.6684113330339" y1="5.927338859844895" x2="301.1828775325621" y2="66.58678740634059" stroke="#1864ab" stroke-width="0.7" opacity="0.25" />
<line x1="288.8926357786004" y1="6.046898791981221" x2="310.25988765528746" y2="65.80312333446454" stroke="#1864ab" stroke-width="0.7" opacity="0.25" />
<line x1="297.5585048454741" y1="5.7101414731332625" x2="319.1198901813186" y2="66.1059454106944" stroke="#1864ab" stroke-width="0.7" opacity="0.25" />
<line x1="307.210096149171" y1="6.632041364755423" x2="327.7761890965412" y2="66.54378669358266" stroke="#1864ab" stroke-width="0.7" opacity="0.25" />
<line x1="316.36212912621704" y1="6.587785967862146" x2="337.3777152818948" y2="65.78622717830513" stroke="#1864ab" stroke-width="0.7" opacity="0.25" />
<line x1="325.00694842610756" y1="5.9542879754226306" x2="345.85000347418827" y2="66.47596267555491" stroke="#1864ab" stroke-width="0.7" opacity="0.25" />
<line x1="334.0627826713753" y1="5.967345092743926" x2="355.0654949046875" y2="66.64721240932658" stroke="#1864ab" stroke-width="0.7" opacity="0.25" />
<line x1="342.8817747672365" y1="6.283331763486785" x2="363.64183672217405" y2="66.37934432996553" stroke="#1864ab" stroke-width="0.7" opacity="0.25" />
<line x1="352.2611015922175" y1="6.556454778983607" x2="373.48804092258433" y2="65.72396263467454" stroke="#1864ab" stroke-width="0.7" opacity="0.25" />
<line x1="361.18009982910735" y1="6.413202207062568" x2="381.85699410638335" y2="66.33130711741615" stroke="#1864ab" stroke-width="0.7" opacity="0.25" />
<line x1="370.15121683025063" y1="6.002582610795798" x2="391.1151982060112" y2="66.45150629481213" stroke="#1864ab" stroke-width="0.7" opacity="0.25" />
<line x1="378.55484050264204" y1="6.147473500976048" x2="399.5926761789233" y2="66.06605384011255" stroke="#1864ab" stroke-width="0.7" opacity="0.25" />
<line x1="387.5495774712035" y1="6.383986311753688" x2="408.6691909128349" y2="66.61697901196021" stroke="#1864ab" stroke-width="0.7" opacity="0.25" />
<line x1="397.04214918381865" y1="5.9308353937158245" x2="417.64476573990396" y2="66.37168188980286" stroke="#1864ab" stroke-width="0.7" opacity="0.25" />
<line x1="405.7288902376604" y1="6.543633176554096" x2="427.0425953067315" y2="66.03167954145465" stroke="#1864ab" stroke-width="0.7" opacity="0.25" />
<line x1="414.58251287796884" y1="6.333996131492313" x2="435.7112718757329" y2="66.56695458581089" stroke="#1864ab" stroke-width="0.7" opacity="0.25" />
<line x1="424.41259809061376" y1="5.694335780448455" x2="444.5317915861815" y2="66.1954725466644" stroke="#1864ab" stroke-width="0.7" opacity="0.25" />
<line x1="432.53544163837796" y1="5.805132602483354" x2="449.69411048454276" y2="54.575672431733565" stroke="#1864ab" stroke-width="0.7" opacity="0.25" />
<line x1="442.0919990942" y1="6.626701691937342" x2="450.0030895549098" y2="29.133559257230182" stroke="#1864ab" stroke-width="0.7" opacity="0.25" />
<text x="350" y="36.16867305335472" text-anchor="middle" dominant-baseline="central" font-family="'Virgil', 'Segoe Print', 'Comic Sans MS', 'Patrick Hand', cursive" font-size="18" font-weight="600" fill="#000000"><tspan x="350" dy="0">Runtime Config</tspan></text></g>
<g><path d="M 505.88709024321145,2.3911418365183637
    L 693.3068148707869,2.8178587352238536
    Q 699.1054807442626,2.3593092691051423 700.3781730685079,9.578649366316677
    L 699.5971403737742,57.4197909582057
    Q 699.6063339218933,62.23094461412156 694.37079687745,62.75404055201216
    L 506.446292571209,63.39641883298609
    Q 500.7544032461134,63.42447391320602 499.3115974249107,56.07044950263662
    L 499.60870501146564,9.449578108549849
    Q 499.61258102756403,3.379649351171247 506.0125071669936,2.35869326551765 Z" fill="#a5d8ff" stroke="#1864ab" stroke-width="2.2" />
<line x1="499.7986720393892" y1="45.66722416762579" x2="506.47853935597186" y2="63.00260777925723" stroke="#1864ab" stroke-width="0.7" opacity="0.25" />
<line x1="500.11465871013206" y1="19.529280270826607" x2="515.2106712766108" y2="63.02506616523897" stroke="#1864ab" stroke-width="0.7" opacity="0.25" />
<line x1="503.3877817256289" y1="3.232627328379749" x2="523.5552895813198" y2="62.97445392263762" stroke="#1864ab" stroke-width="0.7" opacity="0.25" />
<line x1="512.2445291537078" y1="2.6015805121787707" x2="533.1626340640614" y2="62.302584495711926" stroke="#1864ab" stroke-width="0.7" opacity="0.25" />
<line x1="520.8339095574411" y1="2.8597846118066172" x2="542.2828332414574" y2="62.8628352580854" stroke="#1864ab" stroke-width="0.7" opacity="0.25" />
<line x1="529.9788004476213" y1="2.337262584718701" x2="550.8973807867578" y2="62.40312244829693" stroke="#1864ab" stroke-width="0.7" opacity="0.25" />
<line x1="539.215313258399" y1="2.4137773186303093" x2="560.4483059586055" y2="62.359940858739606" stroke="#1864ab" stroke-width="0.7" opacity="0.25" />
<line x1="547.7621623403611" y1="2.3893521456993767" x2="569.2030088364481" y2="63.13747265121492" stroke="#1864ab" stroke-width="0.7" opacity="0.25" />
<line x1="557.3749601231993" y1="2.7871817125269445" x2="577.8630064880999" y2="62.305346250574075" stroke="#1864ab" stroke-width="0.7" opacity="0.25" />
<line x1="566.1653230781376" y1="2.4558582815283216" x2="587.3982815324562" y2="62.634318873595475" stroke="#1864ab" stroke-width="0.7" opacity="0.25" />
<line x1="574.5256627270937" y1="2.276377991976915" x2="596.0267994933097" y2="62.581395017317845" stroke="#1864ab" stroke-width="0.7" opacity="0.25" />
<line x1="583.6364595491286" y1="2.4386968903381785" x2="604.8355708069503" y2="63.04184573003113" stroke="#1864ab" stroke-width="0.7" opacity="0.25" />
<line x1="593.4580286385826" y1="2.7476759607052372" x2="614.1077433467326" y2="62.828338975974475" stroke="#1864ab" stroke-width="0.7" opacity="0.25" />
<line x1="601.9346662267296" y1="3.0225972010593978" x2="623.4931912884167" y2="62.53114437287877" stroke="#1864ab" stroke-width="0.7" opacity="0.25" />
<line x1="610.5081587171226" y1="2.627681069366645" x2="631.9871658046322" y2="62.832171384772664" stroke="#1864ab" stroke-width="0.7" opacity="0.25" />
<line x1="619.9039956376109" y1="2.6137365607210086" x2="640.9615515920959" y2="62.32167755584669" stroke="#1864ab" stroke-width="0.7" opacity="0.25" />
<line x1="629.1169415270379" y1="3.2186206304540974" x2="650.2623667512307" y2="62.93888249490874" stroke="#1864ab" stroke-width="0.7" opacity="0.25" />
<line x1="637.6553990281827" y1="3.0895369375721202" x2="658.7080588611425" y2="62.42613286030246" stroke="#1864ab" stroke-width="0.7" opacity="0.25" />
<line x1="646.6142552995425" y1="2.6460731460974785" x2="667.5348578110898" y2="62.33018227492357" stroke="#1864ab" stroke-width="0.7" opacity="0.25" />
<line x1="655.7792447899337" y1="2.634311703893218" x2="677.2976244330785" y2="62.44988812372321" stroke="#1864ab" stroke-width="0.7" opacity="0.25" />
<line x1="664.5615510588468" y1="2.565921885718126" x2="685.9260866706336" y2="62.59760533948429" stroke="#1864ab" stroke-width="0.7" opacity="0.25" />
<line x1="673.7850591479619" y1="2.4100614601738926" x2="694.8579169225923" y2="62.44372195956112" stroke="#1864ab" stroke-width="0.7" opacity="0.25" />
<line x1="683.1197069514965" y1="2.327130832061812" x2="700.1983434146568" y2="51.21042845978185" stroke="#1864ab" stroke-width="0.7" opacity="0.25" />
<line x1="692.1879072001384" y1="2.3693155884975567" x2="700.335239250955" y2="25.782810247377448" stroke="#1864ab" stroke-width="0.7" opacity="0.25" />
<text x="600" y="32.74458640579542" text-anchor="middle" dominant-baseline="central" font-family="'Virgil', 'Segoe Print', 'Comic Sans MS', 'Patrick Hand', cursive" font-size="18" font-weight="600" fill="#000000"><tspan x="600" dy="0">Trade History</tspan></text></g>
<g><path d="M 756.7071952417551,1.8305482413579228
    L 944.416809314047,2.1501298578870776
    Q 949.7207919888453,0.8144292892422527 950.6749282217588,7.379098413570318
    L 949.7534116785798,54.51179458205515
    Q 950.7536347382571,61.222873665971136 944.7459887459496,61.93407898102669
    L 755.2485231803439,61.60000840210123
    Q 749.4802893763192,62.01933361987467 749.8015184420401,54.803531294006824
    L 749.132680989834,6.63075420149014
    Q 749.1329244708147,2.0451034245583286 755.1461929087687,0.45965171658026516 Z" fill="#a5d8ff" stroke="#1864ab" stroke-width="2.2" />
<line x1="749.6941104845428" y1="43.9951405255467" x2="756.2972593242357" y2="61.66837295785808" stroke="#1864ab" stroke-width="0.7" opacity="0.25" />
<line x1="750.0030895549098" y1="18.553027351043315" x2="765.0837525701791" y2="61.8007973893848" stroke="#1864ab" stroke-width="0.7" opacity="0.25" />
<line x1="753.278010795264" y1="1.795618149870279" x2="773.7865579670834" y2="61.585671909182565" stroke="#1864ab" stroke-width="0.7" opacity="0.25" />
<line x1="761.8830946635712" y1="1.2895926660858095" x2="783.0875849789772" y2="61.05308607018378" stroke="#1864ab" stroke-width="0.7" opacity="0.25" />
<line x1="770.8691501549256" y1="1.2639784535494982" x2="791.5770911500513" y2="61.069635962667235" stroke="#1864ab" stroke-width="0.7" opacity="0.25" />
<line x1="780.4740342246587" y1="1.5647936126842978" x2="801.1942960891133" y2="61.34163148756488" stroke="#1864ab" stroke-width="0.7" opacity="0.25" />
<line x1="789.3449505317767" y1="1.0104857225960586" x2="809.681546454507" y2="60.90800446916455" stroke="#1864ab" stroke-width="0.7" opacity="0.25" />
<line x1="797.9014867403021" y1="0.8372846725433192" x2="818.5855958691282" y2="61.42303958091361" stroke="#1864ab" stroke-width="0.7" opacity="0.25" />
<line x1="806.8897252980978" y1="1.6000512945320224" x2="827.7053017179278" y2="61.38849591764301" stroke="#1864ab" stroke-width="0.7" opacity="0.25" />
<line x1="815.8213354799227" y1="1.2285135320871632" x2="836.8530189336889" y2="61.17722393025542" stroke="#1864ab" stroke-width="0.7" opacity="0.25" />
<line x1="824.6654750543785" y1="1.1603437840458355" x2="845.6991355537657" y2="60.879481122821744" stroke="#1864ab" stroke-width="0.7" opacity="0.25" />
<line x1="833.5825444262664" y1="1.5007702761104156" x2="854.8944134825579" y2="61.4871113697418" stroke="#1864ab" stroke-width="0.7" opacity="0.25" />
<line x1="842.6247291827021" y1="1.637666112408624" x2="864.1810809844392" y2="61.23848926541541" stroke="#1864ab" stroke-width="0.7" opacity="0.25" />
<line x1="852.178919946602" y1="1.239306053292239" x2="873.0250702265112" y2="60.937136159740476" stroke="#1864ab" stroke-width="0.7" opacity="0.25" />
<line x1="860.8558084380202" y1="0.8202463272928071" x2="882.0461574691726" y2="60.93651949047489" stroke="#1864ab" stroke-width="0.7" opacity="0.25" />
<line x1="870.005709082332" y1="1.5820234252460068" x2="891.2287238389999" y2="61.24481689483946" stroke="#1864ab" stroke-width="0.7" opacity="0.25" />
<line x1="878.8928242441325" y1="1.584688877206645" x2="899.681380157861" y2="61.638154804792066" stroke="#1864ab" stroke-width="0.7" opacity="0.25" />
<line x1="888.0104050597874" y1="0.8659038170153508" x2="909.0136063863356" y2="61.359194753131305" stroke="#1864ab" stroke-width="0.7" opacity="0.25" />
<line x1="896.7084325316473" y1="1.4948640220318339" x2="918.3767153977533" y2="61.48072872847479" stroke="#1864ab" stroke-width="0.7" opacity="0.25" />
<line x1="905.5637841554926" y1="0.808356705728329" x2="926.6244886128043" y2="61.65231839975604" stroke="#1864ab" stroke-width="0.7" opacity="0.25" />
<line x1="915.4342419872555" y1="1.0747855365116266" x2="935.8231997703015" y2="61.61993737184093" stroke="#1864ab" stroke-width="0.7" opacity="0.25" />
<line x1="923.6028354556038" y1="1.0829804419081484" x2="945.0212104326056" y2="60.93869728703976" stroke="#1864ab" stroke-width="0.7" opacity="0.25" />
<line x1="933.2542612653706" y1="1.4572138567091315" x2="949.7692504511651" y2="50.187734727821535" stroke="#1864ab" stroke-width="0.7" opacity="0.25" />
<line x1="941.641857957773" y1="1.6622096021092148" x2="950.4871369490429" y2="24.581734359022185" stroke="#1864ab" stroke-width="0.7" opacity="0.25" />
<text x="850" y="31.30242686145357" text-anchor="middle" dominant-baseline="central" font-family="'Virgil', 'Segoe Print', 'Comic Sans MS', 'Patrick Hand', cursive" font-size="18" font-weight="600" fill="#000000"><tspan x="850" dy="0">Competition Memory</tspan></text></g>
<g><path d="M 1006.2171028950281,0.39534203643052024
    L 1193.180589470161,0.23156531805652777
    Q 1199.7583402408993,-0.39735937811929034 1199.801505536576,6.535723979541217
    L 1199.46954309227,54.154924301141
    Q 1199.2326147950748,60.109246191598686 1193.226301990803,59.92977184060874
    L 1005.2107919059242,59.67840386386088
    Q 999.8669560071405,59.73543408063997 999.7746347238433,54.339841797937694
    L 1000.0630513852113,6.2753328762857565
    Q 1000.776946442842,-0.38689353366862633 1005.3978550978812,-0.25574953933391953 Z" fill="#a5d8ff" stroke="#1864ab" stroke-width="2.2" />
<line x1="1000.1983434146568" y1="42.75155633970073" x2="1006.1846845082882" y2="60.47929104208015" stroke="#1864ab" stroke-width="0.7" opacity="0.25" />
<line x1="1000.335239250955" y1="17.32393812729632" x2="1014.9360624039618" y2="60.35856402787795" stroke="#1864ab" stroke-width="0.7" opacity="0.25" />
<line x1="1002.9368791918387" y1="0.02507022651116131" x2="1023.6347092982869" y2="59.987913483855664" stroke="#1864ab" stroke-width="0.7" opacity="0.25" />
<line x1="1011.5178194658392" y1="0.046157469172612764" x2="1032.6340926290213" y2="59.58034526931078" stroke="#1864ab" stroke-width="0.7" opacity="0.25" />
<line x1="1021.2795965637924" y1="0.2287238389999402" x2="1041.942390033386" y2="60.14449152555608" stroke="#1864ab" stroke-width="0.7" opacity="0.25" />
<line x1="1030.282262015753" y1="-0.3186198421390145" x2="1051.3357279433385" y2="59.615229066206666" stroke="#1864ab" stroke-width="0.7" opacity="0.25" />
<line x1="1038.5634769555618" y1="0.013606386335595744" x2="1060.0567678916777" y2="59.86290194929279" stroke="#1864ab" stroke-width="0.7" opacity="0.25" />
<line x1="1048.1924371605783" y1="0.3767153977532871" x2="1069.1783018670212" y2="60.401557208868326" stroke="#1864ab" stroke-width="0.7" opacity="0.25" />
<line x1="1056.5059298442748" y1="-0.3755113871957292" x2="1078.3498915383025" y2="59.75481872511227" stroke="#1864ab" stroke-width="0.7" opacity="0.25" />
<line x1="1065.772358675058" y1="-0.1768002296985287" x2="1087.3175105103874" y2="59.500222618182306" stroke="#1864ab" stroke-width="0.7" opacity="0.25" />
<line x1="1074.7805535804546" y1="0.021210432605585083" x2="1095.6362704255862" y2="60.282624794897856" stroke="#1864ab" stroke-width="0.7" opacity="0.25" />
<line x1="1084.1547869952556" y1="-0.23074954883486498" x2="1105.3138792949394" y2="59.92120137554048" stroke="#1864ab" stroke-width="0.7" opacity="0.25" />
<line x1="1093.3597827406556" y1="0.48713694904290605" x2="1114.4221646404258" y2="59.65371527004754" stroke="#1864ab" stroke-width="0.7" opacity="0.25" />
<line x1="1102.19395241038" y1="0.16466409539134474" x2="1122.5831480207125" y2="59.7612115090451" stroke="#1864ab" stroke-width="0.7" opacity="0.25" />
<line x1="1110.616232082124" y1="0.3338902683572087" x2="1131.6571909539562" y2="60.42622240619676" stroke="#1864ab" stroke-width="0.7" opacity="0.25" />
<line x1="1119.6455782193225" y1="-0.35493015774409287" x2="1141.0854901469065" y2="59.82548129818315" stroke="#1864ab" stroke-width="0.7" opacity="0.25" />
<line x1="1129.0693839164596" y1="0.4947855114151025" x2="1149.6165135098781" y2="60.47253250866015" stroke="#1864ab" stroke-width="0.7" opacity="0.25" />
<line x1="1138.4314291137998" y1="-0.06965809635585174" x2="1158.5805199997267" y2="59.528069856372895" stroke="#1864ab" stroke-width="0.7" opacity="0.25" />
<line x1="1147.2035274365899" y1="-0.37319267670682166" x2="1168.1012155225544" y2="59.8805083738298" stroke="#1864ab" stroke-width="0.7" opacity="0.25" />
<line x1="1155.8468685554762" y1="0.12410309689039423" x2="1177.1893185017325" y2="59.59796217778057" stroke="#1864ab" stroke-width="0.7" opacity="0.25" />
<line x1="1165.4416919426512" y1="-0.40531449025002075" x2="1186.3263264990073" y2="60.13158973718237" stroke="#1864ab" stroke-width="0.7" opacity="0.25" />
<line x1="1174.2613563417472" y1="0.20400819515270996" x2="1195.4096121400653" y2="59.786607186324545" stroke="#1864ab" stroke-width="0.7" opacity="0.25" />
<line x1="1183.339929532609" y1="-0.11893205736123491" x2="1199.8306144363196" y2="48.86471031823852" stroke="#1864ab" stroke-width="0.7" opacity="0.25" />
<line x1="1192.4656042459374" y1="-0.10805595263082068" x2="1200.1202045217797" y2="23.201256652775292" stroke="#1864ab" stroke-width="0.7" opacity="0.25" />
<text x="1100" y="30" text-anchor="middle" dominant-baseline="central" font-family="'Virgil', 'Segoe Print', 'Comic Sans MS', 'Patrick Hand', cursive" font-size="18" font-weight="600" fill="#000000"><tspan x="1100" dy="0">Tool Catalog</tspan></text></g>
<g><path d="M 522.5043416060711,225.06851073999897
    L 690.2287845640589,225.20077145141985
    Q 695.2569615918692,224.58160054550825 694.8922123498027,230.69086856866926
    L 696.4113433990526,268.92546277082363
    Q 695.262660887414,275.8598231182983 690.118701794777,275.09347359981183
    L 522.563174207168,274.95703468072605
    Q 515.4632982166507,275.93830798431884 514.8819393428363,268.8655595630189
    L 515.7517950518901,231.73712639621954
    Q 515.5289008395455,224.65189288570838 521.3865350749263,225.4049678443116 Z" fill="#e5dbff" stroke="#7048e8" stroke-width="1.5" />
<line x1="516.0954179250475" y1="265.28799044116204" x2="518.8126621919146" y2="275.76732755707053" stroke="#7048e8" stroke-width="0.7" opacity="0.25" />
<line x1="516.2037032705339" y1="239.30621862138338" x2="527.9356237585271" y2="275.44125742178585" stroke="#7048e8" stroke-width="0.7" opacity="0.25" />
<line x1="519.3646866508207" y1="225.12800057466666" x2="537.3254169282081" y2="275.1778376921775" stroke="#7048e8" stroke-width="0.7" opacity="0.25" />
<line x1="528.4387295840643" y1="225.79301147181832" x2="546.0899270007285" y2="275.85412712000107" stroke="#7048e8" stroke-width="0.7" opacity="0.25" />
<line x1="537.8670287770146" y1="225.1922703638047" x2="555.2814414589957" y2="274.95256218509167" stroke="#7048e8" stroke-width="0.7" opacity="0.25" />
<line x1="546.3980521399862" y1="225.8393215742817" x2="563.9390248386044" y2="275.65466263183043" stroke="#7048e8" stroke-width="0.7" opacity="0.25" />
<line x1="555.3620586298348" y1="224.89485892199446" x2="572.8002968104811" y2="275.5077796810874" stroke="#7048e8" stroke-width="0.7" opacity="0.25" />
<line x1="564.8827541526625" y1="225.24729743945136" x2="582.658975144448" y2="275.61465593769935" stroke="#7048e8" stroke-width="0.7" opacity="0.25" />
<line x1="573.9708571318406" y1="224.96475124340213" x2="591.6539402140188" y2="275.5292911868455" stroke="#7048e8" stroke-width="0.7" opacity="0.25" />
<line x1="583.1078651291155" y1="225.49837880280393" x2="600.7179328271668" y2="275.40056530041693" stroke="#7048e8" stroke-width="0.7" opacity="0.25" />
<line x1="592.1911507701734" y1="225.1533962519461" x2="609.7479501860071" y2="274.9989669105198" stroke="#7048e8" stroke-width="0.7" opacity="0.25" />
<line x1="600.6121530664277" y1="225.6600708124315" x2="618.7629396111988" y2="275.57352618998993" stroke="#7048e8" stroke-width="0.7" opacity="0.25" />
<line x1="609.9017431518878" y1="225.710902861254" x2="627.5286748468716" y2="275.7540005186056" stroke="#7048e8" stroke-width="0.7" opacity="0.25" />
<line x1="618.8002605123111" y1="225.33025829340477" x2="636.0487174629816" y2="275.63921499880234" stroke="#7048e8" stroke-width="0.7" opacity="0.25" />
<line x1="628.0662321708242" y1="225.0736958923444" x2="645.6772532824398" y2="275.4893391895639" stroke="#7048e8" stroke-width="0.7" opacity="0.25" />
<line x1="637.209973308476" y1="225.82060076536982" x2="654.2245215322691" y2="275.76873284066824" stroke="#7048e8" stroke-width="0.7" opacity="0.25" />
<line x1="646.0779487911805" y1="225.08713289803563" x2="663.7752921752563" y2="275.0800642700269" stroke="#7048e8" stroke-width="0.7" opacity="0.25" />
<line x1="654.9514650936108" y1="224.87713873629036" x2="672.2194891372419" y2="275.7945716178092" stroke="#7048e8" stroke-width="0.7" opacity="0.25" />
<line x1="663.6914721939029" y1="225.66014378911495" x2="680.9934144301424" y2="275.44765594339697" stroke="#7048e8" stroke-width="0.7" opacity="0.25" />
<line x1="672.7255478872576" y1="225.23175268973864" x2="690.1756297617758" y2="275.2447485788816" stroke="#7048e8" stroke-width="0.7" opacity="0.25" />
<line x1="681.7517179100541" y1="225.04014325233402" x2="696.1164173854995" y2="265.3532335890777" stroke="#7048e8" stroke-width="0.7" opacity="0.25" />
<line x1="690.896431800089" y1="224.88121585501358" x2="696.2091770924326" y2="239.98656167964924" stroke="#7048e8" stroke-width="0.7" opacity="0.25" />
<text x="605.7815386301081" y="250.36678906562156" text-anchor="middle" dominant-baseline="central" font-family="'Virgil', 'Segoe Print', 'Comic Sans MS', 'Patrick Hand', cursive" font-size="15" font-weight="normal" fill="#000000"><tspan x="605.7815386301081" dy="0">Context Builder</tspan></text></g>
<g><path d="M 409.07718935218435,404.45945543386733
    L 546.8723089375169,403.90914159518286
    Q 551.5358437275288,403.73765846398453 552.6211892007752,410.35406836724576
    L 551.6741355463776,466.68361791516656
    Q 552.6903074445756,471.44362332198364 546.4208642800834,472.51102217117585
    L 409.1928491231447,471.28372898167726
    Q 402.9851913245857,472.25015659105554 403.1833131810781,466.07409228675897
    L 402.1842272381502,409.74206693310845
    Q 403.07437673063106,404.4837364792722 408.7650183776474,404.75059691624483 Z" fill="#d0ebff" stroke="#1971c2" stroke-width="1.5" />
<line x1="402.69108537318243" y1="444.494696045218" x2="412.40454075074086" y2="472.2141274095484" stroke="#1971c2" stroke-width="0.7" opacity="0.25" />
<line x1="402.7419174220049" y1="418.54614556660505" x2="421.58501507935654" y2="472.3789765055917" stroke="#1971c2" stroke-width="0.7" opacity="0.25" />
<line x1="406.3612728541557" y1="403.7804738970008" x2="430.4702295595533" y2="472.4938864488431" stroke="#1971c2" stroke-width="0.7" opacity="0.25" />
<line x1="415.1047104530953" y1="404.40900971645897" x2="439.32035375031484" y2="472.38350476192136" stroke="#1971c2" stroke-width="0.7" opacity="0.25" />
<line x1="424.85161532612074" y1="403.9562779662883" x2="448.59974740141917" y2="472.44632990652826" stroke="#1971c2" stroke-width="0.7" opacity="0.25" />
<line x1="433.11814745878655" y1="404.50704860927544" x2="456.91107883077785" y2="471.9806059630282" stroke="#1971c2" stroke-width="0.7" opacity="0.25" />
<line x1="441.9081532970413" y1="403.9512455712611" x2="466.6255861785601" y2="472.0172458211018" stroke="#1971c2" stroke-width="0.7" opacity="0.25" />
<line x1="451.6911583498659" y1="403.72517086416156" x2="475.2786705041479" y2="472.2924014913515" stroke="#1971c2" stroke-width="0.7" opacity="0.25" />
<line x1="460.26276725048956" y1="403.90738619579497" x2="484.07576313963256" y2="472.1621919682948" stroke="#1971c2" stroke-width="0.7" opacity="0.25" />
<line x1="469.07115781308494" y1="404.3481738195187" x2="493.18424814982865" y2="471.99880667404796" stroke="#1971c2" stroke-width="0.7" opacity="0.25" />
<line x1="477.9122304157645" y1="404.4409335264518" x2="502.5318619546859" y2="471.59786338320555" stroke="#1971c2" stroke-width="0.7" opacity="0.25" />
<line x1="487.0363624400834" y1="404.146506699406" x2="511.3816645712621" y2="471.8903308904264" stroke="#1971c2" stroke-width="0.7" opacity="0.25" />
<line x1="496.68715435475315" y1="404.2920278986876" x2="520.0238622203949" y2="471.9323778138023" stroke="#1971c2" stroke-width="0.7" opacity="0.25" />
<line x1="505.27951164293336" y1="404.37920262599073" x2="529.2565072697842" y2="471.60559576080414" stroke="#1971c2" stroke-width="0.7" opacity="0.25" />
<line x1="514.3402861742907" y1="404.42794362107816" x2="538.0861971996608" y2="472.0151083706605" stroke="#1971c2" stroke-width="0.7" opacity="0.25" />
<line x1="523.3954546335808" y1="403.8729936781492" x2="547.5495271429434" y2="471.8566605587621" stroke="#1971c2" stroke-width="0.7" opacity="0.25" />
<line x1="532.4992516029597" y1="403.5653920193945" x2="552.2754942065076" y2="460.8338694674188" stroke="#1971c2" stroke-width="0.7" opacity="0.25" />
<line x1="540.9650819958333" y1="404.1613257351237" x2="552.434795063491" y2="435.4609660308951" stroke="#1971c2" stroke-width="0.7" opacity="0.25" />
<text x="477.3978036263725" y="428.2132950641273" text-anchor="middle" dominant-baseline="central" font-family="'Virgil', 'Segoe Print', 'Comic Sans MS', 'Patrick Hand', cursive" font-size="14" font-weight="normal" fill="#000000"><tspan x="477.3978036263725" dy="0">JSON Context</tspan><tspan x="477.3978036263725" dy="19.599999999999998">~15 keys</tspan></text></g>
<g><path d="M 606.1455603799957,403.01300462266227
    L 793.6418348729596,402.0009223991772
    Q 800.583578647202,401.611967653528 799.899216662869,408.2675475770695
    L 799.8093640370018,478.29094017752686
    Q 800.2680144275015,484.6381892418809 794.1626021579738,484.28034362041655
    L 605.4321046808825,484.4569357575616
    Q 599.4120375360824,485.11339481336324 599.9756001422211,478.4845339515159
    L 600.255665417244,408.1977407981136
    Q 599.7436696583216,401.66208112480524 606.2068077059655,401.6365812745644 Z" fill="#a5d8ff" stroke="#1864ab" stroke-width="2.2" />
<line x1="600.0604727476821" y1="456.3643847554672" x2="609.7883420013488" y2="484.18293870532216" stroke="#1864ab" stroke-width="0.7" opacity="0.25" />
<line x1="599.9323719740969" y1="430.9866270825888" x2="619.0194718586602" y2="484.27858062558516" stroke="#1864ab" stroke-width="0.7" opacity="0.25" />
<line x1="600.3539584393438" y1="405.0929699089572" x2="627.3749455730824" y2="484.6139456823694" stroke="#1864ab" stroke-width="0.7" opacity="0.25" />
<line x1="607.6532836461338" y1="402.0633596853513" x2="637.0665948170783" y2="484.8829289748828" stroke="#1864ab" stroke-width="0.7" opacity="0.25" />
<line x1="617.2350886396307" y1="402.42699634569" x2="646.0123472466032" y2="484.3437591363472" stroke="#1864ab" stroke-width="0.7" opacity="0.25" />
<line x1="626.3413439925353" y1="402.28093213814645" x2="654.4829376504742" y2="484.15673663528287" stroke="#1864ab" stroke-width="0.7" opacity="0.25" />
<line x1="635.4710769985522" y1="402.8324660087892" x2="663.8934444123508" y2="484.7788500340321" stroke="#1864ab" stroke-width="0.7" opacity="0.25" />
<line x1="643.9977955701615" y1="402.5547833706896" x2="673.0711727434057" y2="484.99247144539186" stroke="#1864ab" stroke-width="0.7" opacity="0.25" />
<line x1="653.4348544723325" y1="402.681784292683" x2="681.5742781410947" y2="484.99829157828935" stroke="#1864ab" stroke-width="0.7" opacity="0.25" />
<line x1="661.7623810229888" y1="402.34543851979834" x2="690.4248694740702" y2="484.4956019643505" stroke="#1864ab" stroke-width="0.7" opacity="0.25" />
<line x1="671.0906141786036" y1="402.91979279317457" x2="699.261372240125" y2="484.1568689922642" stroke="#1864ab" stroke-width="0.7" opacity="0.25" />
<line x1="679.6461046338009" y1="402.82512034451065" x2="708.9692450252908" y2="484.10915684176143" stroke="#1864ab" stroke-width="0.7" opacity="0.25" />
<line x1="689.434482290184" y1="402.7410092814698" x2="718.178407169183" y2="484.87546662515524" stroke="#1864ab" stroke-width="0.7" opacity="0.25" />
<line x1="698.0485247024335" y1="402.6586841129392" x2="727.1511816456507" y2="484.09541165381233" stroke="#1864ab" stroke-width="0.7" opacity="0.25" />
<line x1="707.1265497326458" y1="402.8161332778909" x2="735.236893693301" y2="484.79529520081996" stroke="#1864ab" stroke-width="0.7" opacity="0.25" />
<line x1="716.4825378301321" y1="402.3557447258354" x2="745.0088478739883" y2="484.12345266492775" stroke="#1864ab" stroke-width="0.7" opacity="0.25" />
<line x1="724.8683359999795" y1="402.51840849078144" x2="753.9508179123216" y2="484.58571231316455" stroke="#1864ab" stroke-width="0.7" opacity="0.25" />
<line x1="734.2092899080744" y1="402.1179399819375" x2="762.2803639994265" y2="484.8323024907186" stroke="#1864ab" stroke-width="0.7" opacity="0.25" />
<line x1="743.4334043775307" y1="402.87523436285846" x2="771.5171195774294" y2="484.707514968577" stroke="#1864ab" stroke-width="0.7" opacity="0.25" />
<line x1="752.1225234833182" y1="402.69695527324075" x2="780.492541160663" y2="484.0322660095726" stroke="#1864ab" stroke-width="0.7" opacity="0.25" />
<line x1="761.1786256294072" y1="402.9946477555495" x2="789.8171937053369" y2="484.99253303078876" stroke="#1864ab" stroke-width="0.7" opacity="0.25" />
<line x1="769.8164643376131" y1="402.47864235985617" x2="798.9564125990285" y2="484.7193606337969" stroke="#1864ab" stroke-width="0.7" opacity="0.25" />
<line x1="779.1427014491564" y1="402.78075588571664" x2="799.7266529757326" y2="462.97180388614277" stroke="#1864ab" stroke-width="0.7" opacity="0.25" />
<line x1="787.6405856529091" y1="402.8578571049875" x2="800.1450556981817" y2="437.25501817474697" stroke="#1864ab" stroke-width="0.7" opacity="0.25" />
<text x="700" y="430.9106130536587" text-anchor="middle" dominant-baseline="central" font-family="'Virgil', 'Segoe Print', 'Comic Sans MS', 'Patrick Hand', cursive" font-size="18" font-weight="600" fill="#000000"><tspan x="700" dy="0">Complete Prompt</tspan><tspan x="700" dy="25.2">2-50KB</tspan></text></g>
<g><path d="M 420.8771311882301,647.2299380172866
    L 588.8429147791612,646.986352535407
    Q 593.8338773829331,647.5560656494985 593.363622753229,652.96079621635
    L 594.462884391415,691.5456965069665
    Q 593.7081577736972,696.2505301465433 587.7628625680139,696.1830093584897
    L 420.03315676820785,696.0834417744452
    Q 413.2762455425669,695.9433575332426 414.03248387449565,690.1779269293445
    L 414.22328225044913,653.4147678362918
    Q 413.27064676118755,646.0415049946532 420.78006141795777,646.5248703838282 Z" fill="#e5dbff" stroke="#7048e8" stroke-width="1.5" />
<line x1="414.281371172161" y1="686.5170272133328" x2="417.08158700285276" y2="697.1127265953473" stroke="#7048e8" stroke-width="0.7" opacity="0.25" />
<line x1="414.29746426208476" y1="660.550329901064" x2="426.6772497309066" y2="696.7267690075969" stroke="#7048e8" stroke-width="0.7" opacity="0.25" />
<line x1="418.5528455941967" y1="646.3854141126576" x2="435.56791943277494" y2="696.8047940378092" stroke="#7048e8" stroke-width="0.7" opacity="0.25" />
<line x1="427.47231788873614" y1="646.4400046134178" x2="444.1364175218787" y2="697.1607821352954" stroke="#7048e8" stroke-width="0.7" opacity="0.25" />
<line x1="436.34671810039436" y1="646.2076786437756" x2="453.898023294576" y2="696.5465803051429" stroke="#7048e8" stroke-width="0.7" opacity="0.25" />
<line x1="444.6468064825094" y1="646.223772088877" x2="462.43563231491135" y2="696.8875342132378" stroke="#7048e8" stroke-width="0.7" opacity="0.25" />
<line x1="454.283299123088" y1="647.1698912477514" x2="471.7104340113583" y2="697.1116486826941" stroke="#7048e8" stroke-width="0.7" opacity="0.25" />
<line x1="463.1399694620486" y1="646.9471980662811" x2="480.91461352258193" y2="696.8007677884816" stroke="#7048e8" stroke-width="0.7" opacity="0.25" />
<line x1="472.17957543995" y1="646.6980071785438" x2="489.36823971171816" y2="696.8568699345706" stroke="#7048e8" stroke-width="0.7" opacity="0.25" />
<line x1="481.36765934527284" y1="646.7842804803804" x2="498.26395150682947" y2="696.4947086427765" stroke="#7048e8" stroke-width="0.7" opacity="0.25" />
<line x1="490.3342457966719" y1="646.4998350106653" x2="507.5008042145055" y2="696.8209457543198" stroke="#7048e8" stroke-width="0.7" opacity="0.25" />
<line x1="498.9037280433713" y1="646.7075186882284" x2="516.4527417796053" y2="696.3188299580725" stroke="#7048e8" stroke-width="0.7" opacity="0.25" />
<line x1="508.0702584402534" y1="646.4452898750133" x2="525.3690743277693" y2="697.1772508205686" stroke="#7048e8" stroke-width="0.7" opacity="0.25" />
<line x1="517.3336726061534" y1="646.3156723719294" x2="534.8655951302026" y2="696.2867057484618" stroke="#7048e8" stroke-width="0.7" opacity="0.25" />
<line x1="525.9440926425159" y1="646.5113118592853" x2="544.0333384573314" y2="697.161019752697" stroke="#7048e8" stroke-width="0.7" opacity="0.25" />
<line x1="534.6002383659943" y1="646.7100694186411" x2="553.025462224563" y2="696.1854324575979" stroke="#7048e8" stroke-width="0.7" opacity="0.25" />
<line x1="544.4354841776867" y1="646.8897140452536" x2="561.2786128060688" y2="696.8303905012654" stroke="#7048e8" stroke-width="0.7" opacity="0.25" />
<line x1="553.2768016060363" y1="646.6731279266369" x2="570.4402658655163" y2="696.642970739882" stroke="#7048e8" stroke-width="0.7" opacity="0.25" />
<line x1="562.0649820899962" y1="646.9081261164902" x2="579.4511151189331" y2="696.2294866974116" stroke="#7048e8" stroke-width="0.7" opacity="0.25" />
<line x1="571.2559670617629" y1="646.9391856619914" x2="588.6389733684555" y2="696.7175209476504" stroke="#7048e8" stroke-width="0.7" opacity="0.25" />
<line x1="579.6103503228951" y1="646.6374103019261" x2="593.5866254013272" y2="686.4509170023448" stroke="#7048e8" stroke-width="0.7" opacity="0.25" />
<line x1="589.3783263363553" y1="647.0264176429409" x2="594.1503919440947" y2="660.7838571606559" stroke="#7048e8" stroke-width="0.7" opacity="0.25" />
<text x="504.0601767289627" y="671.6782443051634" text-anchor="middle" dominant-baseline="central" font-family="'Virgil', 'Segoe Print', 'Comic Sans MS', 'Patrick Hand', cursive" font-size="15" font-weight="normal" fill="#000000"><tspan x="504.0601767289627" dy="0">Prompt Template</tspan></text></g>
<g><path d="M 640.8634237431727,642.7461573334397
    L 778.5608535099057,642.1521891526602
    Q 783.364412835303,642.2625949471185 784.8945513980299,648.740532743244
    L 784.2610106867428,682.1801284324267
    Q 784.546963647591,689.3968775268702 778.4363861842644,689.3930710223009
    L 639.7662531728579,687.7112415594835
    Q 634.7789062240164,688.7164801788574 633.6922321148184,682.1952508711704
    L 634.1678902658134,648.987157741718
    Q 634.6011831589068,643.284853426239 639.3449747470793,643.0189393853434 Z" fill="#d0ebff" stroke="#1971c2" stroke-width="1.5" />
<line x1="634.3704932128398" y1="671.5557344702694" x2="640.445251228347" y2="688.3300597519483" stroke="#1971c2" stroke-width="0.7" opacity="0.25" />
<line x1="634.5533687571801" y1="645.7998918140909" x2="649.493963381182" y2="688.7792499336247" stroke="#1971c2" stroke-width="0.7" opacity="0.25" />
<line x1="641.9323567641982" y1="642.6207335816434" x2="658.3877211168266" y2="688.3863446246905" stroke="#1971c2" stroke-width="0.7" opacity="0.25" />
<line x1="651.4585898552464" y1="642.634397119502" x2="666.9844250797333" y2="688.5820028014932" stroke="#1971c2" stroke-width="0.7" opacity="0.25" />
<line x1="660.4739978899884" y1="642.844135555355" x2="676.7724217751685" y2="688.5551606897861" stroke="#1971c2" stroke-width="0.7" opacity="0.25" />
<line x1="669.0764133425396" y1="642.6048153111842" x2="685.1801234999667" y2="688.2652086522539" stroke="#1971c2" stroke-width="0.7" opacity="0.25" />
<line x1="678.3560530326718" y1="642.615752074239" x2="694.2354284504191" y2="688.3463347335528" stroke="#1971c2" stroke-width="0.7" opacity="0.25" />
<line x1="686.8425797035229" y1="642.2263186856289" x2="703.3903526070595" y2="688.2611314110472" stroke="#1971c2" stroke-width="0.7" opacity="0.25" />
<line x1="696.4452056383229" y1="642.8842492711156" x2="712.7558975333606" y2="688.3251283047948" stroke="#1971c2" stroke-width="0.7" opacity="0.25" />
<line x1="705.1488127541011" y1="642.7955981485757" x2="721.4069222388144" y2="688.8362850912526" stroke="#1971c2" stroke-width="0.7" opacity="0.25" />
<line x1="714.2213834962708" y1="642.1615484782305" x2="730.2882396291071" y2="688.2926758906433" stroke="#1971c2" stroke-width="0.7" opacity="0.25" />
<line x1="722.9570715130972" y1="642.2814292685325" x2="739.699619409411" y2="688.8443185162396" stroke="#1971c2" stroke-width="0.7" opacity="0.25" />
<line x1="731.7909625452226" y1="642.5400514350549" x2="747.9964807237671" y2="688.6699895942584" stroke="#1971c2" stroke-width="0.7" opacity="0.25" />
<line x1="741.7100621713466" y1="642.5810695476648" x2="757.5030706429544" y2="688.2429893742403" stroke="#1971c2" stroke-width="0.7" opacity="0.25" />
<line x1="750.4767429346389" y1="642.4077241926025" x2="765.9742674600576" y2="688.7552498107761" stroke="#1971c2" stroke-width="0.7" opacity="0.25" />
<line x1="758.7458357392325" y1="642.3982929119811" x2="774.8711002018218" y2="688.8904410413707" stroke="#1971c2" stroke-width="0.7" opacity="0.25" />
<line x1="768.4833368624818" y1="642.778108620222" x2="784.6641998958289" y2="688.6951846405967" stroke="#1971c2" stroke-width="0.7" opacity="0.25" />
<line x1="777.2644716738937" y1="642.4738885489642" x2="784.1638841600436" y2="662.4680903689805" stroke="#1971c2" stroke-width="0.7" opacity="0.25" />
<text x="709.2254375146581" y="665.5256150634668" text-anchor="middle" dominant-baseline="central" font-family="'Virgil', 'Segoe Print', 'Comic Sans MS', 'Patrick Hand', cursive" font-size="14" font-weight="normal" fill="#000000"><tspan x="709.2254375146581" dy="0">LLM</tspan></text></g>
<g><path d="M 515.15415368861,821.3637783227881
    L 666.7727733225198,821.2002070864953
    Q 673.5787645488856,821.2628699922483 673.8143399816036,828.2086350088939
    L 673.6037513336502,861.8096385230803
    Q 673.8767076558113,868.1345231892003 668.1074589563308,868.5137686002679
    L 515.6010412169535,866.9292530356819
    Q 509.8884161767361,866.8865481768596 509.55272823748965,862.487178122501
    L 509.8239928135605,828.2249101197995
    Q 510.1085898860445,822.298146616618 516.5345866758697,822.3656525746031 Z" fill="#d0ebff" stroke="#1971c2" stroke-width="1.5" />
<line x1="509.7177315876288" y1="850.684551032785" x2="516.3806208353359" y2="868.1355477466277" stroke="#1971c2" stroke-width="0.7" opacity="0.25" />
<line x1="509.9763537541512" y1="824.2671266328555" x2="525.2062919133547" y2="868.0970021725916" stroke="#1971c2" stroke-width="0.7" opacity="0.25" />
<line x1="518.0173718667611" y1="821.9165736948999" x2="533.7792916933366" y2="867.6918908740918" stroke="#1971c2" stroke-width="0.7" opacity="0.25" />
<line x1="526.8440265116988" y1="821.387770512003" x2="543.2915521298725" y2="867.6094812161675" stroke="#1971c2" stroke-width="0.7" opacity="0.25" />
<line x1="535.8345952310774" y1="821.2846032537673" x2="552.426743360467" y2="867.917612084042" stroke="#1971c2" stroke-width="0.7" opacity="0.25" />
<line x1="545.2144109393183" y1="822.1777029477744" x2="561.5172012454074" y2="867.9616748140579" stroke="#1971c2" stroke-width="0.7" opacity="0.25" />
<line x1="553.9101908680605" y1="821.6773872119891" x2="570.0043926880768" y2="867.3300211567948" stroke="#1971c2" stroke-width="0.7" opacity="0.25" />
<line x1="562.8937498458617" y1="821.4607689887052" x2="578.6644584323631" y2="868.1154902404305" stroke="#1971c2" stroke-width="0.7" opacity="0.25" />
<line x1="572.0363038476535" y1="821.3729255258804" x2="587.6328858847788" y2="868.0080022593775" stroke="#1971c2" stroke-width="0.7" opacity="0.25" />
<line x1="580.9561745979663" y1="822.1983900861233" x2="597.1877170303902" y2="868.2272210481315" stroke="#1971c2" stroke-width="0.7" opacity="0.25" />
<line x1="589.635403004666" y1="822.0062110606741" x2="605.7489972441414" y2="868.1264134656158" stroke="#1971c2" stroke-width="0.7" opacity="0.25" />
<line x1="599.1106129415493" y1="821.6335981330692" x2="614.6987103592852" y2="867.5156025607939" stroke="#1971c2" stroke-width="0.7" opacity="0.25" />
<line x1="608.4070416129216" y1="821.3311261277777" x2="624.0903345572884" y2="867.8498509628625" stroke="#1971c2" stroke-width="0.7" opacity="0.25" />
<line x1="617.0176050905211" y1="821.5851074313214" x2="633.0539243415129" y2="867.7894326996156" stroke="#1971c2" stroke-width="0.7" opacity="0.25" />
<line x1="626.0505834870855" y1="821.9661245880234" x2="641.6094422190268" y2="868.0936871560189" stroke="#1971c2" stroke-width="0.7" opacity="0.25" />
<line x1="634.640799701152" y1="821.5554429016775" x2="651.5317226360618" y2="867.3084292949352" stroke="#1971c2" stroke-width="0.7" opacity="0.25" />
<line x1="643.9936358662017" y1="821.7811014836561" x2="660.4719421199494" y2="867.5036395130337" stroke="#1971c2" stroke-width="0.7" opacity="0.25" />
<line x1="652.9637035897867" y1="821.9730202393912" x2="668.6639298551373" y2="867.5992795720667" stroke="#1971c2" stroke-width="0.7" opacity="0.25" />
<line x1="662.4478075170555" y1="821.8277924754839" x2="673.9138440745955" y2="854.978749458604" stroke="#1971c2" stroke-width="0.7" opacity="0.25" />
<text x="591.7119173825631" y="844.7389405666036" text-anchor="middle" dominant-baseline="central" font-family="'Virgil', 'Segoe Print', 'Comic Sans MS', 'Patrick Hand', cursive" font-size="14" font-weight="normal" fill="#000000"><tspan x="591.7119173825631" dy="0">Tool Proxy Loop</tspan></text></g>
<g><path d="M 510.2874157907383,981.6028928263644
    L 696.1933357743619,981.9798797095311
    Q 701.6006112300643,983.1583779626366 702.1959259431584,989.2762469480767
    L 703.193685070517,1016.5994240602315
    Q 701.9737646652313,1022.6144841869107 695.6572102671228,1021.7083318537364
    L 511.3003483874174,1022.0009529112169
    Q 505.64797373076726,1022.1972331717385 505.002230791068,1017.1811109439199
    L 504.8057003281501,989.3075976848835
    Q 505.0424767065131,983.3594934164983 510.74816536276643,982.4910312606895 Z" fill="#b2f2bb" stroke="#2b8a3e" stroke-width="1.5" />
<line x1="505.0807724400802" y1="993.8834490632461" x2="515.2611615707829" y2="1022.0727741109222" stroke="#2b8a3e" stroke-width="0.7" opacity="0.25" />
<line x1="510.26110534007626" y1="982.7158201536004" x2="523.8717250483824" y2="1022.3267554144659" stroke="#2b8a3e" stroke-width="0.7" opacity="0.25" />
<line x1="518.5134298081321" y1="982.968523915943" x2="532.9047034449468" y2="1022.7077725711679" stroke="#2b8a3e" stroke-width="0.7" opacity="0.25" />
<line x1="527.5488785662419" y1="982.3313699450009" x2="541.4949196590132" y2="1022.297090884822" stroke="#2b8a3e" stroke-width="0.7" opacity="0.25" />
<line x1="536.9541457514315" y1="982.0235211703039" x2="550.8477558240629" y2="1022.5227494668006" stroke="#2b8a3e" stroke-width="0.7" opacity="0.25" />
<line x1="546.0373915908494" y1="982.3046987891612" x2="559.817823547648" y2="1022.7146682225357" stroke="#2b8a3e" stroke-width="0.7" opacity="0.25" />
<line x1="554.3528121328732" y1="982.8266236712807" x2="569.3019274749167" y2="1022.5694404586284" stroke="#2b8a3e" stroke-width="0.7" opacity="0.25" />
<line x1="563.3761847688875" y1="982.1172271278128" x2="577.4436368619281" y2="1022.6225831905285" stroke="#2b8a3e" stroke-width="0.7" opacity="0.25" />
<line x1="573.0888920730322" y1="982.3103871483399" x2="587.2954204184216" y2="1022.5559747243096" stroke="#2b8a3e" stroke-width="0.7" opacity="0.25" />
<line x1="581.9102631429596" y1="982.686417196619" x2="595.9140317249039" y2="1022.5214050555096" stroke="#2b8a3e" stroke-width="0.7" opacity="0.25" />
<line x1="590.8614411590243" y1="982.8525763634825" x2="604.3993443730469" y2="1022.8506085030021" stroke="#2b8a3e" stroke-width="0.7" opacity="0.25" />
<line x1="600.013404933472" y1="982.1206346558974" x2="613.4075367922051" y2="1022.9068753521024" stroke="#2b8a3e" stroke-width="0.7" opacity="0.25" />
<line x1="608.3946980591936" y1="982.925520599646" x2="622.8504299024135" y2="1022.2153715035602" stroke="#2b8a3e" stroke-width="0.7" opacity="0.25" />
<line x1="617.4562998181063" y1="982.2557569964338" x2="631.8743680981415" y2="1022.6989023486167" stroke="#2b8a3e" stroke-width="0.7" opacity="0.25" />
<line x1="626.7982642664138" y1="982.0216314168647" x2="640.7668632015775" y2="1022.542253225447" stroke="#2b8a3e" stroke-width="0.7" opacity="0.25" />
<line x1="635.6139750526199" y1="982.5879024103851" x2="649.7181249142486" y2="1022.5817819127842" stroke="#2b8a3e" stroke-width="0.7" opacity="0.25" />
<line x1="644.965582645741" y1="982.1661244351926" x2="659.1865613020636" y2="1022.182567918011" stroke="#2b8a3e" stroke-width="0.7" opacity="0.25" />
<line x1="654.1709584814234" y1="982.5466835257284" x2="667.636415482586" y2="1022.2698320545023" stroke="#2b8a3e" stroke-width="0.7" opacity="0.25" />
<line x1="663.2634527158771" y1="982.2665512020685" x2="676.3245948093554" y2="1022.6939602892598" stroke="#2b8a3e" stroke-width="0.7" opacity="0.25" />
<line x1="671.8194329779071" y1="982.625280462049" x2="686.0723822647997" y2="1022.9335416408594" stroke="#2b8a3e" stroke-width="0.7" opacity="0.25" />
<line x1="681.1298611078237" y1="982.6013110594504" x2="695.2948169569972" y2="1022.2502449309613" stroke="#2b8a3e" stroke-width="0.7" opacity="0.25" />
<line x1="689.4327449556004" y1="982.2072004795555" x2="702.3387911532118" y2="1018.6663632495068" stroke="#2b8a3e" stroke-width="0.7" opacity="0.25" />
<line x1="699.063539021743" y1="982.502771323685" x2="702.1577684428266" y2="992.1733052662312" stroke="#2b8a3e" stroke-width="0.7" opacity="0.25" />
<text x="603.5660373404244" y="1002.4805885497481" text-anchor="middle" dominant-baseline="central" font-family="'Virgil', 'Segoe Print', 'Comic Sans MS', 'Patrick Hand', cursive" font-size="13" font-weight="normal" fill="#000000"><tspan x="603.5660373404244" dy="0">Final Decision JSON</tspan></text></g>
<g><path d="M 522.4830306953547,1130.972842846303
    L 673.5201009125806,1130.911708649875
    Q 680.0489663393398,1130.3833113566202 680.1458719803101,1135.672514327358
    L 678.5684328478295,1169.4441900447332
    Q 678.6898466153027,1176.3538309576215 672.9704280358085,1175.521353979125
    L 522.5951738624447,1176.629016531857
    Q 515.45754269342,1176.5893791229107 515.5538049540613,1170.9611301446116
    L 515.9958625908068,1135.7577632355903
    Q 515.9770105829775,1129.9385019368988 521.3259724859408,1130.5669974221048 Z" fill="#d0ebff" stroke="#1971c2" stroke-width="1.5" />
<line x1="516.1569320983153" y1="1158.1775335067732" x2="522.2200159148357" y2="1176.4029474210001" stroke="#1971c2" stroke-width="0.7" opacity="0.25" />
<line x1="515.5111405839707" y1="1133.1784557023145" x2="530.4722821624542" y2="1176.1744523199523" stroke="#1971c2" stroke-width="0.7" opacity="0.25" />
<line x1="523.6160280598924" y1="1130.0440045709765" x2="539.7557722165535" y2="1175.8199443803387" stroke="#1971c2" stroke-width="0.7" opacity="0.25" />
<line x1="532.6441575387944" y1="1129.6914560059558" x2="549.2192821390069" y2="1176.0884901662457" stroke="#1971c2" stroke-width="0.7" opacity="0.25" />
<line x1="542.0416739057109" y1="1129.8196437420847" x2="557.9197988380998" y2="1175.6937996461565" stroke="#1971c2" stroke-width="0.7" opacity="0.25" />
<line x1="551.3391779173317" y1="1130.0117343115417" x2="566.4896037419982" y2="1175.9747209208035" stroke="#1971c2" stroke-width="0.7" opacity="0.25" />
<line x1="560.0821875330294" y1="1130.4326594698414" x2="576.3637936604079" y2="1176.288876954197" stroke="#1971c2" stroke-width="0.7" opacity="0.25" />
<line x1="568.7793787490591" y1="1130.4074846179865" x2="584.6120809154951" y2="1175.7393229731897" stroke="#1971c2" stroke-width="0.7" opacity="0.25" />
<line x1="578.2408917919092" y1="1129.6304285057413" x2="594.3191600057922" y2="1176.553729430574" stroke="#1971c2" stroke-width="0.7" opacity="0.25" />
<line x1="586.7357624347715" y1="1130.2603232963374" x2="602.4793942872071" y2="1176.465822964361" stroke="#1971c2" stroke-width="0.7" opacity="0.25" />
<line x1="595.7355006930975" y1="1129.9165370155024" x2="612.1104658164346" y2="1175.9568004516368" stroke="#1971c2" stroke-width="0.7" opacity="0.25" />
<line x1="605.1894631200194" y1="1129.850022384151" x2="621.0130618194031" y2="1176.460453914071" stroke="#1971c2" stroke-width="0.7" opacity="0.25" />
<line x1="614.0048816615927" y1="1130.036711920351" x2="630.0185842454481" y2="1175.6892165195677" stroke="#1971c2" stroke-width="0.7" opacity="0.25" />
<line x1="622.9741450929068" y1="1129.6186722885068" x2="638.5603692655073" y2="1175.869632317177" stroke="#1971c2" stroke-width="0.7" opacity="0.25" />
<line x1="631.9922767180396" y1="1130.3682837753877" x2="647.580866361464" y2="1176.415555651678" stroke="#1971c2" stroke-width="0.7" opacity="0.25" />
<line x1="640.6844985919761" y1="1130.3817633558283" x2="657.1047288086426" y2="1176.5658933489794" stroke="#1971c2" stroke-width="0.7" opacity="0.25" />
<line x1="650.2326226461009" y1="1129.7978285335012" x2="666.0497453233999" y2="1175.8195629662296" stroke="#1971c2" stroke-width="0.7" opacity="0.25" />
<line x1="658.9234298153933" y1="1130.1040041981323" x2="675.211833561643" y2="1175.6361769299256" stroke="#1971c2" stroke-width="0.7" opacity="0.25" />
<line x1="668.1171040334375" y1="1130.3504736264404" x2="678.9354606289926" y2="1162.459617201386" stroke="#1971c2" stroke-width="0.7" opacity="0.25" />
<text x="597.610167476596" y="1153.0982406042167" text-anchor="middle" dominant-baseline="central" font-family="'Virgil', 'Segoe Print', 'Comic Sans MS', 'Patrick Hand', cursive" font-size="14" font-weight="normal" fill="#000000"><tspan x="597.610167476596" dy="0">Decision Parser</tspan></text></g>
<g><path d="M 518.164196656576,1284.36981832241
    L 669.8420962911187,1285.305819238638
    Q 675.3609601907034,1284.1031282780036 675.4253475715392,1291.554527689667
    L 675.6022487748618,1323.8645834579281
    Q 676.3715851318062,1331.4344837814162 669.1454542234293,1331.3953665664055
    L 519.3073958881283,1330.055944948508
    Q 512.4936281481539,1331.009625455994 512.9489368645606,1325.5644955778528
    L 512.2635869254009,1291.0409288596697
    Q 511.62212425978504,1285.410828262112 518.0719128745783,1285.3140627951711 Z" fill="#d0ebff" stroke="#1971c2" stroke-width="1.5" />
<line x1="512.2392977806194" y1="1313.3735029280879" x2="518.9497293105393" y2="1330.2775145238265" stroke="#1971c2" stroke-width="0.7" opacity="0.25" />
<line x1="512.4259873168194" y1="1287.6647396398473" x2="527.178491916036" y2="1330.56371096363" stroke="#1971c2" stroke-width="0.7" opacity="0.25" />
<line x1="520.0079476849751" y1="1284.3493818027637" x2="536.3589077136454" y2="1331.193476501241" stroke="#1971c2" stroke-width="0.7" opacity="0.25" />
<line x1="529.757559171856" y1="1284.3698788987203" x2="545.9048310481463" y2="1330.6160771855084" stroke="#1971c2" stroke-width="0.7" opacity="0.25" />
<line x1="538.7710387522966" y1="1284.893741345899" x2="555.0551687454478" y2="1330.8416285110798" stroke="#1971c2" stroke-width="0.7" opacity="0.25" />
<line x1="547.1871039299695" y1="1284.8387578606562" x2="563.3088383626979" y2="1330.8326884115922" stroke="#1971c2" stroke-width="0.7" opacity="0.25" />
<line x1="556.4932795946006" y1="1285.0008460988993" x2="572.1254523263939" y2="1330.733439861171" stroke="#1971c2" stroke-width="0.7" opacity="0.25" />
<line x1="565.7397490229087" y1="1284.324473166249" x2="581.0917497407114" y2="1330.3652751865811" stroke="#1971c2" stroke-width="0.7" opacity="0.25" />
<line x1="574.9820589315786" y1="1284.3656111784621" x2="590.6665906884679" y2="1331.2300953722297" stroke="#1971c2" stroke-width="0.7" opacity="0.25" />
<line x1="583.3510606981654" y1="1284.8346853046023" x2="599.7208949612265" y2="1330.2645102835522" stroke="#1971c2" stroke-width="0.7" opacity="0.25" />
<line x1="592.6322975327639" y1="1285.015840166474" x2="608.6328965870867" y2="1330.5297067154352" stroke="#1971c2" stroke-width="0.7" opacity="0.25" />
<line x1="601.5728318488909" y1="1285.0039380142553" x2="617.6725383560785" y2="1331.1387580201772" stroke="#1971c2" stroke-width="0.7" opacity="0.25" />
<line x1="610.6666434180479" y1="1285.0735777150549" x2="626.1458162146533" y2="1331.0810462014488" stroke="#1971c2" stroke-width="0.7" opacity="0.25" />
<line x1="619.5776965133045" y1="1284.5547739618487" x2="635.2232368603451" y2="1330.7811785359645" stroke="#1971c2" stroke-width="0.7" opacity="0.25" />
<line x1="628.0776351789536" y1="1284.4679209290407" x2="644.9688464038242" y2="1330.7693815472521" stroke="#1971c2" stroke-width="0.7" opacity="0.25" />
<line x1="637.352008208878" y1="1284.4622981181165" x2="653.4977404492689" y2="1330.6783726001213" stroke="#1971c2" stroke-width="0.7" opacity="0.25" />
<line x1="646.1268906524201" y1="1284.3166576281692" x2="662.9475716800822" y2="1330.3990786248542" stroke="#1971c2" stroke-width="0.7" opacity="0.25" />
<line x1="655.6136399010775" y1="1284.3184298526903" x2="671.7693395272687" y2="1330.2661618848215" stroke="#1971c2" stroke-width="0.7" opacity="0.25" />
<line x1="664.8570994837937" y1="1284.7967160426324" x2="676.4117865945955" y2="1317.3370180874151" stroke="#1971c2" stroke-width="0.7" opacity="0.25" />
<text x="594.237516000685" y="1307.7491800138523" text-anchor="middle" dominant-baseline="central" font-family="'Virgil', 'Segoe Print', 'Comic Sans MS', 'Patrick Hand', cursive" font-size="14" font-weight="normal" fill="#000000"><tspan x="594.237516000685" dy="0">Cooldown Filter</tspan></text></g>
<g><path d="M 519.4391744481982,1443.1116657572843
    L 679.4415352934805,1441.8847076292834
    Q 684.0951365855253,1441.9581512658813 684.8389289125989,1448.1292826750039
    L 684.6085834051249,1481.9281260156408
    Q 684.7402000525369,1489.539357230578 678.2970919497754,1488.7915143929786
    L 519.8531634985571,1489.2096771630008
    Q 512.0967339209689,1488.2311856759611 512.6621714862747,1483.1024753251113
    L 512.7418963089425,1448.8030894783194
    Q 513.2275979824524,1441.7767744404293 519.3570382809187,1441.948948502711 Z" fill="#d0ebff" stroke="#1971c2" stroke-width="1.5" />
<line x1="513.2422738538808" y1="1471.3056308817913" x2="519.4770938598027" y2="1488.1844341377473" stroke="#1971c2" stroke-width="0.7" opacity="0.25" />
<line x1="513.3119135546804" y1="1445.0646230260807" x2="528.4193820410743" y2="1488.782537971303" stroke="#1971c2" stroke-width="0.7" opacity="0.25" />
<line x1="520.7931098014742" y1="1442.2849008146295" x2="537.11951437559" y2="1488.669766885083" stroke="#1971c2" stroke-width="0.7" opacity="0.25" />
<line x1="529.7062567686662" y1="1443.0305103581086" x2="546.1077173868777" y2="1488.3016749908602" stroke="#1971c2" stroke-width="0.7" opacity="0.25" />
<line x1="538.700633957742" y1="1442.5594044035533" x2="555.0167084397468" y2="1489.1277441982675" stroke="#1971c2" stroke-width="0.7" opacity="0.25" />
<line x1="547.5549934677947" y1="1443.0092356343666" x2="563.7374144644797" y2="1489.1212803697326" stroke="#1971c2" stroke-width="0.7" opacity="0.25" />
<line x1="556.5567656923158" y1="1442.8310034815531" x2="572.604497724447" y2="1488.5723637877818" stroke="#1971c2" stroke-width="0.7" opacity="0.25" />
<line x1="566.0350518822579" y1="1443.07345054888" x2="581.8182110698978" y2="1488.81897004012" stroke="#1971c2" stroke-width="0.7" opacity="0.25" />
<line x1="574.8103974438418" y1="1442.5655115665431" x2="591.2918994383305" y2="1488.886379618947" stroke="#1971c2" stroke-width="0.7" opacity="0.25" />
<line x1="584.1899757318024" y1="1442.4275224944504" x2="599.7968934699908" y2="1488.558907232611" stroke="#1971c2" stroke-width="0.7" opacity="0.25" />
<line x1="593.1445989303575" y1="1443.0218623772162" x2="609.3375193923436" y2="1489.052663315977" stroke="#1971c2" stroke-width="0.7" opacity="0.25" />
<line x1="601.7841905991882" y1="1442.804979183722" x2="618.185132003529" y2="1488.900924803318" stroke="#1971c2" stroke-width="0.7" opacity="0.25" />
<line x1="610.9042544395743" y1="1442.4255698996276" x2="627.2040038645988" y2="1489.0412411072684" stroke="#1971c2" stroke-width="0.7" opacity="0.25" />
<line x1="619.9592839732868" y1="1442.720987952367" x2="635.916395486625" y2="1488.6655024910724" stroke="#1971c2" stroke-width="0.7" opacity="0.25" />
<line x1="628.6782055055955" y1="1442.2343176141949" x2="645.4949339926167" y2="1488.6023224881574" stroke="#1971c2" stroke-width="0.7" opacity="0.25" />
<line x1="637.660313887478" y1="1443.0559034296675" x2="653.7086102136324" y2="1488.5961811249108" stroke="#1971c2" stroke-width="0.7" opacity="0.25" />
<line x1="646.5910659981455" y1="1442.173709001694" x2="662.587773834393" y2="1488.7156547579216" stroke="#1971c2" stroke-width="0.7" opacity="0.25" />
<line x1="656.17231129233" y1="1442.454671967993" x2="671.6039938745031" y2="1488.604998230585" stroke="#1971c2" stroke-width="0.7" opacity="0.25" />
<line x1="665.1386979934905" y1="1442.1816222078487" x2="681.0281893491134" y2="1488.320342877767" stroke="#1971c2" stroke-width="0.7" opacity="0.25" />
<line x1="673.9537724507172" y1="1442.8879498450551" x2="684.581238082963" y2="1474.0887088014413" stroke="#1971c2" stroke-width="0.7" opacity="0.25" />
<text x="598.9875158534778" y="1465.6491799549694" text-anchor="middle" dominant-baseline="central" font-family="'Virgil', 'Segoe Print', 'Comic Sans MS', 'Patrick Hand', cursive" font-size="14" font-weight="normal" fill="#000000"><tspan x="598.9875158534778" dy="0">Config Overrides</tspan></text></g>
<text x="-60" y="41.324059744219994" font-family="'Virgil', 'Segoe Print', 'Comic Sans MS', 'Patrick Hand', cursive" font-size="12" fill="#868e96" font-style="italic" opacity="0.8"><tspan x="-60" dy="0">6+ live endpoints</tspan></text>
<text x="791.7119173825631" y="844.7389405666036" font-family="'Virgil', 'Segoe Print', 'Comic Sans MS', 'Patrick Hand', cursive" font-size="12" fill="#868e96" font-style="italic" opacity="0.8"><tspan x="791.7119173825631" dy="0">max 5 rounds, 80KB budget</tspan></text>
<text x="779.237516000685" y="1307.7491800138523" font-family="'Virgil', 'Segoe Print', 'Comic Sans MS', 'Patrick Hand', cursive" font-size="12" fill="#868e96" font-style="italic" opacity="0.8"><tspan x="779.237516000685" dy="0">prevents spam trading</tspan></text>
</g>
</svg>