<svg xmlns="http://www.w3.org/2000/svg" viewBox="0 0 1136 973.43651370515" width="1136" height="973.43651370515">
<rect width="1136" height="973.43651370515" fill="#ffffff" />
<defs><marker id="arrowhead" markerWidth="10" markerHeight="7" refX="10" refY="3.5" orient="auto"><polygon points="0 0, 10 3.5, 0 7" fill="#000000" /></marker></defs>
<g transform="translate(50, 50)">
<path d="M 200,126.31646330883399 Q 342.49172345115403,206.98217642516985 480.896089239006,290.064362204168" fill="none" stroke="#000000" stroke-width="1.5" marker-end="url(#arrowhead)" />

<path d="M 382.6134504764636,86.86624619190115 Q 447.6270847578925,186.44454508545095 508.3160200468986,290.064362204168" fill="none" stroke="#000000" stroke-width="1.5" marker-end="url(#arrowhead)" />

<path d="M 621.459746784464,83.44215954434185 Q 577.4085592648877,186.22911309227493 534.3243759566544,290.064362204168" fill="none" stroke="#000000" stroke-width="1.5" marker-end="url(#arrowhead)" />

<path d="M 864.5525599752141,82 Q 712.7485875731213,186.0806305035585 560.3348557183922,290.064362204168" fill="none" stroke="#000000" stroke-width="1.5" marker-end="url(#arrowhead)" />

<path d="M 523.330726212135,340.064362204168 Q 520.408106040549,402.7107575377231 521.0109085148159,468.71086820267374" fill="none" stroke="#000000" stroke-width="1.5" marker-end="url(#arrowhead)" />

<path d="M 520.7141537875438,536.7108682026737 Q 523.4319072824728,592.960888851223 521.7438265677914,647.3758174437098" fill="none" stroke="#000000" stroke-width="1.5" marker-end="url(#arrowhead)" />

<path d="M 519.4695373730741,715.3758174437098 Q 513.4904297332088,769.863085132627 511.4644087115465,820.43651370515" fill="none" stroke="#000000" stroke-width="1.5" marker-end="url(#arrowhead)" />

<g><path d="M 5.565034920720791,5.607771351976408
    L 193.1562257508922,4.5976943387046045
    Q 200.09944322056836,4.414168029472057 199.5713357422763,10.844111703253294
    L 200.31150214372974,125.14282388484426
    Q 200.47243412526876,130.96650043377994 194.7784458186361,130.29415960223633
    L 6.405913083431369,131.8645510753864
    Q 0.8599390713210596,131.86306361979806 -0.12310211754374904,125.13732086606032
    L 0.25856537609361113,10.84119485886331
    Q 0.7174396001704736,5.456819323858508 6.117578690685332,4.8475721247246835 Z" fill="#a5d8ff" stroke="#1864ab" stroke-width="2.2" />
<line x1="-0.40415182251672377" y1="108.10428300848228" x2="8.568287884788873" y2="131.49937681127813" stroke="#1864ab" stroke-width="0.7" opacity="0.25" />
<line x1="0.3985775556502631" y1="82.40626027067474" x2="17.16532149482518" y2="130.92493246163212" stroke="#1864ab" stroke-width="0.7" opacity="0.25" />
<line x1="0.14043441835929116" y1="56.877707539758255" x2="25.779874161829497" y2="130.61223747444456" stroke="#1864ab" stroke-width="0.7" opacity="0.25" />
<line x1="-0.012969597955816425" y1="30.451010334679662" x2="34.61699960447149" y2="130.9094975210246" stroke="#1864ab" stroke-width="0.7" opacity="0.25" />
<line x1="-0.07395395560888574" y1="4.946171399191371" x2="43.74745773541471" y2="130.68626134962688" stroke="#1864ab" stroke-width="0.7" opacity="0.25" />
<line x1="9.15519412815047" y1="5.138147599878721" x2="53.289739873378124" y2="130.98293448179356" stroke="#1864ab" stroke-width="0.7" opacity="0.25" />
<line x1="18.385732815302617" y1="5.141155086170329" x2="61.664679328301276" y2="130.79233714175643" stroke="#1864ab" stroke-width="0.7" opacity="0.25" />
<line x1="26.67557193119137" y1="4.626324220946117" x2="71.49138391163942" y2="131.2756153662558" stroke="#1864ab" stroke-width="0.7" opacity="0.25" />
<line x1="36.41647861146339" y1="4.82542656210353" x2="79.87555219877831" y2="131.01435126466095" stroke="#1864ab" stroke-width="0.7" opacity="0.25" />
<line x1="45.046491076398524" y1="4.618833660926612" x2="89.56705133598152" y2="130.92324351040588" stroke="#1864ab" stroke-width="0.7" opacity="0.25" />
<line x1="54.0647310508939" y1="4.849327861898928" x2="97.60259236506099" y2="130.6630466939232" stroke="#1864ab" stroke-width="0.7" opacity="0.25" />
<line x1="62.61063064307382" y1="5.065911425539525" x2="107.52680522112641" y2="131.16545732512895" stroke="#1864ab" stroke-width="0.7" opacity="0.25" />
<line x1="72.19114828823422" y1="5.102548728675174" x2="115.7182282983027" y2="130.88263288330927" stroke="#1864ab" stroke-width="0.7" opacity="0.25" />
<line x1="81.24060993101739" y1="4.865560703670781" x2="124.68297600696823" y2="130.7866579402289" stroke="#1864ab" stroke-width="0.7" opacity="0.25" />
<line x1="89.5090149618045" y1="4.733657646516804" x2="134.1696025936104" y2="131.13429592669127" stroke="#1864ab" stroke-width="0.7" opacity="0.25" />
<line x1="98.7376244034458" y1="5.432703583079274" x2="143.50984869562816" y2="130.91386825744848" stroke="#1864ab" stroke-width="0.7" opacity="0.25" />
<line x1="107.92554461765394" y1="5.274059799576207" x2="152.51686189788015" y2="131.34531679168867" stroke="#1864ab" stroke-width="0.7" opacity="0.25" />
<line x1="117.07682038446" y1="4.867809786752332" x2="161.36911603882035" y2="130.53024413101957" stroke="#1864ab" stroke-width="0.7" opacity="0.25" />
<line x1="126.0478598409245" y1="5.177989571500802" x2="169.85518598404596" y2="130.83046881955306" stroke="#1864ab" stroke-width="0.7" opacity="0.25" />
<line x1="134.9818009702576" y1="5.1599786015285645" x2="178.65452718293417" y2="130.67920043585036" stroke="#1864ab" stroke-width="0.7" opacity="0.25" />
<line x1="144.47988275622265" y1="4.775415945699933" x2="188.14784100952383" y2="131.26880069375238" stroke="#1864ab" stroke-width="0.7" opacity="0.25" />
<line x1="152.61489715043717" y1="5.062339732448891" x2="196.60304485792366" y2="130.8075900290496" stroke="#1864ab" stroke-width="0.7" opacity="0.25" />
<line x1="161.71464344907008" y1="5.227631148016371" x2="200.00525230345374" y2="113.84100177153337" stroke="#1864ab" stroke-width="0.7" opacity="0.25" />
<line x1="170.7826138952587" y1="5.413294939852221" x2="199.78476723753556" y2="88.23158848734032" stroke="#1864ab" stroke-width="0.7" opacity="0.25" />
<line x1="179.85244669076565" y1="4.953687812776479" x2="199.85891947138316" y2="62.50985709419392" stroke="#1864ab" stroke-width="0.7" opacity="0.25" />
<line x1="189.20274013833478" y1="5.058983744958823" x2="200.22062837072008" y2="36.590854828585506" stroke="#1864ab" stroke-width="0.7" opacity="0.25" />
<text x="100" y="30.22163288276643" text-anchor="middle" dominant-baseline="central" font-family="'Virgil', 'Segoe Print', 'Comic Sans MS', 'Patrick Hand', cursive" font-size="18" font-weight="600" fill="#000000"><tspan x="100" dy="0">6+ API calls</tspan><tspan x="100" dy="25.2">(market, account,</tspan><tspan x="100" dy="25.2">position, trades,</tspan><tspan x="100" dy="25.2">leaderboard, chat)</tspan></text></g>
<g><path d="M 256.52450072068314,3.9809316229318936
    L 458.8169428715817,4.98276208351017
    Q 464.1898509624385,3.970912449010939 463.8545448600822,10.841679387945623
    L 464.98806303481615,80.14815176573465
    Q 464.53503374488355,87.02325635437792 457.7991351575329,86.94594756889273
    L 256.76824939802754,87.1251301881537
    Q 250.54525264229815,86.92645708536438 249.9850556584206,81.02205757811753
    L 250.0111150334269,11.210313110722746
    Q 250.14564852263575,4.1790571288460345 255.74980000097713,4.023661568695388 Z" fill="#a5d8ff" stroke="#1864ab" stroke-width="2.2" />
<line x1="250.2406099310174" y1="58.995888298519816" x2="259.2829760069682" y2="86.63127124936364" stroke="#1864ab" stroke-width="0.7" opacity="0.25" />
<line x1="249.5090149618045" y1="33.14969952708012" x2="268.7696025936104" y2="86.978909235826" stroke="#1864ab" stroke-width="0.7" opacity="0.25" />
<line x1="249.7376244034458" y1="8.13445974935686" x2="278.10984869562816" y2="86.75848156658321" stroke="#1864ab" stroke-width="0.7" opacity="0.25" />
<line x1="257.92554461765394" y1="5.1186731087109365" x2="287.11686189788014" y2="87.1899301008234" stroke="#1864ab" stroke-width="0.7" opacity="0.25" />
<line x1="267.07682038446" y1="4.712423095887061" x2="295.96911603882035" y2="86.3748574401543" stroke="#1864ab" stroke-width="0.7" opacity="0.25" />
<line x1="276.0478598409245" y1="5.022602880635532" x2="304.45518598404595" y2="86.67508212868779" stroke="#1864ab" stroke-width="0.7" opacity="0.25" />
<line x1="284.9818009702576" y1="5.004591910663294" x2="313.25452718293417" y2="86.52381374498509" stroke="#1864ab" stroke-width="0.7" opacity="0.25" />
<line x1="294.47988275622265" y1="4.620029254834662" x2="322.7478410095238" y2="87.11341400288711" stroke="#1864ab" stroke-width="0.7" opacity="0.25" />
<line x1="302.6148971504372" y1="4.90695304158362" x2="331.20304485792366" y2="86.65220333818434" stroke="#1864ab" stroke-width="0.7" opacity="0.25" />
<line x1="311.7146434490701" y1="5.0722444571511005" x2="340.70525230345373" y2="87.11418650923952" stroke="#1864ab" stroke-width="0.7" opacity="0.25" />
<line x1="320.7826138952587" y1="5.257908248986951" x2="349.48476723753555" y2="87.21905893933217" stroke="#1864ab" stroke-width="0.7" opacity="0.25" />
<line x1="329.85244669076565" y1="4.798301121911209" x2="358.55891947138315" y2="87.2116132604715" stroke="#1864ab" stroke-width="0.7" opacity="0.25" />
<line x1="339.2027401383348" y1="4.903597054093552" x2="367.92062837072007" y2="87.0068967091488" stroke="#1864ab" stroke-width="0.7" opacity="0.25" />
<line x1="348.23602638289594" y1="4.853813725771033" x2="376.861405530107" y2="86.50576749980246" stroke="#1864ab" stroke-width="0.7" opacity="0.25" />
<line x1="357.2315730680375" y1="5.113852114154724" x2="386.1610495443776" y2="87.0719494490404" stroke="#1864ab" stroke-width="0.7" opacity="0.25" />
<line x1="366.13162783666485" y1="5.173804553641276" x2="394.9992462948168" y2="86.50967478306484" stroke="#1864ab" stroke-width="0.7" opacity="0.25" />
<line x1="374.66904890420847" y1="4.790562838643382" x2="404.18416693036755" y2="87.2638646226842" stroke="#1864ab" stroke-width="0.7" opacity="0.25" />
<line x1="384.33480322668765" y1="4.773892864955997" x2="412.31611803533013" y2="86.60336997923741" stroke="#1864ab" stroke-width="0.7" opacity="0.25" />
<line x1="392.9771554226754" y1="4.658569792896742" x2="421.9931128400305" y2="87.08128144974762" stroke="#1864ab" stroke-width="0.7" opacity="0.25" />
<line x1="402.29340076661356" y1="5.097806921927258" x2="431.1709461091297" y2="86.71113063014855" stroke="#1864ab" stroke-width="0.7" opacity="0.25" />
<line x1="411.4186859656984" y1="4.822049972188694" x2="440.1144381921942" y2="87.21716403610844" stroke="#1864ab" stroke-width="0.7" opacity="0.25" />
<line x1="419.7228357958629" y1="4.384402297364431" x2="448.3268485222425" y2="86.38453756457602" stroke="#1864ab" stroke-width="0.7" opacity="0.25" />
<line x1="428.7445278391242" y1="4.5357621944349376" x2="457.38393018123605" y2="87.19706567362596" stroke="#1864ab" stroke-width="0.7" opacity="0.25" />
<line x1="438.3659460964045" y1="5.313108927806752" x2="464.88096846247936" y2="80.48935660575395" stroke="#1864ab" stroke-width="0.7" opacity="0.25" />
<line x1="447.49837052793123" y1="4.859891205349413" x2="464.5160920512426" y2="54.70349728720977" stroke="#1864ab" stroke-width="0.7" opacity="0.25" />
<line x1="456.283245047729" y1="4.472102781355488" x2="464.22803736700007" y2="29.623414707872673" stroke="#1864ab" stroke-width="0.7" opacity="0.25" />
<text x="357.25" y="33.26624619190115" text-anchor="middle" dominant-baseline="central" font-family="'Virgil', 'Segoe Print', 'Comic Sans MS', 'Patrick Hand', cursive" font-size="18" font-weight="600" fill="#000000"><tspan x="357.25" dy="0">Per-strategy</tspan><tspan x="357.25" dy="25.2">performance isolation</tspan></text></g>
<g><path d="M 520.3870902432114,1.088714975064795
    L 756.3068148707869,1.5154318737702852
    Q 762.1054807442626,1.056882407651574 763.3781730685079,8.276222504863108
    L 762.5971403737742,78.11736409675214
    Q 762.6063339218933,82.928517752668 757.37079687745,83.45161369055859
    L 520.946292571209,84.09399197153252
    Q 515.2544032461134,84.12204705175245 513.8115974249107,76.76802264118305
    L 514.1087050114656,8.14715124709628
    Q 514.112581027564,2.0772224897176783 520.5125071669936,1.0562664040640812 Z" fill="#a5d8ff" stroke="#1864ab" stroke-width="2.2" />
<line x1="514.43205493001" y1="55.586793301439215" x2="524.5453670685704" y2="83.50494221571716" stroke="#1864ab" stroke-width="0.7" opacity="0.25" />
<line x1="514.5373508621924" y1="30.234216486490453" x2="533.3406505172477" y2="83.32393431157834" stroke="#1864ab" stroke-width="0.7" opacity="0.25" />
<line x1="514.4875675338699" y1="4.460707931591704" x2="541.8395213079014" y2="83.70326113655938" stroke="#1864ab" stroke-width="0.7" opacity="0.25" />
<line x1="522.7476059222536" y1="1.90320908871945" x2="551.4057032571393" y2="83.6222593734492" stroke="#1864ab" stroke-width="0.7" opacity="0.25" />
<line x1="531.8075583617401" y1="1.7414058391586877" x2="559.8434285911637" y2="83.59337637459248" stroke="#1864ab" stroke-width="0.7" opacity="0.25" />
<line x1="540.4243166467422" y1="1.9263264747094127" x2="569.5976184307831" y2="82.99700004698389" stroke="#1864ab" stroke-width="0.7" opacity="0.25" />
<line x1="549.4076466730548" y1="1.0582775796719943" x2="577.9371237873363" y2="82.99173701554537" stroke="#1864ab" stroke-width="0.7" opacity="0.25" />
<line x1="558.2923236009956" y1="1.7352723843723652" x2="587.4150352578465" y2="83.4843087281605" stroke="#1864ab" stroke-width="0.7" opacity="0.25" />
<line x1="567.7315607300261" y1="1.9131056534715754" x2="596.0448844382474" y2="83.17104978200223" stroke="#1864ab" stroke-width="0.7" opacity="0.25" />
<line x1="576.4558037802875" y1="1.8565977365360595" x2="605.5509178442073" y2="83.02467242231069" stroke="#1864ab" stroke-width="0.7" opacity="0.25" />
<line x1="585.0181561054633" y1="1.069008066584388" x2="613.7182913726749" y2="83.8547576349556" stroke="#1864ab" stroke-width="0.7" opacity="0.25" />
<line x1="594.1695160025338" y1="1.1260897255779128" x2="623.5308194817248" y2="82.97760118271981" stroke="#1864ab" stroke-width="0.7" opacity="0.25" />
<line x1="603.9468627359056" y1="1.8231280068212072" x2="632.1088246995671" y2="83.53415863854184" stroke="#1864ab" stroke-width="0.7" opacity="0.25" />
<line x1="612.4936450134483" y1="1.4582515955844428" x2="641.0372510953086" y2="83.62799914942298" stroke="#1864ab" stroke-width="0.7" opacity="0.25" />
<line x1="621.1058565894543" y1="1.1701969113419182" x2="650.6714542302573" y2="83.46047253074357" stroke="#1864ab" stroke-width="0.7" opacity="0.25" />
<line x1="630.9407723227487" y1="1.037606378095461" x2="658.777435632069" y2="83.27422961438424" stroke="#1864ab" stroke-width="0.7" opacity="0.25" />
<line x1="639.5202588904795" y1="1.0050335145715508" x2="668.6428779395594" y2="82.99249178022728" stroke="#1864ab" stroke-width="0.7" opacity="0.25" />
<line x1="648.0131215639485" y1="1.0578340704341826" x2="676.8559046491166" y2="83.56605499715488" stroke="#1864ab" stroke-width="0.7" opacity="0.25" />
<line x1="657.8647448739794" y1="1.748660436089267" x2="685.7573280569516" y2="83.16819325027609" stroke="#1864ab" stroke-width="0.7" opacity="0.25" />
<line x1="666.7196344646836" y1="0.9869314722091076" x2="695.3286473989203" y2="83.30790412261922" stroke="#1864ab" stroke-width="0.7" opacity="0.25" />
<line x1="675.0736748861527" y1="1.5028518730077849" x2="703.7701677726684" y2="83.40314390023559" stroke="#1864ab" stroke-width="0.7" opacity="0.25" />
<line x1="684.6888009988543" y1="1.4771880916814553" x2="713.3529627090477" y2="83.87379645703186" stroke="#1864ab" stroke-width="0.7" opacity="0.25" />
<line x1="693.561733988874" y1="1.315173876726476" x2="722.6991559043629" y2="82.96280099011892" stroke="#1864ab" stroke-width="0.7" opacity="0.25" />
<line x1="702.9792910420801" y1="1.7265363092374173" x2="731.3178330467229" y2="83.40288565561787" stroke="#1864ab" stroke-width="0.7" opacity="0.25" />
<line x1="711.858564027878" y1="1.0116254564927658" x2="739.7608627059847" y2="83.34444333302599" stroke="#1864ab" stroke-width="0.7" opacity="0.25" />
<line x1="720.4879134838557" y1="1.638783591009087" x2="749.0574909109812" y2="83.35136055660405" stroke="#1864ab" stroke-width="0.7" opacity="0.25" />
<line x1="729.0803452693108" y1="1.496988301507372" x2="757.8747354456102" y2="83.79561240707699" stroke="#1864ab" stroke-width="0.7" opacity="0.25" />
<line x1="738.6444915255561" y1="1.4813594163715607" x2="763.1414821934814" y2="71.21095110188969" stroke="#1864ab" stroke-width="0.7" opacity="0.25" />
<line x1="747.1152290662067" y1="0.9807424296377576" x2="763.0325768193034" y2="45.98023323550705" stroke="#1864ab" stroke-width="0.7" opacity="0.25" />
<line x1="756.3629019492928" y1="1.496313102201384" x2="762.7988146826829" y2="19.595459349294387" stroke="#1864ab" stroke-width="0.7" opacity="0.25" />
<text x="638.75" y="29.842159544341847" text-anchor="middle" dominant-baseline="central" font-family="'Virgil', 'Segoe Print', 'Comic Sans MS', 'Patrick Hand', cursive" font-size="18" font-weight="600" fill="#000000"><tspan x="638.75" dy="0">Indicator values</tspan><tspan x="638.75" dy="25.2">for threshold calibration</tspan></text></g>
<g><path d="M 819.7071952417551,0.5281213799043541
    L 1030.416809314047,0.8477029964335089
    Q 1035.7207919888453,-0.48799757221131584 1036.6749282217588,6.07667155211675
    L 1035.7534116785798,75.20936772060159
    Q 1036.753634738257,81.92044680451757 1030.7459887459495,82.63165211957312
    L 818.2485231803439,82.29758154064766
    Q 812.4802893763192,82.7169067584211 812.8015184420401,75.50110443255326
    L 812.132680989834,5.328327340036571
    Q 812.1329244708147,0.7426765631047602 818.1461929087687,-0.8427751448733034 Z" fill="#a5d8ff" stroke="#1864ab" stroke-width="2.2" />
<line x1="812.6839301812361" y1="54.61653376743901" x2="822.235441638378" y2="81.63645954912863" stroke="#1864ab" stroke-width="0.7" opacity="0.25" />
<line x1="813.3809684624794" y1="28.480253270995576" x2="831.7919990942" y2="82.45802863858262" stroke="#1864ab" stroke-width="0.7" opacity="0.25" />
<line x1="813.0160920512426" y1="2.6943939524514544" x2="840.8858396050812" y2="81.93466622672963" stroke="#1864ab" stroke-width="0.7" opacity="0.25" />
<line x1="820.7280373670001" y1="0.47145423025722266" x2="849.7183129864018" y2="81.50815871712257" stroke="#1864ab" stroke-width="0.7" opacity="0.25" />
<line x1="829.5954468337536" y1="-0.4225643679310451" x2="858.5320700700424" y2="81.90399563761093" stroke="#1864ab" stroke-width="0.7" opacity="0.25" />
<line x1="838.5628739702297" y1="0.4428779395593665" x2="867.2503322358855" y2="82.11694152703785" stroke="#1864ab" stroke-width="0.7" opacity="0.25" />
<line x1="847.6156745260923" y1="-0.34409535088343546" x2="876.8238954528131" y2="81.65539902818273" stroke="#1864ab" stroke-width="0.7" opacity="0.25" />
<line x1="857.3065008917474" y1="-0.4426719430484809" x2="885.4260337059343" y2="81.61425529954249" stroke="#1864ab" stroke-width="0.7" opacity="0.25" />
<line x1="865.5447719278673" y1="0.1286473989202932" x2="894.5657445782774" y2="81.77924478993373" stroke="#1864ab" stroke-width="0.7" opacity="0.25" />
<line x1="875.0606923286659" y1="-0.4298322273316444" x2="903.6609843558938" y2="81.56155105884682" stroke="#1864ab" stroke-width="0.7" opacity="0.25" />
<line x1="884.0350285473396" y1="0.15296270904764242" x2="913.13163691269" y2="81.78505914796187" stroke="#1864ab" stroke-width="0.7" opacity="0.25" />
<line x1="892.8730143323846" y1="0.4991559043628513" x2="921.2206414457771" y2="82.11970695149648" stroke="#1864ab" stroke-width="0.7" opacity="0.25" />
<line x1="902.2843767648956" y1="0.11783304672280792" x2="930.6607261112761" y2="82.1879072001384" stroke="#1864ab" stroke-width="0.7" opacity="0.25" />
<line x1="910.5694659121509" y1="-0.4391372940153815" x2="939.6022837886842" y2="82.41459560736985" stroke="#1864ab" stroke-width="0.7" opacity="0.25" />
<line x1="920.1966240466672" y1="-0.1425090890188585" x2="948.6092010122622" y2="82.20529717016689" stroke="#1864ab" stroke-width="0.7" opacity="0.25" />
<line x1="929.0548287571655" y1="-0.3252645543898325" x2="958.0534528627352" y2="82.34727165155346" stroke="#1864ab" stroke-width="0.7" opacity="0.25" />
<line x1="938.0391998720297" y1="0.14148219348135171" x2="966.468791557548" y2="82.06761274721066" stroke="#1864ab" stroke-width="0.7" opacity="0.25" />
<line x1="946.5385828852959" y1="0.032576819303358207" x2="975.952359405451" y2="82.45470967086385" stroke="#1864ab" stroke-width="0.7" opacity="0.25" />
<line x1="956.0541535578595" y1="-0.2011853173171403" x2="984.281871233524" y2="82.39175736904144" stroke="#1864ab" stroke-width="0.7" opacity="0.25" />
<line x1="964.8342898190986" y1="0.24846996330597904" x2="993.6077679921102" y2="81.70856831208948" stroke="#1864ab" stroke-width="0.7" opacity="0.25" />
<line x1="973.7117345873921" y1="0.27390780704263307" x2="1002.8873128692605" y2="81.84815807455016" stroke="#1864ab" stroke-width="0.7" opacity="0.25" />
<line x1="982.7215391652207" y1="-0.016524210121133365" x2="1011.9057429614434" y2="81.85964567190968" stroke="#1864ab" stroke-width="0.7" opacity="0.25" />
<line x1="991.8447900777828" y1="0.05675867765239673" x2="1020.9131461021491" y2="81.65375162845157" stroke="#1864ab" stroke-width="0.7" opacity="0.25" />
<line x1="1000.5311235618065" y1="0.4005384914489696" x2="1029.4386873922588" y2="82.39730055994733" stroke="#1864ab" stroke-width="0.7" opacity="0.25" />
<line x1="1009.654085128419" y1="0.07446835616428871" x2="1036.1842745105823" y2="74.03116572328548" stroke="#1864ab" stroke-width="0.7" opacity="0.25" />
<line x1="1019.0438782981" y1="-0.18895137344406976" x2="1035.92428945766" y2="48.78409438672775" stroke="#1864ab" stroke-width="0.7" opacity="0.25" />
<line x1="1027.8083883706204" y1="0.4873380543795065" x2="1036.3682547354492" y2="22.949528012306175" stroke="#1864ab" stroke-width="0.7" opacity="0.25" />
<text x="924.5" y="28.4" text-anchor="middle" dominant-baseline="central" font-family="'Virgil', 'Segoe Print', 'Comic Sans MS', 'Patrick Hand', cursive" font-size="18" font-weight="600" fill="#000000"><tspan x="924.5" dy="0">Expression validation</tspan><tspan x="924.5" dy="25.2">errors from last cycle</tspan></text></g>
<g><path d="M 439.9986415251362,290.4597042405985
    L 606.9621281002692,290.29592752222453
    Q 613.5398788710074,289.6670028260487 613.5830441666842,296.6000861837092
    L 613.2510817223781,334.219286505309
    Q 613.014153425183,340.1736083957667 607.0078406209111,339.99413404477673
    L 438.9923305360324,339.74276606802886
    Q 433.6484946372486,339.79979628480794 433.55617335395146,334.4042040021057
    L 433.8445900153194,296.33969508045374
    Q 434.55848507295013,289.67746867049937 439.17939372798935,289.8086126648341 Z" fill="#e5dbff" stroke="#7048e8" stroke-width="1.5" />
<line x1="433.675952112666" y1="330.2490467124562" x2="437.76082967218827" y2="340.34873896906356" stroke="#7048e8" stroke-width="0.7" opacity="0.25" />
<line x1="433.9626196145473" y1="304.2861388938441" x2="446.64010265798606" y2="339.6338281163189" stroke="#7048e8" stroke-width="0.7" opacity="0.25" />
<line x1="437.8066088566193" y1="289.6990715024549" x2="455.2694521139638" y2="340.26098625083523" stroke="#7048e8" stroke-width="0.7" opacity="0.25" />
<line x1="446.82769609928073" y1="289.6984548331893" x2="463.8618838994189" y2="340.1191909613335" stroke="#7048e8" stroke-width="0.7" opacity="0.25" />
<line x1="456.01026246910806" y1="290.0067522375539" x2="473.4260301556642" y2="340.1035620761977" stroke="#7048e8" stroke-width="0.7" opacity="0.25" />
<line x1="464.4629187879691" y1="290.4000901475065" x2="481.8967676963148" y2="339.6029450894639" stroke="#7048e8" stroke-width="0.7" opacity="0.25" />
<line x1="473.7951450164437" y1="290.12113009584573" x2="491.1444405794009" y2="340.1185157620275" stroke="#7048e8" stroke-width="0.7" opacity="0.25" />
<line x1="483.1582540278614" y1="290.2426640711892" x2="500.68309583897644" y2="339.89865202326655" stroke="#7048e8" stroke-width="0.7" opacity="0.25" />
<line x1="491.4060272429124" y1="290.41425374247046" x2="509.0363573552204" y2="339.7760967915601" stroke="#7048e8" stroke-width="0.7" opacity="0.25" />
<line x1="500.6047384004096" y1="290.38187271455536" x2="517.7817612482904" y2="339.78590136938874" stroke="#7048e8" stroke-width="0.7" opacity="0.25" />
<line x1="509.8027490627137" y1="289.7006326297542" x2="527.564163425006" y2="339.9091522819508" stroke="#7048e8" stroke-width="0.7" opacity="0.25" />
<line x1="518.5507890812733" y1="290.3782414991074" x2="536.2027400056486" y2="339.59548576597444" stroke="#7048e8" stroke-width="0.7" opacity="0.25" />
<line x1="528.268675579151" y1="290.48652684459375" x2="544.9352539001557" y2="339.71844733258695" stroke="#7048e8" stroke-width="0.7" opacity="0.25" />
<line x1="536.9462027254995" y1="289.64751022488053" x2="554.0427501391532" y2="340.108240502268" stroke="#7048e8" stroke-width="0.7" opacity="0.25" />
<line x1="546.1154288984653" y1="289.72155315812415" x2="563.7077610363049" y2="339.87275057478837" stroke="#7048e8" stroke-width="0.7" opacity="0.25" />
<line x1="554.426608472364" y1="290.1498523510745" x2="572.1070199282913" y2="340.06426503305556" stroke="#7048e8" stroke-width="0.7" opacity="0.25" />
<line x1="564.2763241415232" y1="289.6808757140461" x2="581.7540711387683" y2="339.72184841266426" stroke="#7048e8" stroke-width="0.7" opacity="0.25" />
<line x1="572.7118805337523" y1="289.64488220389467" x2="589.809608486481" y2="339.58312038454096" stroke="#7048e8" stroke-width="0.7" opacity="0.25" />
<line x1="581.4083459534013" y1="290.1655777267224" x2="599.1620470039379" y2="340.4417987185079" stroke="#7048e8" stroke-width="0.7" opacity="0.25" />
<line x1="590.9056417269985" y1="290.2536807059005" x2="607.8795008078887" y2="340.4367637880787" stroke="#7048e8" stroke-width="0.7" opacity="0.25" />
<line x1="599.3762241398581" y1="290.39068870317533" x2="613.9131283672905" y2="330.5007564012267" stroke="#7048e8" stroke-width="0.7" opacity="0.25" />
<line x1="608.9855468252608" y1="290.4739743442333" x2="613.5681458164327" y2="304.8164880457812" stroke="#7048e8" stroke-width="0.7" opacity="0.25" />
<text x="523.7815386301081" y="315.064362204168" text-anchor="middle" dominant-baseline="central" font-family="'Virgil', 'Segoe Print', 'Comic Sans MS', 'Patrick Hand', cursive" font-size="15" font-weight="normal" fill="#000000"><tspan x="523.7815386301081" dy="0">Context Builder</tspan></text></g>
<g><path d="M 445.37060660233544,468.4125898770511
    L 596.5950495603232,468.54485058847206
    Q 601.6232265881335,467.9256796825604 601.258477346067,474.03494770572144
    L 602.777608395317,530.2695419078758
    Q 601.6289258836783,537.2039022553505 596.4849667910414,536.4375527368641
    L 445.4294392034324,536.3011138177783
    Q 438.3295632129151,537.282387121371 437.74820433910065,530.2096387000711
    L 438.61806004815446,475.0812055332717
    Q 438.3951658358099,467.99597202276055 444.25280007119073,468.7490469813638 Z" fill="#d0ebff" stroke="#1971c2" stroke-width="1.5" />
<line x1="438.9616829213119" y1="508.6320695782142" x2="447.97892718817894" y2="537.1114066941227" stroke="#1971c2" stroke-width="0.7" opacity="0.25" />
<line x1="439.06996826679824" y1="482.65029775843556" x2="457.10188875479145" y2="536.785336558838" stroke="#1971c2" stroke-width="0.7" opacity="0.25" />
<line x1="442.230951647085" y1="468.47207971171883" x2="466.4916819244725" y2="536.5219168292297" stroke="#1971c2" stroke-width="0.7" opacity="0.25" />
<line x1="451.30499458032864" y1="469.1370906088705" x2="475.25619199699287" y2="537.1982062570532" stroke="#1971c2" stroke-width="0.7" opacity="0.25" />
<line x1="460.733293773279" y1="468.5363495008569" x2="484.44770645526006" y2="536.2966413221438" stroke="#1971c2" stroke-width="0.7" opacity="0.25" />
<line x1="469.2643171362506" y1="469.1834007113339" x2="493.10528983486876" y2="536.9987417688826" stroke="#1971c2" stroke-width="0.7" opacity="0.25" />
<line x1="478.22832362609915" y1="468.23893805904663" x2="501.96656180674546" y2="536.8518588181396" stroke="#1971c2" stroke-width="0.7" opacity="0.25" />
<line x1="487.7490191489269" y1="468.59137657650354" x2="511.8252401407124" y2="536.9587350747515" stroke="#1971c2" stroke-width="0.7" opacity="0.25" />
<line x1="496.83712212810497" y1="468.3088303804543" x2="520.8202052102831" y2="536.8733703238977" stroke="#1971c2" stroke-width="0.7" opacity="0.25" />
<line x1="505.9741301253798" y1="468.8424579398561" x2="529.8841978234311" y2="536.7446444374691" stroke="#1971c2" stroke-width="0.7" opacity="0.25" />
<line x1="515.0574157664378" y1="468.4974753889983" x2="538.9142151822714" y2="536.343046047572" stroke="#1971c2" stroke-width="0.7" opacity="0.25" />
<line x1="523.4784180626921" y1="469.0041499494837" x2="547.9292046074631" y2="536.9176053270421" stroke="#1971c2" stroke-width="0.7" opacity="0.25" />
<line x1="532.7680081481521" y1="469.0549819983062" x2="556.6949398431359" y2="537.0980796556578" stroke="#1971c2" stroke-width="0.7" opacity="0.25" />
<line x1="541.6665255085754" y1="468.67433743045694" x2="565.2149824592459" y2="536.9832941358545" stroke="#1971c2" stroke-width="0.7" opacity="0.25" />
<line x1="550.9324971670885" y1="468.4177750293966" x2="574.8435182787041" y2="536.8334183266161" stroke="#1971c2" stroke-width="0.7" opacity="0.25" />
<line x1="560.0762383047404" y1="469.164679902422" x2="583.3907865285335" y2="537.1128119777204" stroke="#1971c2" stroke-width="0.7" opacity="0.25" />
<line x1="568.9442137874448" y1="468.4312120350878" x2="592.9415571715206" y2="536.4241434070791" stroke="#1971c2" stroke-width="0.7" opacity="0.25" />
<line x1="577.8177300898751" y1="468.22121787334254" x2="601.3857541335062" y2="537.1386507548614" stroke="#1971c2" stroke-width="0.7" opacity="0.25" />
<line x1="586.5577371901672" y1="469.00422292616713" x2="601.8596794264067" y2="513.0774493661635" stroke="#1971c2" stroke-width="0.7" opacity="0.25" />
<line x1="595.5918128835219" y1="468.5758318267908" x2="602.0418947580401" y2="487.1602562873624" stroke="#1971c2" stroke-width="0.7" opacity="0.25" />
<text x="520.3978036263725" y="492.9108682026737" text-anchor="middle" dominant-baseline="central" font-family="'Virgil', 'Segoe Print', 'Comic Sans MS', 'Patrick Hand', cursive" font-size="14" font-weight="normal" fill="#000000"><tspan x="520.3978036263725" dy="0">Structured JSON</tspan><tspan x="520.3978036263725" dy="19.599999999999998">~15 keys</tspan></text></g>
<g><path d="M 391.73956245477456,647.8219778134498
    L 653.5346820401071,647.2716639747654
    Q 658.198216830119,647.100180843567 659.2835623033654,653.7165907468283
    L 658.3365086489678,710.0461402947491
    Q 659.3526805471658,714.8061457015662 653.0832373826736,715.8735445507584
    L 391.8552222257349,714.6462513612598
    Q 385.6475644271759,715.6126789706381 385.84568628366833,709.4366146663415
    L 384.8466003407404,653.1045893126909
    Q 385.73674983322127,647.8462588588548 391.4273914802376,648.1131192958273 Z" fill="#d0ebff" stroke="#1971c2" stroke-width="1.5" />
<line x1="385.35345847577264" y1="687.8572184248005" x2="395.0669138533311" y2="715.5766497891309" stroke="#1971c2" stroke-width="0.7" opacity="0.25" />
<line x1="385.4042905245951" y1="661.9086679461875" x2="404.24738818194675" y2="715.7414988851742" stroke="#1971c2" stroke-width="0.7" opacity="0.25" />
<line x1="389.0236459567459" y1="647.1429962765833" x2="413.1326026621435" y2="715.8564088284256" stroke="#1971c2" stroke-width="0.7" opacity="0.25" />
<line x1="397.76708355568553" y1="647.7715320960415" x2="421.98272685290505" y2="715.7460271415039" stroke="#1971c2" stroke-width="0.7" opacity="0.25" />
<line x1="407.51398842871095" y1="647.3188003458708" x2="431.2621205040094" y2="715.8088522861108" stroke="#1971c2" stroke-width="0.7" opacity="0.25" />
<line x1="415.78052056137676" y1="647.869570988858" x2="439.57345193336806" y2="715.3431283426107" stroke="#1971c2" stroke-width="0.7" opacity="0.25" />
<line x1="424.5705263996315" y1="647.3137679508436" x2="449.28795928115034" y2="715.3797682006843" stroke="#1971c2" stroke-width="0.7" opacity="0.25" />
<line x1="434.3535314524561" y1="647.0876932437441" x2="457.9410436067381" y2="715.654923870934" stroke="#1971c2" stroke-width="0.7" opacity="0.25" />
<line x1="442.92514035307977" y1="647.2699085753775" x2="466.73813624222277" y2="715.5247143478773" stroke="#1971c2" stroke-width="0.7" opacity="0.25" />
<line x1="451.73353091567515" y1="647.7106961991012" x2="475.84662125241886" y2="715.3613290536305" stroke="#1971c2" stroke-width="0.7" opacity="0.25" />
<line x1="460.5746035183547" y1="647.8034559060343" x2="485.1942350572761" y2="714.9603857627881" stroke="#1971c2" stroke-width="0.7" opacity="0.25" />
<line x1="469.6987355426736" y1="647.5090290789885" x2="494.0440376738523" y2="715.2528532700089" stroke="#1971c2" stroke-width="0.7" opacity="0.25" />
<line x1="479.34952745734336" y1="647.6545502782701" x2="502.68623532298517" y2="715.2949001933848" stroke="#1971c2" stroke-width="0.7" opacity="0.25" />
<line x1="487.94188474552357" y1="647.7417250055732" x2="511.9188803723744" y2="714.9681181403867" stroke="#1971c2" stroke-width="0.7" opacity="0.25" />
<line x1="497.0026592768809" y1="647.7904660006607" x2="520.748570302251" y2="715.377630750243" stroke="#1971c2" stroke-width="0.7" opacity="0.25" />
<line x1="506.057827736171" y1="647.2355160577317" x2="530.2119002455336" y2="715.2191829383446" stroke="#1971c2" stroke-width="0.7" opacity="0.25" />
<line x1="515.1616247055499" y1="646.927914398977" x2="538.7378673090977" y2="715.0535347041441" stroke="#1971c2" stroke-width="0.7" opacity="0.25" />
<line x1="523.6274550984235" y1="647.5238481147062" x2="547.8971681660812" y2="715.3949169819061" stroke="#1971c2" stroke-width="0.7" opacity="0.25" />
<line x1="533.4478968009571" y1="647.4646703981707" x2="556.8095525216365" y2="715.8296810321917" stroke="#1971c2" stroke-width="0.7" opacity="0.25" />
<line x1="541.6732022979995" y1="647.5327907277024" x2="566.0839032081028" y2="715.8577353336004" stroke="#1971c2" stroke-width="0.7" opacity="0.25" />
<line x1="550.7297308785637" y1="646.9403001179344" x2="574.4519063001178" y2="715.3604325245615" stroke="#1971c2" stroke-width="0.7" opacity="0.25" />
<line x1="560.4601126672933" y1="647.2906097096347" x2="584.1740167509204" y2="715.0836849468251" stroke="#1971c2" stroke-width="0.7" opacity="0.25" />
<line x1="568.983037215985" y1="647.5186133786701" x2="593.081371172161" y2="715.2146003518792" stroke="#1971c2" stroke-width="0.7" opacity="0.25" />
<line x1="577.9904217070434" y1="646.9181953863445" x2="602.0974642620847" y2="714.962188753896" stroke="#1971c2" stroke-width="0.7" opacity="0.25" />
<line x1="586.7783817309573" y1="646.9160549999506" x2="611.3528455941967" y2="715.082987251204" stroke="#1971c2" stroke-width="0.7" opacity="0.25" />
<line x1="595.696533812079" y1="647.7272379323476" x2="620.2723178887361" y2="715.1375777519643" stroke="#1971c2" stroke-width="0.7" opacity="0.25" />
<line x1="604.7672575028919" y1="647.0117661071199" x2="629.1467181003943" y2="714.905251782322" stroke="#1971c2" stroke-width="0.7" opacity="0.25" />
<line x1="614.4478073512" y1="647.0703412785806" x2="637.4468064825094" y2="714.9213452274234" stroke="#1971c2" stroke-width="0.7" opacity="0.25" />
<line x1="622.6811822557138" y1="647.2486376378365" x2="647.083299123088" y2="715.8674643862978" stroke="#1971c2" stroke-width="0.7" opacity="0.25" />
<line x1="632.0960872187243" y1="647.3392537600012" x2="655.9399694620486" y2="715.6447712048275" stroke="#1971c2" stroke-width="0.7" opacity="0.25" />
<line x1="640.9140544421025" y1="647.7475473789164" x2="659.17957543995" y2="698.8241517456618" stroke="#1971c2" stroke-width="0.7" opacity="0.25" />
<line x1="649.8050743168515" y1="646.9233877192746" x2="659.3676593452728" y2="673.1961393332126" stroke="#1971c2" stroke-width="0.7" opacity="0.25" />
<text x="522.0601767289627" y="671.5758174437099" text-anchor="middle" dominant-baseline="central" font-family="'Virgil', 'Segoe Print', 'Comic Sans MS', 'Patrick Hand', cursive" font-size="14" font-weight="normal" fill="#000000"><tspan x="522.0601767289627" dy="0">Prompt Template</tspan><tspan x="522.0601767289627" dy="19.599999999999998">(role + schema + guidelines)</tspan></text></g>
<g><path d="M 434.10747776255886,820.9389052741535
    L 585.1037522555227,819.9268230506684
    Q 592.0454960297651,819.5378683050192 591.3611340454321,826.1934482285608
    L 591.271281419565,860.2168408290181
    Q 591.7299318100646,866.5640898933722 585.6245195405369,866.2062442719077
    L 433.3940220634457,866.3828364090529
    Q 427.37395491864555,867.0392954648545 427.9375175247842,860.4104346030072
    L 428.21758279980713,826.1236414496049
    Q 427.7055870408847,819.5879817762965 434.1687250885287,819.5624819260556 Z" fill="#d0ebff" stroke="#1971c2" stroke-width="1.5" />
<line x1="427.89428935666" y1="848.9125277340801" x2="434.38138924122325" y2="866.2044812770764" stroke="#1971c2" stroke-width="0.7" opacity="0.25" />
<line x1="428.31587582190696" y1="823.0188705604485" x2="442.7368629556455" y2="866.5398463338606" stroke="#1971c2" stroke-width="0.7" opacity="0.25" />
<line x1="435.6152010286969" y1="819.9892603368426" x2="452.42851219964143" y2="866.8088296263741" stroke="#1971c2" stroke-width="0.7" opacity="0.25" />
<line x1="445.1970060221938" y1="820.3528969971812" x2="461.3742646291663" y2="866.2696597878385" stroke="#1971c2" stroke-width="0.7" opacity="0.25" />
<line x1="454.3032613750984" y1="820.2068327896377" x2="469.84485503303733" y2="866.0826372867741" stroke="#1971c2" stroke-width="0.7" opacity="0.25" />
<line x1="463.43299438111535" y1="820.7583666602804" x2="479.25536179491394" y2="866.7047506855233" stroke="#1971c2" stroke-width="0.7" opacity="0.25" />
<line x1="471.95971295272466" y1="820.4806840221809" x2="488.43309012596876" y2="866.9183720968831" stroke="#1971c2" stroke-width="0.7" opacity="0.25" />
<line x1="481.39677185489563" y1="820.6076849441743" x2="496.93619552365783" y2="866.9241922297806" stroke="#1971c2" stroke-width="0.7" opacity="0.25" />
<line x1="489.72429840555196" y1="820.2713391712896" x2="505.7867868566333" y2="866.4215026158417" stroke="#1971c2" stroke-width="0.7" opacity="0.25" />
<line x1="499.0525315611667" y1="820.8456934446658" x2="514.623289622688" y2="866.0827696437555" stroke="#1971c2" stroke-width="0.7" opacity="0.25" />
<line x1="507.608022016364" y1="820.7510209960019" x2="524.3311624078539" y2="866.0350574932527" stroke="#1971c2" stroke-width="0.7" opacity="0.25" />
<line x1="517.3963996727471" y1="820.6669099329611" x2="533.540324551746" y2="866.8013672766465" stroke="#1971c2" stroke-width="0.7" opacity="0.25" />
<line x1="526.0104420849966" y1="820.5845847644305" x2="542.5130990282138" y2="866.0213123053036" stroke="#1971c2" stroke-width="0.7" opacity="0.25" />
<line x1="535.0884671152089" y1="820.7420339293822" x2="550.5988110758641" y2="866.7211958523112" stroke="#1971c2" stroke-width="0.7" opacity="0.25" />
<line x1="544.4444552126952" y1="820.2816453773266" x2="560.3707652565514" y2="866.049353316419" stroke="#1971c2" stroke-width="0.7" opacity="0.25" />
<line x1="552.8302533825427" y1="820.4443091422727" x2="569.3127352948846" y2="866.5116129646558" stroke="#1971c2" stroke-width="0.7" opacity="0.25" />
<line x1="562.1712072906375" y1="820.0438406334288" x2="577.6422813819896" y2="866.7582031422098" stroke="#1971c2" stroke-width="0.7" opacity="0.25" />
<line x1="571.3953217600938" y1="820.8011350143497" x2="586.8790369599925" y2="866.6334156200683" stroke="#1971c2" stroke-width="0.7" opacity="0.25" />
<line x1="580.0844408658813" y1="820.622855924732" x2="591.2544585432261" y2="852.8153095182066" stroke="#1971c2" stroke-width="0.7" opacity="0.25" />
<text x="509.7119173825631" y="843.43651370515" text-anchor="middle" dominant-baseline="central" font-family="'Virgil', 'Segoe Print', 'Comic Sans MS', 'Patrick Hand', cursive" font-size="14" font-weight="normal" fill="#000000"><tspan x="509.7119173825631" dy="0">Complete Prompt</tspan></text></g>
<text x="723.7815386301081" y="315.064362204168" font-family="'Virgil', 'Segoe Print', 'Comic Sans MS', 'Patrick Hand', cursive" font-size="12" fill="#868e96" font-style="italic" opacity="0.8"><tspan x="723.7815386301081" dy="0">curated, not raw dump</tspan></text>
<text x="699.7119173825631" y="843.43651370515" font-family="'Virgil', 'Segoe Print', 'Comic Sans MS', 'Patrick Hand', cursive" font-size="12" fill="#868e96" font-style="italic" opacity="0.8"><tspan x="699.7119173825631" dy="0">LLM sees this →</tspan><tspan x="699.7119173825631" dy="18">minimize cognitive load</tspan></text>
</g>
</svg>