<svg xmlns="http://www.w3.org/2000/svg" viewBox="0 0 1156 1058.43651370515" width="1156" height="1058.43651370515">
<rect width="1156" height="1058.43651370515" fill="#ffffff" />
<defs>
  <marker id="arrowhead-red" markerWidth="10" markerHeight="7" refX="9" refY="3.5" orient="auto"><polygon points="0 0, 10 3.5, 0 7" fill="#e03131" /></marker>
  <marker id="arrowhead-gray" markerWidth="10" markerHeight="7" refX="9" refY="3.5" orient="auto"><polygon points="0 0, 10 3.5, 0 7" fill="#495057" /></marker>
</defs>
<g transform="translate(60, 120)">
<text x="512.25" y="-35" text-anchor="middle" dominant-baseline="auto" font-family="'Virgil', 'Segoe Print', 'Comic Sans MS', 'Patrick Hand', cursive" font-size="30" font-weight="600" fill="#1e1e1e">Context Engineering Pipeline</text>
<path d="M 200,126.31646330883399 Q 342.0829876848238,207.22382369143608 480.896089239006,290.064362204168" fill="none" stroke="#e03131" stroke-width="1.5" marker-end="url(#arrowhead-red)" />

<path d="M 382.6134504764636,86.86624619190115 Q 447.1946148586502,186.84869690796768 508.3160200468986,290.064362204168" fill="none" stroke="#e03131" stroke-width="1.5" marker-end="url(#arrowhead-red)" />

<path d="M 621.459746784464,83.44215954434185 Q 577.505259686022,186.33394264867093 534.3243759566544,290.064362204168" fill="none" stroke="#e03131" stroke-width="1.5" marker-end="url(#arrowhead-red)" />

<path d="M 864.5525599752141,82 Q 712.6876116278577,186.0709406232636 560.3348557183922,290.064362204168" fill="none" stroke="#e03131" stroke-width="1.5" marker-end="url(#arrowhead-red)" />

<path d="M 523.330726212135,340.064362204168 Q 520.7606483051343,403.04612907086266 521.0109085148159,468.71086820267374" fill="none" stroke="#e03131" stroke-width="1.5" marker-end="url(#arrowhead-red)" />

<path d="M 520.7141537875438,536.7108682026737 Q 522.9913238615118,592.7773796456167 521.7438265677914,647.3758174437098" fill="none" stroke="#e03131" stroke-width="1.5" marker-end="url(#arrowhead-red)" />

<path d="M 519.4695373730741,715.3758174437098 Q 513.8857383950291,769.4717012209876 511.4644087115465,820.43651370515" fill="none" stroke="#e03131" stroke-width="1.5" marker-end="url(#arrowhead-red)" />

<g><path d="M 4.710023280480527,5.412391862239747
    L 194.43748383392813,4.739007186725212
    Q 200.0662954803789,4.616656313903514 199.71422382818417,9.90328542975767
    L 200.20766809581983,126.10242688415164
    Q 200.31495608351253,130.98487791677545 195.51896387909073,130.53665069574635
    L 5.270608722287579,131.58357834451309
    Q 0.5732927142140397,131.58258670745417 -0.08206807836249937,126.09875820496237
    L 0.17237691739574074,9.901340866831015
    Q 0.4782930667803157,5.311757176827814 5.078385793790221,4.905592377405265 Z" fill="#ffffff" stroke="#1e1e1e" stroke-width="1.5" />
<text x="100" y="30.22163288276643" text-anchor="middle" dominant-baseline="central" font-family="'Virgil', 'Segoe Print', 'Comic Sans MS', 'Patrick Hand', cursive" font-size="18" font-weight="600" fill="#1e1e1e"><tspan x="100" dy="0">6+ API calls</tspan><tspan x="100" dy="25.2">(market, account,</tspan><tspan x="100" dy="25.2">position, trades,</tspan><tspan x="100" dy="25.2">leaderboard, chat)</tspan></text></g>
<g><path d="M 255.3496671471221,4.276036479254981
    L 459.7112952477211,4.943923452973832
    Q 464.293233974959,4.269357029974344 464.0696965733881,9.849868322597468
    L 464.8253753565441,81.38751657445682
    Q 464.52335582992237,86.97091963355233 459.0327567716886,86.91938044322887
    L 255.5121662653517,87.03883552273619
    Q 250.3635017615321,86.90638678754331 249.99003710561374,81.97012044937874
    L 250.0074100222846,10.095624137782215
    Q 250.0970990150905,4.408120149864407 254.8332000006514,4.304523109763977 Z" fill="#ffffff" stroke="#1e1e1e" stroke-width="1.5" />
<text x="357.25" y="33.26624619190115" text-anchor="middle" dominant-baseline="central" font-family="'Virgil', 'Segoe Print', 'Comic Sans MS', 'Patrick Hand', cursive" font-size="18" font-weight="600" fill="#1e1e1e"><tspan x="357.25" dy="0">Per-strategy</tspan><tspan x="357.25" dy="25.2">performance isolation</tspan></text></g>
<g><path d="M 519.4247268288076,1.2065298314904793
    L 757.5378765805247,1.4910077639608061
    Q 762.4036538295084,1.1853081198816653 763.2521153790052,6.998201518022688
    L 762.7314269158494,78.89229591261537
    Q 762.737555947929,83.09973168322594 758.2471979182999,83.44846230848634
    L 519.797528380806,83.8767144958023
    Q 515.0029354974089,83.89541788261559 514.0410649499405,77.99273494223598
    L 514.2391366743104,6.912154012844804
    Q 514.2417206850427,1.8655348412590684 519.5083381113291,1.1848974508233368 Z" fill="#ffffff" stroke="#1e1e1e" stroke-width="1.5" />
<text x="638.75" y="29.842159544341847" text-anchor="middle" dominant-baseline="central" font-family="'Virgil', 'Segoe Print', 'Comic Sans MS', 'Patrick Hand', cursive" font-size="18" font-weight="600" fill="#1e1e1e"><tspan x="638.75" dy="0">Indicator values</tspan><tspan x="638.75" dy="25.2">for threshold calibration</tspan></text></g>
<g><path d="M 818.4714634945034,0.3520809199362361
    L 1031.2778728760313,0.5651353309556725
    Q 1035.8138613258968,-0.3253317148075439 1036.4499521478392,5.051114368077833
    L 1035.83560778572,76.47291181373438
    Q 1036.5024231588382,81.94696453634505 1031.4973258306331,82.42110141304875
    L 817.4990154535626,82.19838769376511
    Q 812.6535262508795,82.4779378389474 812.8676789613601,76.6674029550355
    L 812.4217873265559,4.552218226691048
    Q 812.4219496472099,0.49511770873650673 817.4307952725125,-0.5618500965822022 Z" fill="#ffffff" stroke="#1e1e1e" stroke-width="1.5" />
<text x="924.5" y="28.4" text-anchor="middle" dominant-baseline="central" font-family="'Virgil', 'Segoe Print', 'Comic Sans MS', 'Patrick Hand', cursive" font-size="18" font-weight="600" fill="#1e1e1e"><tspan x="924.5" dy="0">Expression validation</tspan><tspan x="924.5" dy="25.2">errors from last cycle</tspan></text></g>
<g><path d="M 438.9262738934602,290.32792356178834
    L 608.2352649435488,290.21873908287233
    Q 613.6204321240409,289.79945595208846 613.6492089878254,295.42151152386214
    L 613.4279006916215,335.1676450715953
    Q 613.2699484934914,340.1371929985671 608.2657399573102,340.0175434312405
    L 438.2553999007243,339.84996478007525
    Q 433.69284263486844,339.88798492459466 433.63129511267033,335.2909234027931
    L 433.82357288691566,295.2479174550252
    Q 434.2995029253361,289.80643318172224 438.3801086953623,289.8938625112787 Z" fill="#ffffff" stroke="#1e1e1e" stroke-width="1" />
<text x="523.7815386301081" y="315.064362204168" text-anchor="middle" dominant-baseline="central" font-family="'Virgil', 'Segoe Print', 'Comic Sans MS', 'Patrick Hand', cursive" font-size="15" font-weight="normal" fill="#1e1e1e"><tspan x="523.7815386301081" dy="0">Context Builder</tspan></text></g>
<g><path d="M 444.1296722770145,468.51201598559203
    L 597.4459675823397,468.6001897932059
    Q 601.7980856008799,468.1874091892649 601.5549194395022,473.26025453803885
    L 602.5676734723354,531.4166506728085
    Q 601.801885131243,537.0395575711249 597.372579069485,536.5286578921339
    L 444.1688940110791,536.4376986127434
    Q 438.43564335073427,537.0918808151386 438.0480707681912,531.3767152009386
    L 438.6279745742271,473.9577597564057
    Q 438.4793784326641,468.23427074939826 443.38446792291796,468.73632072180044 Z" fill="#ffffff" stroke="#1e1e1e" stroke-width="1" />
<text x="520.3978036263725" y="492.9108682026737" text-anchor="middle" dominant-baseline="central" font-family="'Virgil', 'Segoe Print', 'Comic Sans MS', 'Patrick Hand', cursive" font-size="14" font-weight="normal" fill="#1e1e1e"><tspan x="520.3978036263725" dy="0">Structured JSON</tspan><tspan x="520.3978036263725" dy="19.599999999999998">~15 keys</tspan></text></g>
<g><path d="M 390.5131005461706,647.6732576902032
    L 654.376513603059,647.3063817977469
    Q 658.4855367964003,647.1920597102813 659.2091004452311,652.6029996457888
    L 658.5777313422993,710.8226993444026
    Q 659.2551792744314,714.9960362822807 654.0755504981032,715.7076355150755
    L 390.59020706014417,714.8894400554098
    Q 385.4517685277715,715.5337251283287 385.5838497654331,710.4163489254643
    L 384.91779247014784,652.1949986896973
    Q 385.51122546513506,647.6894450538064 390.3049865631459,647.8673520117882 Z" fill="#ffffff" stroke="#1e1e1e" stroke-width="1" />
<text x="522.0601767289627" y="671.5758174437099" text-anchor="middle" dominant-baseline="central" font-family="'Virgil', 'Segoe Print', 'Comic Sans MS', 'Patrick Hand', cursive" font-size="14" font-weight="normal" fill="#1e1e1e"><tspan x="522.0601767289627" dy="0">Prompt Template</tspan><tspan x="522.0601767289627" dy="19.599999999999998">(role + schema + guidelines)</tspan></text></g>
<g><path d="M 433.0589576358936,820.771441417819
    L 586.2231406312028,820.0967199354957
    Q 591.8509698140311,819.8374167717295 591.3947284911425,825.2744700540904
    L 591.3348267405643,861.2900651210621
    Q 591.6405936675641,866.5215644972981 586.5703188212123,866.2830007496552
    L 432.58332050315147,866.4007288410852
    Q 427.56994240661805,866.8383682116197 427.9456508107105,861.4191276370548
    L 428.1323609940591,825.2279322014532
    Q 427.79103048811083,819.870825752581 433.09978918654014,819.8538258524204 Z" fill="#ffffff" stroke="#1e1e1e" stroke-width="1" />
<text x="509.7119173825631" y="843.43651370515" text-anchor="middle" dominant-baseline="central" font-family="'Virgil', 'Segoe Print', 'Comic Sans MS', 'Patrick Hand', cursive" font-size="14" font-weight="normal" fill="#1e1e1e"><tspan x="509.7119173825631" dy="0">Complete Prompt</tspan></text></g>
<text x="723.7815386301081" y="315.064362204168" font-family="'Virgil', 'Segoe Print', 'Comic Sans MS', 'Patrick Hand', cursive" font-size="13" fill="#868e96" font-style="italic" opacity="0.85"><tspan x="723.7815386301081" dy="0">curated, not raw dump</tspan></text>
<text x="699.7119173825631" y="843.43651370515" font-family="'Virgil', 'Segoe Print', 'Comic Sans MS', 'Patrick Hand', cursive" font-size="13" fill="#868e96" font-style="italic" opacity="0.85"><tspan x="699.7119173825631" dy="0">LLM sees this →</tspan><tspan x="699.7119173825631" dy="19.5">minimize cognitive load</tspan></text>
</g>
</svg>