<svg xmlns="http://www.w3.org/2000/svg" viewBox="0 0 1500 1668.6491799549694" width="1500" height="1668.6491799549694">
<rect width="1500" height="1668.6491799549694" fill="#ffffff" />
<defs>
  <marker id="arrowhead-red" markerWidth="10" markerHeight="7" refX="9" refY="3.5" orient="auto"><polygon points="0 0, 10 3.5, 0 7" fill="#e03131" /></marker>
  <marker id="arrowhead-gray" markerWidth="10" markerHeight="7" refX="9" refY="3.5" orient="auto"><polygon points="0 0, 10 3.5, 0 7" fill="#495057" /></marker>
</defs>
<g transform="translate(240, 120)">
<text x="600" y="-35" text-anchor="middle" dominant-baseline="auto" font-family="'Virgil', 'Segoe Print', 'Comic Sans MS', 'Patrick Hand', cursive" font-size="30" font-weight="600" fill="#1e1e1e">Full Setup Agent Context Pipeline</text>
<path d="M 170.8897994667184,66.32405974422 Q 360.4331956692681,144.87883533985587 546.7067057411762,225.36678906562156" fill="none" stroke="#e03131" stroke-width="1.5" marker-end="url(#arrowhead-red)" />

<path d="M 385.824059995298,66.16867305335472 Q 482.6059872449647,144.15112376942125 575.9281553006931,225.36678906562156" fill="none" stroke="#e03131" stroke-width="1.5" marker-end="url(#arrowhead-red)" />

<path d="M 600.7970058053974,62.74458640579542 Q 602.5703847809666,143.6363695101245 605.1173671256103,225.36678906562156" fill="none" stroke="#e03131" stroke-width="1.5" marker-end="url(#arrowhead-red)" />

<path d="M 816.5552453745607,61.30242686145357 Q 725.3476102106554,143.37336748471716 633.6521674846408,225.36678906562156" fill="none" stroke="#e03131" stroke-width="1.5" marker-end="url(#arrowhead-red)" />

<path d="M 588.6770721333062,275.36678906562156 Q 543.2583060393235,338.34855593231623 500.65987806202315,404.0132950641273" fill="none" stroke="#e03131" stroke-width="1.5" marker-end="url(#arrowhead-red)" />

<path d="M 481.2773785837314,472.0132950641273 Q 493.00479701763277,560.0798065070703 501.20754808384584,646.6782443051634" fill="none" stroke="#e03131" stroke-width="1.5" marker-end="url(#arrowhead-red)" />

<path d="M 1072.138381101746,60 Q 798.1270521423455,354.9046577991394 527.2781924775076,646.6782443051634" fill="none" stroke="#e03131" stroke-width="1.5" marker-end="url(#arrowhead-red)" />

<path d="M 525.5290220463619,646.6782443051634 Q 594.4922144382858,567.3142768893231 664.7910936794653,484.51061305365874" fill="none" stroke="#495057" stroke-width="1.5" marker-end="url(#arrowhead-gray)" />

<path d="M 701.703681889408,484.51061305365874 Q 705.2456219122381,562.8288939750928 708.269713527917,642.5256150634668" fill="none" stroke="#e03131" stroke-width="1.5" marker-end="url(#arrowhead-red)" />

<path d="M 694.1439085298568,688.5256150634668 Q 651.6803499870509,755.266079800509 606.7934463673644,821.7389405666036" fill="none" stroke="#e03131" stroke-width="1.5" marker-end="url(#arrowhead-red)" />

<path d="M 593.4403433405571,867.7389405666036 Q 596.6650638639096,926.0722042822454 602.0630582465166,982.4805885497481" fill="none" stroke="#e03131" stroke-width="1.5" marker-end="url(#arrowhead-red)" />

<path d="M 602.775177865112,1022.4805885497481 Q 601.098069044858,1078.1422248939343 598.5196558732051,1130.0982406042167" fill="none" stroke="#e03131" stroke-width="1.5" marker-end="url(#arrowhead-red)" />

<path d="M 597.1085799386084,1176.0982406042167 Q 597.062209818836,1231.783960114215 594.7391035386726,1284.7491800138523" fill="none" stroke="#e03131" stroke-width="1.5" marker-end="url(#arrowhead-red)" />

<path d="M 594.9294095830471,1330.7491800138523 Q 597.6889800823628,1384.7336249774235 598.2956222711157,1442.6491799549694" fill="none" stroke="#e03131" stroke-width="1.5" marker-end="url(#arrowhead-red)" />

<g><path d="M 4.710023280480527,6.714818723693315
    L 194.43748383392813,6.041434048178781
    Q 200.0662954803789,5.919083175357082 199.71422382818417,11.205712291211238
    L 200.20766809581983,61.404853745605216
    Q 200.31495608351253,66.28730477822901 195.51896387909073,65.83907755719993
    L 5.270608722287579,66.88600520596665
    Q 0.5732927142140397,66.88501356890774 -0.08206807836249937,61.40118506641593
    L 0.17237691739574074,11.203767728284584
    Q 0.4782930667803157,6.614184038281382 5.078385793790221,6.208019238858833 Z" fill="#ffffff" stroke="#1e1e1e" stroke-width="1.5" />
<text x="100" y="36.324059744219994" text-anchor="middle" dominant-baseline="central" font-family="'Virgil', 'Segoe Print', 'Comic Sans MS', 'Patrick Hand', cursive" font-size="18" font-weight="600" fill="#1e1e1e"><tspan x="100" dy="0">API Calls</tspan></text></g>
<g><path d="M 255.3496671471221,5.5784633407085495
    L 445.2112952477211,6.2463503144274
    Q 449.793233974959,5.571783891427913 449.5696965733881,11.152295184051036
    L 450.3253753565441,60.68994343591039
    Q 450.02335582992237,66.2733464950059 444.5327567716886,66.22180730468244
    L 255.5121662653517,66.34126238418976
    Q 250.3635017615321,66.20881364899688 249.99003710561374,61.27254731083231
    L 250.0074100222846,11.398050999235783
    Q 250.0970990150905,5.710547011317976 254.8332000006514,5.606949971217546 Z" fill="#ffffff" stroke="#1e1e1e" stroke-width="1.5" />
<text x="350" y="36.16867305335472" text-anchor="middle" dominant-baseline="central" font-family="'Virgil', 'Segoe Print', 'Comic Sans MS', 'Patrick Hand', cursive" font-size="18" font-weight="600" fill="#1e1e1e"><tspan x="350" dy="0">Runtime Config</tspan></text></g>
<g><path d="M 504.9247268288076,2.508956692944048
    L 694.5378765805247,2.793434625414375
    Q 699.4036538295084,2.487734981335234 700.2521153790052,8.300628379476256
    L 699.7314269158494,58.19472277406894
    Q 699.737555947929,62.402158544679516 695.2471979182999,62.75088916993991
    L 505.29752838080606,63.179141357255865
    Q 500.5029354974089,63.19784474406915 499.5410649499405,57.29516180368955
    L 499.73913667431043,8.214580874298372
    Q 499.74172068504265,3.167961702712637 505.00833811132907,2.4873243122769053 Z" fill="#ffffff" stroke="#1e1e1e" stroke-width="1.5" />
<text x="600" y="32.74458640579542" text-anchor="middle" dominant-baseline="central" font-family="'Virgil', 'Segoe Print', 'Comic Sans MS', 'Patrick Hand', cursive" font-size="18" font-weight="600" fill="#1e1e1e"><tspan x="600" dy="0">Trade History</tspan></text></g>
<g><path d="M 755.4714634945034,1.6545077813898046
    L 945.2778728760313,1.867562192409241
    Q 949.8138613258968,0.9770951466460247 950.4499521478392,6.353541229531402
    L 949.83560778572,55.77533867518796
    Q 950.502423158838,61.24939139779862 945.497325830633,61.723528274502314
    L 754.4990154535626,61.500814555218675
    Q 749.6535262508795,61.780364700400966 749.8676789613601,55.969829816489074
    L 749.4217873265559,5.854645088144617
    Q 749.4219496472099,1.7975445701900754 754.4307952725125,0.7405767648713664 Z" fill="#ffffff" stroke="#1e1e1e" stroke-width="1.5" />
<text x="850" y="31.30242686145357" text-anchor="middle" dominant-baseline="central" font-family="'Virgil', 'Segoe Print', 'Comic Sans MS', 'Patrick Hand', cursive" font-size="18" font-weight="600" fill="#1e1e1e"><tspan x="850" dy="0">Competition Memory</tspan></text></g>
<g><path d="M 1005.144735263352,0.2635613576203468
    L 1194.4537263134407,0.15437687870435182
    Q 1199.8388934939328,-0.2649062520795269 1199.8676703577173,5.357149319694145
    L 1199.6463620615134,55.10328286742733
    Q 1199.4884098633834,60.072830794399124 1194.484201327202,59.95318122707249
    L 1004.4738612706162,59.78560257590725
    Q 999.9113040047603,59.82362272042665 999.8497564825623,55.226561198625134
    L 1000.0420342568075,5.183555250857171
    Q 1000.517964295228,-0.2579290224457509 1004.5985700652542,-0.17049969288927969 Z" fill="#ffffff" stroke="#1e1e1e" stroke-width="1.5" />
<text x="1100" y="30" text-anchor="middle" dominant-baseline="central" font-family="'Virgil', 'Segoe Print', 'Comic Sans MS', 'Patrick Hand', cursive" font-size="18" font-weight="600" fill="#1e1e1e"><tspan x="1100" dy="0">Tool Catalog</tspan></text></g>
<g><path d="M 521.2634072807501,225.16793684853982
    L 691.0797025860753,225.25611065615377
    Q 695.4318206046155,224.8433300522127 695.1886544432379,229.91617540098667
    L 696.201408476071,270.0725715357563
    Q 695.4356201349786,275.6954784340727 691.0063140732207,275.18457875508176
    L 521.3026290148148,275.09361947569124
    Q 515.5693783544699,275.7478016780864 515.1818057719269,270.03263606388646
    L 515.7617095779627,230.61368061935354
    Q 515.6131134363998,224.8901916123461 520.5182029266537,225.39224158474826 Z" fill="#ffffff" stroke="#1e1e1e" stroke-width="1" />
<text x="605.7815386301081" y="250.36678906562156" text-anchor="middle" dominant-baseline="central" font-family="'Virgil', 'Segoe Print', 'Comic Sans MS', 'Patrick Hand', cursive" font-size="15" font-weight="normal" fill="#1e1e1e"><tspan x="605.7815386301081" dy="0">Context Builder</tspan></text></g>
<g><path d="M 407.8507274435804,404.31073531062066
    L 547.7141405004688,403.9438594181644
    Q 551.8231636938101,403.8295373306988 552.5467273426409,409.2404772662063
    L 551.9153582397091,467.4601769648201
    Q 552.5928061718412,471.63351390269816 547.413177395513,472.345113135493
    L 407.92783395755396,471.5269176758273
    Q 402.7893954251813,472.17120274874617 402.9214766628429,467.05382654588175
    L 402.25541936755764,408.8324763101147
    Q 402.84885236254485,404.3269226742239 407.6426134605557,404.50482963220566 Z" fill="#ffffff" stroke="#1e1e1e" stroke-width="1" />
<text x="477.3978036263725" y="428.2132950641273" text-anchor="middle" dominant-baseline="central" font-family="'Virgil', 'Segoe Print', 'Comic Sans MS', 'Patrick Hand', cursive" font-size="14" font-weight="normal" fill="#1e1e1e"><tspan x="477.3978036263725" dy="0">JSON Context</tspan><tspan x="477.3978036263725" dy="19.599999999999998">~15 keys</tspan></text></g>
<g><path d="M 605.0970402533305,402.84554076632776
    L 794.7612232486397,402.1708192840044
    Q 800.389052431468,401.9115161202382 799.9328111085794,407.34856940259925
    L 799.8729093580012,479.3641644695708
    Q 800.178676285001,484.5956638458068 795.1084014386491,484.3571000981639
    L 604.6214031205884,484.47482818959395
    Q 599.608025024055,484.91246756012845 599.9837334281474,479.4932269855635
    L 600.170443611496,407.30203154996195
    Q 599.8291131055478,401.9449251010898 605.1378718039771,401.92792520092917 Z" fill="#ffffff" stroke="#1e1e1e" stroke-width="1.5" />
<text x="700" y="430.9106130536587" text-anchor="middle" dominant-baseline="central" font-family="'Virgil', 'Segoe Print', 'Comic Sans MS', 'Patrick Hand', cursive" font-size="18" font-weight="600" fill="#1e1e1e"><tspan x="700" dy="0">Complete Prompt</tspan><tspan x="700" dy="25.2">2-50KB</tspan></text></g>
<g><path d="M 419.604813035141,647.0460401132456
    L 589.5820020957617,646.8836497919925
    Q 593.9093104982763,647.2634585347201 593.5958074118068,651.8666122459545
    L 594.3286485039309,692.2565457730321
    Q 593.8254974254523,696.39310153275 588.8619672883302,696.3480876740475
    L 419.0421634217928,696.2817092846847
    Q 413.53755593803214,696.1883197905496 414.0417148259847,691.3446993879509
    L 414.16891374328696,652.1692599925824
    Q 413.53382341711256,646.25375143149 419.5400998549594,646.5759950242733 Z" fill="#ffffff" stroke="#1e1e1e" stroke-width="1" />
<text x="504.0601767289627" y="671.6782443051634" text-anchor="middle" dominant-baseline="central" font-family="'Virgil', 'Segoe Print', 'Comic Sans MS', 'Patrick Hand', cursive" font-size="15" font-weight="normal" fill="#1e1e1e"><tspan x="504.0601767289627" dy="0">Prompt Template</tspan></text></g>
<g><path d="M 639.6507616670012,642.6726432434486
    L 779.4490481781565,642.2766644562623
    Q 783.6514210617547,642.3502683192346 784.6715134369059,647.6688935166516
    L 784.2491529627146,683.2952906427734
    Q 784.4397882699467,689.1064567057358 779.3660699610623,689.1039190360228
    L 638.9193146201246,687.9826993941446
    Q 634.5944166542303,688.6528584737273 633.8699672480982,683.3053722686025
    L 634.187072682095,647.8333101823009
    Q 634.4759346108239,643.0317739719816 638.6384623362721,642.8544979447179 Z" fill="#ffffff" stroke="#1e1e1e" stroke-width="1" />
<text x="709.2254375146581" y="665.5256150634668" text-anchor="middle" dominant-baseline="central" font-family="'Virgil', 'Segoe Print', 'Comic Sans MS', 'Patrick Hand', cursive" font-size="14" font-weight="normal" fill="#1e1e1e"><tspan x="709.2254375146581" dy="0">LLM</tspan></text></g>
<g><path d="M 514.423408253261,821.48883240406
    L 668.0024880092009,821.3797849131981
    Q 673.5398154934448,821.4215601837001 673.6968657819234,827.0520701947971
    L 673.5564733499544,862.786072537588
    Q 673.7384442313953,868.0026623150013 668.8922784317416,868.2554925890465
    L 514.7213332721567,867.1991488793225
    Q 509.9129165786784,867.170678973441 509.6891246191808,863.2377656038685
    L 509.86996766989466,827.0629202687342
    Q 510.0596990515507,822.1117445999465 515.3436969114342,822.1567485719366 Z" fill="#ffffff" stroke="#1e1e1e" stroke-width="1" />
<text x="591.7119173825631" y="844.7389405666036" text-anchor="middle" dominant-baseline="central" font-family="'Virgil', 'Segoe Print', 'Comic Sans MS', 'Patrick Hand', cursive" font-size="14" font-weight="normal" fill="#1e1e1e"><tspan x="591.7119173825631" dy="0">Tool Proxy Loop</tspan></text></g>
<g><path d="M 509.463622973967,981.8954580674923
    L 697.2342362963827,982.14678265627
    Q 701.8390866001843,982.9324481583404 702.2359630755803,988.0110274819672
    L 702.9011358271528,1017.5598122234037
    Q 702.0878555569623,1022.5698523078565 696.8768192915566,1021.9657507524068
    L 510.13891137175307,1022.1608314573939
    Q 505.37066160065297,1022.2916849644083 504.94016630752014,1017.947603479196
    L 504.8091459989082,988.0319279731717
    Q 504.96699691781686,983.0665251275816 509.7707893553191,982.4875503570423 Z" fill="#d8f5a2" stroke="#2b8a3e" stroke-width="1" />
<text x="603.5660373404244" y="1002.4805885497481" text-anchor="middle" dominant-baseline="central" font-family="'Virgil', 'Segoe Print', 'Comic Sans MS', 'Patrick Hand', cursive" font-size="13" font-weight="normal" fill="#2b8a3e"><tspan x="603.5660373404244" dy="0">Final Decision JSON</tspan></text></g>
<g><path d="M 521.2754096224351,1130.6813087656076
    L 674.4667897672523,1130.6405526346557
    Q 679.8193667184253,1130.2882877724855 679.883970479072,1134.8144230863109
    L 678.8323443907517,1170.6622068978945
    Q 678.9132869024004,1176.2686341731533 674.1003411827376,1175.7136495208222
    L 521.3501717338283,1176.4520912226435
    Q 515.5917509544786,1176.4256662833461 515.6559257949062,1171.6735002978135
    L 515.9506308860698,1134.8712556917992
    Q 515.9380628808503,1129.991748159338 520.5040374828259,1130.4107451494754 Z" fill="#ffffff" stroke="#1e1e1e" stroke-width="1" />
<text x="597.610167476596" y="1153.0982406042167" text-anchor="middle" dominant-baseline="central" font-family="'Virgil', 'Segoe Print', 'Comic Sans MS', 'Patrick Hand', cursive" font-size="14" font-weight="normal" fill="#1e1e1e"><tspan x="597.610167476596" dy="0">Decision Parser</tspan></text></g>
<g><path d="M 517.2719697712789,1284.4962722195573
    L 670.8905695276408,1285.120272830376
    Q 675.5698121273639,1284.31847885662 675.6127370479211,1290.2860784643956
    L 675.7306711834696,1325.1594489765696
    Q 676.2435620880991,1331.2060491922282 670.4261414825145,1331.1799710488879
    L 518.0341025923138,1330.2870233036228
    Q 512.4915907656643,1330.9228103086134 512.7951299099353,1326.2927237231859
    L 512.3382299504956,1289.9436792443971
    Q 511.9105881734184,1285.1902788460254 517.2104472499472,1285.1257685347314 Z" fill="#ffffff" stroke="#1e1e1e" stroke-width="1" />
<text x="594.237516000685" y="1307.7491800138523" text-anchor="middle" dominant-baseline="central" font-family="'Virgil', 'Segoe Print', 'Comic Sans MS', 'Patrick Hand', cursive" font-size="14" font-weight="normal" fill="#1e1e1e"><tspan x="594.237516000685" dy="0">Cooldown Filter</tspan></text></g>
<g><path d="M 518.2886215832914,1442.9575038231792
    L 680.2901954801462,1442.1395317378453
    Q 684.3925963415095,1442.188494162244 684.8884578928919,1447.3025817683258
    L 684.7348942212426,1483.1684773287502
    Q 684.8226386528506,1489.242631472042 679.5272332510096,1488.7440695803089
    L 518.5646142835307,1489.0228447603236
    Q 512.3936612318051,1488.370517102297 512.7706196086758,1483.9513768683973
    L 512.8237694904543,1447.7517863038695
    Q 513.1475706061276,1442.0675762786093 518.2338641384383,1442.182358986797 Z" fill="#ffffff" stroke="#1e1e1e" stroke-width="1" />
<text x="598.9875158534778" y="1465.6491799549694" text-anchor="middle" dominant-baseline="central" font-family="'Virgil', 'Segoe Print', 'Comic Sans MS', 'Patrick Hand', cursive" font-size="14" font-weight="normal" fill="#1e1e1e"><tspan x="598.9875158534778" dy="0">Config Overrides</tspan></text></g>
<text x="-60" y="41.324059744219994" font-family="'Virgil', 'Segoe Print', 'Comic Sans MS', 'Patrick Hand', cursive" font-size="13" fill="#868e96" font-style="italic" opacity="0.85"><tspan x="-60" dy="0">6+ live endpoints</tspan></text>
<text x="791.7119173825631" y="844.7389405666036" font-family="'Virgil', 'Segoe Print', 'Comic Sans MS', 'Patrick Hand', cursive" font-size="13" fill="#868e96" font-style="italic" opacity="0.85"><tspan x="791.7119173825631" dy="0">max 5 rounds, 80KB budget</tspan></text>
<text x="779.237516000685" y="1307.7491800138523" font-family="'Virgil', 'Segoe Print', 'Comic Sans MS', 'Patrick Hand', cursive" font-size="13" fill="#868e96" font-style="italic" opacity="0.85"><tspan x="779.237516000685" dy="0">prevents spam trading</tspan></text>
</g>
</svg>