<svg xmlns="http://www.w3.org/2000/svg" viewBox="0 0 764 1410" width="764" height="1410">
<defs><marker id="arrowhead" markerWidth="10" markerHeight="7" refX="10" refY="3.5" orient="auto"><polygon points="0 0, 10 3.5, 0 7" fill="#495057" /></marker></defs>
<g transform="translate(40, 40)">
<line x1="342" y1="50" x2="342" y2="165" stroke="#495057" stroke-width="1.5" marker-end="url(#arrowhead)" />

<line x1="298.6666666666667" y1="255" x2="236.07407407407408" y2="320" stroke="#495057" stroke-width="1.5" marker-end="url(#arrowhead)" />
<rect x="236.37037037037038" y="272.5" width="62" height="26" rx="4" fill="white" stroke="none" opacity="0.9" />
<text x="267.3703703703704" y="285.5" text-anchor="middle" dominant-baseline="central" font-family="system-ui, -apple-system, sans-serif" font-size="12" fill="#495057" font-style="italic">Claude</text>
<line x1="385.3333333333333" y1="255" x2="447.9259259259259" y2="320" stroke="#495057" stroke-width="1.5" marker-end="url(#arrowhead)" />
<rect x="319.1296296296296" y="272.5" width="195" height="26" rx="4" fill="white" stroke="none" opacity="0.9" />
<text x="416.6296296296296" y="285.5" text-anchor="middle" dominant-baseline="central" font-family="system-ui, -apple-system, sans-serif" font-size="12" fill="#495057" font-style="italic">Gemini / Codex / OpenClaw</text>
<line x1="202" y1="370" x2="158" y2="480" stroke="#495057" stroke-width="1.5" marker-end="url(#arrowhead)" />

<line x1="178.3125" y1="530" x2="311.6875" y2="640" stroke="#495057" stroke-width="1.5" marker-end="url(#arrowhead)" />

<line x1="312.3125" y1="690" x2="181.6875" y2="800" stroke="#495057" stroke-width="1.5" marker-end="url(#arrowhead)" />

<line x1="155.75" y1="850" x2="172.25" y2="960" stroke="#495057" stroke-width="1.5" marker-end="url(#arrowhead)" />

<line x1="482.625" y1="370" x2="529.375" y2="480" stroke="#495057" stroke-width="1.5" marker-end="url(#arrowhead)" />

<line x1="529.75" y1="530" x2="222.25" y2="1280" stroke="#495057" stroke-width="1.5" marker-end="url(#arrowhead)" />

<line x1="226.79166666666666" y1="1280" x2="481.2083333333333" y2="850" stroke="#495057" stroke-width="1.5" marker-end="url(#arrowhead)" />

<line x1="497.875" y1="850" x2="506.125" y2="960" stroke="#495057" stroke-width="1.5" marker-end="url(#arrowhead)" />

<line x1="468" y1="1010" x2="284" y2="1125" stroke="#495057" stroke-width="1.5" marker-end="url(#arrowhead)" />

<line x1="212" y1="1215" x2="212" y2="1280" stroke="#495057" stroke-width="1.5" marker-end="url(#arrowhead)" />
<rect x="191.5" y="1232.5" width="41" height="26" rx="4" fill="white" stroke="none" opacity="0.9" />
<text x="212" y="1245.5" text-anchor="middle" dominant-baseline="central" font-family="system-ui, -apple-system, sans-serif" font-size="12" fill="#495057" font-style="italic">Yes</text>
<line x1="314.66666666666663" y1="1215" x2="462.962962962963" y2="1280" stroke="#495057" stroke-width="1.5" marker-end="url(#arrowhead)" />
<rect x="371.8148148148148" y="1232.5" width="34" height="26" rx="4" fill="white" stroke="none" opacity="0.9" />
<text x="388.8148148148148" y="1245.5" text-anchor="middle" dominant-baseline="central" font-family="system-ui, -apple-system, sans-serif" font-size="12" fill="#495057" font-style="italic">No</text>
<line x1="228.125" y1="1010" x2="457.475" y2="1120" stroke="#495057" stroke-width="1.5" marker-end="url(#arrowhead)" />

<line x1="497.0625" y1="850" x2="508.5375" y2="1120" stroke="#495057" stroke-width="1.5" marker-end="url(#arrowhead)" />

<rect x="262" y="0" width="160" height="50" rx="8" ry="8" fill="#a5d8ff" stroke="#1e1e1e" stroke-width="1.5" />
<text x="342" y="25" text-anchor="middle" dominant-baseline="central" font-family="system-ui, -apple-system, sans-serif" font-size="14" fill="#1e1e1e"><tspan x="342" dy="0">Setup Agent</tspan></text>
<polygon points="342,160 454,210 342,260 230,210" fill="#ffec99" stroke="#1e1e1e" stroke-width="1.5" />
<text x="342" y="210" text-anchor="middle" dominant-baseline="central" font-family="system-ui, -apple-system, sans-serif" font-size="14" fill="#1e1e1e"><tspan x="342" dy="0">Which backend?</tspan></text>
<rect x="132" y="320" width="160" height="50" rx="8" ry="8" fill="#a5d8ff" stroke="#1e1e1e" stroke-width="1.5" />
<text x="212" y="345" text-anchor="middle" dominant-baseline="central" font-family="system-ui, -apple-system, sans-serif" font-size="14" fill="#1e1e1e"><tspan x="212" dy="0">Native MCP Path</tspan></text>
<rect x="392" y="320" width="160" height="50" rx="8" ry="8" fill="#a5d8ff" stroke="#1e1e1e" stroke-width="1.5" />
<text x="472" y="345" text-anchor="middle" dominant-baseline="central" font-family="system-ui, -apple-system, sans-serif" font-size="14" fill="#1e1e1e"><tspan x="472" dy="0">Tool Proxy Path</tspan></text>
<rect x="0" y="480" width="296" height="50" rx="8" ry="8" fill="#a5d8ff" stroke="#1e1e1e" stroke-width="1.5" />
<text x="148" y="505" text-anchor="middle" dominant-baseline="central" font-family="system-ui, -apple-system, sans-serif" font-size="14" fill="#1e1e1e"><tspan x="148" dy="0">claude -p --mcp-config .mcp.json</tspan></text>
<rect x="396" y="480" width="288" height="50" rx="8" ry="8" fill="#a5d8ff" stroke="#1e1e1e" stroke-width="1.5" />
<text x="540" y="505" text-anchor="middle" dominant-baseline="central" font-family="system-ui, -apple-system, sans-serif" font-size="14" fill="#1e1e1e"><tspan x="540" dy="0">Inject tool catalog into prompt</tspan></text>
<rect x="230" y="640" width="224" height="50" rx="8" ry="8" fill="#a5d8ff" stroke="#1e1e1e" stroke-width="1.5" />
<text x="342" y="665" text-anchor="middle" dominant-baseline="central" font-family="system-ui, -apple-system, sans-serif" font-size="14" fill="#1e1e1e"><tspan x="342" dy="0">MCP Server - TypeScript</tspan></text>
<rect x="48" y="800" width="208" height="50" rx="8" ry="8" fill="#a5d8ff" stroke="#1e1e1e" stroke-width="1.5" />
<text x="152" y="825" text-anchor="middle" dominant-baseline="central" font-family="system-ui, -apple-system, sans-serif" font-size="14" fill="#1e1e1e"><tspan x="152" dy="0">Python Bridge - stdio</tspan></text>
<rect x="356" y="800" width="280" height="50" rx="8" ry="8" fill="#a5d8ff" stroke="#1e1e1e" stroke-width="1.5" />
<text x="496" y="825" text-anchor="middle" dominant-baseline="central" font-family="system-ui, -apple-system, sans-serif" font-size="14" fill="#1e1e1e"><tspan x="496" dy="0">Execute locally via dispatch()</tspan></text>
<rect x="60" y="960" width="232" height="50" rx="8" ry="8" fill="#a5d8ff" stroke="#1e1e1e" stroke-width="1.5" />
<text x="176" y="985" text-anchor="middle" dominant-baseline="central" font-family="system-ui, -apple-system, sans-serif" font-size="14" fill="#1e1e1e"><tspan x="176" dy="0">varsity_tools.dispatch()</tspan></text>
<rect x="392" y="960" width="232" height="50" rx="8" ry="8" fill="#a5d8ff" stroke="#1e1e1e" stroke-width="1.5" />
<text x="508" y="985" text-anchor="middle" dominant-baseline="central" font-family="system-ui, -apple-system, sans-serif" font-size="14" fill="#1e1e1e"><tspan x="508" dy="0">Append results to prompt</tspan></text>
<polygon points="212,1120 329.6,1170 212,1220 94.4,1170" fill="#ffec99" stroke="#1e1e1e" stroke-width="1.5" />
<text x="212" y="1170" text-anchor="middle" dominant-baseline="central" font-family="system-ui, -apple-system, sans-serif" font-size="14" fill="#1e1e1e"><tspan x="212" dy="0">More tool calls?</tspan></text>
<rect x="429.6" y="1120" width="160" height="50" rx="8" ry="8" fill="#a5d8ff" stroke="#1e1e1e" stroke-width="1.5" />
<text x="509.6" y="1145" text-anchor="middle" dominant-baseline="central" font-family="system-ui, -apple-system, sans-serif" font-size="14" fill="#1e1e1e"><tspan x="509.6" dy="0">Arena API</tspan></text>
<rect x="84" y="1280" width="256" height="50" rx="8" ry="8" fill="#a5d8ff" stroke="#1e1e1e" stroke-width="1.5" />
<text x="212" y="1305" text-anchor="middle" dominant-baseline="central" font-family="system-ui, -apple-system, sans-serif" font-size="14" fill="#1e1e1e"><tspan x="212" dy="0">LLM returns tool_calls JSON</tspan></text>
<rect x="440" y="1280" width="160" height="50" rx="8" ry="8" fill="#a5d8ff" stroke="#1e1e1e" stroke-width="1.5" />
<text x="520" y="1305" text-anchor="middle" dominant-baseline="central" font-family="system-ui, -apple-system, sans-serif" font-size="14" fill="#1e1e1e"><tspan x="520" dy="0">Final decision</tspan></text>
</g>
</svg>