<svg xmlns="http://www.w3.org/2000/svg" viewBox="0 0 1069.5569070052866 1750.3251202107494" width="1069.5569070052866" height="1750.3251202107494">
<rect width="1069.5569070052866" height="1750.3251202107494" fill="#ffffff" />
<defs>
  <marker id="arrowhead-red" markerWidth="10" markerHeight="7" refX="9" refY="3.5" orient="auto"><polygon points="0 0, 10 3.5, 0 7" fill="#e03131" /></marker>
  <marker id="arrowhead-gray" markerWidth="10" markerHeight="7" refX="9" refY="3.5" orient="auto"><polygon points="0 0, 10 3.5, 0 7" fill="#495057" /></marker>
</defs>
<g transform="translate(230, 120)">
<text x="319.9576303928477" y="-35" text-anchor="middle" dominant-baseline="auto" font-family="'Virgil', 'Segoe Print', 'Comic Sans MS', 'Patrick Hand', cursive" font-size="30" font-weight="600" fill="#1e1e1e">Dual Tool Path — Detailed</text>
<path d="M 321.4309108468238,60 Q 325.0969616392864,141.25477559563586 325.4931263011073,224.44272932140157" fill="none" stroke="#e03131" stroke-width="1.5" marker-end="url(#arrowhead-red)" />

<path d="M 305.36625835693417,303.6427293214016 Q 268.71082956652566,374.04937503058756 228.59564158217893,447.6892353199073" fill="none" stroke="#e03131" stroke-width="1.5" marker-end="url(#arrowhead-red)" />
<rect x="235.98094996955655" y="362.66598232065445" width="62" height="24" rx="3" fill="white" stroke="none" />
<text x="266.98094996955655" y="375.66598232065445" text-anchor="middle" dominant-baseline="central" font-family="'Virgil', 'Segoe Print', 'Comic Sans MS', 'Patrick Hand', cursive" font-size="13" fill="#e03131" font-style="italic">Claude</text>
<path d="M 347.57991108559526,303.6427293214016 Q 385.1841866686217,374.4953230898362 423.5620656207225,446.18655330943875" fill="none" stroke="#e03131" stroke-width="1.5" marker-end="url(#arrowhead-red)" />
<rect x="278.5709883531589" y="361.91464131542017" width="214" height="24" rx="3" fill="white" stroke="none" />
<text x="385.5709883531589" y="374.91464131542017" text-anchor="middle" dominant-baseline="central" font-family="'Virgil', 'Segoe Print', 'Comic Sans MS', 'Patrick Hand', cursive" font-size="13" fill="#e03131" font-style="italic">Gemini / Codex / OpenClaw</text>
<path d="M 206.5985919311841,493.6892353199073 Q 183.41271722975944,549.060469461605 159.7390349662257,604.3541845609434" fill="none" stroke="#e03131" stroke-width="1.5" marker-end="url(#arrowhead-red)" />

<path d="M 174.72674976003185,650.3541845609434 Q 229.7907012684591,701.5430465591053 287.6749908935686,755.4148808223836" fill="none" stroke="#e03131" stroke-width="1.5" marker-end="url(#arrowhead-red)" />

<path d="M 289.70161727703896,801.4148808223836 Q 234.84113431637525,859.5197416363808 176.45598398802315,916.1565288055281" fill="none" stroke="#e03131" stroke-width="1.5" marker-end="url(#arrowhead-red)" />

<path d="M 155.82147885928396,962.1565288055281 Q 161.94669103226624,1049.53089047932 171.234372499811,1133.7741808599967" fill="none" stroke="#e03131" stroke-width="1.5" marker-end="url(#arrowhead-red)" />

<path d="M 443.9001460739174,492.18655330943875 Q 462.2008277488128,547.9139025242548 481.83719627296375,600.2015553192468" fill="none" stroke="#e03131" stroke-width="1.5" marker-end="url(#arrowhead-red)" />

<path d="M 483.1125149964744,646.2015553192468 Q 354.1009957147339,1082.5741176815282 224.57162802584233,1520.3251202107494" fill="none" stroke="#e03131" stroke-width="1.5" marker-end="url(#arrowhead-red)" />

<path d="M 227.0189856751212,1520.3251202107494 Q 335.286089081156,1248.5140034341239 441.12984741031005,976.4352826865506" fill="none" stroke="#495057" stroke-width="1.5" marker-end="url(#arrowhead-gray)" />

<path d="M 455.7260830734637,976.4352826865506 Q 461.81651497509984,1054.6741001376358 470.0802207359905,1130.988038140582" fill="none" stroke="#e03131" stroke-width="1.5" marker-end="url(#arrowhead-red)" />

<path d="M 437.3147195017924,1176.988038140582 Q 349.1174358336721,1237.259389522059 260.0188478141531,1293.8251202696324" fill="none" stroke="#e03131" stroke-width="1.5" marker-end="url(#arrowhead-red)" />

<path d="M 203.15102966511736,1373.0251202696322 Q 210.2849734366926,1448.0353700453713 215.14218104787682,1520.3251202107494" fill="none" stroke="#e03131" stroke-width="1.5" marker-end="url(#arrowhead-red)" />
<rect x="190.1466053564971" y="1433.6751202401908" width="38" height="24" rx="3" fill="white" stroke="none" />
<text x="209.1466053564971" y="1446.6751202401908" text-anchor="middle" dominant-baseline="central" font-family="'Virgil', 'Segoe Print', 'Comic Sans MS', 'Patrick Hand', cursive" font-size="13" fill="#e03131" font-style="italic">Yes</text>
<path d="M 250.8477047272309,1373.0251202696322 Q 348.5063767513307,1446.1700912259155 444.0121204648677,1523.2461721961736" fill="none" stroke="#e03131" stroke-width="1.5" marker-end="url(#arrowhead-red)" />
<rect x="332.4299125960493" y="1435.135646232903" width="30" height="24" rx="3" fill="white" stroke="none" />
<text x="347.4299125960493" y="1448.135646232903" text-anchor="middle" dominant-baseline="central" font-family="'Virgil', 'Segoe Print', 'Comic Sans MS', 'Patrick Hand', cursive" font-size="13" fill="#e03131" font-style="italic">No</text>
<path d="M 214.5940251374036,1179.7741808599967 Q 315.36456620715296,1237.1664957673493 414.67208701640567,1291.2138958508149" fill="none" stroke="#e03131" stroke-width="1.5" marker-end="url(#arrowhead-red)" />

<path d="M 453.4766647890709,976.4352826865506 Q 455.30823418306534,1134.015953306778 459.10953907359175,1291.2138958508149" fill="none" stroke="#e03131" stroke-width="1.5" marker-end="url(#arrowhead-red)" />

<g><path d="M 225.39984655151784,0.3907589794733212
    L 415.12730710496544,-0.2826256960412138
    Q 420.75611875141624,-0.4049765688629122 420.4040470992215,4.881652546991245
    L 420.89749136685714,55.08079400138522
    Q 421.00477935454984,59.96324503400901 416.20878715012805,59.515017812979934
    L 225.9604319933249,60.56194546174665
    Q 221.26311598525135,60.56095382468775 220.6077551926748,55.07712532219593
    L 220.86220018843306,4.87970798406459
    Q 221.16811633781762,0.29012429406138834 225.76820906482754,-0.11604050536116119 Z" fill="#ffffff" stroke="#1e1e1e" stroke-width="1.5" />
<text x="320.6898232710373" y="30" text-anchor="middle" dominant-baseline="central" font-family="'Virgil', 'Segoe Print', 'Comic Sans MS', 'Patrick Hand', cursive" font-size="18" font-weight="600" fill="#1e1e1e"><tspan x="320.6898232710373" dy="0">Setup Agent</tspan></text></g>
<g><path d="M 326.90844583504804,218.30496718059385
    L 438.73548096079685,264.1398258977424
    L 326.2129043698442,308.29661786899305
    L 213.9334826178806,264.02225698477196 Z" fill="#ffffff" stroke="#1e1e1e" stroke-width="1" />
<text x="326.4713619011454" y="264.04272932140157" text-anchor="middle" dominant-baseline="central" font-family="'Virgil', 'Segoe Print', 'Comic Sans MS', 'Patrick Hand', cursive" font-size="15" font-weight="normal" fill="#1e1e1e"><tspan x="326.4713619011454" dy="0">Which backend?</tspan></text></g>
<g><path d="M 139.5123537262174,447.4536056070559
    L 292.6255034779344,447.73808353952626
    Q 297.4912807269182,447.4323838954471 298.339742276415,453.2452772935882
    L 297.81905381325925,489.13937168818086
    Q 297.8251828453387,493.34680745879143 293.33482481570974,493.6955380840518
    L 139.88515527821582,494.12379027136774
    Q 135.0905623948187,494.142493658181 134.12869184735027,488.23981071780145
    L 134.32676357172022,453.15922978841024
    Q 134.32934758245247,448.11261061682455 139.59596500873886,447.4319732263888 Z" fill="#ffffff" stroke="#1e1e1e" stroke-width="1" />
<text x="216.3376268974098" y="470.6892353199073" text-anchor="middle" dominant-baseline="central" font-family="'Virgil', 'Segoe Print', 'Comic Sans MS', 'Patrick Hand', cursive" font-size="14" font-weight="normal" fill="#1e1e1e"><tspan x="216.3376268974098" dy="0">Native MCP Path</tspan></text></g>
<g><path d="M 359.54354505568915,446.53863422937496
    L 512.8499544372171,446.75168864039443
    Q 517.3859428870826,445.8612215946312 518.022033709025,451.2376676775166
    L 517.4076893469057,486.65946512317316
    Q 518.0745047200238,492.1335178457838 513.0694073918188,492.6076547224875
    L 358.5710970147484,492.38494100320383
    Q 353.7256078120653,492.66449114838616 353.93976052254584,486.8539562644743
    L 353.4938688877417,450.7387715361298
    Q 353.4940312083956,446.6816710181753 358.5028768336982,445.62470321285656 Z" fill="#ffffff" stroke="#1e1e1e" stroke-width="1" />
<text x="435.82208156118577" y="469.18655330943875" text-anchor="middle" dominant-baseline="central" font-family="'Virgil', 'Segoe Print', 'Comic Sans MS', 'Patrick Hand', cursive" font-size="14" font-weight="normal" fill="#1e1e1e"><tspan x="435.82208156118577" dy="0">Tool Proxy Path</tspan></text></g>
<g><path d="M 5.144735263352049,604.6177459185637
    L 294.4537263134407,604.5085614396478
    Q 299.83889349393286,604.0892783088639 299.8676703577174,609.7113338806375
    L 299.64636206151334,645.4574674283707
    Q 299.48840986338325,650.4270153553425 294.484201327202,650.3073657880159
    L 4.47386127061618,650.1397871368506
    Q -0.08869599523968645,650.1778072813701 -0.15024351743777514,645.5807457595686
    L 0.04203425680752843,609.5377398118005
    Q 0.5179642952280119,604.0962555384976 4.598570065254171,604.1836848680541 Z" fill="#ffffff" stroke="#1e1e1e" stroke-width="1" />
<text x="150" y="627.3541845609434" text-anchor="middle" dominant-baseline="central" font-family="'Virgil', 'Segoe Print', 'Comic Sans MS', 'Patrick Hand', cursive" font-size="14" font-weight="normal" fill="#1e1e1e"><tspan x="150" dy="0">claude -p --mcp-config .mcp.json</tspan></text></g>
<g><path d="M 345.6471294363374,600.0027031021651
    L 634.9634247416626,600.090876909779
    Q 639.3155427602028,599.6780963058379 639.0723765988251,604.750941654612
    L 640.0851306316583,640.9073377893816
    Q 639.3193422905659,646.530244687698 634.890036228808,646.019345008707
    L 345.686351170402,645.9283857293165
    Q 339.9531005100572,646.5825679317117 339.56552792751415,640.8674023175117
    L 340.14543173355,605.4484468729788
    Q 339.996835591987,599.7249578659714 344.9019250822409,600.2270078383735 Z" fill="#ffffff" stroke="#1e1e1e" stroke-width="1" />
<text x="489.9152607856954" y="623.2015553192468" text-anchor="middle" dominant-baseline="central" font-family="'Virgil', 'Segoe Print', 'Comic Sans MS', 'Patrick Hand', cursive" font-size="14" font-weight="normal" fill="#1e1e1e"><tspan x="489.9152607856954" dy="0">Inject tool catalog into prompt</tspan></text></g>
<g><path d="M 202.10466447080836,755.7123210688769
    L 423.4680775276967,755.3454451764206
    Q 427.577100721038,755.2311230889551 428.3006643698689,760.6420630244626
    L 427.6692952669371,796.8617627230764
    Q 428.3467431990692,801.0350996609544 423.167114422741,801.7466988937492
    L 202.1817709847819,800.9285034340835
    Q 197.04333245240923,801.5727885070024 197.17541369007085,796.455412304138
    L 196.50935639478558,760.234062068371
    Q 197.1027893897728,755.7285084324801 201.89655048778368,755.9064153904619 Z" fill="#ffffff" stroke="#1e1e1e" stroke-width="1" />
<text x="312.4017406536004" y="778.4148808223836" text-anchor="middle" dominant-baseline="central" font-family="'Virgil', 'Segoe Print', 'Comic Sans MS', 'Patrick Hand', cursive" font-size="14" font-weight="normal" fill="#1e1e1e"><tspan x="312.4017406536004" dy="0">MCP Server - TypeScript</tspan></text></g>
<g><path d="M 51.602900864792176,916.4914565181971
    L 255.76708386010142,915.8167350358738
    Q 261.3949130429297,915.5574318721076 260.93867172004104,920.9944851544685
    L 260.8787699694629,957.0100802214401
    Q 261.18453689646265,962.2415795976762 256.1142620501108,962.0030158500333
    L 51.127263732050054,962.1207439414633
    Q 46.11388563551664,962.5583833119978 46.489594039609074,957.1391427374328
    L 46.6763042229577,920.9479473018313
    Q 46.33497371700942,915.5908408529591 51.64373241543872,915.5738409527985 Z" fill="#ffffff" stroke="#1e1e1e" stroke-width="1" />
<text x="153.75586061146169" y="939.1565288055281" text-anchor="middle" dominant-baseline="central" font-family="'Virgil', 'Segoe Print', 'Comic Sans MS', 'Patrick Hand', cursive" font-size="14" font-weight="normal" fill="#1e1e1e"><tspan x="153.75586061146169" dy="0">Python Bridge - stdio</tspan></text></g>
<g><path d="M 312.9844595772156,916.8030784946328
    L 593.9616486378363,916.6406881733798
    Q 598.288957040351,917.0204969161074 597.9754539538815,921.6236506273417
    L 598.7082950460056,972.0135841544194
    Q 598.205143967527,976.1501399141373 593.2416138304048,976.1051260554348
    L 312.4218099638674,976.0387476660719
    Q 306.91720248010677,975.9453581719368 307.4213613680593,971.1017377693381
    L 307.5485602853616,921.9262983739696
    Q 306.9134699591872,916.0107898128772 312.91974639703403,916.3330334056606 Z" fill="#ffffff" stroke="#1e1e1e" stroke-width="1.5" />
<text x="452.9398232710373" y="946.4352826865506" text-anchor="middle" dominant-baseline="central" font-family="'Virgil', 'Segoe Print', 'Comic Sans MS', 'Patrick Hand', cursive" font-size="18" font-weight="600" fill="#1e1e1e"><tspan x="452.9398232710373" dy="0">Execute locally via dispatch()</tspan></text></g>
<g><path d="M 58.72531489997637,1133.9212090399785
    L 288.52360141113166,1133.5252302527922
    Q 292.7259742947299,1133.5988341157645 293.7460666698811,1138.9174593131816
    L 293.32370619568974,1174.5438564393032
    Q 293.51434150292187,1180.3550225022657 288.44062319403747,1180.3524848325528
    L 57.9938678530998,1179.2312651906745
    Q 53.668969887205456,1179.9014242702572 52.94452048107341,1174.5539380651323
    L 53.261625915070184,1139.0818759788308
    Q 53.550487843799054,1134.2803397685116 57.71301556924736,1134.1030637412478 Z" fill="#ffffff" stroke="#1e1e1e" stroke-width="1" />
<text x="173.29999074763327" y="1156.7741808599967" text-anchor="middle" dominant-baseline="central" font-family="'Virgil', 'Segoe Print', 'Comic Sans MS', 'Patrick Hand', cursive" font-size="14" font-weight="normal" fill="#1e1e1e"><tspan x="173.29999074763327" dy="0">varsity_tools.dispatch()</tspan></text></g>
<g><path d="M 356.67784412188195,1130.7379299780382
    L 586.7569238778218,1130.6288824871765
    Q 592.2942513620658,1130.6706577576783 592.4513016505443,1136.3011677687755
    L 592.3109092185754,1172.0351701115665
    Q 592.4928801000162,1177.2517598889797 587.6467143003625,1177.504590163025
    L 356.97576914077763,1176.4482464533007
    Q 352.1673524472993,1176.4197765474194 351.94356048780173,1172.4868631778468
    L 352.1244035385156,1136.3120178427125
    Q 352.3141349201716,1131.360842173925 357.59813278005515,1131.405846145915 Z" fill="#ffffff" stroke="#1e1e1e" stroke-width="1" />
<text x="472.21635325118405" y="1153.988038140582" text-anchor="middle" dominant-baseline="central" font-family="'Virgil', 'Segoe Print', 'Comic Sans MS', 'Patrick Hand', cursive" font-size="14" font-weight="normal" fill="#1e1e1e"><tspan x="472.21635325118405" dy="0">Append results to prompt</tspan></text></g>
<g><path d="M 199.48682131365058,1287.6937071668126
    L 320.22508796667023,1333.0078629027848
    L 199.33115084642222,1378.9899447803728
    L 79.4272464406673,1334.0881689349062 Z" fill="#ffffff" stroke="#1e1e1e" stroke-width="1" />
<text x="199.9273392717223" y="1333.4251202696323" text-anchor="middle" dominant-baseline="central" font-family="'Virgil', 'Segoe Print', 'Comic Sans MS', 'Patrick Hand', cursive" font-size="15" font-weight="normal" fill="#1e1e1e"><tspan x="199.9273392717223" dy="0">More tool calls?</tspan></text></g>
<g><path d="M 374.9721491511256,1291.7969640122058
    L 544.6635292959428,1291.7562078812539
    Q 550.0161062471158,1291.4039430190837 550.0807100077625,1295.930078332909
    L 549.0290839194422,1335.7778621444927
    Q 549.1100264310909,1341.3842894197514 544.2970807114281,1340.8293047674204
    L 375.0469112625189,1341.5677464692417
    Q 369.28849048316914,1341.5413215299443 369.35266532359674,1336.7891555444116
    L 369.64737041476036,1295.9869109383974
    Q 369.63480240954084,1291.107403405936 374.2007770115164,1291.5264003960735 Z" fill="#ffffff" stroke="#1e1e1e" stroke-width="1" />
<text x="459.55690700528646" y="1316.2138958508149" text-anchor="middle" dominant-baseline="central" font-family="'Virgil', 'Segoe Print', 'Comic Sans MS', 'Patrick Hand', cursive" font-size="15" font-weight="normal" fill="#1e1e1e"><tspan x="459.55690700528646" dy="0">Arena API</tspan></text></g>
<g><path d="M 89.2117928951091,1520.0722124164545
    L 344.8303926514709,1520.6962130272732
    Q 349.509635251194,1519.8944190535171 349.5525601717512,1525.8620186612927
    L 349.6704943072997,1564.7353891734667
    Q 350.18338521192925,1570.7819893891253 344.3659646063446,1570.755911245785
    L 89.97392571614401,1569.86296350052
    Q 84.43141388949444,1570.4987505055105 84.73495303376549,1565.868663920083
    L 84.27805307432573,1525.5196194412943
    Q 83.8504112972485,1520.7662190429226 89.15027037377732,1520.7017087316285 Z" fill="#ffffff" stroke="#1e1e1e" stroke-width="1" />
<text x="217.17733912451513" y="1545.3251202107494" text-anchor="middle" dominant-baseline="central" font-family="'Virgil', 'Segoe Print', 'Comic Sans MS', 'Patrick Hand', cursive" font-size="15" font-weight="normal" fill="#1e1e1e"><tspan x="217.17733912451513" dy="0">LLM returns tool_calls JSON</tspan></text></g>
<g><path d="M 397.53058248534217,1523.5544960643833
    L 542.532156382197,1522.7365239790495
    Q 546.6345572435603,1522.7854864034482 547.1304187949427,1527.89957400953
    L 546.9768551232934,1557.7654695699543
    Q 547.0645995549014,1563.839623713246 541.7691941530604,1563.341061821513
    L 397.80657518558144,1563.6198370015277
    Q 391.6356221338559,1562.9675093435012 392.01258051072654,1558.5483691096015
    L 392.0657303925051,1528.3487785450736
    Q 392.3895315081783,1522.6645685198134 397.47582504048916,1522.7793512280011 Z" fill="#d8f5a2" stroke="#2b8a3e" stroke-width="1" />
<text x="469.7294767555286" y="1543.2461721961736" text-anchor="middle" dominant-baseline="central" font-family="'Virgil', 'Segoe Print', 'Comic Sans MS', 'Patrick Hand', cursive" font-size="13" font-weight="normal" fill="#2b8a3e"><tspan x="469.7294767555286" dy="0">Final decision</tspan></text></g>
<text x="-50" y="627.3541845609434" font-family="'Virgil', 'Segoe Print', 'Comic Sans MS', 'Patrick Hand', cursive" font-size="13" fill="#868e96" font-style="italic" opacity="0.85"><tspan x="-50" dy="0">per-call --mcp-config</tspan></text>
<text x="409.9273392717223" y="1333.4251202696323" font-family="'Virgil', 'Segoe Print', 'Comic Sans MS', 'Patrick Hand', cursive" font-size="13" fill="#868e96" font-style="italic" opacity="0.85"><tspan x="409.9273392717223" dy="0">budget: 80KB total</tspan><tspan x="409.9273392717223" dy="19.5">max 5 rounds</tspan></text>
<text x="659.5569070052865" y="1316.2138958508149" font-family="'Virgil', 'Segoe Print', 'Comic Sans MS', 'Patrick Hand', cursive" font-size="13" fill="#868e96" font-style="italic" opacity="0.85"><tspan x="659.5569070052865" dy="0">same dispatch() →</tspan><tspan x="659.5569070052865" dy="19.5">zero reimplementation</tspan></text>
</g>
</svg>