<svg xmlns="http://www.w3.org/2000/svg" viewBox="0 0 1009.5569070052865 1670.3251202107494" width="1009.5569070052865" height="1670.3251202107494">
<rect width="1009.5569070052865" height="1670.3251202107494" fill="#ffffff" />
<defs><marker id="arrowhead" markerWidth="10" markerHeight="7" refX="10" refY="3.5" orient="auto"><polygon points="0 0, 10 3.5, 0 7" fill="#000000" /></marker></defs>
<g transform="translate(200, 50)">
<path d="M 321.4309108468238,60 Q 325.5056974056166,141.01312832936964 325.4931263011073,224.44272932140157" fill="none" stroke="#000000" stroke-width="1.5" marker-end="url(#arrowhead)" />

<path d="M 305.36625835693417,303.6427293214016 Q 269.14329946576794,373.64522320807083 228.59564158217893,447.6892353199073" fill="none" stroke="#000000" stroke-width="1.5" marker-end="url(#arrowhead)" />
<rect x="234.48094996955655" y="361.66598232065445" width="65" height="26" rx="4" fill="white" stroke="none" />
<text x="266.98094996955655" y="374.66598232065445" text-anchor="middle" dominant-baseline="central" font-family="'Virgil', 'Segoe Print', 'Comic Sans MS', 'Patrick Hand', cursive" font-size="12" fill="#495057" font-style="italic">Claude</text>
<path d="M 347.57991108559526,303.6427293214016 Q 385.0874862474874,374.3904935334402 423.5620656207225,446.18655330943875" fill="none" stroke="#000000" stroke-width="1.5" marker-end="url(#arrowhead)" />
<rect x="281.8209883531589" y="360.91464131542017" width="207.5" height="26" rx="4" fill="white" stroke="none" />
<text x="385.5709883531589" y="373.91464131542017" text-anchor="middle" dominant-baseline="central" font-family="'Virgil', 'Segoe Print', 'Comic Sans MS', 'Patrick Hand', cursive" font-size="12" fill="#495057" font-style="italic">Gemini / Codex / OpenClaw</text>
<path d="M 206.5985919311841,493.6892353199073 Q 183.47369317502307,549.0701593418999 159.7390349662257,604.3541845609434" fill="none" stroke="#000000" stroke-width="1.5" marker-end="url(#arrowhead)" />

<path d="M 174.72674976003185,650.3541845609434 Q 229.4381590038738,701.2076750259657 287.6749908935686,755.4148808223836" fill="none" stroke="#000000" stroke-width="1.5" marker-end="url(#arrowhead)" />

<path d="M 289.70161727703896,801.4148808223836 Q 235.2817177373363,859.703250841987 176.45598398802315,916.1565288055281" fill="none" stroke="#000000" stroke-width="1.5" marker-end="url(#arrowhead)" />

<path d="M 155.82147885928396,962.1565288055281 Q 161.55138237044594,1049.9222743909595 171.234372499811,1133.7741808599967" fill="none" stroke="#000000" stroke-width="1.5" marker-end="url(#arrowhead)" />

<path d="M 443.9001460739174,492.18655330943875 Q 462.03386689265585,548.3438645767328 481.83719627296375,600.2015553192468" fill="none" stroke="#000000" stroke-width="1.5" marker-end="url(#arrowhead)" />

<path d="M 483.1125149964744,646.2015553192468 Q 354.1657267656278,1082.4018126606607 224.57162802584233,1520.3251202107494" fill="none" stroke="#000000" stroke-width="1.5" marker-end="url(#arrowhead)" />

<path d="M 227.0189856751212,1520.3251202107494 Q 335.58900721576606,1248.5474539304923 441.12984741031005,976.4352826865506" fill="none" stroke="#000000" stroke-width="1.5" marker-end="url(#arrowhead)" />

<path d="M 455.7260830734637,976.4352826865506 Q 461.544855742693,1054.9147100686532 470.0802207359905,1130.988038140582" fill="none" stroke="#000000" stroke-width="1.5" marker-end="url(#arrowhead)" />

<path d="M 437.3147195017924,1176.988038140582 Q 349.23009887759696,1237.722592101297 260.0188478141531,1293.8251202696324" fill="none" stroke="#000000" stroke-width="1.5" marker-end="url(#arrowhead)" />

<path d="M 203.15102966511736,1373.0251202696322 Q 210.5695654567415,1448.3754324966665 215.14218104787682,1520.3251202107494" fill="none" stroke="#000000" stroke-width="1.5" marker-end="url(#arrowhead)" />
<rect x="187.8966053564971" y="1432.6751202401908" width="42.5" height="26" rx="4" fill="white" stroke="none" />
<text x="209.1466053564971" y="1445.6751202401908" text-anchor="middle" dominant-baseline="central" font-family="'Virgil', 'Segoe Print', 'Comic Sans MS', 'Patrick Hand', cursive" font-size="12" fill="#495057" font-style="italic">Yes</text>
<path d="M 250.8477047272309,1373.0251202696322 Q 348.7754927901511,1445.6787024741686 444.0121204648677,1523.2461721961736" fill="none" stroke="#000000" stroke-width="1.5" marker-end="url(#arrowhead)" />
<rect x="329.9299125960493" y="1434.135646232903" width="35" height="26" rx="4" fill="white" stroke="none" />
<text x="347.4299125960493" y="1447.135646232903" text-anchor="middle" dominant-baseline="central" font-family="'Virgil', 'Segoe Print', 'Comic Sans MS', 'Patrick Hand', cursive" font-size="12" fill="#495057" font-style="italic">No</text>
<path d="M 214.5940251374036,1179.7741808599967 Q 315.54744373971505,1237.5846101203351 414.67208701640567,1291.2138958508149" fill="none" stroke="#000000" stroke-width="1.5" marker-end="url(#arrowhead)" />

<path d="M 453.4766647890709,976.4352826865506 Q 455.06201724599885,1134.063794316302 459.10953907359175,1291.2138958508149" fill="none" stroke="#000000" stroke-width="1.5" marker-end="url(#arrowhead)" />

<g><path d="M 226.2548581917581,0.5861384692099819
    L 413.8460490219295,-0.42393854406182074
    Q 420.78926649160564,-0.6074648532943684 420.2611590133136,5.822478820486867
    L 421.00132541476705,54.12119100207783
    Q 421.1622573963061,59.94486755101352 415.4682690896734,59.272526719469894
    L 227.09573635446867,60.84291819261998
    Q 221.54976234235838,60.84143073703162 220.56672115349357,54.1156879832939
    L 220.9483886471309,5.8195619760968835
    Q 221.4072628712078,0.43518644109208254 226.80740196172263,-0.1740607580417418 Z" fill="#a5d8ff" stroke="#1864ab" stroke-width="2.2" />
<line x1="220.28042786271544" y1="42.83720775575577" x2="226.68028975126072" y2="60.41017200548231" stroke="#1864ab" stroke-width="0.7" opacity="0.25" />
<line x1="220.5776879092955" y1="16.960273750717793" x2="235.40075262544997" y2="59.7399235008852" stroke="#1864ab" stroke-width="0.7" opacity="0.25" />
<line x1="223.35445173789776" y1="-0.1564768865973747" x2="244.45178423084872" y2="60.108072906579764" stroke="#1864ab" stroke-width="0.7" opacity="0.25" />
<line x1="232.65112487006445" y1="-0.13223915312846657" x2="253.21453241189374" y2="60.44058342096105" stroke="#1864ab" stroke-width="0.7" opacity="0.25" />
<line x1="241.46052753002732" y1="-0.3195689037656848" x2="262.8134004590611" y2="59.90936176973992" stroke="#1864ab" stroke-width="0.7" opacity="0.25" />
<line x1="250.9438057545267" y1="-0.34433111074758926" x2="271.5185143613053" y2="60.429067521916295" stroke="#1864ab" stroke-width="0.7" opacity="0.25" />
<line x1="259.68254165293183" y1="0.1677269966021413" x2="280.52286241488036" y2="60.429962052478004" stroke="#1864ab" stroke-width="0.7" opacity="0.25" />
<line x1="268.59143389867677" y1="-0.054618182959529804" x2="289.9789002025427" y2="60.29138928926841" stroke="#1864ab" stroke-width="0.7" opacity="0.25" />
<line x1="277.3312370821941" y1="-0.013648224419739563" x2="298.96096940149073" y2="59.60105865212972" stroke="#1864ab" stroke-width="0.7" opacity="0.25" />
<line x1="286.83364771339984" y1="0.3029181346100813" x2="307.7232737674058" y2="59.99169758801145" stroke="#1864ab" stroke-width="0.7" opacity="0.25" />
<line x1="295.55082327158016" y1="-0.4681025684476481" x2="317.11739422153005" y2="60.04677111742785" stroke="#1864ab" stroke-width="0.7" opacity="0.25" />
<line x1="304.4548483284998" y1="0.14759255269746063" x2="325.3674636902797" y2="59.991350013955525" stroke="#1864ab" stroke-width="0.7" opacity="0.25" />
<line x1="313.80248631496215" y1="0.46320257923798636" x2="334.99385334112594" y2="59.59171048167627" stroke="#1864ab" stroke-width="0.7" opacity="0.25" />
<line x1="322.58205864571937" y1="-0.334359974549443" x2="343.3812082516415" y2="60.347892614183365" stroke="#1864ab" stroke-width="0.7" opacity="0.25" />
<line x1="332.01350717995956" y1="0.3359140722841403" x2="352.92720471283246" y2="60.428288069841074" stroke="#1864ab" stroke-width="0.7" opacity="0.25" />
<line x1="340.19843451929046" y1="0.44330623788846424" x2="362.1145735029777" y2="59.82317348699871" stroke="#1864ab" stroke-width="0.7" opacity="0.25" />
<line x1="349.49865920782395" y1="-0.33158866696612677" x2="370.4484890775275" y2="60.18287753256209" stroke="#1864ab" stroke-width="0.7" opacity="0.25" />
<line x1="358.34739082412125" y1="-0.10736422139962087" x2="379.5680490096638" y2="60.25988765528746" stroke="#1864ab" stroke-width="0.7" opacity="0.25" />
<line x1="367.93699108202327" y1="-0.44149515452591004" x2="388.23129169081585" y2="60.119890181318624" stroke="#1864ab" stroke-width="0.7" opacity="0.25" />
<line x1="376.4757804173205" y1="0.21009614917102226" x2="398.153191582438" y2="59.7761890965412" stroke="#1864ab" stroke-width="0.7" opacity="0.25" />
<line x1="385.9377635883757" y1="0.36212912621704163" x2="407.10893618554474" y2="60.37771528189478" stroke="#1864ab" stroke-width="0.7" opacity="0.25" />
<line x1="395.04263601846833" y1="0.006948426107555861" x2="415.4754381931052" y2="59.85000347418827" stroke="#1864ab" stroke-width="0.7" opacity="0.25" />
<line x1="404.03519033960765" y1="0.06278267137531657" x2="420.4884953104265" y2="48.63692347611608" stroke="#1864ab" stroke-width="0.7" opacity="0.25" />
<line x1="412.83047378828496" y1="-0.11822523276350694" x2="420.8044819811694" y2="22.498979579316902" stroke="#1864ab" stroke-width="0.7" opacity="0.25" />
<text x="320.6898232710373" y="30" text-anchor="middle" dominant-baseline="central" font-family="'Virgil', 'Segoe Print', 'Comic Sans MS', 'Patrick Hand', cursive" font-size="18" font-weight="600" fill="#000000"><tspan x="320.6898232710373" dy="0">Setup Agent</tspan></text></g>
<g><path d="M 327.19983512431645,217.8131257533887
    L 438.9115603338978,264.2045569486363
    L 326.0405993489767,307.79921023405404
    L 213.57489642903738,264.0086087603522 Z" fill="#ffec99" stroke="#e67700" stroke-width="1.5" />
<line x1="214.55227774705418" y1="295.8038147625614" x2="218.83236190168827" y2="308.5746267529539" stroke="#e67700" stroke-width="0.7" opacity="0.25" />
<line x1="214.31528972204978" y1="270.05427675694125" x2="227.7363869586079" y2="309.190321874099" stroke="#e67700" stroke-width="0.7" opacity="0.25" />
<line x1="214.1833866648958" y1="244.8266176292977" x2="237.08402494507027" y2="309.50593190063955" stroke="#e67700" stroke-width="0.7" opacity="0.25" />
<line x1="214.88243260145828" y1="219.45257801702974" x2="245.8635972758275" y2="308.7083693468521" stroke="#e67700" stroke-width="0.7" opacity="0.25" />
<line x1="223.7237888179552" y1="219.45959121928172" x2="255.29504581006768" y2="309.3786433936857" stroke="#e67700" stroke-width="0.7" opacity="0.25" />
<line x1="232.31753880513133" y1="219.31184536022192" x2="263.4799731493986" y2="309.48603555929003" stroke="#e67700" stroke-width="0.7" opacity="0.25" />
<line x1="241.6277185898798" y1="218.79791530544753" x2="272.78019783793206" y2="308.71114065443544" stroke="#e67700" stroke-width="0.7" opacity="0.25" />
<line x1="250.60970761990757" y1="218.59725650433575" x2="281.62892945422936" y2="308.93536510000195" stroke="#e67700" stroke-width="0.7" opacity="0.25" />
<line x1="259.22514496407894" y1="219.0905703309254" x2="291.2185297121314" y2="308.60123416687566" stroke="#e67700" stroke-width="0.7" opacity="0.25" />
<line x1="268.5120687508279" y1="218.54577417932524" x2="299.7573190474286" y2="309.2528254705726" stroke="#e67700" stroke-width="0.7" opacity="0.25" />
<line x1="277.6773601663954" y1="219.0479816248553" x2="309.2193022184838" y2="309.4048584476186" stroke="#e67700" stroke-width="0.7" opacity="0.25" />
<line x1="286.8630239582312" y1="218.82749655893713" x2="318.32417464857645" y2="309.0496777475091" stroke="#e67700" stroke-width="0.7" opacity="0.25" />
<line x1="295.4034168311555" y1="218.90164879278473" x2="327.31672896971577" y2="309.1055119927769" stroke="#e67700" stroke-width="0.7" opacity="0.25" />
<line x1="304.5087127633378" y1="219.26335769212164" x2="336.1120124183931" y2="308.92450408863806" stroke="#e67700" stroke-width="0.7" opacity="0.25" />
<line x1="313.4589294350153" y1="219.20413485150857" x2="344.61088320904673" y2="309.3038309136191" stroke="#e67700" stroke-width="0.7" opacity="0.25" />
<line x1="322.718967823399" y1="219.50377886577917" x2="354.1770651582847" y2="309.2228291505089" stroke="#e67700" stroke-width="0.7" opacity="0.25" />
<line x1="331.77892026288555" y1="219.3419756162184" x2="362.6147904923091" y2="309.1939461516522" stroke="#e67700" stroke-width="0.7" opacity="0.25" />
<line x1="340.39567854788766" y1="219.52689625176913" x2="372.36898033192847" y2="308.5975698240436" stroke="#e67700" stroke-width="0.7" opacity="0.25" />
<line x1="349.37900857420027" y1="218.6588473567317" x2="380.7084856884817" y2="308.5923067926051" stroke="#e67700" stroke-width="0.7" opacity="0.25" />
<line x1="358.263685502141" y1="219.33584216143208" x2="390.1863971589919" y2="309.0848785052202" stroke="#e67700" stroke-width="0.7" opacity="0.25" />
<line x1="367.70292263117153" y1="219.5136754305313" x2="398.8162463393928" y2="308.77161955906195" stroke="#e67700" stroke-width="0.7" opacity="0.25" />
<line x1="376.42716568143294" y1="219.45716751359578" x2="408.3222797453527" y2="308.6252421993704" stroke="#e67700" stroke-width="0.7" opacity="0.25" />
<line x1="384.9895180066087" y1="218.6695778436441" x2="416.4896532738203" y2="309.4553274120153" stroke="#e67700" stroke-width="0.7" opacity="0.25" />
<line x1="394.1408779036792" y1="218.72665950263763" x2="426.30218138287023" y2="308.5781709597795" stroke="#e67700" stroke-width="0.7" opacity="0.25" />
<line x1="403.918224637051" y1="219.42369778388093" x2="434.8801866007125" y2="309.13472841560156" stroke="#e67700" stroke-width="0.7" opacity="0.25" />
<line x1="412.4650069145937" y1="219.05882137264416" x2="438.30861299645403" y2="293.514283212197" stroke="#e67700" stroke-width="0.7" opacity="0.25" />
<line x1="421.07721849059976" y1="218.77076668840164" x2="438.94281613140265" y2="267.63247087923185" stroke="#e67700" stroke-width="0.7" opacity="0.25" />
<line x1="430.9121342238941" y1="218.63817615515518" x2="438.0487975332144" y2="241.73194224858682" stroke="#e67700" stroke-width="0.7" opacity="0.25" />
<text x="326.4713619011454" y="264.04272932140157" text-anchor="middle" dominant-baseline="central" font-family="'Virgil', 'Segoe Print', 'Comic Sans MS', 'Patrick Hand', cursive" font-size="15" font-weight="normal" fill="#000000"><tspan x="326.4713619011454" dy="0">Which backend?</tspan></text></g>
<g><path d="M 140.4747171406212,447.3357907506303
    L 291.3944417681967,447.76250764933576
    Q 297.1931076416724,447.30395818321705 298.46579996591765,454.52329828042855
    L 297.68476727118394,488.3644398723176
    Q 297.6939608193032,493.17559352823343 292.4584237748597,493.69868946612405
    L 141.03391946861885,494.341067747098
    Q 135.34203014352315,494.36912282731794 133.89922432232052,487.0150984167485
    L 134.19633190887544,454.39422702266177
    Q 134.2002079249738,448.3242982652831 140.6001340644034,447.30334217962957 Z" fill="#d0ebff" stroke="#1971c2" stroke-width="1.5" />
<line x1="134.6249777596022" y1="476.48129226205594" x2="140.82827741465744" y2="493.5710100871438" stroke="#1971c2" stroke-width="0.7" opacity="0.25" />
<line x1="134.57519443127967" y1="450.70778370715715" x2="149.3271482053111" y2="493.95033691212484" stroke="#1971c2" stroke-width="0.7" opacity="0.25" />
<line x1="142.83523281966336" y1="448.1502848642849" x2="158.89333015454903" y2="493.86933514901466" stroke="#1971c2" stroke-width="0.7" opacity="0.25" />
<line x1="151.8951852591499" y1="447.98848161472415" x2="167.33105548857347" y2="493.84045215015794" stroke="#1971c2" stroke-width="0.7" opacity="0.25" />
<line x1="160.51194354415202" y1="448.1734022502749" x2="177.08524532819283" y2="493.24407582254935" stroke="#1971c2" stroke-width="0.7" opacity="0.25" />
<line x1="169.49527357046463" y1="447.30535335523746" x2="185.42475068474604" y2="493.23881279111083" stroke="#1971c2" stroke-width="0.7" opacity="0.25" />
<line x1="178.37995049840538" y1="447.9823481599378" x2="194.90266215525625" y2="493.73138450372596" stroke="#1971c2" stroke-width="0.7" opacity="0.25" />
<line x1="187.8191876274359" y1="448.16018142903704" x2="203.53251133565718" y2="493.4181255575677" stroke="#1971c2" stroke-width="0.7" opacity="0.25" />
<line x1="196.54343067769733" y1="448.1036735121015" x2="213.03854474161707" y2="493.27174819787615" stroke="#1971c2" stroke-width="0.7" opacity="0.25" />
<line x1="205.10578300287307" y1="447.31608384214985" x2="221.20591827008465" y2="494.10183341052107" stroke="#1971c2" stroke-width="0.7" opacity="0.25" />
<line x1="214.25714289994357" y1="447.3731655011434" x2="231.0184463791346" y2="493.2246769582853" stroke="#1971c2" stroke-width="0.7" opacity="0.25" />
<line x1="224.0344896333154" y1="448.07020378238667" x2="239.59645159697683" y2="493.7812344141073" stroke="#1971c2" stroke-width="0.7" opacity="0.25" />
<line x1="232.58127191085805" y1="447.7053273711499" x2="248.5248779927184" y2="493.87507492498844" stroke="#1971c2" stroke-width="0.7" opacity="0.25" />
<line x1="241.19348348686412" y1="447.4172726869074" x2="258.15908112766704" y2="493.70754830630904" stroke="#1971c2" stroke-width="0.7" opacity="0.25" />
<line x1="251.02839922015846" y1="447.2846821536609" x2="266.26506252947877" y2="493.5213053899497" stroke="#1971c2" stroke-width="0.7" opacity="0.25" />
<line x1="259.60788578788924" y1="447.252109290137" x2="276.1305048369692" y2="493.23956755579275" stroke="#1971c2" stroke-width="0.7" opacity="0.25" />
<line x1="268.1007484613583" y1="447.30490984599965" x2="284.3435315465264" y2="493.81313077272034" stroke="#1971c2" stroke-width="0.7" opacity="0.25" />
<line x1="277.95237177138915" y1="447.99573621165473" x2="293.24495495436133" y2="493.41526902584155" stroke="#1971c2" stroke-width="0.7" opacity="0.25" />
<line x1="286.8072613620934" y1="447.23400724777457" x2="298.2162742963301" y2="480.4121227553275" stroke="#1971c2" stroke-width="0.7" opacity="0.25" />
<text x="216.3376268974098" y="470.6892353199073" text-anchor="middle" dominant-baseline="central" font-family="'Virgil', 'Segoe Print', 'Comic Sans MS', 'Patrick Hand', cursive" font-size="14" font-weight="normal" fill="#000000"><tspan x="216.3376268974098" dy="0">Native MCP Path</tspan></text></g>
<g><path d="M 360.7792768029409,446.7146746893431
    L 511.98889087523276,447.03425630587225
    Q 517.2928735500311,445.6985557372274 518.2470097829446,452.2632248615555
    L 517.3254932397656,485.3959210300403
    Q 518.3257162994429,492.1070001139563 512.3180703071354,492.81820542901187
    L 359.3206047415297,492.48413485008643
    Q 353.552370937505,492.90346006785984 353.8736000032259,485.687657741992
    L 353.20476255101966,451.51488064947534
    Q 353.20500603200054,446.9292298725435 359.2182744699545,445.34377816456544 Z" fill="#d0ebff" stroke="#1971c2" stroke-width="1.5" />
<line x1="354.4530500236651" y1="474.66680658043435" x2="360.2640806553858" y2="492.64458194802137" stroke="#1971c2" stroke-width="0.7" opacity="0.25" />
<line x1="354.08817361242836" y1="448.8809472618902" x2="369.3579211662669" y2="492.1212195361684" stroke="#1971c2" stroke-width="0.7" opacity="0.25" />
<line x1="361.80011892818584" y1="446.658007539696" x2="378.1903945475875" y2="491.6947120265613" stroke="#1971c2" stroke-width="0.7" opacity="0.25" />
<line x1="370.6675283949394" y1="445.7639889415077" x2="387.0041516312282" y2="492.0905489470497" stroke="#1971c2" stroke-width="0.7" opacity="0.25" />
<line x1="379.63495553141547" y1="446.6294312489981" x2="395.7224137970712" y2="492.3034948364766" stroke="#1971c2" stroke-width="0.7" opacity="0.25" />
<line x1="388.6877560872781" y1="445.8424579585553" x2="405.2959770139988" y2="491.8419523376215" stroke="#1971c2" stroke-width="0.7" opacity="0.25" />
<line x1="398.3785824529332" y1="445.74388136639027" x2="413.89811526712003" y2="491.80080860898124" stroke="#1971c2" stroke-width="0.7" opacity="0.25" />
<line x1="406.616853489053" y1="446.31520070835904" x2="423.03782613946316" y2="491.9657980993725" stroke="#1971c2" stroke-width="0.7" opacity="0.25" />
<line x1="416.1327738898517" y1="445.7567210821071" x2="432.13306591707953" y2="491.74810436828557" stroke="#1971c2" stroke-width="0.7" opacity="0.25" />
<line x1="425.1071101085254" y1="446.3395160184864" x2="441.6037184738758" y2="491.9716124574006" stroke="#1971c2" stroke-width="0.7" opacity="0.25" />
<line x1="433.9450958935704" y1="446.6857092138016" x2="449.69272300696286" y2="492.30626026093523" stroke="#1971c2" stroke-width="0.7" opacity="0.25" />
<line x1="443.35645832608134" y1="446.30438635616156" x2="459.1328076724618" y2="492.37446050957715" stroke="#1971c2" stroke-width="0.7" opacity="0.25" />
<line x1="451.6415474733367" y1="445.74741601542337" x2="468.07436534986994" y2="492.6011489168086" stroke="#1971c2" stroke-width="0.7" opacity="0.25" />
<line x1="461.268705607853" y1="446.0440442204199" x2="477.081282573448" y2="492.39185047960564" stroke="#1971c2" stroke-width="0.7" opacity="0.25" />
<line x1="470.1269103183513" y1="445.8612887550489" x2="486.52553442392093" y2="492.5338249609922" stroke="#1971c2" stroke-width="0.7" opacity="0.25" />
<line x1="479.1112814332155" y1="446.3280355029201" x2="494.94087311873375" y2="492.2541660566494" stroke="#1971c2" stroke-width="0.7" opacity="0.25" />
<line x1="487.6106644464817" y1="446.2191301287421" x2="504.4244409666368" y2="492.6412629803026" stroke="#1971c2" stroke-width="0.7" opacity="0.25" />
<line x1="497.1262351190453" y1="445.9853679921216" x2="512.7539527947098" y2="492.5783106784802" stroke="#1971c2" stroke-width="0.7" opacity="0.25" />
<line x1="505.9063713802843" y1="446.43502327274473" x2="517.4798495532959" y2="478.75226447867107" stroke="#1971c2" stroke-width="0.7" opacity="0.25" />
<text x="435.82208156118577" y="469.18655330943875" text-anchor="middle" dominant-baseline="central" font-family="'Virgil', 'Segoe Print', 'Comic Sans MS', 'Patrick Hand', cursive" font-size="14" font-weight="normal" fill="#000000"><tspan x="435.82208156118577" dy="0">Tool Proxy Path</tspan></text></g>
<g><path d="M 6.2171028950280744,604.7495265973739
    L 293.18058947016107,604.5857498789999
    Q 299.75834024089926,603.9568251828241 299.80150553657603,610.8899085404846
    L 299.46954309227004,644.5091088620844
    Q 299.23261479507494,650.4634307525421 293.22630199080305,650.2839564015521
    L 5.21079190592427,650.0325884248043
    Q -0.1330439928595297,650.0896186415833 -0.22536527615666274,644.694026358881
    L 0.06305138521129265,610.6295174372292
    Q 0.7769464428420179,603.9672910272748 5.397855097881257,604.0984350216095 Z" fill="#d0ebff" stroke="#1971c2" stroke-width="1.5" />
<line x1="0.11783304672280792" y1="632.886339243648" x2="6.287907200138395" y2="649.9789137436455" stroke="#1971c2" stroke-width="0.7" opacity="0.25" />
<line x1="-0.4391372940153815" y1="607.1136112067704" x2="15.514595607369845" y2="650.5331045075454" stroke="#1971c2" stroke-width="0.7" opacity="0.25" />
<line x1="7.8574909109811415" y1="604.2633855732056" x2="24.305297170166885" y2="650.2099929989636" stroke="#1971c2" stroke-width="0.7" opacity="0.25" />
<line x1="16.674735445610168" y1="604.7076374236785" x2="33.44727165155345" y2="650.3598936432754" stroke="#1971c2" stroke-width="0.7" opacity="0.25" />
<line x1="26.14148219348135" y1="604.1229761184914" x2="42.167612747210654" y2="650.2470088050759" stroke="#1971c2" stroke-width="0.7" opacity="0.25" />
<line x1="35.03257681930336" y1="604.6065439663944" x2="51.55470967086384" y2="650.3645896207308" stroke="#1971c2" stroke-width="0.7" opacity="0.25" />
<line x1="43.79881468268286" y1="603.9360557944674" x2="60.49175736904144" y2="650.0626170925907" stroke="#1971c2" stroke-width="0.7" opacity="0.25" />
<line x1="53.24846996330598" y1="604.2619525530536" x2="68.80856831208948" y2="649.917968716436" stroke="#1971c2" stroke-width="0.7" opacity="0.25" />
<line x1="62.27390780704263" y1="604.5414974302039" x2="77.94815807455015" y2="650.7884265481989" stroke="#1971c2" stroke-width="0.7" opacity="0.25" />
<line x1="70.98347578987887" y1="604.5599275223867" x2="86.95964567190967" y2="649.9570200165472" stroke="#1971c2" stroke-width="0.7" opacity="0.25" />
<line x1="80.0567586776524" y1="604.5673306630924" x2="95.75375162845157" y2="650.608445826314" stroke="#1971c2" stroke-width="0.7" opacity="0.25" />
<line x1="89.40053849144897" y1="604.0928719532021" x2="105.49730055994732" y2="649.9960425187164" stroke="#1971c2" stroke-width="0.7" opacity="0.25" />
<line x1="98.07446835616429" y1="604.5384590715257" x2="113.84545143757131" y2="649.8868687247596" stroke="#1971c2" stroke-width="0.7" opacity="0.25" />
<line x1="106.81104862655593" y1="604.2784740186034" x2="123.31266581529925" y2="650.4092788661328" stroke="#1971c2" stroke-width="0.7" opacity="0.25" />
<line x1="116.4873380543795" y1="604.7224392963926" x2="132.19238515516335" y2="649.8564246357491" stroke="#1971c2" stroke-width="0.7" opacity="0.25" />
<line x1="124.5857731194701" y1="604.3410583249788" x2="141.40190373062214" y2="649.9449055717851" stroke="#1971c2" stroke-width="0.7" opacity="0.25" />
<line x1="134.28787356620887" y1="604.4697074144424" x2="149.64507402871968" y2="649.9424193430586" stroke="#1971c2" stroke-width="0.7" opacity="0.25" />
<line x1="143.14099061546585" y1="604.6281460282189" x2="159.51987249216253" y2="650.518521226084" stroke="#1971c2" stroke-width="0.7" opacity="0.25" />
<line x1="152.2478668720778" y1="604.6177986226903" x2="168.04213696169754" y2="649.8753179504747" stroke="#1971c2" stroke-width="0.7" opacity="0.25" />
<line x1="161.16250212122395" y1="604.0377002597525" x2="177.1128114742838" y2="650.6306996204148" stroke="#1971c2" stroke-width="0.7" opacity="0.25" />
<line x1="170.03377623479537" y1="604.235531011931" x2="185.9493177049895" y2="650.7300585077537" stroke="#1971c2" stroke-width="0.7" opacity="0.25" />
<line x1="178.63217784489825" y1="604.196320545565" x2="194.63224053390294" y2="650.1230249525015" stroke="#1971c2" stroke-width="0.7" opacity="0.25" />
<line x1="188.20673712436837" y1="604.5550169063645" x2="203.87491294805804" y2="650.4678313253535" stroke="#1971c2" stroke-width="0.7" opacity="0.25" />
<line x1="197.38721145298405" y1="604.7198660024078" x2="213.25772891436063" y2="650.1636536648984" stroke="#1971c2" stroke-width="0.7" opacity="0.25" />
<line x1="206.27242593318078" y1="604.8347759456592" x2="222.056520520318" y2="649.8722743612088" stroke="#1971c2" stroke-width="0.7" opacity="0.25" />
<line x1="215.12255012394235" y1="604.7243942587374" x2="230.83814423454314" y2="650.3468751212204" stroke="#1971c2" stroke-width="0.7" opacity="0.25" />
<line x1="224.40194377504668" y1="604.7872194033444" x2="239.6413546647469" y2="650.4907101565914" stroke="#1971c2" stroke-width="0.7" opacity="0.25" />
<line x1="232.71327520440536" y1="604.3214954598443" x2="248.8215053368618" y2="650.1407208474775" stroke="#1971c2" stroke-width="0.7" opacity="0.25" />
<line x1="242.42778255218764" y1="604.3581353179179" x2="258.17712257624373" y2="650.3650822652762" stroke="#1971c2" stroke-width="0.7" opacity="0.25" />
<line x1="251.0808668777754" y1="604.6332909881676" x2="266.90101937386646" y2="650.0710230862314" stroke="#1971c2" stroke-width="0.7" opacity="0.25" />
<line x1="259.87795951326007" y1="604.5030814651109" x2="276.17087566012344" y2="650.444519093151" stroke="#1971c2" stroke-width="0.7" opacity="0.25" />
<line x1="268.98644452345616" y1="604.339696170864" x2="285.24203634291337" y2="650.1803666411961" stroke="#1971c2" stroke-width="0.7" opacity="0.25" />
<line x1="278.3340583283134" y1="603.9387528800216" x2="294.11138416527103" y2="650.4146573086255" stroke="#1971c2" stroke-width="0.7" opacity="0.25" />
<line x1="287.1838609448896" y1="604.2312203872425" x2="299.7024596406918" y2="641.4294136778974" stroke="#1971c2" stroke-width="0.7" opacity="0.25" />
<line x1="295.82605859402247" y1="604.2732673106184" x2="299.97849793898786" y2="616.1367144288587" stroke="#1971c2" stroke-width="0.7" opacity="0.25" />
<text x="150" y="627.3541845609434" text-anchor="middle" dominant-baseline="central" font-family="'Virgil', 'Segoe Print', 'Comic Sans MS', 'Patrick Hand', cursive" font-size="14" font-weight="normal" fill="#000000"><tspan x="150" dy="0">claude -p --mcp-config .mcp.json</tspan></text></g>
<g><path d="M 346.8880637616584,599.9032769936242
    L 634.1125067196461,600.0355377050452
    Q 639.1406837474565,599.4163667991336 638.77593450539,605.5256348222945
    L 640.2950655546399,639.7602290244489
    Q 639.1463830430013,646.6945893719236 634.0024239503643,645.9282398534372
    L 346.94689636275535,645.7918009343514
    Q 339.84702037223803,646.7730742379441 339.2656614984236,639.7003258166442
    L 340.1355172074774,606.5718926498448
    Q 339.91262299513284,599.4866591393336 345.77025723051366,600.2397340979369 Z" fill="#d0ebff" stroke="#1971c2" stroke-width="1.5" />
<line x1="339.90394817795413" y1="629.1702844506227" x2="345.90711874346846" y2="646.5613380599025" stroke="#1971c2" stroke-width="0.7" opacity="0.25" />
<line x1="340.34953529627774" y1="602.804149613961" x2="354.7979449495116" y2="646.3955077296268" stroke="#1971c2" stroke-width="0.7" opacity="0.25" />
<line x1="348.08955024335546" y1="600.4142211345461" x2="364.32035509088485" y2="645.8177874013709" stroke="#1971c2" stroke-width="0.7" opacity="0.25" />
<line x1="357.53351552114464" y1="600.2939404744102" x2="372.7675008605012" y2="645.8471335385693" stroke="#1971c2" stroke-width="0.7" opacity="0.25" />
<line x1="366.1521345497308" y1="600.503459049869" x2="381.8559817965371" y2="646.2709392357065" stroke="#1971c2" stroke-width="0.7" opacity="0.25" />
<line x1="375.2807836391944" y1="599.7466293479665" x2="390.8534955678107" y2="646.6329844330467" stroke="#1971c2" stroke-width="0.7" opacity="0.25" />
<line x1="384.4392222529709" y1="600.6214278114094" x2="400.429597450836" y2="646.4050827558367" stroke="#1971c2" stroke-width="0.7" opacity="0.25" />
<line x1="393.42887484744233" y1="600.1436922809444" x2="408.78639417522675" y2="646.0484238747231" stroke="#1971c2" stroke-width="0.7" opacity="0.25" />
<line x1="401.84877648450447" y1="600.2143667935306" x2="418.54177584516685" y2="646.6432472618981" stroke="#1971c2" stroke-width="0.7" opacity="0.25" />
<line x1="411.04660723668303" y1="600.0508730242364" x2="427.64113473250575" y2="646.462911660994" stroke="#1971c2" stroke-width="0.7" opacity="0.25" />
<line x1="420.007396770317" y1="599.7337958531498" x2="436.03410117725355" y2="646.5414848518558" stroke="#1971c2" stroke-width="0.7" opacity="0.25" />
<line x1="429.3660931311165" y1="599.9764682673049" x2="445.3789075501055" y2="646.6671595651842" stroke="#1971c2" stroke-width="0.7" opacity="0.25" />
<line x1="438.5309422271598" y1="600.3592842336075" x2="454.0747298896505" y2="645.8257743162176" stroke="#1971c2" stroke-width="0.7" opacity="0.25" />
<line x1="447.6458521704112" y1="600.1580758395648" x2="462.7833505859609" y2="646.1246530266835" stroke="#1971c2" stroke-width="0.7" opacity="0.25" />
<line x1="456.53547048348946" y1="599.93969955379" x2="472.2579513459724" y2="646.4985426542189" stroke="#1971c2" stroke-width="0.7" opacity="0.25" />
<line x1="465.59829562809637" y1="599.7429099839937" x2="481.4017863813434" y2="646.6893424280424" stroke="#1971c2" stroke-width="0.7" opacity="0.25" />
<line x1="474.1325716845963" y1="599.9230606561086" x2="490.05179707222953" y2="645.8539999714976" stroke="#1971c2" stroke-width="0.7" opacity="0.25" />
<line x1="483.1692115426699" y1="600.2786778954905" x2="499.27615849002825" y2="646.3077935911206" stroke="#1971c2" stroke-width="0.7" opacity="0.25" />
<line x1="492.4443672129196" y1="600.0025746931133" x2="507.9820993109835" y2="646.5257656788035" stroke="#1971c2" stroke-width="0.7" opacity="0.25" />
<line x1="501.3141576898629" y1="600.2724309793703" x2="517.3555953179031" y2="646.0736278563345" stroke="#1971c2" stroke-width="0.7" opacity="0.25" />
<line x1="510.15077239561606" y1="600.3435916621602" x2="526.0914428659481" y2="646.05914957387" stroke="#1971c2" stroke-width="0.7" opacity="0.25" />
<line x1="518.7498291047737" y1="600.2129394845178" x2="535.3257335333775" y2="645.7696127353411" stroke="#1971c2" stroke-width="0.7" opacity="0.25" />
<line x1="528.0422966119945" y1="599.9040149599386" x2="544.1976327597923" y2="646.1061407767484" stroke="#1971c2" stroke-width="0.7" opacity="0.25" />
<line x1="537.0843435353704" y1="600.1800532582347" x2="553.6192192250393" y2="645.9267693174024" stroke="#1971c2" stroke-width="0.7" opacity="0.25" />
<line x1="545.7575614823722" y1="599.8119839963547" x2="561.9185444318292" y2="645.7543019509394" stroke="#1971c2" stroke-width="0.7" opacity="0.25" />
<line x1="555.1670740922286" y1="600.6326345897396" x2="571.5003494253261" y2="646.1179386112781" stroke="#1971c2" stroke-width="0.7" opacity="0.25" />
<line x1="564.0086262803302" y1="600.3330114088658" x2="580.6066047782307" y2="645.9718744037345" stroke="#1971c2" stroke-width="0.7" opacity="0.25" />
<line x1="572.8429780461297" y1="600.4190955264494" x2="589.7363377842477" y2="646.5234082743773" stroke="#1971c2" stroke-width="0.7" opacity="0.25" />
<line x1="582.1843603238917" y1="600.5788204634082" x2="598.263056355857" y2="646.2457256362777" stroke="#1971c2" stroke-width="0.7" opacity="0.25" />
<line x1="591.6191243741773" y1="600.508051825982" x2="607.700115258028" y2="646.3727265582711" stroke="#1971c2" stroke-width="0.7" opacity="0.25" />
<line x1="600.647178675586" y1="600.0059892329882" x2="616.0276418086843" y2="646.0363807853864" stroke="#1971c2" stroke-width="0.7" opacity="0.25" />
<line x1="609.1498758665471" y1="599.9236012215697" x2="625.355874964299" y2="646.6107350587627" stroke="#1971c2" stroke-width="0.7" opacity="0.25" />
<line x1="617.8731282888107" y1="600.5856264178728" x2="633.9113654194963" y2="646.5160626100987" stroke="#1971c2" stroke-width="0.7" opacity="0.25" />
<line x1="627.0040436938648" y1="599.7229655931369" x2="640.0997430758794" y2="636.1462372613436" stroke="#1971c2" stroke-width="0.7" opacity="0.25" />
<line x1="635.7516320958816" y1="600.3186283211908" x2="639.7137854881289" y2="610.3496263785273" stroke="#1971c2" stroke-width="0.7" opacity="0.25" />
<text x="489.9152607856954" y="623.2015553192468" text-anchor="middle" dominant-baseline="central" font-family="'Virgil', 'Segoe Print', 'Comic Sans MS', 'Patrick Hand', cursive" font-size="14" font-weight="normal" fill="#000000"><tspan x="489.9152607856954" dy="0">Inject tool catalog into prompt</tspan></text></g>
<g><path d="M 203.3311263794123,755.8610411921236
    L 422.6262459647449,755.3107273534391
    Q 427.2897807547568,755.1392442222408 428.3751262280031,761.755654125502
    L 427.42807257360545,796.0852036734228
    Q 428.44424447180353,800.8452090802399 422.17480130731127,801.9126079294322
    L 203.44678615037265,800.6853147399336
    Q 197.23912835181363,801.6517423493118 197.43725020830607,795.4756780450152
    L 196.43816426537813,761.1436526913647
    Q 197.328313757859,755.8853222375285 203.0189554048753,756.1521826745011 Z" fill="#d0ebff" stroke="#1971c2" stroke-width="1.5" />
<line x1="196.42665360165847" y1="784.0999561582222" x2="203.21734489953778" y2="801.3068248697527" stroke="#1971c2" stroke-width="0.7" opacity="0.25" />
<line x1="196.80946956796106" y1="758.0814927834815" x2="211.37595965057116" y2="801.3779620973273" stroke="#1971c2" stroke-width="0.7" opacity="0.25" />
<line x1="204.60826117391844" y1="754.932970622649" x2="220.6748383610371" y2="801.4776834524891" stroke="#1971c2" stroke-width="0.7" opacity="0.25" />
<line x1="213.38988488814357" y1="755.4075713826605" x2="230.0487279885725" y2="801.5079055285823" stroke="#1971c2" stroke-width="0.7" opacity="0.25" />
<line x1="222.19309531834733" y1="755.5514064180315" x2="239.23952776239602" y2="800.9242238159422" stroke="#1971c2" stroke-width="0.7" opacity="0.25" />
<line x1="231.37324599046224" y1="755.2014171089177" x2="247.4041853058512" y2="801.8704450357836" stroke="#1971c2" stroke-width="0.7" opacity="0.25" />
<line x1="240.72886322984414" y1="755.4257785267164" x2="256.8579789254742" y2="801.6775464547482" stroke="#1971c2" stroke-width="0.7" opacity="0.25" />
<line x1="249.45276002746687" y1="755.1317193476716" x2="266.0759510131571" y2="800.9156333778665" stroke="#1971c2" stroke-width="0.7" opacity="0.25" />
<line x1="258.72261631372385" y1="755.5052153545912" x2="274.6238131906881" y2="801.0993834228739" stroke="#1971c2" stroke-width="0.7" opacity="0.25" />
<line x1="267.79377699651377" y1="755.2410629026363" x2="283.60933490822356" y2="800.9434741952427" stroke="#1971c2" stroke-width="0.7" opacity="0.25" />
<line x1="276.66312481887144" y1="755.4753535700656" x2="292.3197980696947" y2="801.5032228237324" stroke="#1971c2" stroke-width="0.7" opacity="0.25" />
<line x1="285.35420029429224" y1="755.3472527964805" x2="301.656326111102" y2="801.7343526810437" stroke="#1971c2" stroke-width="0.7" opacity="0.25" />
<line x1="294.6302385925883" y1="755.7688392617274" x2="310.47695465175605" y2="801.0898263954659" stroke="#1971c2" stroke-width="0.7" opacity="0.25" />
<line x1="303.2621693307083" y1="755.0681644685174" x2="319.304487285293" y2="801.7814756394619" stroke="#1971c2" stroke-width="0.7" opacity="0.25" />
<line x1="313.0828199240932" y1="755.6499694620143" x2="328.6681239456317" y2="801.7272280689867" stroke="#1971c2" stroke-width="0.7" opacity="0.25" />
<line x1="321.7831967432194" y1="755.7562248149188" x2="337.52205973808816" y2="801.1978184728578" stroke="#1971c2" stroke-width="0.7" opacity="0.25" />
<line x1="330.869280860803" y1="755.8859578209358" x2="347.0735936087309" y2="801.6083252347344" stroke="#1971c2" stroke-width="0.7" opacity="0.25" />
<line x1="340.0290057977618" y1="755.4126763925451" x2="355.7959109706313" y2="801.7860535657892" stroke="#1971c2" stroke-width="0.7" opacity="0.25" />
<line x1="348.95823716033556" y1="755.8497352947161" x2="364.9229118926247" y2="801.2891589634783" stroke="#1971c2" stroke-width="0.7" opacity="0.25" />
<line x1="357.4561745673418" y1="755.1772618453724" x2="373.58656611974004" y2="801.1397502964537" stroke="#1971c2" stroke-width="0.7" opacity="0.25" />
<line x1="366.3737865559233" y1="755.5054950009871" x2="383.16092039311627" y2="800.9762530625085" stroke="#1971c2" stroke-width="0.7" opacity="0.25" />
<line x1="376.03581175222644" y1="755.0609854561844" x2="392.06624794445236" y2="801.6841258476743" stroke="#1971c2" stroke-width="0.7" opacity="0.25" />
<line x1="384.1731509274905" y1="755.8493631125675" x2="400.9821368814115" y2="801.8932879915665" stroke="#1971c2" stroke-width="0.7" opacity="0.25" />
<line x1="393.76881365554436" y1="755.4634055248171" x2="409.89981171288093" y2="801.8660624680342" stroke="#1971c2" stroke-width="0.7" opacity="0.25" />
<line x1="402.6594833574127" y1="755.5414305550294" x2="419.0572608778326" y2="800.9517745156845" stroke="#1971c2" stroke-width="0.7" opacity="0.25" />
<line x1="411.2279814465164" y1="755.8974186525156" x2="427.5968723257771" y2="801.7237286963718" stroke="#1971c2" stroke-width="0.7" opacity="0.25" />
<line x1="420.9895872192137" y1="755.2832168223631" x2="428.1595360907231" y2="777.0942701632765" stroke="#1971c2" stroke-width="0.7" opacity="0.25" />
<text x="312.4017406536004" y="778.4148808223836" text-anchor="middle" dominant-baseline="central" font-family="'Virgil', 'Segoe Print', 'Comic Sans MS', 'Patrick Hand', cursive" font-size="14" font-weight="normal" fill="#000000"><tspan x="312.4017406536004" dy="0">MCP Server - TypeScript</tspan></text></g>
<g><path d="M 52.651420991457414,916.6589203745316
    L 254.64769548442126,915.6468381510465
    Q 261.5894392586637,915.2578834053973 260.90507727433067,921.9134633289389
    L 260.81522464846347,955.9368559293962
    Q 261.2738750389632,962.2841049937502 255.16846276943542,961.9262593722858
    L 51.93796529234423,962.1028515094309
    Q 45.91789814754411,962.7593105652326 46.48146075368277,956.1304497033852
    L 46.7615260287057,921.8436565499829
    Q 46.24953026978328,915.3079968766746 52.71266831742723,915.2824970264337 Z" fill="#d0ebff" stroke="#1971c2" stroke-width="1.5" />
<line x1="46.43823258555858" y1="944.6325428344581" x2="52.92533247012179" y2="961.9244963774545" stroke="#1971c2" stroke-width="0.7" opacity="0.25" />
<line x1="46.85981905080553" y1="918.7388856608266" x2="61.28080618454405" y2="962.2598614342387" stroke="#1971c2" stroke-width="0.7" opacity="0.25" />
<line x1="54.15914425759547" y1="915.7092754372206" x2="70.97245542853997" y2="962.5288447267521" stroke="#1971c2" stroke-width="0.7" opacity="0.25" />
<line x1="63.74094925109239" y1="916.0729120975593" x2="79.91820785806485" y2="961.9896748882165" stroke="#1971c2" stroke-width="0.7" opacity="0.25" />
<line x1="72.84720460399694" y1="915.9268478900158" x2="88.38879826193588" y2="961.8026523871522" stroke="#1971c2" stroke-width="0.7" opacity="0.25" />
<line x1="81.97693761001392" y1="916.4783817606585" x2="97.79930502381248" y2="962.4247657859014" stroke="#1971c2" stroke-width="0.7" opacity="0.25" />
<line x1="90.50365618162323" y1="916.200699122559" x2="106.9770333548673" y2="962.6383871972612" stroke="#1971c2" stroke-width="0.7" opacity="0.25" />
<line x1="99.9407150837942" y1="916.3277000445523" x2="115.48013875255637" y2="962.6442073301587" stroke="#1971c2" stroke-width="0.7" opacity="0.25" />
<line x1="108.26824163445053" y1="915.9913542716677" x2="124.33073008553183" y2="962.1415177162198" stroke="#1971c2" stroke-width="0.7" opacity="0.25" />
<line x1="117.59647479006526" y1="916.5657085450439" x2="133.1672328515866" y2="961.8027847441335" stroke="#1971c2" stroke-width="0.7" opacity="0.25" />
<line x1="126.15196524526255" y1="916.47103609638" x2="142.8751056367524" y2="961.7550725936308" stroke="#1971c2" stroke-width="0.7" opacity="0.25" />
<line x1="135.94034290164564" y1="916.3869250333391" x2="152.08426778064458" y2="962.5213823770246" stroke="#1971c2" stroke-width="0.7" opacity="0.25" />
<line x1="144.55438531389518" y1="916.3045998648086" x2="161.05704225711233" y2="961.7413274056817" stroke="#1971c2" stroke-width="0.7" opacity="0.25" />
<line x1="153.63241034410748" y1="916.4620490297602" x2="169.14275430476263" y2="962.4412109526893" stroke="#1971c2" stroke-width="0.7" opacity="0.25" />
<line x1="162.98839844159374" y1="916.0016604777047" x2="178.91470848544995" y2="961.7693684167971" stroke="#1971c2" stroke-width="0.7" opacity="0.25" />
<line x1="171.37419661144122" y1="916.1643242426508" x2="187.8566785237832" y2="962.2316280650339" stroke="#1971c2" stroke-width="0.7" opacity="0.25" />
<line x1="180.7151505195361" y1="915.7638557338068" x2="196.18622461088816" y2="962.4782182425879" stroke="#1971c2" stroke-width="0.7" opacity="0.25" />
<line x1="189.93926498899236" y1="916.5211501147278" x2="205.42298018889105" y2="962.3534307204463" stroke="#1971c2" stroke-width="0.7" opacity="0.25" />
<line x1="198.6283840947799" y1="916.3428710251101" x2="214.39840177212463" y2="961.6781817614419" stroke="#1971c2" stroke-width="0.7" opacity="0.25" />
<line x1="207.68448624086886" y1="916.6405635074188" x2="223.7230543167985" y2="962.6384487826581" stroke="#1971c2" stroke-width="0.7" opacity="0.25" />
<line x1="216.32232494907475" y1="916.1245581117255" x2="232.8622732104901" y2="962.3652763856662" stroke="#1971c2" stroke-width="0.7" opacity="0.25" />
<line x1="225.64856206061813" y1="916.426671637586" x2="241.33251358719426" y2="962.6177196380122" stroke="#1971c2" stroke-width="0.7" opacity="0.25" />
<line x1="234.14644626437075" y1="916.5037728568568" x2="250.75091630964343" y2="962.6152196409021" stroke="#1971c2" stroke-width="0.7" opacity="0.25" />
<line x1="244.00486712686688" y1="916.3799856420883" x2="259.93379185398373" y2="962.5736626990092" stroke="#1971c2" stroke-width="0.7" opacity="0.25" />
<line x1="252.11432205476012" y1="915.7761361195953" x2="260.71277986100176" y2="940.5373616094189" stroke="#1971c2" stroke-width="0.7" opacity="0.25" />
<text x="153.75586061146169" y="939.1565288055281" text-anchor="middle" dominant-baseline="central" font-family="'Virgil', 'Segoe Print', 'Comic Sans MS', 'Patrick Hand', cursive" font-size="14" font-weight="normal" fill="#000000"><tspan x="153.75586061146169" dy="0">Python Bridge - stdio</tspan></text></g>
<g><path d="M 314.25677773030475,916.9869763986738
    L 593.2225613212358,916.7433909167943
    Q 598.2135239250077,917.3131040308857 597.7432692953037,922.7178345977372
    L 598.8425309334896,971.3027348883537
    Q 598.0878043157718,976.0075685279305 592.1425091100886,975.940047739877
    L 313.41280331028247,975.8404801558324
    Q 306.65589208464155,975.7003959146299 307.4121304165703,969.9349653107317
    L 307.60292879252376,923.1718062176791
    Q 306.6502933032622,915.7985433760405 314.1597079600324,916.2819087652155 Z" fill="#a5d8ff" stroke="#1864ab" stroke-width="2.2" />
<line x1="307.5826192059976" y1="959.5136199868919" x2="313.2786061792067" y2="975.9566929604407" stroke="#1864ab" stroke-width="0.7" opacity="0.25" />
<line x1="306.98220121367194" y1="933.8154273625298" x2="322.02619458122354" y2="976.5523556884946" stroke="#1864ab" stroke-width="0.7" opacity="0.25" />
<line x1="309.98006082727807" y1="916.9279515517846" x2="331.1469930785315" y2="976.4430253903629" stroke="#1864ab" stroke-width="0.7" opacity="0.25" />
<line x1="319.7912437596751" y1="916.8474238463241" x2="340.20158357929176" y2="976.0115234794666" stroke="#1864ab" stroke-width="0.7" opacity="0.25" />
<line x1="328.0757719344474" y1="916.7218240579823" x2="348.9692576096495" y2="976.7731292521639" stroke="#1864ab" stroke-width="0.7" opacity="0.25" />
<line x1="337.1343471059081" y1="916.0219124400974" x2="357.98535105475094" y2="976.3107382724993" stroke="#1864ab" stroke-width="0.7" opacity="0.25" />
<line x1="346.312643465164" y1="916.658405080676" x2="367.9314702136253" y2="976.5855399689463" stroke="#1864ab" stroke-width="0.7" opacity="0.25" />
<line x1="355.40325958732865" y1="916.5150754196366" x2="376.708777032155" y2="976.7897194801699" stroke="#1864ab" stroke-width="0.7" opacity="0.25" />
<line x1="364.81155320624384" y1="916.5546813975379" x2="385.4595861444177" y2="976.2433456693061" stroke="#1864ab" stroke-width="0.7" opacity="0.25" />
<line x1="372.9873935466021" y1="916.7427653028608" x2="394.5458594462543" y2="976.1390574644174" stroke="#1864ab" stroke-width="0.7" opacity="0.25" />
<line x1="381.95067728904905" y1="916.7093517542598" x2="403.2614139765392" y2="976.3759101720934" stroke="#1864ab" stroke-width="0.7" opacity="0.25" />
<line x1="391.041214604149" y1="916.2788340009593" x2="412.46909765410237" y2="976.3278477371932" stroke="#1864ab" stroke-width="0.7" opacity="0.25" />
<line x1="400.24426795951877" y1="916.4453643978413" x2="421.2068688408872" y2="976.2441802853573" stroke="#1864ab" stroke-width="0.7" opacity="0.25" />
<line x1="409.69345814119515" y1="916.7087785637414" x2="430.0772513378033" y2="976.7407010877905" stroke="#1864ab" stroke-width="0.7" opacity="0.25" />
<line x1="418.300552832261" y1="916.3191986001038" x2="439.27289082515927" y2="976.9084444149194" stroke="#1864ab" stroke-width="0.7" opacity="0.25" />
<line x1="427.4962110090637" y1="915.9753443235822" x2="448.471648384515" y2="976.9005681821509" stroke="#1864ab" stroke-width="0.7" opacity="0.25" />
<line x1="436.4693688973566" y1="916.8105901352747" x2="457.65129301112756" y2="976.1537187636568" stroke="#1864ab" stroke-width="0.7" opacity="0.25" />
<line x1="445.1794168598244" y1="916.6519075636243" x2="466.4347068925108" y2="976.3153718231042" stroke="#1864ab" stroke-width="0.7" opacity="0.25" />
<line x1="454.2605429411233" y1="916.4400880475841" x2="475.6697050823641" y2="976.326221076521" stroke="#1864ab" stroke-width="0.7" opacity="0.25" />
<line x1="463.1753396186177" y1="916.6310730193509" x2="484.7007646278653" y2="976.5140793260434" stroke="#1864ab" stroke-width="0.7" opacity="0.25" />
<line x1="472.2393365123653" y1="915.985456280483" x2="493.39898926780006" y2="975.9617313589151" stroke="#1864ab" stroke-width="0.7" opacity="0.25" />
<line x1="481.75049329882313" y1="916.7534322939432" x2="502.78799660881486" y2="976.5254979016827" stroke="#1864ab" stroke-width="0.7" opacity="0.25" />
<line x1="490.2068840982138" y1="916.7675793972594" x2="511.08487908214374" y2="976.5588228419001" stroke="#1864ab" stroke-width="0.7" opacity="0.25" />
<line x1="499.75852672381006" y1="916.8318898665748" x2="520.9263047046479" y2="976.239758118747" stroke="#1864ab" stroke-width="0.7" opacity="0.25" />
<line x1="508.58419780182885" y1="916.7933442925387" x2="529.3910704614173" y2="976.1998271065895" stroke="#1864ab" stroke-width="0.7" opacity="0.25" />
<line x1="517.1571975818108" y1="916.3882329940388" x2="538.5409693450165" y2="976.8472668742979" stroke="#1864ab" stroke-width="0.7" opacity="0.25" />
<line x1="526.6694580183466" y1="916.3058233361146" x2="547.2463562120392" y2="976.0034027728325" stroke="#1864ab" stroke-width="0.7" opacity="0.25" />
<line x1="535.8046492489411" y1="916.6139542039891" x2="556.5460919721481" y2="976.1472131525006" stroke="#1864ab" stroke-width="0.7" opacity="0.25" />
<line x1="544.8951071338815" y1="916.658016934005" x2="565.4726162952575" y2="976.8355624777882" stroke="#1864ab" stroke-width="0.7" opacity="0.25" />
<line x1="553.382298576551" y1="916.0263632767419" x2="574.6817855895133" y2="976.2351503343889" stroke="#1864ab" stroke-width="0.7" opacity="0.25" />
<line x1="562.0423643208372" y1="916.8118323603776" x2="583.3730947170006" y2="976.8773151300666" stroke="#1864ab" stroke-width="0.7" opacity="0.25" />
<line x1="571.010791773253" y1="916.7043443793245" x2="592.1733590274089" y2="976.8974695700745" stroke="#1864ab" stroke-width="0.7" opacity="0.25" />
<line x1="580.5656229188644" y1="916.9235631680785" x2="598.4021166167829" y2="967.8696556212006" stroke="#1864ab" stroke-width="0.7" opacity="0.25" />
<line x1="589.1269031326156" y1="916.8227555855628" x2="598.9063572602463" y2="941.8560875148836" stroke="#1864ab" stroke-width="0.7" opacity="0.25" />
<text x="452.9398232710373" y="946.4352826865506" text-anchor="middle" dominant-baseline="central" font-family="'Virgil', 'Segoe Print', 'Comic Sans MS', 'Patrick Hand', cursive" font-size="18" font-weight="600" fill="#000000"><tspan x="452.9398232710373" dy="0">Execute locally via dispatch()</tspan></text></g>
<g><path d="M 59.93797697614791,1133.9947231299695
    L 287.6354067428809,1133.40075494919
    Q 292.4389660682782,1133.5111607436484 293.96910463100505,1139.9890985397737
    L 293.33556391971797,1173.4286942289566
    Q 293.6215168805662,1180.6454433234 287.51093941723957,1180.6416368188306
    L 58.840806405833064,1178.9598073560132
    Q 53.85345945699155,1179.9650459753873 52.76678534779349,1173.4438166677003
    L 53.24244349878863,1140.2357235382478
    Q 53.67573639188195,1134.5334192227688 58.41952798005441,1134.2675051818733 Z" fill="#d0ebff" stroke="#1971c2" stroke-width="1.5" />
<line x1="53.445046445815024" y1="1162.8043002667994" x2="59.519804461322195" y2="1179.5786255484782" stroke="#1971c2" stroke-width="0.7" opacity="0.25" />
<line x1="53.6279219901553" y1="1137.0484576106207" x2="68.56851661415712" y2="1180.0278157301545" stroke="#1971c2" stroke-width="0.7" opacity="0.25" />
<line x1="61.00690999717335" y1="1133.8692993781733" x2="77.46227434980173" y2="1179.6349104212204" stroke="#1971c2" stroke-width="0.7" opacity="0.25" />
<line x1="70.53314308822155" y1="1133.8829629160318" x2="86.05897831270849" y2="1179.830568598023" stroke="#1971c2" stroke-width="0.7" opacity="0.25" />
<line x1="79.54855112296354" y1="1134.092701351885" x2="95.84697500814363" y2="1179.803726486316" stroke="#1971c2" stroke-width="0.7" opacity="0.25" />
<line x1="88.15096657551476" y1="1133.853381107714" x2="104.25467673294187" y2="1179.5137744487838" stroke="#1971c2" stroke-width="0.7" opacity="0.25" />
<line x1="97.43060626564693" y1="1133.864317870769" x2="113.30998168339428" y2="1179.5949005300827" stroke="#1971c2" stroke-width="0.7" opacity="0.25" />
<line x1="105.91713293649809" y1="1133.4748844821588" x2="122.46490584003467" y2="1179.5096972075771" stroke="#1971c2" stroke-width="0.7" opacity="0.25" />
<line x1="115.51975887129811" y1="1134.1328150676454" x2="131.8304507663357" y2="1179.5736941013247" stroke="#1971c2" stroke-width="0.7" opacity="0.25" />
<line x1="124.22336598707625" y1="1134.0441639451055" x2="140.4814754717896" y2="1180.0848508877825" stroke="#1971c2" stroke-width="0.7" opacity="0.25" />
<line x1="133.29593672924602" y1="1133.4101142747604" x2="149.36279286208227" y2="1179.5412416871732" stroke="#1971c2" stroke-width="0.7" opacity="0.25" />
<line x1="142.03162474607234" y1="1133.5299950650624" x2="158.7741726423861" y2="1180.0928843127695" stroke="#1971c2" stroke-width="0.7" opacity="0.25" />
<line x1="150.86551577819773" y1="1133.7886172315848" x2="167.0710339567423" y2="1179.9185553907882" stroke="#1971c2" stroke-width="0.7" opacity="0.25" />
<line x1="160.7846154043218" y1="1133.8296353441947" x2="176.57762387592956" y2="1179.4915551707702" stroke="#1971c2" stroke-width="0.7" opacity="0.25" />
<line x1="169.55129616761405" y1="1133.6562899891323" x2="185.04882069303275" y2="1180.003815607306" stroke="#1971c2" stroke-width="0.7" opacity="0.25" />
<line x1="177.82038897220764" y1="1133.646858708511" x2="193.94565343479698" y2="1180.1390068379005" stroke="#1971c2" stroke-width="0.7" opacity="0.25" />
<line x1="187.55789009545697" y1="1134.026674416752" x2="203.8387531288041" y2="1180.229464722841" stroke="#1971c2" stroke-width="0.7" opacity="0.25" />
<line x1="196.33902490686887" y1="1133.722454345494" x2="212.33843739301878" y2="1179.7166561655104" stroke="#1971c2" stroke-width="0.7" opacity="0.25" />
<line x1="204.81238201242013" y1="1133.7060133232953" x2="221.12181916973495" y2="1179.3767219097967" stroke="#1971c2" stroke-width="0.7" opacity="0.25" />
<line x1="214.1098392614149" y1="1133.848567325087" x2="230.03397570691013" y2="1179.3451493622124" stroke="#1971c2" stroke-width="0.7" opacity="0.25" />
<line x1="223.68916985550652" y1="1133.7684380754" x2="239.85944026715296" y2="1179.8999805078238" stroke="#1971c2" stroke-width="0.7" opacity="0.25" />
<line x1="231.95475646104023" y1="1133.4476664820995" x2="248.6672612417038" y2="1179.461260721575" stroke="#1971c2" stroke-width="0.7" opacity="0.25" />
<line x1="241.62420311656024" y1="1133.922876418983" x2="257.29464831409894" y2="1179.4109738367188" stroke="#1971c2" stroke-width="0.7" opacity="0.25" />
<line x1="250.27427983255984" y1="1134.2193050903552" x2="265.9921763088074" y2="1179.802598034722" stroke="#1971c2" stroke-width="0.7" opacity="0.25" />
<line x1="259.5352223514856" y1="1133.8298685679547" x2="275.2461576123511" y2="1179.7661878189465" stroke="#1971c2" stroke-width="0.7" opacity="0.25" />
<line x1="268.78792611382823" y1="1133.8628469645191" x2="284.6271747690531" y2="1179.3217056964604" stroke="#1971c2" stroke-width="0.7" opacity="0.25" />
<line x1="277.1507721428861" y1="1133.4530631785856" x2="293.11649308270717" y2="1179.958271827781" stroke="#1971c2" stroke-width="0.7" opacity="0.25" />
<line x1="285.8429233681891" y1="1133.8058993436352" x2="293.34215166468584" y2="1154.184205597383" stroke="#1971c2" stroke-width="0.7" opacity="0.25" />
<text x="173.29999074763327" y="1156.7741808599967" text-anchor="middle" dominant-baseline="central" font-family="'Virgil', 'Segoe Print', 'Comic Sans MS', 'Patrick Hand', cursive" font-size="14" font-weight="normal" fill="#000000"><tspan x="173.29999074763327" dy="0">varsity_tools.dispatch()</tspan></text></g>
<g><path d="M 357.40858955723087,1130.6128758967666
    L 585.5272091911407,1130.4493046604737
    Q 592.3332004175065,1130.5119675662268 592.5687758502245,1137.4577325828723
    L 592.3581872022711,1171.0587360970585
    Q 592.6311435244322,1177.3836207631787 586.8618948249517,1177.7628661742463
    L 357.8554770855744,1176.1783506096604
    Q 352.142852045357,1176.135645750838 351.8071641061106,1171.7362756964794
    L 352.0784286821814,1137.4740076937778
    Q 352.36302575466544,1131.5472441905963 358.78902254449065,1131.6147501485816 Z" fill="#d0ebff" stroke="#1971c2" stroke-width="1.5" />
<line x1="351.97216745624974" y1="1159.9336486067632" x2="358.6350567039568" y2="1177.384645320606" stroke="#1971c2" stroke-width="0.7" opacity="0.25" />
<line x1="352.23078962277214" y1="1133.5162242068338" x2="367.4607277819756" y2="1177.34609974657" stroke="#1971c2" stroke-width="0.7" opacity="0.25" />
<line x1="360.271807735382" y1="1131.1656712688782" x2="376.03372756195756" y2="1176.9409884480701" stroke="#1971c2" stroke-width="0.7" opacity="0.25" />
<line x1="369.0984623803197" y1="1130.6368680859814" x2="385.5459879984934" y2="1176.8585787901459" stroke="#1971c2" stroke-width="0.7" opacity="0.25" />
<line x1="378.08903109969833" y1="1130.5337008277456" x2="394.6811792290879" y2="1177.1667096580204" stroke="#1971c2" stroke-width="0.7" opacity="0.25" />
<line x1="387.46884680793926" y1="1131.4268005217527" x2="403.7716371140283" y2="1177.2107723880363" stroke="#1971c2" stroke-width="0.7" opacity="0.25" />
<line x1="396.1646267366814" y1="1130.9264847859674" x2="412.2588285566977" y2="1176.5791187307732" stroke="#1971c2" stroke-width="0.7" opacity="0.25" />
<line x1="405.1481857144827" y1="1130.7098665626836" x2="420.918894300984" y2="1177.3645878144089" stroke="#1971c2" stroke-width="0.7" opacity="0.25" />
<line x1="414.2907397162744" y1="1130.6220230998588" x2="429.88732175339976" y2="1177.2570998333558" stroke="#1971c2" stroke-width="0.7" opacity="0.25" />
<line x1="423.21061046658724" y1="1131.4474876601016" x2="439.44215289901115" y2="1177.4763186221098" stroke="#1971c2" stroke-width="0.7" opacity="0.25" />
<line x1="431.889838873287" y1="1131.2553086346525" x2="448.0034331127623" y2="1177.3755110395941" stroke="#1971c2" stroke-width="0.7" opacity="0.25" />
<line x1="441.36504881017026" y1="1130.8826957070476" x2="456.95314622790613" y2="1176.7647001347723" stroke="#1971c2" stroke-width="0.7" opacity="0.25" />
<line x1="450.66147748154253" y1="1130.580223701756" x2="466.34477042590936" y2="1177.098948536841" stroke="#1971c2" stroke-width="0.7" opacity="0.25" />
<line x1="459.27204095914203" y1="1130.8342050052997" x2="475.30836021013386" y2="1177.038530273594" stroke="#1971c2" stroke-width="0.7" opacity="0.25" />
<line x1="468.30501935570646" y1="1131.2152221620017" x2="483.8638780876478" y2="1177.3427847299972" stroke="#1971c2" stroke-width="0.7" opacity="0.25" />
<line x1="476.8952355697729" y1="1130.8045404756558" x2="493.7861585046827" y2="1176.5575268689136" stroke="#1971c2" stroke-width="0.7" opacity="0.25" />
<line x1="486.2480717348226" y1="1131.0301990576345" x2="502.72637798857033" y2="1176.752737087012" stroke="#1971c2" stroke-width="0.7" opacity="0.25" />
<line x1="495.2181394584077" y1="1131.2221178133696" x2="510.91836572375826" y2="1176.848377146045" stroke="#1971c2" stroke-width="0.7" opacity="0.25" />
<line x1="504.7022433856764" y1="1131.0768900494622" x2="520.7682799432165" y2="1177.3707041754396" stroke="#1971c2" stroke-width="0.7" opacity="0.25" />
<line x1="512.8439527726878" y1="1131.1300327813624" x2="529.0998313396354" y2="1176.6675455710865" stroke="#1971c2" stroke-width="0.7" opacity="0.25" />
<line x1="522.6957363291813" y1="1131.0634243151435" x2="538.1271991575028" y2="1177.0529509774606" stroke="#1971c2" stroke-width="0.7" opacity="0.25" />
<line x1="531.3143476356636" y1="1131.0288546463435" x2="547.015263813673" y2="1176.4987786741694" stroke="#1971c2" stroke-width="0.7" opacity="0.25" />
<line x1="539.7996602838066" y1="1131.358058093836" x2="556.6131178729034" y2="1176.49590247171" stroke="#1971c2" stroke-width="0.7" opacity="0.25" />
<line x1="548.8078527029647" y1="1131.4143249429362" x2="564.9673263585588" y2="1177.2111103815369" stroke="#1971c2" stroke-width="0.7" opacity="0.25" />
<line x1="558.2507458131731" y1="1130.722821094394" x2="574.0722138344805" y2="1176.9338021073418" stroke="#1971c2" stroke-width="0.7" opacity="0.25" />
<line x1="567.2746840089012" y1="1131.2063519394505" x2="583.1003433133825" y2="1176.581253542321" stroke="#1971c2" stroke-width="0.7" opacity="0.25" />
<line x1="576.1671791123372" y1="1131.0497028162808" x2="592.397859680299" y2="1176.4237269927355" stroke="#1971c2" stroke-width="0.7" opacity="0.25" />
<line x1="585.1184408250083" y1="1131.089231503618" x2="592.6953636919197" y2="1150.9015318479069" stroke="#1971c2" stroke-width="0.7" opacity="0.25" />
<text x="472.21635325118405" y="1153.988038140582" text-anchor="middle" dominant-baseline="central" font-family="'Virgil', 'Segoe Print', 'Comic Sans MS', 'Patrick Hand', cursive" font-size="14" font-weight="normal" fill="#000000"><tspan x="472.21635325118405" dy="0">Append results to prompt</tspan></text></g>
<g><path d="M 199.1931426749361,1287.2060984315995
    L 320.15692042996886,1332.7296913248865
    L 198.93369189622217,1379.3664944541997
    L 79.36051788663063,1334.5302013784221 Z" fill="#ffec99" stroke="#e67700" stroke-width="1.5" />
<line x1="79.6531389195494" y1="1366.0562578940173" x2="83.98963261746792" y2="1378.4309217757109" stroke="#e67700" stroke-width="0.7" opacity="0.25" />
<line x1="79.21441913330057" y1="1340.2411645972159" x2="93.49387326093131" y2="1378.1316393836796" stroke="#e67700" stroke-width="0.7" opacity="0.25" />
<line x1="79.16413224844439" y1="1313.9160679781085" x2="102.42642995921926" y2="1378.923802248588" stroke="#e67700" stroke-width="0.7" opacity="0.25" />
<line x1="79.55575644644762" y1="1288.5360306658913" x2="110.77480355228329" y2="1378.565750104397" stroke="#e67700" stroke-width="0.7" opacity="0.25" />
<line x1="88.51934623067211" y1="1288.4756124026444" x2="119.72522835886923" y2="1378.0437580119833" stroke="#e67700" stroke-width="0.7" opacity="0.25" />
<line x1="97.07486410818603" y1="1288.7798668590476" x2="128.9639563655361" y2="1378.8312957395174" stroke="#e67700" stroke-width="0.7" opacity="0.25" />
<line x1="106.99714452522096" y1="1287.994608997964" x2="137.71414574861558" y2="1378.087655459165" stroke="#e67700" stroke-width="0.7" opacity="0.25" />
<line x1="115.93736400910859" y1="1288.1898192160625" x2="146.95979314738145" y2="1378.419523703269" stroke="#e67700" stroke-width="0.7" opacity="0.25" />
<line x1="124.12935174429651" y1="1288.2854592750955" x2="156.12047340415813" y2="1378.0820393638824" stroke="#e67700" stroke-width="0.7" opacity="0.25" />
<line x1="133.97926596375476" y1="1288.80778630449" x2="165.18571191194644" y2="1378.8616227716957" stroke="#e67700" stroke-width="0.7" opacity="0.25" />
<line x1="142.3108173601737" y1="1288.104627700137" x2="174.43567615274935" y2="1378.719995784988" stroke="#e67700" stroke-width="0.7" opacity="0.25" />
<line x1="151.33818517804104" y1="1288.490033106511" x2="182.93859556765676" y2="1378.128345274824" stroke="#e67700" stroke-width="0.7" opacity="0.25" />
<line x1="160.22624983421122" y1="1287.9358608032198" x2="191.9396445392464" y2="1378.5669148314264" stroke="#e67700" stroke-width="0.7" opacity="0.25" />
<line x1="169.8241038934417" y1="1287.9329846007604" x2="201.28718770996204" y2="1378.7298270864158" stroke="#e67700" stroke-width="0.7" opacity="0.25" />
<line x1="178.17831237909706" y1="1288.6481925105873" x2="209.53945395758058" y2="1378.5013319853679" stroke="#e67700" stroke-width="0.7" opacity="0.25" />
<line x1="187.28319985501878" y1="1288.3708842363922" x2="218.82294401167985" y2="1378.1468240457543" stroke="#e67700" stroke-width="0.7" opacity="0.25" />
<line x1="196.31132933392075" y1="1288.0183356713715" x2="228.2864539341332" y2="1378.4153698316613" stroke="#e67700" stroke-width="0.7" opacity="0.25" />
<line x1="205.7088457008373" y1="1288.1465234075004" x2="236.98697063322618" y2="1378.0206793115722" stroke="#e67700" stroke-width="0.7" opacity="0.25" />
<line x1="215.00634971245802" y1="1288.3386139769573" x2="245.5567755371245" y2="1378.3016005862191" stroke="#e67700" stroke-width="0.7" opacity="0.25" />
<line x1="223.74935932815572" y1="1288.759539135257" x2="255.4309654555342" y2="1378.6157566196125" stroke="#e67700" stroke-width="0.7" opacity="0.25" />
<line x1="232.44655054418547" y1="1288.734364283402" x2="263.6792527106214" y2="1378.0662026386053" stroke="#e67700" stroke-width="0.7" opacity="0.25" />
<line x1="241.9080635870356" y1="1287.957308171157" x2="273.3863318009186" y2="1378.8806090959897" stroke="#e67700" stroke-width="0.7" opacity="0.25" />
<line x1="250.40293422989782" y1="1288.587202961753" x2="281.54656608233347" y2="1378.7927026297766" stroke="#e67700" stroke-width="0.7" opacity="0.25" />
<line x1="259.40267248822386" y1="1288.243416680918" x2="291.17763761156095" y2="1378.2836801170524" stroke="#e67700" stroke-width="0.7" opacity="0.25" />
<line x1="268.8566349151457" y1="1288.1769020495667" x2="300.08023361452945" y2="1378.7873335794866" stroke="#e67700" stroke-width="0.7" opacity="0.25" />
<line x1="277.672053456719" y1="1288.3635915857667" x2="309.08575604057444" y2="1378.0160961849833" stroke="#e67700" stroke-width="0.7" opacity="0.25" />
<line x1="286.6413168880332" y1="1287.9455519539224" x2="317.6275410606337" y2="1378.1965119825927" stroke="#e67700" stroke-width="0.7" opacity="0.25" />
<line x1="295.659448513166" y1="1288.6951634408033" x2="319.9480381565903" y2="1359.5995781742363" stroke="#e67700" stroke-width="0.7" opacity="0.25" />
<line x1="304.35167038710244" y1="1288.708643021244" x2="320.47190060376886" y2="1334.0356301572522" stroke="#e67700" stroke-width="0.7" opacity="0.25" />
<line x1="313.8997944412273" y1="1288.1247081989168" x2="320.41691711852616" y2="1307.5750140602165" stroke="#e67700" stroke-width="0.7" opacity="0.25" />
<text x="199.9273392717223" y="1333.4251202696323" text-anchor="middle" dominant-baseline="central" font-family="'Virgil', 'Segoe Print', 'Comic Sans MS', 'Patrick Hand', cursive" font-size="15" font-weight="normal" fill="#000000"><tspan x="199.9273392717223" dy="0">More tool calls?</tspan></text></g>
<g><path d="M 376.17977022404517,1292.088498092901
    L 543.7168404412711,1292.0273638964732
    Q 550.2457058680303,1291.4989666032184 550.3426115090006,1296.788169573956
    L 548.76517237652,1334.5598452913314
    Q 548.8865861439932,1341.4694862042197 543.167167564499,1340.6370092257232
    L 376.2919133911351,1341.744671778455
    Q 369.15428222211045,1341.705034369509 369.2505444827518,1336.0767853912098
    L 369.6926021194973,1296.8734184821885
    Q 369.673750111668,1291.054157183497 375.02271201463134,1291.682652668703 Z" fill="#e5dbff" stroke="#7048e8" stroke-width="1.5" />
<line x1="369.60231082388634" y1="1331.5858836645493" x2="372.640214037909" y2="1341.583915804069" stroke="#7048e8" stroke-width="0.7" opacity="0.25" />
<line x1="369.75427459833406" y1="1305.1396562426785" x2="381.64840645706715" y2="1341.6401826531692" stroke="#7048e8" stroke-width="0.7" opacity="0.25" />
<line x1="373.1355677240557" y1="1291.6588279007128" x2="391.09129956727554" y2="1340.948678804627" stroke="#7048e8" stroke-width="0.7" opacity="0.25" />
<line x1="382.19716948296843" y1="1290.9890642975006" x2="400.1152377630036" y2="1341.4322096496835" stroke="#7048e8" stroke-width="0.7" opacity="0.25" />
<line x1="391.53913393127584" y1="1290.7549387179315" x2="409.0077328664396" y2="1341.2755605265138" stroke="#7048e8" stroke-width="0.7" opacity="0.25" />
<line x1="400.354844717482" y1="1291.321209711452" x2="417.9589945791107" y2="1341.315089213851" stroke="#7048e8" stroke-width="0.7" opacity="0.25" />
<line x1="409.70645231060314" y1="1290.8994317362594" x2="427.4274309669257" y2="1340.9158752190779" stroke="#7048e8" stroke-width="0.7" opacity="0.25" />
<line x1="418.91182814628553" y1="1291.2799908267953" x2="435.8772851474481" y2="1341.0031393555691" stroke="#7048e8" stroke-width="0.7" opacity="0.25" />
<line x1="428.00432238073915" y1="1290.9998585031353" x2="444.5654644742175" y2="1341.4272675903267" stroke="#7048e8" stroke-width="0.7" opacity="0.25" />
<line x1="436.5603026427692" y1="1291.3585877631158" x2="454.31325192966176" y2="1341.6668489419262" stroke="#7048e8" stroke-width="0.7" opacity="0.25" />
<line x1="445.87073077268576" y1="1291.3346183605172" x2="463.5356866218593" y2="1340.9835522320282" stroke="#7048e8" stroke-width="0.7" opacity="0.25" />
<line x1="454.17361462046244" y1="1290.9405077806223" x2="472.0796608180739" y2="1341.685384836288" stroke="#7048e8" stroke-width="0.7" opacity="0.25" />
<line x1="463.80440868660514" y1="1291.2360786247518" x2="480.8986381076887" y2="1340.906612567298" stroke="#7048e8" stroke-width="0.7" opacity="0.25" />
<line x1="472.0635223149569" y1="1291.3263098621173" x2="490.06630628344317" y2="1340.8614057844607" stroke="#7048e8" stroke-width="0.7" opacity="0.25" />
<line x1="481.08072186682546" y1="1290.985280990324" x2="498.9802407418741" y2="1340.8160811198886" stroke="#7048e8" stroke-width="0.7" opacity="0.25" />
<line x1="490.1816858852966" y1="1290.7203837190682" x2="508.35745365271794" y2="1340.8914239910955" stroke="#7048e8" stroke-width="0.7" opacity="0.25" />
<line x1="499.8780692244367" y1="1291.358408484055" x2="516.8357379951107" y2="1341.2858194654436" stroke="#7048e8" stroke-width="0.7" opacity="0.25" />
<line x1="508.48495580417364" y1="1291.3243517779883" x2="526.0726602572671" y2="1341.5708782782312" stroke="#7048e8" stroke-width="0.7" opacity="0.25" />
<line x1="518.047464772901" y1="1291.0402675665973" x2="535.2679958505017" y2="1341.4648172923262" stroke="#7048e8" stroke-width="0.7" opacity="0.25" />
<line x1="526.4743587047982" y1="1290.9250640286118" x2="543.8463889784238" y2="1340.8133103289656" stroke="#7048e8" stroke-width="0.7" opacity="0.25" />
<line x1="535.8682943430816" y1="1290.719016999421" x2="549.3246879613929" y2="1331.0331489801465" stroke="#7048e8" stroke-width="0.7" opacity="0.25" />
<line x1="544.7621972427536" y1="1290.8248783773379" x2="549.2885447324282" y2="1305.1825201715442" stroke="#7048e8" stroke-width="0.7" opacity="0.25" />
<text x="459.55690700528646" y="1316.2138958508149" text-anchor="middle" dominant-baseline="central" font-family="'Virgil', 'Segoe Print', 'Comic Sans MS', 'Patrick Hand', cursive" font-size="15" font-weight="normal" fill="#000000"><tspan x="459.55690700528646" dy="0">Arena API</tspan></text></g>
<g><path d="M 90.10401978040609,1519.9457585193072
    L 343.7819194149488,1520.881759435535
    Q 349.30078331453353,1519.6790684749008 349.36517069536933,1527.1304678865642
    L 349.5420718986919,1563.4405236548253
    Q 350.31140825563637,1571.0104239783134 343.0852773472594,1570.9713067633027
    L 91.24721901195844,1569.6318851454052
    Q 84.43345127198408,1570.585565652891 84.88875998839066,1565.14043577475
    L 84.20341004923102,1526.6168690565669
    Q 83.56194738361519,1520.9867684590092 90.0117359984084,1520.8900029920683 Z" fill="#e5dbff" stroke="#7048e8" stroke-width="1.5" />
<line x1="84.15395105432253" y1="1560.3478740235369" x2="88.39882810998824" y2="1570.6544158541728" stroke="#7048e8" stroke-width="0.7" opacity="0.25" />
<line x1="84.44952189845208" y1="1534.452565598866" x2="96.62005584099825" y2="1570.4698343957461" stroke="#7048e8" stroke-width="0.7" opacity="0.25" />
<line x1="88.53975313581759" y1="1520.3345194889062" x2="105.57484905816091" y2="1570.4390978270603" stroke="#7048e8" stroke-width="0.7" opacity="0.25" />
<line x1="97.19872426402435" y1="1520.248453947337" x2="114.52952439358887" y2="1570.4572294521931" stroke="#7048e8" stroke-width="0.7" opacity="0.25" />
<line x1="105.93382699276845" y1="1520.625666858181" x2="123.60486726479576" y2="1570.1494513261296" stroke="#7048e8" stroke-width="0.7" opacity="0.25" />
<line x1="115.57185175775521" y1="1520.1039512005736" x2="132.9992627391439" y2="1570.6975753802544" stroke="#7048e8" stroke-width="0.7" opacity="0.25" />
<line x1="124.53779505168859" y1="1520.34087346273" x2="142.2843215519315" y2="1570.3883825495468" stroke="#7048e8" stroke-width="0.7" opacity="0.25" />
<line x1="133.25371084029757" y1="1520.5362090559647" x2="151.17826056602644" y2="1570.582056767591" stroke="#7048e8" stroke-width="0.7" opacity="0.25" />
<line x1="142.13850730231206" y1="1520.1146021838867" x2="159.52675360266585" y2="1570.18772254356" stroke="#7048e8" stroke-width="0.7" opacity="0.25" />
<line x1="150.93246027312125" y1="1520.0929011668559" x2="168.74659225384676" y2="1570.5769509719394" stroke="#7048e8" stroke-width="0.7" opacity="0.25" />
<line x1="160.03832165103813" y1="1520.0567579378912" x2="177.6102491595302" y2="1570.242487669777" stroke="#7048e8" stroke-width="0.7" opacity="0.25" />
<line x1="169.12823016163202" y1="1519.8270082112358" x2="186.50885736968485" y2="1570.804260758061" stroke="#7048e8" stroke-width="0.7" opacity="0.25" />
<line x1="178.60644776350819" y1="1520.3163225224816" x2="195.89828851214406" y2="1570.3645479667175" stroke="#7048e8" stroke-width="0.7" opacity="0.25" />
<line x1="187.80221123814408" y1="1520.7291528487112" x2="205.0269981699821" y2="1570.3299717135524" stroke="#7048e8" stroke-width="0.7" opacity="0.25" />
<line x1="196.71917053218203" y1="1520.6017437440678" x2="213.48357239324832" y2="1570.3747654011968" stroke="#7048e8" stroke-width="0.7" opacity="0.25" />
<line x1="205.59207855189743" y1="1520.2050785652245" x2="223.14502435470968" y2="1569.960010370305" stroke="#7048e8" stroke-width="0.7" opacity="0.25" />
<line x1="214.82382420954673" y1="1520.1031574526642" x2="231.8398866051939" y2="1570.5002893761248" stroke="#7048e8" stroke-width="0.7" opacity="0.25" />
<line x1="223.43868090058822" y1="1520.5658388823158" x2="240.80169092341384" y2="1570.7293751470133" stroke="#7048e8" stroke-width="0.7" opacity="0.25" />
<line x1="232.46037561479716" y1="1519.9439953618275" x2="250.08934104457876" y2="1570.7928317317273" stroke="#7048e8" stroke-width="0.7" opacity="0.25" />
<line x1="241.14299351054797" y1="1519.9601648759635" x2="259.2286527235119" y2="1570.4623187350862" stroke="#7048e8" stroke-width="0.7" opacity="0.25" />
<line x1="250.7315571713625" y1="1520.3381594948514" x2="268.22856772982414" y2="1570.3837347633162" stroke="#7048e8" stroke-width="0.7" opacity="0.25" />
<line x1="259.15172324134255" y1="1520.2309689000613" x2="276.7285622965428" y2="1570.3798705593344" stroke="#7048e8" stroke-width="0.7" opacity="0.25" />
<line x1="267.96797105228325" y1="1520.5403548631402" x2="285.88745017796464" y2="1570.3913674175928" stroke="#7048e8" stroke-width="0.7" opacity="0.25" />
<line x1="277.4027410831477" y1="1520.4227397703653" x2="294.66001386868084" y2="1570.7774014073948" stroke="#7048e8" stroke-width="0.7" opacity="0.25" />
<line x1="286.2246280378822" y1="1520.7269519799247" x2="303.5087430584099" y2="1570.624684042621" stroke="#7048e8" stroke-width="0.7" opacity="0.25" />
<line x1="295.69830824638484" y1="1520.2253197197933" x2="312.5867569765942" y2="1570.3180107138614" stroke="#7048e8" stroke-width="0.7" opacity="0.25" />
<line x1="304.2598812113756" y1="1520.0745626321368" x2="321.50122001864656" y2="1570.0498736339505" stroke="#7048e8" stroke-width="0.7" opacity="0.25" />
<line x1="313.57532488869765" y1="1519.8675737480517" x2="330.7700722656664" y2="1570.1566971856737" stroke="#7048e8" stroke-width="0.7" opacity="0.25" />
<line x1="322.14137802532423" y1="1520.737145128085" x2="340.0507718920926" y2="1569.8913623585613" stroke="#7048e8" stroke-width="0.7" opacity="0.25" />
<line x1="331.33561628030293" y1="1520.0571815412095" x2="348.6710232665064" y2="1569.8780462860195" stroke="#7048e8" stroke-width="0.7" opacity="0.25" />
<line x1="340.18512125618145" y1="1520.4587821964233" x2="349.95198430212986" y2="1547.6091735975517" stroke="#7048e8" stroke-width="0.7" opacity="0.25" />
<text x="217.17733912451513" y="1545.3251202107494" text-anchor="middle" dominant-baseline="central" font-family="'Virgil', 'Segoe Print', 'Comic Sans MS', 'Patrick Hand', cursive" font-size="15" font-weight="normal" fill="#000000"><tspan x="217.17733912451513" dy="0">LLM returns tool_calls JSON</tspan></text></g>
<g><path d="M 398.68113535024895,1523.7086579984884
    L 541.6834961955312,1522.4816998704875
    Q 546.3370974875761,1522.5551435070854 547.0808898146497,1528.726274916208
    L 546.8505443071757,1556.525118256845
    Q 546.9821609545877,1564.136349471782 540.5390528518262,1563.3885066341827
    L 399.0951244006079,1563.806669404205
    Q 391.33869482301964,1562.8281779171652 391.90413238832554,1557.6994675663154
    L 391.9838572109933,1529.4000817195235
    Q 392.4695588845032,1522.3737666816335 398.5989991829694,1522.545940743915 Z" fill="#b2f2bb" stroke="#2b8a3e" stroke-width="1.5" />
<line x1="392.20042614315753" y1="1534.714171380713" x2="402.4086041728915" y2="1563.5705698973761" stroke="#2b8a3e" stroke-width="0.7" opacity="0.25" />
<line x1="397.3291358009956" y1="1523.2510236989765" x2="411.31965726814815" y2="1563.05176614417" stroke="#2b8a3e" stroke-width="0.7" opacity="0.25" />
<line x1="405.7857100242618" y1="1523.295817386621" x2="419.81959593379725" y2="1562.964913111362" stroke="#2b8a3e" stroke-width="0.7" opacity="0.25" />
<line x1="415.44716198572314" y1="1522.8810623557292" x2="429.09396896372164" y2="1562.9592903004377" stroke="#2b8a3e" stroke-width="0.7" opacity="0.25" />
<line x1="424.14202423620736" y1="1523.421341361549" x2="437.8688514072637" y2="1562.8136498104905" stroke="#2b8a3e" stroke-width="0.7" opacity="0.25" />
<line x1="433.1038285544273" y1="1523.6504271324375" x2="447.3556006559211" y2="1562.8154220350116" stroke="#2b8a3e" stroke-width="0.7" opacity="0.25" />
<line x1="442.3914786755922" y1="1523.7138837171515" x2="456.5990602386373" y2="1563.2937082249537" stroke="#2b8a3e" stroke-width="0.7" opacity="0.25" />
<line x1="451.5307903545254" y1="1523.3833707205104" x2="464.80177770873706" y2="1563.0690537865376" stroke="#2b8a3e" stroke-width="0.7" opacity="0.25" />
<line x1="460.5307053608376" y1="1523.3047867487403" x2="474.37270794612414" y2="1563.4486320744982" stroke="#2b8a3e" stroke-width="0.7" opacity="0.25" />
<line x1="469.03069992755627" y1="1523.3009225447586" x2="483.12002040475636" y2="1563.4032552730532" stroke="#2b8a3e" stroke-width="0.7" opacity="0.25" />
<line x1="478.1895878089781" y1="1523.312419403017" x2="492.1483056161105" y2="1563.042846941884" stroke="#2b8a3e" stroke-width="0.7" opacity="0.25" />
<line x1="486.9621514996943" y1="1523.698453392819" x2="501.0237866838579" y2="1563.16291078227" stroke="#2b8a3e" stroke-width="0.7" opacity="0.25" />
<line x1="495.81088068942336" y1="1523.5457360280452" x2="510.59695986669976" y2="1563.2179403159826" stroke="#2b8a3e" stroke-width="0.7" opacity="0.25" />
<line x1="504.88889460760765" y1="1523.2390626992856" x2="519.1681726511197" y2="1562.9368618482913" stroke="#2b8a3e" stroke-width="0.7" opacity="0.25" />
<line x1="513.80335764966" y1="1522.9709256193746" x2="528.5626531106536" y2="1562.9189702301737" stroke="#2b8a3e" stroke-width="0.7" opacity="0.25" />
<line x1="523.0722098966799" y1="1523.0777491710978" x2="536.8038580703669" y2="1562.8497223408413" stroke="#2b8a3e" stroke-width="0.7" opacity="0.25" />
<line x1="532.3529095231061" y1="1522.8124143439854" x2="545.9158472346971" y2="1563.4309676350258" stroke="#2b8a3e" stroke-width="0.7" opacity="0.25" />
<line x1="540.9731608975198" y1="1522.7990982714437" x2="547.164994879291" y2="1540.5402114790434" stroke="#2b8a3e" stroke-width="0.7" opacity="0.25" />
<text x="469.7294767555286" y="1543.2461721961736" text-anchor="middle" dominant-baseline="central" font-family="'Virgil', 'Segoe Print', 'Comic Sans MS', 'Patrick Hand', cursive" font-size="13" font-weight="normal" fill="#000000"><tspan x="469.7294767555286" dy="0">Final decision</tspan></text></g>
<text x="-50" y="627.3541845609434" font-family="'Virgil', 'Segoe Print', 'Comic Sans MS', 'Patrick Hand', cursive" font-size="12" fill="#868e96" font-style="italic" opacity="0.8"><tspan x="-50" dy="0">per-call --mcp-config</tspan></text>
<text x="409.9273392717223" y="1333.4251202696323" font-family="'Virgil', 'Segoe Print', 'Comic Sans MS', 'Patrick Hand', cursive" font-size="12" fill="#868e96" font-style="italic" opacity="0.8"><tspan x="409.9273392717223" dy="0">budget: 80KB total</tspan><tspan x="409.9273392717223" dy="18">max 5 rounds</tspan></text>
<text x="659.5569070052865" y="1316.2138958508149" font-family="'Virgil', 'Segoe Print', 'Comic Sans MS', 'Patrick Hand', cursive" font-size="12" fill="#868e96" font-style="italic" opacity="0.8"><tspan x="659.5569070052865" dy="0">same dispatch() →</tspan><tspan x="659.5569070052865" dy="18">zero reimplementation</tspan></text>
</g>
</svg>