<svg xmlns="http://www.w3.org/2000/svg" viewBox="0 0 963.484454663776 947.4148808223836" width="963.484454663776" height="947.4148808223836">
<rect width="963.484454663776" height="947.4148808223836" fill="#ffffff" />
<defs><marker id="arrowhead" markerWidth="10" markerHeight="7" refX="10" refY="3.5" orient="auto"><polygon points="0 0, 10 3.5, 0 7" fill="#000000" /></marker></defs>
<g transform="translate(252.5, 50)">
<path d="M 250.84328394941397,60 Q 254.9180705082068,141.01312832936964 254.90549940369752,224.44272932140157" fill="none" stroke="#000000" stroke-width="1.5" marker-end="url(#arrowhead)" />

<path d="M 223.42745515793638,303.6427293214016 Q 166.5593285241338,373.64522320807083 105.36650289790846,447.6892353199073" fill="none" stroke="#000000" stroke-width="1.5" marker-end="url(#arrowhead)" />
<rect x="131.8969790279224" y="361.66598232065445" width="65" height="26" rx="4" fill="white" stroke="none" />
<text x="164.3969790279224" y="374.66598232065445" text-anchor="middle" dominant-baseline="central" font-family="'Virgil', 'Segoe Print', 'Comic Sans MS', 'Patrick Hand', cursive" font-size="12" fill="#495057" font-style="italic">Claude</text>
<path d="M 275.13937886968273,303.6427293214016 Q 309.31210290042395,374.3904935334402 344.45183114250824,446.18655330943875" fill="none" stroke="#000000" stroke-width="1.5" marker-end="url(#arrowhead)" />
<rect x="206.04560500609546" y="360.91464131542017" width="207.5" height="26" rx="4" fill="white" stroke="none" />
<text x="309.79560500609546" y="373.91464131542017" text-anchor="middle" dominant-baseline="central" font-family="'Virgil', 'Segoe Print', 'Comic Sans MS', 'Patrick Hand', cursive" font-size="12" fill="#495057" font-style="italic">Gemini / Codex / OpenClaw</text>
<path d="M 112.9022484452864,515.6892353199073 Q 170.82165798360705,571.0701593418999 228.13130806929138,626.3541845609434" fill="none" stroke="#000000" stroke-width="1.5" marker-end="url(#arrowhead)" />

<path d="M 339.7657771222043,514.1865533094388 Q 303.00234817975456,568.5935112694933 269.7643418831576,626.3541845609434" fill="none" stroke="#000000" stroke-width="1.5" marker-end="url(#arrowhead)" />

<path d="M 252.3785684009517,676.3541845609434 Q 250.11980834613013,739.8020787196947 243.45521408169805,801.4148808223836" fill="none" stroke="#000000" stroke-width="1.5" marker-end="url(#arrowhead)" />

<g><path d="M 155.6672312943483,0.5861384692099819
    L 343.2584221245197,-0.42393854406182074
    Q 350.20163959419585,-0.6074648532943684 349.6735321159038,5.822478820486867
    L 350.41369851735726,54.12119100207783
    Q 350.5746304988963,59.94486755101352 344.8806421922636,59.272526719469894
    L 156.50810945705888,60.84291819261998
    Q 150.9621354449486,60.84143073703162 149.97909425608378,54.1156879832939
    L 150.36076174972112,5.8195619760968835
    Q 150.819635973798,0.43518644109208254 156.21977506431284,-0.1740607580417418 Z" fill="#a5d8ff" stroke="#1864ab" stroke-width="2.2" />
<line x1="149.69280096530565" y1="42.83720775575577" x2="156.09266285385092" y2="60.41017200548231" stroke="#1864ab" stroke-width="0.7" opacity="0.25" />
<line x1="149.9900610118857" y1="16.960273750717793" x2="164.81312572804018" y2="59.7399235008852" stroke="#1864ab" stroke-width="0.7" opacity="0.25" />
<line x1="152.76682484048797" y1="-0.1564768865973747" x2="173.86415733343892" y2="60.108072906579764" stroke="#1864ab" stroke-width="0.7" opacity="0.25" />
<line x1="162.06349797265466" y1="-0.13223915312846657" x2="182.62690551448395" y2="60.44058342096105" stroke="#1864ab" stroke-width="0.7" opacity="0.25" />
<line x1="170.87290063261753" y1="-0.3195689037656848" x2="192.2257735616513" y2="59.90936176973992" stroke="#1864ab" stroke-width="0.7" opacity="0.25" />
<line x1="180.3561788571169" y1="-0.34433111074758926" x2="200.9308874638955" y2="60.429067521916295" stroke="#1864ab" stroke-width="0.7" opacity="0.25" />
<line x1="189.09491475552204" y1="0.1677269966021413" x2="209.93523551747057" y2="60.429962052478004" stroke="#1864ab" stroke-width="0.7" opacity="0.25" />
<line x1="198.00380700126698" y1="-0.054618182959529804" x2="219.39127330513293" y2="60.29138928926841" stroke="#1864ab" stroke-width="0.7" opacity="0.25" />
<line x1="206.7436101847843" y1="-0.013648224419739563" x2="228.37334250408094" y2="59.60105865212972" stroke="#1864ab" stroke-width="0.7" opacity="0.25" />
<line x1="216.24602081599005" y1="0.3029181346100813" x2="237.13564686999598" y2="59.99169758801145" stroke="#1864ab" stroke-width="0.7" opacity="0.25" />
<line x1="224.96319637417037" y1="-0.4681025684476481" x2="246.52976732412026" y2="60.04677111742785" stroke="#1864ab" stroke-width="0.7" opacity="0.25" />
<line x1="233.86722143109" y1="0.14759255269746063" x2="254.7798367928699" y2="59.991350013955525" stroke="#1864ab" stroke-width="0.7" opacity="0.25" />
<line x1="243.21485941755236" y1="0.46320257923798636" x2="264.40622644371615" y2="59.59171048167627" stroke="#1864ab" stroke-width="0.7" opacity="0.25" />
<line x1="251.99443174830958" y1="-0.334359974549443" x2="272.7935813542317" y2="60.347892614183365" stroke="#1864ab" stroke-width="0.7" opacity="0.25" />
<line x1="261.42588028254977" y1="0.3359140722841403" x2="282.3395778154227" y2="60.428288069841074" stroke="#1864ab" stroke-width="0.7" opacity="0.25" />
<line x1="269.61080762188067" y1="0.44330623788846424" x2="291.5269466055679" y2="59.82317348699871" stroke="#1864ab" stroke-width="0.7" opacity="0.25" />
<line x1="278.91103231041416" y1="-0.33158866696612677" x2="299.8608621801177" y2="60.18287753256209" stroke="#1864ab" stroke-width="0.7" opacity="0.25" />
<line x1="287.75976392671146" y1="-0.10736422139962087" x2="308.980422112254" y2="60.25988765528746" stroke="#1864ab" stroke-width="0.7" opacity="0.25" />
<line x1="297.3493641846135" y1="-0.44149515452591004" x2="317.64366479340606" y2="60.119890181318624" stroke="#1864ab" stroke-width="0.7" opacity="0.25" />
<line x1="305.8881535199107" y1="0.21009614917102226" x2="327.5655646850282" y2="59.7761890965412" stroke="#1864ab" stroke-width="0.7" opacity="0.25" />
<line x1="315.3501366909659" y1="0.36212912621704163" x2="336.52130928813494" y2="60.37771528189478" stroke="#1864ab" stroke-width="0.7" opacity="0.25" />
<line x1="324.45500912105854" y1="0.006948426107555861" x2="344.8878112956954" y2="59.85000347418827" stroke="#1864ab" stroke-width="0.7" opacity="0.25" />
<line x1="333.44756344219786" y1="0.06278267137531657" x2="349.9008684130167" y2="48.63692347611608" stroke="#1864ab" stroke-width="0.7" opacity="0.25" />
<line x1="342.24284689087517" y1="-0.11822523276350694" x2="350.2168550837596" y2="22.498979579316902" stroke="#1864ab" stroke-width="0.7" opacity="0.25" />
<text x="250.10219637362752" y="30" text-anchor="middle" dominant-baseline="central" font-family="'Virgil', 'Segoe Print', 'Comic Sans MS', 'Patrick Hand', cursive" font-size="18" font-weight="600" fill="#000000"><tspan x="250.10219637362752" dy="0">Setup Agent</tspan></text></g>
<g><path d="M 256.61220822690666,217.8131257533887
    L 368.323933436488,264.2045569486363
    L 255.4529724515669,307.79921023405404
    L 142.9872695316276,264.0086087603522 Z" fill="#ffec99" stroke="#e67700" stroke-width="1.5" />
<line x1="143.96465084964439" y1="295.8038147625614" x2="148.24473500427848" y2="308.5746267529539" stroke="#e67700" stroke-width="0.7" opacity="0.25" />
<line x1="143.72766282464" y1="270.05427675694125" x2="157.14876006119812" y2="309.190321874099" stroke="#e67700" stroke-width="0.7" opacity="0.25" />
<line x1="143.59575976748602" y1="244.8266176292977" x2="166.49639804766048" y2="309.50593190063955" stroke="#e67700" stroke-width="0.7" opacity="0.25" />
<line x1="144.29480570404849" y1="219.45257801702974" x2="175.2759703784177" y2="308.7083693468521" stroke="#e67700" stroke-width="0.7" opacity="0.25" />
<line x1="153.13616192054542" y1="219.45959121928172" x2="184.7074189126579" y2="309.3786433936857" stroke="#e67700" stroke-width="0.7" opacity="0.25" />
<line x1="161.72991190772154" y1="219.31184536022192" x2="192.89234625198878" y2="309.48603555929003" stroke="#e67700" stroke-width="0.7" opacity="0.25" />
<line x1="171.04009169247" y1="218.79791530544753" x2="202.19257094052227" y2="308.71114065443544" stroke="#e67700" stroke-width="0.7" opacity="0.25" />
<line x1="180.02208072249778" y1="218.59725650433575" x2="211.04130255681957" y2="308.93536510000195" stroke="#e67700" stroke-width="0.7" opacity="0.25" />
<line x1="188.63751806666914" y1="219.0905703309254" x2="220.6309028147216" y2="308.60123416687566" stroke="#e67700" stroke-width="0.7" opacity="0.25" />
<line x1="197.9244418534181" y1="218.54577417932524" x2="229.16969215001882" y2="309.2528254705726" stroke="#e67700" stroke-width="0.7" opacity="0.25" />
<line x1="207.08973326898558" y1="219.0479816248553" x2="238.631675321074" y2="309.4048584476186" stroke="#e67700" stroke-width="0.7" opacity="0.25" />
<line x1="216.27539706082143" y1="218.82749655893713" x2="247.73654775116665" y2="309.0496777475091" stroke="#e67700" stroke-width="0.7" opacity="0.25" />
<line x1="224.8157899337457" y1="218.90164879278473" x2="256.729102072306" y2="309.1055119927769" stroke="#e67700" stroke-width="0.7" opacity="0.25" />
<line x1="233.92108586592803" y1="219.26335769212164" x2="265.5243855209833" y2="308.92450408863806" stroke="#e67700" stroke-width="0.7" opacity="0.25" />
<line x1="242.87130253760552" y1="219.20413485150857" x2="274.02325631163694" y2="309.3038309136191" stroke="#e67700" stroke-width="0.7" opacity="0.25" />
<line x1="252.1313409259892" y1="219.50377886577917" x2="283.5894382608749" y2="309.2228291505089" stroke="#e67700" stroke-width="0.7" opacity="0.25" />
<line x1="261.19129336547576" y1="219.3419756162184" x2="292.0271635948993" y2="309.1939461516522" stroke="#e67700" stroke-width="0.7" opacity="0.25" />
<line x1="269.80805165047786" y1="219.52689625176913" x2="301.7813534345187" y2="308.5975698240436" stroke="#e67700" stroke-width="0.7" opacity="0.25" />
<line x1="278.7913816767905" y1="218.6588473567317" x2="310.1208587910719" y2="308.5923067926051" stroke="#e67700" stroke-width="0.7" opacity="0.25" />
<line x1="287.6760586047312" y1="219.33584216143208" x2="319.5987702615821" y2="309.0848785052202" stroke="#e67700" stroke-width="0.7" opacity="0.25" />
<line x1="297.11529573376174" y1="219.5136754305313" x2="328.228619441983" y2="308.77161955906195" stroke="#e67700" stroke-width="0.7" opacity="0.25" />
<line x1="305.83953878402315" y1="219.45716751359578" x2="337.7346528479429" y2="308.6252421993704" stroke="#e67700" stroke-width="0.7" opacity="0.25" />
<line x1="314.4018911091989" y1="218.6695778436441" x2="345.9020263764105" y2="309.4553274120153" stroke="#e67700" stroke-width="0.7" opacity="0.25" />
<line x1="323.5532510062694" y1="218.72665950263763" x2="355.71455448546044" y2="308.5781709597795" stroke="#e67700" stroke-width="0.7" opacity="0.25" />
<line x1="333.33059773964123" y1="219.42369778388093" x2="364.2925597033027" y2="309.13472841560156" stroke="#e67700" stroke-width="0.7" opacity="0.25" />
<line x1="341.8773800171839" y1="219.05882137264416" x2="367.72098609904424" y2="293.514283212197" stroke="#e67700" stroke-width="0.7" opacity="0.25" />
<line x1="350.48959159318997" y1="218.77076668840164" x2="368.35518923399286" y2="267.63247087923185" stroke="#e67700" stroke-width="0.7" opacity="0.25" />
<line x1="360.3245073264843" y1="218.63817615515518" x2="367.4611706358046" y2="241.73194224858682" stroke="#e67700" stroke-width="0.7" opacity="0.25" />
<text x="255.88373500373564" y="264.04272932140157" text-anchor="middle" dominant-baseline="central" font-family="'Virgil', 'Segoe Print', 'Comic Sans MS', 'Patrick Hand', cursive" font-size="15" font-weight="normal" fill="#000000"><tspan x="255.88373500373564" dy="0">Backend?</tspan></text></g>
<g><path d="M 5.887090243211423,447.3357907506303
    L 148.30681487078692,447.76250764933576
    Q 154.1054807442626,447.30395818321705 155.37817306850783,454.52329828042855
    L 154.59714037377415,510.3644398723176
    Q 154.6063339218934,515.1755935282334 149.3707968774499,515.698689466124
    L 6.446292571209051,516.341067747098
    Q 0.7544032461133611,516.3691228273179 -0.688402575089276,509.0150984167485
    L -0.39129498853435507,454.39422702266177
    Q -0.38741897243598944,448.3242982652831 6.0125071669936005,447.30334217962957 Z" fill="#d0ebff" stroke="#1971c2" stroke-width="1.5" />
<line x1="0.06549490468751173" y1="488.1677746758792" x2="10.058021373461813" y2="515.8919754582421" stroke="#1971c2" stroke-width="0.7" opacity="0.25" />
<line x1="-0.3581632778259518" y1="462.1856208822324" x2="19.08047975944355" y2="515.9252617028033" stroke="#1971c2" stroke-width="0.7" opacity="0.25" />
<line x1="4.488040922584332" y1="447.2445249012271" x2="28.029867516842202" y2="515.9208083879448" stroke="#1971c2" stroke-width="0.7" opacity="0.25" />
<line x1="12.856994106383354" y1="447.85186938396873" x2="36.35799808991651" y2="515.8208631565722" stroke="#1971c2" stroke-width="0.7" opacity="0.25" />
<line x1="22.1151982060112" y1="447.9720685613647" x2="45.91824885228998" y2="515.3582842241158" stroke="#1971c2" stroke-width="0.7" opacity="0.25" />
<line x1="30.592676178923284" y1="447.58661610666513" x2="54.45853604250151" y2="516.024038546595" stroke="#1971c2" stroke-width="0.7" opacity="0.25" />
<line x1="39.66919091283489" y1="448.1375412785128" x2="63.415354452944186" y2="515.6663907425827" stroke="#1971c2" stroke-width="0.7" opacity="0.25" />
<line x1="48.64476573990396" y1="447.89224415635545" x2="73.1928862454195" y2="515.9826360865209" stroke="#1971c2" stroke-width="0.7" opacity="0.25" />
<line x1="58.04259530673153" y1="447.55224180800724" x2="81.36075984477866" y2="516.1079212856057" stroke="#1971c2" stroke-width="0.7" opacity="0.25" />
<line x1="66.7112718757329" y1="448.0875168523635" x2="90.68973246780006" y2="515.4120711157702" stroke="#1971c2" stroke-width="0.7" opacity="0.25" />
<line x1="75.5317915861815" y1="447.716034813217" x2="99.63680861152243" y2="515.4337631590315" stroke="#1971c2" stroke-width="0.7" opacity="0.25" />
<line x1="84.69411048454276" y1="447.5248061268576" x2="109.09725932423571" y2="516.0551814163118" stroke="#1971c2" stroke-width="0.7" opacity="0.25" />
<line x1="94.00308955490982" y1="447.7969786666399" x2="117.88375257017906" y2="516.1876058478385" stroke="#1971c2" stroke-width="0.7" opacity="0.25" />
<line x1="103.27801079526398" y1="448.182426608324" x2="126.58655796708335" y2="515.9724803676363" stroke="#1971c2" stroke-width="0.7" opacity="0.25" />
<line x1="111.88309466357123" y1="447.67640112453955" x2="135.88758497897726" y2="515.4398945286375" stroke="#1971c2" stroke-width="0.7" opacity="0.25" />
<line x1="120.86915015492559" y1="447.65078691200324" x2="144.37709115005129" y2="515.456444421121" stroke="#1971c2" stroke-width="0.7" opacity="0.25" />
<line x1="130.47403422465868" y1="447.95160207113804" x2="153.99429608911333" y2="515.7284399460186" stroke="#1971c2" stroke-width="0.7" opacity="0.25" />
<line x1="139.3449505317767" y1="447.3972941810498" x2="154.68154645450704" y2="493.00909864190396" stroke="#1971c2" stroke-width="0.7" opacity="0.25" />
<line x1="147.90148674030206" y1="447.22409313099706" x2="154.58559586912816" y2="467.80984803936735" stroke="#1971c2" stroke-width="0.7" opacity="0.25" />
<text x="77.5" y="471.8892353199073" text-anchor="middle" dominant-baseline="central" font-family="'Virgil', 'Segoe Print', 'Comic Sans MS', 'Patrick Hand', cursive" font-size="14" font-weight="normal" fill="#000000"><tspan x="77.5" dy="0">Native MCP</tspan><tspan x="77.5" dy="19.599999999999998">(--mcp-config)</tspan></text></g>
<g><path d="M 217.69164990553108,446.7146746893431
    L 505.40126397782296,447.03425630587225
    Q 510.70524665262127,445.6985557372274 511.65938288553485,452.2632248615555
    L 510.73786634235586,507.3959210300403
    Q 511.7380894020331,514.1070001139564 505.7304434097256,514.8182054290119
    L 216.2329778441199,514.4841348500864
    Q 210.4647440400952,514.9034600678599 210.78597310581608,507.687657741992
    L 210.11713565360986,451.51488064947534
    Q 210.11737913459075,446.9292298725435 216.1306475725447,445.34377816456544 Z" fill="#d0ebff" stroke="#1971c2" stroke-width="1.5" />
<line x1="210.82002547072625" y1="486.48381263367446" x2="221.1504007601805" y2="514.6334160453443" stroke="#1971c2" stroke-width="0.7" opacity="0.25" />
<line x1="211.09219801050858" y1="460.5560201653321" x2="230.28282519170722" y2="514.180198322887" stroke="#1971c2" stroke-width="0.7" opacity="0.25" />
<line x1="215.4776459521927" y1="445.9731112765221" x2="239.06769971150499" y2="513.7924098988931" stroke="#1971c2" stroke-width="0.7" opacity="0.25" />
<line x1="223.97162046840822" y1="446.274138288416" x2="247.5351138725062" y2="514.6273256321874" stroke="#1971c2" stroke-width="0.7" opacity="0.25" />
<line x1="232.9460062558719" y1="445.76364445949" x2="256.55166376498966" y2="514.2068121999182" stroke="#1971c2" stroke-width="0.7" opacity="0.25" />
<line x1="242.2468214150067" y1="446.3808493985521" x2="265.8236592898873" y2="513.6996748733873" stroke="#1971c2" stroke-width="0.7" opacity="0.25" />
<line x1="250.69251352491847" y1="445.8680997639458" x2="274.390032271487" y2="514.5512981834181" stroke="#1971c2" stroke-width="0.7" opacity="0.25" />
<line x1="259.5193124748657" y1="445.7721491785669" x2="283.90506738323603" y2="514.4061877741224" stroke="#1971c2" stroke-width="0.7" opacity="0.25" />
<line x1="269.28207909685443" y1="445.89185502736655" x2="292.87052371996543" y2="513.7602281955915" stroke="#1971c2" stroke-width="0.7" opacity="0.25" />
<line x1="277.9105413344096" y1="446.0395722431276" x2="301.65925173257784" y2="514.375354308293" stroke="#1971c2" stroke-width="0.7" opacity="0.25" />
<line x1="286.84237158636824" y1="445.88568886320445" x2="310.36150892514416" y2="514.2482872983128" stroke="#1971c2" stroke-width="0.7" opacity="0.25" />
<line x1="296.1827980784328" y1="446.0809667919966" x2="319.9691391720642" y2="514.6658443515189" stroke="#1971c2" stroke-width="0.7" opacity="0.25" />
<line x1="305.31969391473103" y1="446.3676342938779" x2="328.72051706773783" y2="514.5451173373167" stroke="#1971c2" stroke-width="0.7" opacity="0.25" />
<line x1="313.92133385561465" y1="446.2116235359499" x2="337.4191639620629" y2="514.1744667932944" stroke="#1971c2" stroke-width="0.7" opacity="0.25" />
<line x1="322.5022741296152" y1="446.23271077861136" x2="346.4185472927973" y2="513.7668985787495" stroke="#1971c2" stroke-width="0.7" opacity="0.25" />
<line x1="332.2640512275684" y1="446.4152771484387" x2="355.7268446971619" y2="514.3310448349948" stroke="#1971c2" stroke-width="0.7" opacity="0.25" />
<line x1="341.26671667952905" y1="445.86793346729974" x2="365.1201826071145" y2="513.8017823756454" stroke="#1971c2" stroke-width="0.7" opacity="0.25" />
<line x1="349.54793161933776" y1="446.20015969577435" x2="373.8412225554537" y2="514.0494552587315" stroke="#1971c2" stroke-width="0.7" opacity="0.25" />
<line x1="359.17689182435424" y1="446.56326870719204" x2="382.9627565307972" y2="514.5881105183071" stroke="#1971c2" stroke-width="0.7" opacity="0.25" />
<line x1="367.49038450805074" y1="445.811041922243" x2="392.13434620207846" y2="513.941372034551" stroke="#1971c2" stroke-width="0.7" opacity="0.25" />
<line x1="376.75681333883404" y1="446.0097530797402" x2="401.10196517416335" y2="513.686775927621" stroke="#1971c2" stroke-width="0.7" opacity="0.25" />
<line x1="385.76500824423056" y1="446.20776374204434" x2="409.4207250893622" y2="514.4691781043366" stroke="#1971c2" stroke-width="0.7" opacity="0.25" />
<line x1="395.13924165903154" y1="445.9558037606039" x2="419.0983339587154" y2="514.1077546849792" stroke="#1971c2" stroke-width="0.7" opacity="0.25" />
<line x1="404.3442374044316" y1="446.67369025848166" x2="428.20661930420175" y2="513.8402685794863" stroke="#1971c2" stroke-width="0.7" opacity="0.25" />
<line x1="413.178407074156" y1="446.3512174048301" x2="436.36760268448853" y2="513.9477648184838" stroke="#1971c2" stroke-width="0.7" opacity="0.25" />
<line x1="421.6006867459" y1="446.52044357779596" x2="445.44164561773215" y2="514.6127757156355" stroke="#1971c2" stroke-width="0.7" opacity="0.25" />
<line x1="430.63003288309847" y1="445.83162315169466" x2="454.8699448106825" y2="514.0120346076219" stroke="#1971c2" stroke-width="0.7" opacity="0.25" />
<line x1="440.0538385802356" y1="446.68133882085385" x2="463.4009681736541" y2="514.6590858180989" stroke="#1971c2" stroke-width="0.7" opacity="0.25" />
<line x1="449.4158837775758" y1="446.1168952130829" x2="472.36497466350266" y2="513.7146231658116" stroke="#1971c2" stroke-width="0.7" opacity="0.25" />
<line x1="458.18798210036584" y1="445.81336063273193" x2="481.8856701863304" y2="514.0670616832685" stroke="#1971c2" stroke-width="0.7" opacity="0.25" />
<line x1="466.8313232192522" y1="446.31065640632914" x2="490.9737731655085" y2="513.7845154872193" stroke="#1971c2" stroke-width="0.7" opacity="0.25" />
<line x1="476.4261466064272" y1="445.78123881918873" x2="500.1107811627833" y2="514.3181430466211" stroke="#1971c2" stroke-width="0.7" opacity="0.25" />
<line x1="485.24581100552314" y1="446.39056150459146" x2="509.1940668038413" y2="513.9731604957633" stroke="#1971c2" stroke-width="0.7" opacity="0.25" />
<line x1="494.3243841963849" y1="446.0676212520775" x2="510.81506910009557" y2="495.0512636276774" stroke="#1971c2" stroke-width="0.7" opacity="0.25" />
<line x1="503.45005890971333" y1="446.07849735680793" x2="511.10465918555565" y2="469.3878099622141" stroke="#1971c2" stroke-width="0.7" opacity="0.25" />
<text x="360.984454663776" y="470.38655330943874" text-anchor="middle" dominant-baseline="central" font-family="'Virgil', 'Segoe Print', 'Comic Sans MS', 'Patrick Hand', cursive" font-size="14" font-weight="normal" fill="#000000"><tspan x="360.984454663776" dy="0">Tool Proxy</tspan><tspan x="360.984454663776" dy="19.599999999999998">(prompt injection + tool_calls JSON)</tspan></text></g>
<g><path d="M 140.37947599761827,626.7495265973739
    L 367.3429625727513,626.5857498789999
    Q 373.92071334348947,625.9568251828241 373.96387863916624,632.8899085404846
    L 373.63191619486025,670.5091088620844
    Q 373.39498789766515,676.4634307525421 367.38867509339326,676.2839564015521
    L 139.3731650085145,676.0325884248043
    Q 134.02932910973067,676.0896186415833 133.93700782643356,670.694026358881
    L 134.2254244878015,632.6295174372292
    Q 134.93931954543223,625.9672910272748 139.56022820047147,626.0984350216095 Z" fill="#e5dbff" stroke="#7048e8" stroke-width="1.5" />
<line x1="134.05678658514807" y1="666.5388690692316" x2="138.14166414467036" y2="676.638561325839" stroke="#7048e8" stroke-width="0.7" opacity="0.25" />
<line x1="134.3434540870294" y1="640.5759612506196" x2="147.02093713046816" y2="675.9236504730943" stroke="#7048e8" stroke-width="0.7" opacity="0.25" />
<line x1="138.18744332910137" y1="625.9888938592303" x2="155.65028658644587" y2="676.5508086076106" stroke="#7048e8" stroke-width="0.7" opacity="0.25" />
<line x1="147.20853057176282" y1="625.9882771899647" x2="164.242718371901" y2="676.4090133181089" stroke="#7048e8" stroke-width="0.7" opacity="0.25" />
<line x1="156.39109694159015" y1="626.2965745943293" x2="173.8068646281463" y2="676.3933844329731" stroke="#7048e8" stroke-width="0.7" opacity="0.25" />
<line x1="164.8437532604512" y1="626.6899125042819" x2="182.27760216879688" y2="675.8927674462393" stroke="#7048e8" stroke-width="0.7" opacity="0.25" />
<line x1="174.1759794889258" y1="626.4109524526211" x2="191.525275051883" y2="676.4083381188029" stroke="#7048e8" stroke-width="0.7" opacity="0.25" />
<line x1="183.5390885003435" y1="626.5324864279646" x2="201.06393031145853" y2="676.188474380042" stroke="#7048e8" stroke-width="0.7" opacity="0.25" />
<line x1="191.78686171539448" y1="626.7040760992459" x2="209.41719182770248" y2="676.0659191483355" stroke="#7048e8" stroke-width="0.7" opacity="0.25" />
<line x1="200.98557287289168" y1="626.6716950713308" x2="218.16259572077252" y2="676.0757237261641" stroke="#7048e8" stroke-width="0.7" opacity="0.25" />
<line x1="210.1835835351958" y1="625.9904549865296" x2="227.94499789748807" y2="676.1989746387262" stroke="#7048e8" stroke-width="0.7" opacity="0.25" />
<line x1="218.93162355375534" y1="626.6680638558828" x2="236.58357447813069" y2="675.8853081227498" stroke="#7048e8" stroke-width="0.7" opacity="0.25" />
<line x1="228.64951005163311" y1="626.7763492013692" x2="245.31608837263775" y2="676.0082696893624" stroke="#7048e8" stroke-width="0.7" opacity="0.25" />
<line x1="237.32703719798155" y1="625.9373325816559" x2="254.4235846116353" y2="676.3980628590434" stroke="#7048e8" stroke-width="0.7" opacity="0.25" />
<line x1="246.49626337094742" y1="626.0113755148996" x2="264.08859550878697" y2="676.1625729315638" stroke="#7048e8" stroke-width="0.7" opacity="0.25" />
<line x1="254.80744294484612" y1="626.4396747078499" x2="272.48785440077336" y2="676.354087389831" stroke="#7048e8" stroke-width="0.7" opacity="0.25" />
<line x1="264.6571586140053" y1="625.9706980708215" x2="282.13490561125036" y2="676.0116707694397" stroke="#7048e8" stroke-width="0.7" opacity="0.25" />
<line x1="273.09271500623436" y1="625.9347045606701" x2="290.1904429589631" y2="675.8729427413164" stroke="#7048e8" stroke-width="0.7" opacity="0.25" />
<line x1="281.7891804258834" y1="626.4554000834978" x2="299.54288147642" y2="676.7316210752833" stroke="#7048e8" stroke-width="0.7" opacity="0.25" />
<line x1="291.2864761994806" y1="626.5435030626759" x2="308.2603352803708" y2="676.7265861448541" stroke="#7048e8" stroke-width="0.7" opacity="0.25" />
<line x1="299.7570586123402" y1="626.6805110599507" x2="317.7939628397726" y2="676.7905787580021" stroke="#7048e8" stroke-width="0.7" opacity="0.25" />
<line x1="309.3663812977429" y1="626.7637967010087" x2="326.44898028891475" y2="676.8205961168424" stroke="#7048e8" stroke-width="0.7" opacity="0.25" />
<line x1="318.043441045229" y1="626.184798997263" x2="335.95565484940016" y2="676.8355855420341" stroke="#7048e8" stroke-width="0.7" opacity="0.25" />
<line x1="327.0543171499594" y1="626.4743890827231" x2="345.00648689822265" y2="676.6013207777069" stroke="#7048e8" stroke-width="0.7" opacity="0.25" />
<line x1="336.12545437753397" y1="626.3729064431463" x2="353.6258423303734" y2="676.1213633938169" stroke="#7048e8" stroke-width="0.7" opacity="0.25" />
<line x1="345.2251757326958" y1="626.6388781016594" x2="362.36927992931305" y2="676.7498992132751" stroke="#7048e8" stroke-width="0.7" opacity="0.25" />
<line x1="354.255397808789" y1="626.7826192393113" x2="372.11618480233847" y2="676.2971674631044" stroke="#7048e8" stroke-width="0.7" opacity="0.25" />
<line x1="362.6717160961489" y1="626.6505947220157" x2="373.8827169350043" y2="658.276509534663" stroke="#7048e8" stroke-width="0.7" opacity="0.25" />
<text x="254.1623731025902" y="651.3541845609434" text-anchor="middle" dominant-baseline="central" font-family="'Virgil', 'Segoe Print', 'Comic Sans MS', 'Patrick Hand', cursive" font-size="15" font-weight="normal" fill="#000000"><tspan x="254.1623731025902" dy="0">varsity_tools.dispatch()</tspan></text></g>
<g><path d="M 173.53691673215363,801.116602496761
    L 311.2613596901414,801.2488632081819
    Q 316.2895367179517,800.6296923022703 315.9247874758852,806.7389603254312
    L 317.4439185251351,840.9735545275856
    Q 316.2952360134965,847.9079148750603 311.1512769208595,847.1415653565739
    L 173.59574933325058,847.0051264374881
    Q 166.4958733427333,847.9863997410808 165.91451446891878,840.9136513197809
    L 166.7843701779726,807.7852181529815
    Q 166.56147596562806,800.6999846424703 172.4191102010089,801.4530596010736 Z" fill="#d0ebff" stroke="#1971c2" stroke-width="1.5" />
<line x1="166.55280114844936" y1="830.3836099537594" x2="172.55597171396366" y2="847.7746635630392" stroke="#1971c2" stroke-width="0.7" opacity="0.25" />
<line x1="166.99838826677296" y1="804.0174751170978" x2="181.4467979200068" y2="847.6088332327636" stroke="#1971c2" stroke-width="0.7" opacity="0.25" />
<line x1="174.7384032138507" y1="801.6275466376828" x2="190.96920806138004" y2="847.0311129045076" stroke="#1971c2" stroke-width="0.7" opacity="0.25" />
<line x1="184.18236849163986" y1="801.5072659775469" x2="199.41635383099637" y2="847.060459041706" stroke="#1971c2" stroke-width="0.7" opacity="0.25" />
<line x1="192.80098752022604" y1="801.7167845530057" x2="208.5048347670323" y2="847.4842647388432" stroke="#1971c2" stroke-width="0.7" opacity="0.25" />
<line x1="201.92963660968962" y1="800.9599548511032" x2="217.50234853830588" y2="847.8463099361834" stroke="#1971c2" stroke-width="0.7" opacity="0.25" />
<line x1="211.08807522346615" y1="801.8347533145461" x2="227.0784504213312" y2="847.6184082589734" stroke="#1971c2" stroke-width="0.7" opacity="0.25" />
<line x1="220.07772781793756" y1="801.3570177840811" x2="235.43524714572195" y2="847.2617493778598" stroke="#1971c2" stroke-width="0.7" opacity="0.25" />
<line x1="228.4976294549997" y1="801.4276922966674" x2="245.19062881566205" y2="847.8565727650348" stroke="#1971c2" stroke-width="0.7" opacity="0.25" />
<line x1="237.69546020717826" y1="801.2641985273731" x2="254.28998770300095" y2="847.6762371641307" stroke="#1971c2" stroke-width="0.7" opacity="0.25" />
<line x1="246.6562497408122" y1="800.9471213562865" x2="262.6829541477488" y2="847.7548103549925" stroke="#1971c2" stroke-width="0.7" opacity="0.25" />
<line x1="256.0149461016117" y1="801.1897937704416" x2="272.02776052060074" y2="847.8804850683209" stroke="#1971c2" stroke-width="0.7" opacity="0.25" />
<line x1="265.17979519765504" y1="801.5726097367442" x2="280.7235828601457" y2="847.0390998193543" stroke="#1971c2" stroke-width="0.7" opacity="0.25" />
<line x1="274.29470514090644" y1="801.3714013427016" x2="289.4322035564561" y2="847.3379785298202" stroke="#1971c2" stroke-width="0.7" opacity="0.25" />
<line x1="283.1843234539847" y1="801.1530250569267" x2="298.9068043164676" y2="847.7118681573556" stroke="#1971c2" stroke-width="0.7" opacity="0.25" />
<line x1="292.2471485985916" y1="800.9562354871305" x2="308.05063935183864" y2="847.9026679311792" stroke="#1971c2" stroke-width="0.7" opacity="0.25" />
<line x1="300.78142465509154" y1="801.1363861592454" x2="316.60065004272474" y2="846.78161118892" stroke="#1971c2" stroke-width="0.7" opacity="0.25" />
<line x1="309.81806451316515" y1="801.4920033986273" x2="316.82501146052346" y2="821.5211190942573" stroke="#1971c2" stroke-width="0.7" opacity="0.25" />
<text x="241.81411375619064" y="824.4148808223836" text-anchor="middle" dominant-baseline="central" font-family="'Virgil', 'Segoe Print', 'Comic Sans MS', 'Patrick Hand', cursive" font-size="14" font-weight="normal" fill="#000000"><tspan x="241.81411375619064" dy="0">Arena API</tspan></text></g>
<text x="-102.5" y="486.6892353199073" font-family="'Virgil', 'Segoe Print', 'Comic Sans MS', 'Patrick Hand', cursive" font-size="12" fill="#868e96" font-style="italic" opacity="0.8"><tspan x="-102.5" dy="0">built-in MCP support</tspan></text>
<text x="560.984454663776" y="485.18655330943875" font-family="'Virgil', 'Segoe Print', 'Comic Sans MS', 'Patrick Hand', cursive" font-size="12" fill="#868e96" font-style="italic" opacity="0.8"><tspan x="560.984454663776" dy="0">catalog injected into prompt</tspan></text>
<text x="464.1623731025902" y="651.3541845609434" font-family="'Virgil', 'Segoe Print', 'Comic Sans MS', 'Patrick Hand', cursive" font-size="12" fill="#868e96" font-style="italic" opacity="0.8"><tspan x="464.1623731025902" dy="0">same function, zero reimplementation</tspan></text>
</g>
</svg>