<svg xmlns="http://www.w3.org/2000/svg" viewBox="0 0 1023.484454663776 1027.4148808223836" width="1023.484454663776" height="1027.4148808223836">
<rect width="1023.484454663776" height="1027.4148808223836" fill="#ffffff" />
<defs>
  <marker id="arrowhead-red" markerWidth="10" markerHeight="7" refX="9" refY="3.5" orient="auto"><polygon points="0 0, 10 3.5, 0 7" fill="#e03131" /></marker>
  <marker id="arrowhead-gray" markerWidth="10" markerHeight="7" refX="9" refY="3.5" orient="auto"><polygon points="0 0, 10 3.5, 0 7" fill="#495057" /></marker>
</defs>
<g transform="translate(282.5, 120)">
<text x="219.242227331888" y="-35" text-anchor="middle" dominant-baseline="auto" font-family="'Virgil', 'Segoe Print', 'Comic Sans MS', 'Patrick Hand', cursive" font-size="30" font-weight="600" fill="#1e1e1e">Dual Tool Path</text>
<path d="M 250.84328394941397,60 Q 254.5093347418766,141.25477559563586 254.90549940369752,224.44272932140157" fill="none" stroke="#e03131" stroke-width="1.5" marker-end="url(#arrowhead-red)" />

<path d="M 223.42745515793638,303.6427293214016 Q 166.12685862489153,374.04937503058756 105.36650289790846,447.6892353199073" fill="none" stroke="#e03131" stroke-width="1.5" marker-end="url(#arrowhead-red)" />
<rect x="133.3969790279224" y="362.66598232065445" width="62" height="24" rx="3" fill="white" stroke="none" />
<text x="164.3969790279224" y="375.66598232065445" text-anchor="middle" dominant-baseline="central" font-family="'Virgil', 'Segoe Print', 'Comic Sans MS', 'Patrick Hand', cursive" font-size="13" fill="#e03131" font-style="italic">Claude</text>
<path d="M 275.13937886968273,303.6427293214016 Q 309.40880332155825,374.4953230898362 344.45183114250824,446.18655330943875" fill="none" stroke="#e03131" stroke-width="1.5" marker-end="url(#arrowhead-red)" />
<rect x="202.79560500609546" y="361.91464131542017" width="214" height="24" rx="3" fill="white" stroke="none" />
<text x="309.79560500609546" y="374.91464131542017" text-anchor="middle" dominant-baseline="central" font-family="'Virgil', 'Segoe Print', 'Comic Sans MS', 'Patrick Hand', cursive" font-size="13" fill="#e03131" font-style="italic">Gemini / Codex / OpenClaw</text>
<path d="M 112.9022484452864,515.6892353199073 Q 170.76068203834342,571.060469461605 228.13130806929138,626.3541845609434" fill="none" stroke="#e03131" stroke-width="1.5" marker-end="url(#arrowhead-red)" />

<path d="M 339.7657771222043,514.1865533094388 Q 303.35489044433984,568.9288828026329 269.7643418831576,626.3541845609434" fill="none" stroke="#e03131" stroke-width="1.5" marker-end="url(#arrowhead-red)" />

<path d="M 252.3785684009517,676.3541845609434 Q 249.67922492516908,739.6185695140884 243.45521408169805,801.4148808223836" fill="none" stroke="#e03131" stroke-width="1.5" marker-end="url(#arrowhead-red)" />

<g><path d="M 154.81221965410805,0.3907589794733212
    L 344.53968020755565,-0.2826256960412138
    Q 350.16849185400645,-0.4049765688629122 349.8164202018117,4.881652546991245
    L 350.30986446944735,55.08079400138522
    Q 350.41715245714005,59.96324503400901 345.62116025271825,59.515017812979934
    L 155.3728050959151,60.56194546174665
    Q 150.67548908784156,60.56095382468775 150.020128295265,55.07712532219593
    L 150.27457329102327,4.87970798406459
    Q 150.58048944040783,0.29012429406138834 155.18058216741775,-0.11604050536116119 Z" fill="#ffffff" stroke="#1e1e1e" stroke-width="1.5" />
<text x="250.10219637362752" y="30" text-anchor="middle" dominant-baseline="central" font-family="'Virgil', 'Segoe Print', 'Comic Sans MS', 'Patrick Hand', cursive" font-size="18" font-weight="600" fill="#1e1e1e"><tspan x="250.10219637362752" dy="0">Setup Agent</tspan></text></g>
<g><path d="M 256.32081893763825,218.30496718059385
    L 368.14785406338706,264.1398258977424
    L 255.6252774724344,308.29661786899305
    L 143.3458557204708,264.02225698477196 Z" fill="#ffffff" stroke="#1e1e1e" stroke-width="1" />
<text x="255.88373500373564" y="264.04272932140157" text-anchor="middle" dominant-baseline="central" font-family="'Virgil', 'Segoe Print', 'Comic Sans MS', 'Patrick Hand', cursive" font-size="15" font-weight="normal" fill="#1e1e1e"><tspan x="255.88373500373564" dy="0">Backend?</tspan></text></g>
<g><path d="M 4.924726828807616,447.4536056070559
    L 149.5378765805246,447.73808353952626
    Q 154.40365382950841,447.4323838954471 155.25211537900523,453.2452772935882
    L 154.73142691584945,511.13937168818086
    Q 154.7375559479289,515.3468074587914 150.24719791829995,515.6955380840518
    L 5.297528380806034,516.1237902713677
    Q 0.5029354974089074,516.142493658181 -0.45893505005951735,510.23981071780145
    L -0.26086332568957005,453.15922978841024
    Q -0.25827931495732626,448.11261061682455 5.008338111329067,447.4319732263888 Z" fill="#ffffff" stroke="#1e1e1e" stroke-width="1" />
<text x="77.5" y="471.8892353199073" text-anchor="middle" dominant-baseline="central" font-family="'Virgil', 'Segoe Print', 'Comic Sans MS', 'Patrick Hand', cursive" font-size="14" font-weight="normal" fill="#1e1e1e"><tspan x="77.5" dy="0">Native MCP</tspan><tspan x="77.5" dy="19.599999999999998">(--mcp-config)</tspan></text></g>
<g><path d="M 216.4559181582794,446.53863422937496
    L 506.2623275398073,446.75168864039443
    Q 510.79831598967286,445.8612215946312 511.43440681161525,451.2376676775166
    L 510.8200624494959,508.65946512317316
    Q 511.486877822614,514.1335178457838 506.481780494409,514.6076547224875
    L 215.48347011733858,514.3849410032038
    Q 210.63798091465546,514.6644911483861 210.85213362513605,508.8539562644743
    L 210.40624199033192,450.7387715361298
    Q 210.4064043109858,446.6816710181753 215.41524993628846,445.62470321285656 Z" fill="#ffffff" stroke="#1e1e1e" stroke-width="1" />
<text x="360.984454663776" y="470.38655330943874" text-anchor="middle" dominant-baseline="central" font-family="'Virgil', 'Segoe Print', 'Comic Sans MS', 'Patrick Hand', cursive" font-size="14" font-weight="normal" fill="#1e1e1e"><tspan x="360.984454663776" dy="0">Tool Proxy</tspan><tspan x="360.984454663776" dy="19.599999999999998">(prompt injection + tool_calls JSON)</tspan></text></g>
<g><path d="M 139.30710836594227,626.6177459185637
    L 368.6160994160309,626.5085614396478
    Q 374.00126659652307,626.0892783088639 374.0300434603076,631.7113338806375
    L 373.80873516410355,671.4574674283707
    Q 373.65078296597346,676.4270153553425 368.6465744297922,676.3073657880159
    L 138.63623437320638,676.1397871368506
    Q 134.07367710735053,676.1778072813701 134.01212958515242,671.5807457595686
    L 134.20440735939775,631.5377398118005
    Q 134.68033739781822,626.0962555384976 138.76094316784437,626.1836848680541 Z" fill="#ffffff" stroke="#1e1e1e" stroke-width="1" />
<text x="254.1623731025902" y="651.3541845609434" text-anchor="middle" dominant-baseline="central" font-family="'Virgil', 'Segoe Print', 'Comic Sans MS', 'Patrick Hand', cursive" font-size="15" font-weight="normal" fill="#1e1e1e"><tspan x="254.1623731025902" dy="0">varsity_tools.dispatch()</tspan></text></g>
<g><path d="M 172.29598240683262,801.2160286053019
    L 312.11227771215783,801.3042024129157
    Q 316.464395730698,800.8914218089747 316.22122956932037,805.9642671577487
    L 317.2339836021536,842.1206632925183
    Q 316.46819526106117,847.7435701908347 312.03888919930324,847.2326705118437
    L 172.33520414089725,847.1417112324532
    Q 166.6019534805524,847.7958934348484 166.2143808980094,842.0807278206485
    L 166.79428470404528,806.6617723761156
    Q 166.64568856248223,800.9382833691081 171.55077805273612,801.4403333415103 Z" fill="#ffffff" stroke="#1e1e1e" stroke-width="1" />
<text x="241.81411375619064" y="824.4148808223836" text-anchor="middle" dominant-baseline="central" font-family="'Virgil', 'Segoe Print', 'Comic Sans MS', 'Patrick Hand', cursive" font-size="14" font-weight="normal" fill="#1e1e1e"><tspan x="241.81411375619064" dy="0">Arena API</tspan></text></g>
<text x="-102.5" y="486.6892353199073" font-family="'Virgil', 'Segoe Print', 'Comic Sans MS', 'Patrick Hand', cursive" font-size="13" fill="#868e96" font-style="italic" opacity="0.85"><tspan x="-102.5" dy="0">built-in MCP support</tspan></text>
<text x="560.984454663776" y="485.18655330943875" font-family="'Virgil', 'Segoe Print', 'Comic Sans MS', 'Patrick Hand', cursive" font-size="13" fill="#868e96" font-style="italic" opacity="0.85"><tspan x="560.984454663776" dy="0">catalog injected into prompt</tspan></text>
<text x="464.1623731025902" y="651.3541845609434" font-family="'Virgil', 'Segoe Print', 'Comic Sans MS', 'Patrick Hand', cursive" font-size="13" fill="#868e96" font-style="italic" opacity="0.85"><tspan x="464.1623731025902" dy="0">same function, zero reimplementation</tspan></text>
</g>
</svg>