<svg xmlns="http://www.w3.org/2000/svg" viewBox="0 0 964.5152700380621 1663.2138958508149" width="964.5152700380621" height="1663.2138958508149">
<rect width="964.5152700380621" height="1663.2138958508149" fill="#ffffff" />
<defs><marker id="arrowhead" markerWidth="10" markerHeight="7" refX="10" refY="3.5" orient="auto"><polygon points="0 0, 10 3.5, 0 7" fill="#000000" /></marker></defs>
<g transform="translate(50, 50)">
<path d="M 406.0309200991905,60 Q 410.1057066579833,141.01312832936964 410.093135553474,224.44272932140157" fill="none" stroke="#000000" stroke-width="1.5" marker-end="url(#arrowhead)" />

<path d="M 379.82567963060126,303.6427293214016 Q 325.1593335285495,373.64522320807083 266.16828843407495,447.6892353199073" fill="none" stroke="#000000" stroke-width="1.5" marker-end="url(#arrowhead)" />
<rect x="305.4969840323381" y="361.66598232065445" width="35" height="26" rx="4" fill="white" stroke="none" />
<text x="322.9969840323381" y="374.66598232065445" text-anchor="middle" dominant-baseline="central" font-family="'Virgil', 'Segoe Print', 'Comic Sans MS', 'Patrick Hand', cursive" font-size="12" fill="#495057" font-style="italic">No</text>
<path d="M 436.80391538876916,303.6427293214016 Q 484.3882288778608,377.09049353344017 532.9395465782954,451.5865533094387" fill="none" stroke="#000000" stroke-width="1.5" marker-end="url(#arrowhead)" />
<rect x="463.6217309835323" y="363.61464131542016" width="42.5" height="26" rx="4" fill="white" stroke="none" />
<text x="484.8717309835323" y="376.61464131542016" text-anchor="middle" dominant-baseline="central" font-family="'Virgil', 'Segoe Print', 'Comic Sans MS', 'Patrick Hand', cursive" font-size="12" fill="#495057" font-style="italic">Yes</text>
<path d="M 496.6780700669853,530.7865533094388 Q 381.47397513007684,604.6188183366655 265.66012074053197,678.3541845609434" fill="none" stroke="#000000" stroke-width="1.5" marker-end="url(#arrowhead)" />
<rect x="359.91909540375866" y="590.570368935191" width="42.5" height="26" rx="4" fill="white" stroke="none" />
<text x="381.16909540375866" y="603.570368935191" text-anchor="middle" dominant-baseline="central" font-family="'Virgil', 'Segoe Print', 'Comic Sans MS', 'Patrick Hand', cursive" font-size="12" fill="#495057" font-style="italic">Yes</text>
<path d="M 555.9508807208878,530.7865533094388 Q 549.2606144622466,600.817196648645 546.0957708494583,674.2015553192468" fill="none" stroke="#000000" stroke-width="1.5" marker-end="url(#arrowhead)" />
<rect x="533.523325785173" y="588.4940543143427" width="35" height="26" rx="4" fill="white" stroke="none" />
<text x="551.023325785173" y="601.4940543143427" text-anchor="middle" dominant-baseline="central" font-family="'Virgil', 'Segoe Print', 'Comic Sans MS', 'Patrick Hand', cursive" font-size="12" fill="#495057" font-style="italic">No</text>
<path d="M 525.3699210446641,720.2015553192468 Q 479.8704008440026,778.4257640988465 429.96504643373055,834.8148808223835" fill="none" stroke="#000000" stroke-width="1.5" marker-end="url(#arrowhead)" />

<path d="M 375.4768228507072,914.0148808223836 Q 331.2272665757962,993.7426243721529 290.9307969190883,1069.5565288055282" fill="none" stroke="#000000" stroke-width="1.5" marker-end="url(#arrowhead)" />
<rect x="311.95380988489774" y="977.7857048139558" width="42.5" height="26" rx="4" fill="white" stroke="none" />
<text x="333.20380988489774" y="990.7857048139558" text-anchor="middle" dominant-baseline="central" font-family="'Virgil', 'Segoe Print', 'Comic Sans MS', 'Patrick Hand', cursive" font-size="12" fill="#495057" font-style="italic">Yes</text>
<path d="M 231.89940204351885,1148.756528805528 Q 163.3362269986286,1222.4151650951524 96.44266051530785,1291.7741808599967" fill="none" stroke="#000000" stroke-width="1.5" marker-end="url(#arrowhead)" />
<rect x="139.17103127941334" y="1206.2653548327623" width="50" height="26" rx="4" fill="white" stroke="none" />
<text x="164.17103127941334" y="1219.2653548327623" text-anchor="middle" dominant-baseline="central" font-family="'Virgil', 'Segoe Print', 'Comic Sans MS', 'Patrick Hand', cursive" font-size="12" fill="#495057" font-style="italic">True</text>
<path d="M 271.2905351490289,1148.756528805528 Q 274.9511785036885,1218.0107583687175 277.96451134940907,1288.988038140582" fill="none" stroke="#000000" stroke-width="1.5" marker-end="url(#arrowhead)" />
<rect x="245.877523249219" y="1204.872283473055" width="57.5" height="26" rx="4" fill="white" stroke="none" />
<text x="274.627523249219" y="1217.872283473055" text-anchor="middle" dominant-baseline="central" font-family="'Virgil', 'Segoe Print', 'Comic Sans MS', 'Patrick Hand', cursive" font-size="12" fill="#495057" font-style="italic">False</text>
<path d="M 426.3119809969281,914.0148808223836 Q 485.49237959075066,992.0923342363094 541.6435968384724,1069.8352826865507" fill="none" stroke="#000000" stroke-width="1.5" marker-end="url(#arrowhead)" />
<rect x="466.47778891770025" y="977.9250817544671" width="35" height="26" rx="4" fill="white" stroke="none" />
<text x="483.97778891770025" y="990.9250817544671" text-anchor="middle" dominant-baseline="central" font-family="'Virgil', 'Segoe Print', 'Comic Sans MS', 'Patrick Hand', cursive" font-size="12" fill="#495057" font-style="italic">No</text>
<path d="M 547.6562992489814,1149.0352826865505 Q 503.3586634637917,1223.2245220959055 461.7776200026702,1295.0076621950866" fill="none" stroke="#000000" stroke-width="1.5" marker-end="url(#arrowhead)" />
<rect x="479.7169596258258" y="1208.0214724408186" width="50" height="26" rx="4" fill="white" stroke="none" />
<text x="504.7169596258258" y="1221.0214724408186" text-anchor="middle" dominant-baseline="central" font-family="'Virgil', 'Segoe Print', 'Comic Sans MS', 'Patrick Hand', cursive" font-size="12" fill="#495057" font-style="italic">True</text>
<path d="M 589.9139066652922,1149.0352826865505 Q 626.1773354157503,1225.9145142020425 661.31413372696,1298.1617199251546" fill="none" stroke="#000000" stroke-width="1.5" marker-end="url(#arrowhead)" />
<rect x="596.8640201961261" y="1209.5985013058526" width="57.5" height="26" rx="4" fill="white" stroke="none" />
<text x="625.6140201961261" y="1222.5985013058526" text-anchor="middle" dominant-baseline="central" font-family="'Virgil', 'Segoe Print', 'Comic Sans MS', 'Patrick Hand', cursive" font-size="12" fill="#495057" font-style="italic">False</text>
<path d="M 607.8310590023585,1377.3617199251544 Q 478.3958894847965,1450.593732353869 346.1147997667457,1520.4251202696323" fill="none" stroke="#000000" stroke-width="1.5" marker-end="url(#arrowhead)" />
<rect x="451.9729293845521" y="1434.8934200973933" width="50" height="26" rx="4" fill="white" stroke="none" />
<text x="476.9729293845521" y="1447.8934200973933" text-anchor="middle" dominant-baseline="central" font-family="'Virgil', 'Segoe Print', 'Comic Sans MS', 'Patrick Hand', cursive" font-size="12" fill="#495057" font-style="italic">True</text>
<path d="M 643.3600990174166,1377.3617199251544 Q 576.7258336511827,1447.8308641292504 507.4004078967452,1523.2138958508149" fill="none" stroke="#000000" stroke-width="1.5" marker-end="url(#arrowhead)" />
<rect x="546.6302534570809" y="1436.2878078879846" width="57.5" height="26" rx="4" fill="white" stroke="none" />
<text x="575.3802534570809" y="1449.2878078879846" text-anchor="middle" dominant-baseline="central" font-family="'Virgil', 'Segoe Print', 'Comic Sans MS', 'Patrick Hand', cursive" font-size="12" fill="#495057" font-style="italic">False</text>
<g><path d="M 310.8548674441248,0.5861384692099819
    L 498.4460582742962,-0.42393854406182074
    Q 505.38927574397235,-0.6074648532943684 504.8611682656803,5.822478820486867
    L 505.60133466713376,54.12119100207783
    Q 505.7622666486728,59.94486755101352 500.0682783420401,59.272526719469894
    L 311.6957456068354,60.84291819261998
    Q 306.14977159472505,60.84143073703162 305.1667304058603,54.1156879832939
    L 305.5483978994976,5.8195619760968835
    Q 306.00727212357447,0.43518644109208254 311.40741121408934,-0.1740607580417418 Z" fill="#a5d8ff" stroke="#1864ab" stroke-width="2.2" />
<line x1="304.88043711508215" y1="42.83720775575577" x2="311.2802990036274" y2="60.41017200548231" stroke="#1864ab" stroke-width="0.7" opacity="0.25" />
<line x1="305.1776971616622" y1="16.960273750717793" x2="320.0007618778167" y2="59.7399235008852" stroke="#1864ab" stroke-width="0.7" opacity="0.25" />
<line x1="307.95446099026447" y1="-0.1564768865973747" x2="329.0517934832154" y2="60.108072906579764" stroke="#1864ab" stroke-width="0.7" opacity="0.25" />
<line x1="317.25113412243115" y1="-0.13223915312846657" x2="337.81454166426045" y2="60.44058342096105" stroke="#1864ab" stroke-width="0.7" opacity="0.25" />
<line x1="326.060536782394" y1="-0.3195689037656848" x2="347.4134097114278" y2="59.90936176973992" stroke="#1864ab" stroke-width="0.7" opacity="0.25" />
<line x1="335.5438150068934" y1="-0.34433111074758926" x2="356.118523613672" y2="60.429067521916295" stroke="#1864ab" stroke-width="0.7" opacity="0.25" />
<line x1="344.28255090529854" y1="0.1677269966021413" x2="365.12287166724707" y2="60.429962052478004" stroke="#1864ab" stroke-width="0.7" opacity="0.25" />
<line x1="353.1914431510435" y1="-0.054618182959529804" x2="374.5789094549094" y2="60.29138928926841" stroke="#1864ab" stroke-width="0.7" opacity="0.25" />
<line x1="361.9312463345608" y1="-0.013648224419739563" x2="383.56097865385743" y2="59.60105865212972" stroke="#1864ab" stroke-width="0.7" opacity="0.25" />
<line x1="371.43365696576654" y1="0.3029181346100813" x2="392.3232830197725" y2="59.99169758801145" stroke="#1864ab" stroke-width="0.7" opacity="0.25" />
<line x1="380.15083252394686" y1="-0.4681025684476481" x2="401.71740347389675" y2="60.04677111742785" stroke="#1864ab" stroke-width="0.7" opacity="0.25" />
<line x1="389.0548575808665" y1="0.14759255269746063" x2="409.9674729426464" y2="59.991350013955525" stroke="#1864ab" stroke-width="0.7" opacity="0.25" />
<line x1="398.40249556732886" y1="0.46320257923798636" x2="419.59386259349264" y2="59.59171048167627" stroke="#1864ab" stroke-width="0.7" opacity="0.25" />
<line x1="407.1820678980861" y1="-0.334359974549443" x2="427.9812175040082" y2="60.347892614183365" stroke="#1864ab" stroke-width="0.7" opacity="0.25" />
<line x1="416.61351643232626" y1="0.3359140722841403" x2="437.52721396519917" y2="60.428288069841074" stroke="#1864ab" stroke-width="0.7" opacity="0.25" />
<line x1="424.79844377165716" y1="0.44330623788846424" x2="446.7145827553444" y2="59.82317348699871" stroke="#1864ab" stroke-width="0.7" opacity="0.25" />
<line x1="434.09866846019065" y1="-0.33158866696612677" x2="455.0484983298942" y2="60.18287753256209" stroke="#1864ab" stroke-width="0.7" opacity="0.25" />
<line x1="442.94740007648795" y1="-0.10736422139962087" x2="464.1680582620305" y2="60.25988765528746" stroke="#1864ab" stroke-width="0.7" opacity="0.25" />
<line x1="452.53700033439" y1="-0.44149515452591004" x2="472.83130094318255" y2="60.119890181318624" stroke="#1864ab" stroke-width="0.7" opacity="0.25" />
<line x1="461.0757896696872" y1="0.21009614917102226" x2="482.7532008348047" y2="59.7761890965412" stroke="#1864ab" stroke-width="0.7" opacity="0.25" />
<line x1="470.5377728407424" y1="0.36212912621704163" x2="491.70894543791144" y2="60.37771528189478" stroke="#1864ab" stroke-width="0.7" opacity="0.25" />
<line x1="479.64264527083503" y1="0.006948426107555861" x2="500.0754474454719" y2="59.85000347418827" stroke="#1864ab" stroke-width="0.7" opacity="0.25" />
<line x1="488.63519959197436" y1="0.06278267137531657" x2="505.0885045627932" y2="48.63692347611608" stroke="#1864ab" stroke-width="0.7" opacity="0.25" />
<line x1="497.43048304065167" y1="-0.11822523276350694" x2="505.4044912335361" y2="22.498979579316902" stroke="#1864ab" stroke-width="0.7" opacity="0.25" />
<text x="405.289832523404" y="30" text-anchor="middle" dominant-baseline="central" font-family="'Virgil', 'Segoe Print', 'Comic Sans MS', 'Patrick Hand', cursive" font-size="18" font-weight="600" fill="#000000"><tspan x="405.289832523404" dy="0">Expression Policy</tspan></text></g>
<g><path d="M 411.79984437668315,217.8131257533887
    L 531.9115695862645,264.2045569486363
    L 410.6406086013434,307.79921023405404
    L 289.7749056814041,264.0086087603522 Z" fill="#ffec99" stroke="#e67700" stroke-width="1.5" />
<line x1="290.7522869994209" y1="295.8038147625614" x2="295.032371154055" y2="308.5746267529539" stroke="#e67700" stroke-width="0.7" opacity="0.25" />
<line x1="290.5152989744165" y1="270.05427675694125" x2="303.93639621097464" y2="309.190321874099" stroke="#e67700" stroke-width="0.7" opacity="0.25" />
<line x1="290.38339591726253" y1="244.8266176292977" x2="313.284034197437" y2="309.50593190063955" stroke="#e67700" stroke-width="0.7" opacity="0.25" />
<line x1="291.082441853825" y1="219.45257801702974" x2="322.0636065281942" y2="308.7083693468521" stroke="#e67700" stroke-width="0.7" opacity="0.25" />
<line x1="299.92379807032194" y1="219.45959121928172" x2="331.4950550624344" y2="309.3786433936857" stroke="#e67700" stroke-width="0.7" opacity="0.25" />
<line x1="308.51754805749806" y1="219.31184536022192" x2="339.6799824017653" y2="309.48603555929003" stroke="#e67700" stroke-width="0.7" opacity="0.25" />
<line x1="317.82772784224653" y1="218.79791530544753" x2="348.9802070902988" y2="308.71114065443544" stroke="#e67700" stroke-width="0.7" opacity="0.25" />
<line x1="326.8097168722743" y1="218.59725650433575" x2="357.8289387065961" y2="308.93536510000195" stroke="#e67700" stroke-width="0.7" opacity="0.25" />
<line x1="335.42515421644566" y1="219.0905703309254" x2="367.4185389644981" y2="308.60123416687566" stroke="#e67700" stroke-width="0.7" opacity="0.25" />
<line x1="344.7120780031946" y1="218.54577417932524" x2="375.95732829979534" y2="309.2528254705726" stroke="#e67700" stroke-width="0.7" opacity="0.25" />
<line x1="353.8773694187621" y1="219.0479816248553" x2="385.4193114708505" y2="309.4048584476186" stroke="#e67700" stroke-width="0.7" opacity="0.25" />
<line x1="363.06303321059795" y1="218.82749655893713" x2="394.52418390094317" y2="309.0496777475091" stroke="#e67700" stroke-width="0.7" opacity="0.25" />
<line x1="371.6034260835222" y1="218.90164879278473" x2="403.5167382220825" y2="309.1055119927769" stroke="#e67700" stroke-width="0.7" opacity="0.25" />
<line x1="380.70872201570455" y1="219.26335769212164" x2="412.3120216707598" y2="308.92450408863806" stroke="#e67700" stroke-width="0.7" opacity="0.25" />
<line x1="389.65893868738203" y1="219.20413485150857" x2="420.81089246141346" y2="309.3038309136191" stroke="#e67700" stroke-width="0.7" opacity="0.25" />
<line x1="398.9189770757657" y1="219.50377886577917" x2="430.3770744106514" y2="309.2228291505089" stroke="#e67700" stroke-width="0.7" opacity="0.25" />
<line x1="407.9789295152523" y1="219.3419756162184" x2="438.81479974467584" y2="309.1939461516522" stroke="#e67700" stroke-width="0.7" opacity="0.25" />
<line x1="416.5956878002544" y1="219.52689625176913" x2="448.5689895842952" y2="308.5975698240436" stroke="#e67700" stroke-width="0.7" opacity="0.25" />
<line x1="425.579017826567" y1="218.6588473567317" x2="456.9084949408484" y2="308.5923067926051" stroke="#e67700" stroke-width="0.7" opacity="0.25" />
<line x1="434.46369475450774" y1="219.33584216143208" x2="466.3864064113586" y2="309.0848785052202" stroke="#e67700" stroke-width="0.7" opacity="0.25" />
<line x1="443.90293188353826" y1="219.5136754305313" x2="475.01625559175955" y2="308.77161955906195" stroke="#e67700" stroke-width="0.7" opacity="0.25" />
<line x1="452.62717493379967" y1="219.45716751359578" x2="484.52228899771944" y2="308.6252421993704" stroke="#e67700" stroke-width="0.7" opacity="0.25" />
<line x1="461.18952725897543" y1="218.6695778436441" x2="492.689662526187" y2="309.4553274120153" stroke="#e67700" stroke-width="0.7" opacity="0.25" />
<line x1="470.34088715604594" y1="218.72665950263763" x2="502.50219063523696" y2="308.5781709597795" stroke="#e67700" stroke-width="0.7" opacity="0.25" />
<line x1="480.11823388941775" y1="219.42369778388093" x2="511.0801958530792" y2="309.13472841560156" stroke="#e67700" stroke-width="0.7" opacity="0.25" />
<line x1="488.6650161669604" y1="219.05882137264416" x2="520.0086222488208" y2="309.2285689264827" stroke="#e67700" stroke-width="0.7" opacity="0.25" />
<line x1="497.2772277429665" y1="218.77076668840164" x2="529.6428253837694" y2="309.0610423078033" stroke="#e67700" stroke-width="0.7" opacity="0.25" />
<line x1="507.1121434762608" y1="218.63817615515518" x2="531.0488067855811" y2="289.7319422485867" stroke="#e67700" stroke-width="0.7" opacity="0.25" />
<line x1="515.6916300439916" y1="218.60560329163127" x2="531.9142490930715" y2="263.735918700144" stroke="#e67700" stroke-width="0.7" opacity="0.25" />
<line x1="524.1844927174607" y1="218.6584038474939" x2="531.1272758026287" y2="238.5951962027859" stroke="#e67700" stroke-width="0.7" opacity="0.25" />
<text x="411.07137115351213" y="264.04272932140157" text-anchor="middle" dominant-baseline="central" font-family="'Virgil', 'Segoe Print', 'Comic Sans MS', 'Patrick Hand', cursive" font-size="15" font-weight="normal" fill="#000000"><tspan x="411.07137115351213" dy="0">Warmup complete?</tspan></text></g>
<g><path d="M 136.27472639298796,447.3357907506303
    L 363.69445102056346,447.76250764933576
    Q 369.49311689403913,447.30395818321705 370.7658092182844,454.52329828042855
    L 369.9847765235507,482.3644398723176
    Q 369.99397007166993,487.17559352823343 364.75843302722643,487.69868946612405
    L 136.8339287209856,488.341067747098
    Q 131.1420393958899,488.36912282731794 129.69923357468727,481.0150984167485
    L 129.99634116124219,454.39422702266177
    Q 130.00021717734055,448.3242982652831 136.40014331677014,447.30334217962957 Z" fill="#b2f2bb" stroke="#2b8a3e" stroke-width="1.5" />
<line x1="130.59830742638735" y1="459.3982865079223" x2="140.62366253267248" y2="487.6768028537772" stroke="#2b8a3e" stroke-width="0.7" opacity="0.25" />
<line x1="134.94292573109635" y1="447.9191028367495" x2="149.61920921781405" y2="487.9368412421609" stroke="#2b8a3e" stroke-width="0.7" opacity="0.25" />
<line x1="144.55027021383796" y1="447.2472334098238" x2="158.5192639864414" y2="487.99679368164743" stroke="#2b8a3e" stroke-width="0.7" opacity="0.25" />
<line x1="153.67046939123395" y1="447.8074841721973" x2="167.056685053985" y2="487.61355196664954" stroke="#2b8a3e" stroke-width="0.7" opacity="0.25" />
<line x1="162.28501693653436" y1="447.3477713624088" x2="176.7224393764642" y2="487.59688199296215" stroke="#2b8a3e" stroke-width="0.7" opacity="0.25" />
<line x1="171.83594210838203" y1="447.3045897728515" x2="185.36479157245196" y2="487.4815589209029" stroke="#2b8a3e" stroke-width="0.7" opacity="0.25" />
<line x1="180.59064498622467" y1="448.0821215653268" x2="194.68103691639007" y2="487.9207960499334" stroke="#2b8a3e" stroke-width="0.7" opacity="0.25" />
<line x1="189.25064263787647" y1="447.24999516468597" x2="203.80632211547493" y2="487.6450391001948" stroke="#2b8a3e" stroke-width="0.7" opacity="0.25" />
<line x1="198.7859176822327" y1="447.57896778770737" x2="212.11047194563946" y2="487.2073914253706" stroke="#2b8a3e" stroke-width="0.7" opacity="0.25" />
<line x1="207.41443564308622" y1="447.52604393142974" x2="221.13216398890074" y2="487.3587513224411" stroke="#2b8a3e" stroke-width="0.7" opacity="0.25" />
<line x1="216.2232069567268" y1="447.986494644143" x2="230.75358224618105" y2="488.1360980558129" stroke="#2b8a3e" stroke-width="0.7" opacity="0.25" />
<line x1="225.49537949650914" y1="447.77298789008637" x2="239.88600667770777" y2="487.68288033335557" stroke="#2b8a3e" stroke-width="0.7" opacity="0.25" />
<line x1="234.88082743819325" y1="447.47579328699067" x2="248.67088119750554" y2="487.29509190936164" stroke="#2b8a3e" stroke-width="0.7" opacity="0.25" />
<line x1="243.37480195440878" y1="447.77682029888456" x2="257.13829535850675" y2="488.130007642656" stroke="#2b8a3e" stroke-width="0.7" opacity="0.25" />
<line x1="252.34918774187247" y1="447.2663264699586" x2="266.1548452509902" y2="487.70949421038677" stroke="#2b8a3e" stroke-width="0.7" opacity="0.25" />
<line x1="261.65000290100727" y1="447.88353140902063" x2="275.42684077588785" y2="487.2023568838558" stroke="#2b8a3e" stroke-width="0.7" opacity="0.25" />
<line x1="270.09569501091903" y1="447.37078177441435" x2="283.9932137574875" y2="488.0539801938867" stroke="#2b8a3e" stroke-width="0.7" opacity="0.25" />
<line x1="278.9224939608663" y1="447.27483118903547" x2="293.5082488692366" y2="487.90886978459093" stroke="#2b8a3e" stroke-width="0.7" opacity="0.25" />
<line x1="288.685260582855" y1="447.3945370378351" x2="302.473705205966" y2="487.26291020606004" stroke="#2b8a3e" stroke-width="0.7" opacity="0.25" />
<line x1="297.31372282041013" y1="447.5422542535962" x2="311.2624332185784" y2="487.8780363187616" stroke="#2b8a3e" stroke-width="0.7" opacity="0.25" />
<line x1="306.2455530723688" y1="447.388370873673" x2="319.9646904111447" y2="487.75096930878135" stroke="#2b8a3e" stroke-width="0.7" opacity="0.25" />
<line x1="315.5859795644334" y1="447.5836488024652" x2="329.57232065806477" y2="488.16852636198746" stroke="#2b8a3e" stroke-width="0.7" opacity="0.25" />
<line x1="324.7228754007316" y1="447.8703163043465" x2="338.3236985537384" y2="488.04779934778526" stroke="#2b8a3e" stroke-width="0.7" opacity="0.25" />
<line x1="333.3245153416152" y1="447.7143055464185" x2="347.02234544806345" y2="487.677148803763" stroke="#2b8a3e" stroke-width="0.7" opacity="0.25" />
<line x1="341.9054556156158" y1="447.7353927890799" x2="356.02172877879786" y2="487.2695805892181" stroke="#2b8a3e" stroke-width="0.7" opacity="0.25" />
<line x1="351.667232713569" y1="447.91795915890725" x2="365.33002618316243" y2="487.8337268454634" stroke="#2b8a3e" stroke-width="0.7" opacity="0.25" />
<line x1="360.6698981655296" y1="447.3706154777683" x2="370.72336409311504" y2="475.87589295754253" stroke="#2b8a3e" stroke-width="0.7" opacity="0.25" />
<text x="250.38763614977654" y="467.6892353199073" text-anchor="middle" dominant-baseline="central" font-family="'Virgil', 'Segoe Print', 'Comic Sans MS', 'Patrick Hand', cursive" font-size="13" font-weight="normal" fill="#000000"><tspan x="250.38763614977654" dy="0">HOLD - indicators still computing</tspan></text></g>
<g><path d="M 559.6543064271012,446.9200552259726
    L 691.5509926386177,492.36391858226307
    L 558.284301909171,535.5087789035897
    L 427.30949112155093,491.29304157626757 Z" fill="#ffec99" stroke="#e67700" stroke-width="1.5" />
<line x1="425.8903821862274" y1="523.7420085429096" x2="430.39775354064625" y2="535.7183448956202" stroke="#e67700" stroke-width="0.7" opacity="0.25" />
<line x1="426.7029102952773" y1="497.15056637638816" x2="439.50855036268115" y2="535.8806637939815" stroke="#e67700" stroke-width="0.7" opacity="0.25" />
<line x1="426.28091551311957" y1="471.99283811792446" x2="449.33011945213514" y2="536.1896428643486" stroke="#e67700" stroke-width="0.7" opacity="0.25" />
<line x1="426.2093419088611" y1="446.3723929145199" x2="457.80675704028215" y2="536.4645641047027" stroke="#e67700" stroke-width="0.7" opacity="0.25" />
<line x1="435.84354504380974" y1="446.2048662958405" x2="466.3802495306751" y2="536.06964797301" stroke="#e67700" stroke-width="0.7" opacity="0.25" />
<line x1="443.9495264456215" y1="446.01862337948114" x2="475.77608645116345" y2="536.0557034643643" stroke="#e67700" stroke-width="0.7" opacity="0.25" />
<line x1="453.8149687531119" y1="445.7368855453242" x2="484.98903234059037" y2="536.6605875340974" stroke="#e67700" stroke-width="0.7" opacity="0.25" />
<line x1="462.0279954626691" y1="446.3104487622518" x2="493.52748984173525" y2="536.5315038412155" stroke="#e67700" stroke-width="0.7" opacity="0.25" />
<line x1="470.92941887050404" y1="445.912587015373" x2="502.486346113095" y2="536.0880400497408" stroke="#e67700" stroke-width="0.7" opacity="0.25" />
<line x1="480.5007382124728" y1="446.0522978877161" x2="511.65133560348625" y2="536.0762786075366" stroke="#e67700" stroke-width="0.7" opacity="0.25" />
<line x1="488.9422585862209" y1="446.1475376653325" x2="520.4336418723993" y2="536.0078887893615" stroke="#e67700" stroke-width="0.7" opacity="0.25" />
<line x1="498.52505352260016" y1="446.61819022212876" x2="529.6571499615144" y2="535.8520283638172" stroke="#e67700" stroke-width="0.7" opacity="0.25" />
<line x1="507.87124671791537" y1="445.7071947552158" x2="538.991797765049" y2="535.7690977357051" stroke="#e67700" stroke-width="0.7" opacity="0.25" />
<line x1="516.4899238602753" y1="446.14727942071477" x2="548.0599980136909" y2="535.8112824921409" stroke="#e67700" stroke-width="0.7" opacity="0.25" />
<line x1="524.9329535195371" y1="446.0888370981229" x2="557.2866864209224" y2="536.3654732560408" stroke="#e67700" stroke-width="0.7" opacity="0.25" />
<line x1="534.2295817245337" y1="446.09575432170095" x2="566.0773879837194" y2="536.0423617474589" stroke="#e67700" stroke-width="0.7" opacity="0.25" />
<line x1="543.0468262591627" y1="446.5400061721739" x2="575.219362465106" y2="536.1922623917708" stroke="#e67700" stroke-width="0.7" opacity="0.25" />
<line x1="552.5135730070339" y1="445.9553448669867" x2="583.9397035607632" y2="536.0793775535712" stroke="#e67700" stroke-width="0.7" opacity="0.25" />
<line x1="561.4046676328559" y1="446.43891271488974" x2="593.3268004844164" y2="536.1969583692262" stroke="#e67700" stroke-width="0.7" opacity="0.25" />
<line x1="570.1709054962354" y1="445.76842454296275" x2="602.263848182594" y2="535.894985841086" stroke="#e67700" stroke-width="0.7" opacity="0.25" />
<line x1="579.6205607768585" y1="446.0943213015489" x2="610.580659125642" y2="535.7503374649314" stroke="#e67700" stroke-width="0.7" opacity="0.25" />
<line x1="588.6459986205952" y1="446.37386617869925" x2="619.7202488881027" y2="536.6207952966943" stroke="#e67700" stroke-width="0.7" opacity="0.25" />
<line x1="597.3555666034314" y1="446.39229627088207" x2="628.7317364854622" y2="535.7893887650425" stroke="#e67700" stroke-width="0.7" opacity="0.25" />
<line x1="606.4288494912049" y1="446.3996994115878" x2="637.5258424420041" y2="536.4408145748093" stroke="#e67700" stroke-width="0.7" opacity="0.25" />
<line x1="615.7726293050015" y1="445.9252407016975" x2="647.2693913734998" y2="535.8284112672118" stroke="#e67700" stroke-width="0.7" opacity="0.25" />
<line x1="624.4465591697168" y1="446.3708278200211" x2="655.6175422511238" y2="535.7192374732549" stroke="#e67700" stroke-width="0.7" opacity="0.25" />
<line x1="633.1831394401084" y1="446.1108427670988" x2="665.0847566288518" y2="536.2416476146282" stroke="#e67700" stroke-width="0.7" opacity="0.25" />
<line x1="642.859428867932" y1="446.554808044888" x2="673.9644759687159" y2="535.6887933842445" stroke="#e67700" stroke-width="0.7" opacity="0.25" />
<line x1="650.9578639330226" y1="446.17342707347416" x2="683.1739945441747" y2="535.7772743202804" stroke="#e67700" stroke-width="0.7" opacity="0.25" />
<line x1="660.6599643797614" y1="446.30207616293774" x2="690.5171648422722" y2="533.2033595201256" stroke="#e67700" stroke-width="0.7" opacity="0.25" />
<line x1="669.5130814290184" y1="446.46051477671426" x2="691.3919633057151" y2="508.0651756888651" stroke="#e67700" stroke-width="0.7" opacity="0.25" />
<line x1="678.6199576856303" y1="446.45016737118567" x2="690.9142277752501" y2="481.7076866989701" stroke="#e67700" stroke-width="0.7" opacity="0.25" />
<line x1="687.5345929347765" y1="445.8700690082478" x2="690.9849022878363" y2="456.7487826546245" stroke="#e67700" stroke-width="0.7" opacity="0.25" />
<text x="558.6720908135525" y="491.18655330943875" text-anchor="middle" dominant-baseline="central" font-family="'Virgil', 'Segoe Print', 'Comic Sans MS', 'Patrick Hand', cursive" font-size="15" font-weight="normal" fill="#000000"><tspan x="558.6720908135525" dy="0">Validation errors?</tspan></text></g>
<g><path d="M 120.56711214739478,678.7495265973739
    L 347.53059872252777,678.5857498789999
    Q 354.10834949326596,677.9568251828241 354.15151478894273,684.8899085404846
    L 353.81955234463675,712.5091088620844
    Q 353.58262404744164,718.4634307525421 347.57631124316976,718.2839564015521
    L 119.56080115829097,718.0325884248043
    Q 114.21696525950718,718.0896186415833 114.12464397621004,712.694026358881
    L 114.413060637578,684.6295174372292
    Q 115.12695569520872,677.9672910272748 119.74786435024797,678.0984350216095 Z" fill="#b2f2bb" stroke="#2b8a3e" stroke-width="1.5" />
<line x1="114.28607165632855" y1="690.1413200173928" x2="123.91947516451762" y2="717.915047266928" stroke="#2b8a3e" stroke-width="0.7" opacity="0.25" />
<line x1="118.98471855065361" y1="678.3420980447991" x2="133.54663329903394" y2="718.2116754719245" stroke="#2b8a3e" stroke-width="0.7" opacity="0.25" />
<line x1="127.98410188138803" y1="677.9345298302542" x2="142.40483800953223" y2="718.0289200065536" stroke="#2b8a3e" stroke-width="0.7" opacity="0.25" />
<line x1="137.2923992857526" y1="678.4986760864995" x2="151.38920912439642" y2="718.4956667544247" stroke="#2b8a3e" stroke-width="0.7" opacity="0.25" />
<line x1="146.6857371957052" y1="677.9694136271501" x2="159.8885921376626" y2="718.3867613802468" stroke="#2b8a3e" stroke-width="0.7" opacity="0.25" />
<line x1="155.40677714404444" y1="678.2170865102362" x2="169.40416281022624" y2="718.1529992436263" stroke="#2b8a3e" stroke-width="0.7" opacity="0.25" />
<line x1="164.52831111938792" y1="678.7557417698117" x2="178.18429907146526" y2="718.6026545242494" stroke="#2b8a3e" stroke-width="0.7" opacity="0.25" />
<line x1="173.69990079066918" y1="678.1090032860557" x2="187.06174383975883" y2="718.628092367986" stroke="#2b8a3e" stroke-width="0.7" opacity="0.25" />
<line x1="182.66751976275407" y1="677.8544071791257" x2="196.07154841758745" y2="718.3376603508223" stroke="#2b8a3e" stroke-width="0.7" opacity="0.25" />
<line x1="190.9862796779529" y1="678.6368093558413" x2="205.19479933014952" y2="718.4109432385958" stroke="#2b8a3e" stroke-width="0.7" opacity="0.25" />
<line x1="200.6638885473061" y1="678.2753859364839" x2="213.88113281417316" y2="718.7547230523924" stroke="#2b8a3e" stroke-width="0.7" opacity="0.25" />
<line x1="209.77217389279247" y1="678.0078998309909" x2="223.00409438078566" y2="718.4286529171077" stroke="#2b8a3e" stroke-width="0.7" opacity="0.25" />
<line x1="217.93315727307925" y1="678.1153960699885" x2="232.39388755046673" y2="718.1652331874993" stroke="#2b8a3e" stroke-width="0.7" opacity="0.25" />
<line x1="227.00720020632286" y1="678.7804069671402" x2="241.15839762298708" y2="718.8415226153229" stroke="#2b8a3e" stroke-width="0.7" opacity="0.25" />
<line x1="236.43549939927323" y1="678.1796658591265" x2="250.34991208125427" y2="717.9399576804135" stroke="#2b8a3e" stroke-width="0.7" opacity="0.25" />
<line x1="244.96652276224484" y1="678.8267170696035" x2="259.00749546086297" y2="718.6420581271523" stroke="#2b8a3e" stroke-width="0.7" opacity="0.25" />
<line x1="253.93052925209338" y1="677.8822544173163" x2="267.8687674327397" y2="718.4951751764092" stroke="#2b8a3e" stroke-width="0.7" opacity="0.25" />
<line x1="263.4512247749211" y1="678.2346929347732" x2="277.72744576670664" y2="718.6020514330212" stroke="#2b8a3e" stroke-width="0.7" opacity="0.25" />
<line x1="272.5393277540992" y1="677.952146738724" x2="286.7224108362774" y2="718.5166866821673" stroke="#2b8a3e" stroke-width="0.7" opacity="0.25" />
<line x1="281.67633575137404" y1="678.4857742981258" x2="295.7864034494254" y2="718.3879607957388" stroke="#2b8a3e" stroke-width="0.7" opacity="0.25" />
<line x1="290.759621392432" y1="678.1407917472679" x2="304.81642080826566" y2="717.9863624058416" stroke="#2b8a3e" stroke-width="0.7" opacity="0.25" />
<line x1="299.1806236886863" y1="678.6474663077533" x2="313.8314102334574" y2="718.5609216853118" stroke="#2b8a3e" stroke-width="0.7" opacity="0.25" />
<line x1="308.4702137741464" y1="678.6982983565758" x2="322.59714546913017" y2="718.7413960139274" stroke="#2b8a3e" stroke-width="0.7" opacity="0.25" />
<line x1="317.36873113456966" y1="678.3176537887266" x2="331.1171880852402" y2="718.6266104941242" stroke="#2b8a3e" stroke-width="0.7" opacity="0.25" />
<line x1="326.63470279308274" y1="678.0610913876662" x2="340.74572390469837" y2="718.4767346848857" stroke="#2b8a3e" stroke-width="0.7" opacity="0.25" />
<line x1="335.7784439307346" y1="678.8079962606917" x2="349.2929921545277" y2="718.7561283359901" stroke="#2b8a3e" stroke-width="0.7" opacity="0.25" />
<line x1="344.64641941343905" y1="678.0745283933575" x2="354.84376279751484" y2="706.6388883367773" stroke="#2b8a3e" stroke-width="0.7" opacity="0.25" />
<text x="234.3500092523667" y="698.3541845609434" text-anchor="middle" dominant-baseline="central" font-family="'Virgil', 'Segoe Print', 'Comic Sans MS', 'Patrick Hand', cursive" font-size="13" font-weight="normal" fill="#000000"><tspan x="234.3500092523667" dy="0">HOLD - report errors to setup agent</tspan></text></g>
<g><path d="M 401.2380730140251,673.9032769936242
    L 688.9625159720129,674.0355377050452
    Q 693.9906929998232,673.4163667991336 693.6259437577567,679.5256348222945
    L 695.1450748070066,713.7602290244489
    Q 693.996392295368,720.6945893719236 688.852433202731,719.9282398534372
    L 401.29690561512206,719.7918009343514
    Q 394.19702962460474,720.7730742379441 393.6156707507903,713.7003258166442
    L 394.4855264598441,680.5718926498448
    Q 394.26263224749954,673.4866591393336 400.12026648288037,674.2397340979369 Z" fill="#d0ebff" stroke="#1971c2" stroke-width="1.5" />
<line x1="394.25395743032084" y1="703.1702844506227" x2="400.25712799583516" y2="720.5613380599025" stroke="#1971c2" stroke-width="0.7" opacity="0.25" />
<line x1="394.69954454864444" y1="676.804149613961" x2="409.1479542018783" y2="720.3955077296268" stroke="#1971c2" stroke-width="0.7" opacity="0.25" />
<line x1="402.43955949572216" y1="674.4142211345461" x2="418.67036434325155" y2="719.8177874013709" stroke="#1971c2" stroke-width="0.7" opacity="0.25" />
<line x1="411.88352477351134" y1="674.2939404744102" x2="427.1175101128679" y2="719.8471335385693" stroke="#1971c2" stroke-width="0.7" opacity="0.25" />
<line x1="420.5021438020975" y1="674.503459049869" x2="436.2059910489038" y2="720.2709392357065" stroke="#1971c2" stroke-width="0.7" opacity="0.25" />
<line x1="429.6307928915611" y1="673.7466293479665" x2="445.2035048201774" y2="720.6329844330467" stroke="#1971c2" stroke-width="0.7" opacity="0.25" />
<line x1="438.7892315053376" y1="674.6214278114094" x2="454.7796067032027" y2="720.4050827558367" stroke="#1971c2" stroke-width="0.7" opacity="0.25" />
<line x1="447.77888409980903" y1="674.1436922809444" x2="463.13640342759345" y2="720.0484238747231" stroke="#1971c2" stroke-width="0.7" opacity="0.25" />
<line x1="456.1987857368712" y1="674.2143667935306" x2="472.89178509753356" y2="720.6432472618981" stroke="#1971c2" stroke-width="0.7" opacity="0.25" />
<line x1="465.39661648904973" y1="674.0508730242364" x2="481.99114398487245" y2="720.462911660994" stroke="#1971c2" stroke-width="0.7" opacity="0.25" />
<line x1="474.3574060226837" y1="673.7337958531498" x2="490.38411042962025" y2="720.5414848518558" stroke="#1971c2" stroke-width="0.7" opacity="0.25" />
<line x1="483.7161023834832" y1="673.9764682673049" x2="499.7289168024722" y2="720.6671595651842" stroke="#1971c2" stroke-width="0.7" opacity="0.25" />
<line x1="492.8809514795265" y1="674.3592842336075" x2="508.4247391420172" y2="719.8257743162176" stroke="#1971c2" stroke-width="0.7" opacity="0.25" />
<line x1="501.9958614227779" y1="674.1580758395648" x2="517.1333598383276" y2="720.1246530266835" stroke="#1971c2" stroke-width="0.7" opacity="0.25" />
<line x1="510.88547973585617" y1="673.93969955379" x2="526.6079605983391" y2="720.4985426542189" stroke="#1971c2" stroke-width="0.7" opacity="0.25" />
<line x1="519.9483048804631" y1="673.7429099839937" x2="535.7517956337101" y2="720.6893424280424" stroke="#1971c2" stroke-width="0.7" opacity="0.25" />
<line x1="528.482580936963" y1="673.9230606561086" x2="544.4018063245962" y2="719.8539999714976" stroke="#1971c2" stroke-width="0.7" opacity="0.25" />
<line x1="537.5192207950366" y1="674.2786778954905" x2="553.626167742395" y2="720.3077935911206" stroke="#1971c2" stroke-width="0.7" opacity="0.25" />
<line x1="546.7943764652863" y1="674.0025746931133" x2="562.3321085633502" y2="720.5257656788035" stroke="#1971c2" stroke-width="0.7" opacity="0.25" />
<line x1="555.6641669422296" y1="674.2724309793703" x2="571.7056045702698" y2="720.0736278563345" stroke="#1971c2" stroke-width="0.7" opacity="0.25" />
<line x1="564.5007816479828" y1="674.3435916621602" x2="580.4414521183148" y2="720.05914957387" stroke="#1971c2" stroke-width="0.7" opacity="0.25" />
<line x1="573.0998383571404" y1="674.2129394845178" x2="589.6757427857442" y2="719.7696127353411" stroke="#1971c2" stroke-width="0.7" opacity="0.25" />
<line x1="582.3923058643612" y1="673.9040149599386" x2="598.547642012159" y2="720.1061407767484" stroke="#1971c2" stroke-width="0.7" opacity="0.25" />
<line x1="591.4343527877371" y1="674.1800532582347" x2="607.969228477406" y2="719.9267693174024" stroke="#1971c2" stroke-width="0.7" opacity="0.25" />
<line x1="600.1075707347389" y1="673.8119839963547" x2="616.2685536841959" y2="719.7543019509394" stroke="#1971c2" stroke-width="0.7" opacity="0.25" />
<line x1="609.5170833445953" y1="674.6326345897396" x2="625.8503586776928" y2="720.1179386112781" stroke="#1971c2" stroke-width="0.7" opacity="0.25" />
<line x1="618.3586355326969" y1="674.3330114088658" x2="634.9566140305974" y2="719.9718744037345" stroke="#1971c2" stroke-width="0.7" opacity="0.25" />
<line x1="627.1929872984964" y1="674.4190955264494" x2="644.0863470366144" y2="720.5234082743773" stroke="#1971c2" stroke-width="0.7" opacity="0.25" />
<line x1="636.5343695762584" y1="674.5788204634082" x2="652.6130656082237" y2="720.2457256362777" stroke="#1971c2" stroke-width="0.7" opacity="0.25" />
<line x1="645.969133626544" y1="674.508051825982" x2="662.0501245103947" y2="720.3727265582711" stroke="#1971c2" stroke-width="0.7" opacity="0.25" />
<line x1="654.9971879279527" y1="674.0059892329882" x2="670.377651061051" y2="720.0363807853864" stroke="#1971c2" stroke-width="0.7" opacity="0.25" />
<line x1="663.4998851189138" y1="673.9236012215697" x2="679.7058842166657" y2="720.6107350587627" stroke="#1971c2" stroke-width="0.7" opacity="0.25" />
<line x1="672.2231375411774" y1="674.5856264178728" x2="688.261374671863" y2="720.5160626100987" stroke="#1971c2" stroke-width="0.7" opacity="0.25" />
<line x1="681.3540529462315" y1="673.7229655931369" x2="694.9497523282461" y2="711.574808689915" stroke="#1971c2" stroke-width="0.7" opacity="0.25" />
<line x1="690.1016413482483" y1="674.3186283211908" x2="694.5637947404956" y2="685.7781978070988" stroke="#1971c2" stroke-width="0.7" opacity="0.25" />
<text x="544.5152700380621" y="697.2015553192468" text-anchor="middle" dominant-baseline="central" font-family="'Virgil', 'Segoe Print', 'Comic Sans MS', 'Patrick Hand', cursive" font-size="14" font-weight="normal" fill="#000000"><tspan x="544.5152700380621" dy="0">Build namespace from signal_state</tspan></text></g>
<g><path d="M 397.94534119181696,830.034548002578
    L 509.66078506033443,874.2702232266274
    L 395.8045833797954,919.0320522110742
    L 285.3120076481931,874.8881770767148 Z" fill="#ffec99" stroke="#e67700" stroke-width="1.5" />
<line x1="285.37762385277745" y1="906.8190943069878" x2="289.70575810111984" y2="919.8244929624489" stroke="#e67700" stroke-width="0.7" opacity="0.25" />
<line x1="284.77059029752525" y1="881.183381783564" x2="298.3828178486059" y2="919.2454952587032" stroke="#e67700" stroke-width="0.7" opacity="0.25" />
<line x1="285.1153966703772" y1="855.5947707826066" x2="307.3936939533363" y2="919.5350853441632" stroke="#e67700" stroke-width="0.7" opacity="0.25" />
<line x1="284.8112190099222" y1="829.0390998193543" x2="316.4648311809109" y2="919.4336027045865" stroke="#e67700" stroke-width="0.7" opacity="0.25" />
<line x1="293.5198397062326" y1="829.3379785298202" x2="325.5645525360727" y2="919.6995743630996" stroke="#e67700" stroke-width="0.7" opacity="0.25" />
<line x1="302.9944404662441" y1="829.7118681573556" x2="334.5947746121659" y2="919.8433155007515" stroke="#e67700" stroke-width="0.7" opacity="0.25" />
<line x1="312.1382755016151" y1="829.9026679311792" x2="343.0110928995258" y2="919.7112909834559" stroke="#e67700" stroke-width="0.7" opacity="0.25" />
<line x1="320.78828619250123" y1="829.0673254746343" x2="352.9573141193672" y2="919.5848072858862" stroke="#e67700" stroke-width="0.7" opacity="0.25" />
<line x1="330.01264761029995" y1="829.5211190942573" x2="361.7644155383317" y2="919.3248143861783" stroke="#e67700" stroke-width="0.7" opacity="0.25" />
<line x1="338.71858843125517" y1="829.7390911819402" x2="370.00250246145004" y2="919.358890079533" stroke="#e67700" stroke-width="0.7" opacity="0.25" />
<line x1="348.09208443817477" y1="829.2869533594712" x2="379.18625250645744" y2="919.3850601023296" stroke="#e67700" stroke-width="0.7" opacity="0.25" />
<line x1="356.8279319862198" y1="829.2724750770067" x2="388.0303432788263" y2="919.5297739923644" stroke="#e67700" stroke-width="0.7" opacity="0.25" />
<line x1="366.0622226536492" y1="828.9829382384778" x2="397.5900919073159" y2="919.087206474047" stroke="#e67700" stroke-width="0.7" opacity="0.25" />
<line x1="374.934121880064" y1="829.3194662798851" x2="406.82122176462724" y2="919.18284839431" stroke="#e67700" stroke-width="0.7" opacity="0.25" />
<line x1="384.355708345311" y1="829.1400948205392" x2="415.1766954790495" y2="919.5182134510942" stroke="#e67700" stroke-width="0.7" opacity="0.25" />
<line x1="392.6550335521009" y1="828.9676274540761" x2="424.8683447230454" y2="919.7871967436076" stroke="#e67700" stroke-width="0.7" opacity="0.25" />
<line x1="402.23683854559783" y1="829.3312641144148" x2="433.8140971525703" y2="919.248026905072" stroke="#e67700" stroke-width="0.7" opacity="0.25" />
<line x1="411.3430938985024" y1="829.1851999068713" x2="442.2846875564413" y2="919.0610044040077" stroke="#e67700" stroke-width="0.7" opacity="0.25" />
<line x1="420.47282690451937" y1="829.736733777514" x2="451.69519431831793" y2="919.6831178027569" stroke="#e67700" stroke-width="0.7" opacity="0.25" />
<line x1="428.9995454761287" y1="829.4590511394144" x2="460.87292264937275" y2="919.8967392141167" stroke="#e67700" stroke-width="0.7" opacity="0.25" />
<line x1="438.43660437829965" y1="829.5860520614078" x2="469.3760280470618" y2="919.9025593470142" stroke="#e67700" stroke-width="0.7" opacity="0.25" />
<line x1="446.764130928956" y1="829.2497062885232" x2="478.2266193800373" y2="919.3998697330753" stroke="#e67700" stroke-width="0.7" opacity="0.25" />
<line x1="456.0923640845707" y1="829.8240605618994" x2="487.06312214609204" y2="919.061136760989" stroke="#e67700" stroke-width="0.7" opacity="0.25" />
<line x1="464.647854539768" y1="829.7293881132355" x2="496.77099493125786" y2="919.0134246104863" stroke="#e67700" stroke-width="0.7" opacity="0.25" />
<line x1="474.4362321961511" y1="829.6452770501946" x2="505.98015707515003" y2="919.7797343938801" stroke="#e67700" stroke-width="0.7" opacity="0.25" />
<line x1="483.0502746084006" y1="829.562951881664" x2="509.4529315516178" y2="903.2853937082514" stroke="#e67700" stroke-width="0.7" opacity="0.25" />
<line x1="492.12829963861293" y1="829.7204010466157" x2="508.5386435992681" y2="878.2709915409733" stroke="#e67700" stroke-width="0.7" opacity="0.25" />
<line x1="501.4842877360992" y1="829.2600124945602" x2="509.3105977799554" y2="851.8848632907955" stroke="#e67700" stroke-width="0.7" opacity="0.25" />
<text x="397.00174990596713" y="874.4148808223836" text-anchor="middle" dominant-baseline="central" font-family="'Virgil', 'Segoe Print', 'Comic Sans MS', 'Patrick Hand', cursive" font-size="15" font-weight="normal" fill="#000000"><tspan x="397.00174990596713" dy="0">Position open?</tspan></text></g>
<g><path d="M 269.6080370582669,1064.8542948735885
    L 413.1084182984945,1108.4486251187482
    L 270.2163957627201,1152.9084101942353
    L 125.06589300670203,1108.8189378658208 Z" fill="#ffec99" stroke="#e67700" stroke-width="1.5" />
<line x1="125.06346411845152" y1="1140.8279793212444" x2="129.82076303380927" y2="1153.67095559492" stroke="#e67700" stroke-width="0.7" opacity="0.25" />
<line x1="124.77392727992265" y1="1115.6734422354482" x2="138.37819551549183" y2="1153.795087619239" stroke="#e67700" stroke-width="0.7" opacity="0.25" />
<line x1="125.11045532132994" y1="1090.190286378474" x2="147.47383743575483" y2="1154.4458795339087" stroke="#e67700" stroke-width="0.7" opacity="0.25" />
<line x1="124.931083861984" y1="1063.8314743786104" x2="156.80920249253904" y2="1154.038236822089" stroke="#e67700" stroke-width="0.7" opacity="0.25" />
<line x1="133.75861649552098" y1="1064.5231236226064" x2="166.07818578505248" y2="1154.0990113534463" stroke="#e67700" stroke-width="0.7" opacity="0.25" />
<line x1="143.12225315585965" y1="1064.4688760521312" x2="174.53901594651688" y2="1154.1541798127364" stroke="#e67700" stroke-width="0.7" opacity="0.25" />
<line x1="151.97618894831612" y1="1063.9394664560023" x2="183.35199344545254" y2="1154.2579767821153" stroke="#e67700" stroke-width="0.7" opacity="0.25" />
<line x1="161.52772281895886" y1="1064.3499732178789" x2="192.97410684420174" y2="1153.723807174989" stroke="#e67700" stroke-width="0.7" opacity="0.25" />
<line x1="170.2500401808593" y1="1064.5277015489337" x2="202.18772825556152" y2="1154.5442488775225" stroke="#e67700" stroke-width="0.7" opacity="0.25" />
<line x1="179.37704110285267" y1="1064.0308069466228" x2="211.19354838845902" y2="1153.769554374565" stroke="#e67700" stroke-width="0.7" opacity="0.25" />
<line x1="188.040695329968" y1="1063.8813982795982" x2="219.69085877452017" y2="1153.826082955129" stroke="#e67700" stroke-width="0.7" opacity="0.25" />
<line x1="197.61504960334423" y1="1063.717901045653" x2="228.35212580243387" y2="1154.5564647438587" stroke="#e67700" stroke-width="0.7" opacity="0.25" />
<line x1="206.52037715468032" y1="1064.4257738308188" x2="237.3044136519311" y2="1154.0793892925503" stroke="#e67700" stroke-width="0.7" opacity="0.25" />
<line x1="215.43626609163948" y1="1064.634935974711" x2="247.0707234353249" y2="1154.0867737836088" stroke="#e67700" stroke-width="0.7" opacity="0.25" />
<line x1="224.3539409231089" y1="1064.6077104511787" x2="255.290668463982" y2="1153.8747338075227" stroke="#e67700" stroke-width="0.7" opacity="0.25" />
<line x1="233.51139008806058" y1="1063.693422498829" x2="264.99055201098963" y2="1153.7928858886444" stroke="#e67700" stroke-width="0.7" opacity="0.25" />
<line x1="242.05100153600506" y1="1064.4653766795163" x2="273.3187094750974" y2="1153.8636095794573" stroke="#e67700" stroke-width="0.7" opacity="0.25" />
<line x1="251.2136653009511" y1="1064.4073467178496" x2="282.7809691233342" y2="1154.5441594277654" stroke="#e67700" stroke-width="0.7" opacity="0.25" />
<line x1="259.8131967921072" y1="1063.7368928049546" x2="292.02755930088824" y2="1153.7775343322792" stroke="#e67700" stroke-width="0.7" opacity="0.25" />
<line x1="269.57049117302813" y1="1063.9736483829574" x2="300.9027717787467" y2="1154.1924392952897" stroke="#e67700" stroke-width="0.7" opacity="0.25" />
<line x1="278.3922120834104" y1="1063.949069966191" x2="309.22752281974226" y2="1154.0104065186679" stroke="#e67700" stroke-width="0.7" opacity="0.25" />
<line x1="287.6899045657192" y1="1064.273722510865" x2="319.18778984095843" y2="1153.9014263934168" stroke="#e67700" stroke-width="0.7" opacity="0.25" />
<line x1="296.17389917002583" y1="1064.4129414045565" x2="327.91461744396656" y2="1154.578327895957" stroke="#e67700" stroke-width="0.7" opacity="0.25" />
<line x1="305.4760126958863" y1="1063.8831817812606" x2="337.16706069631255" y2="1154.6001866205115" stroke="#e67700" stroke-width="0.7" opacity="0.25" />
<line x1="314.55311391515716" y1="1064.3015845037098" x2="346.1645606992024" y2="1154.276342519217" stroke="#e67700" stroke-width="0.7" opacity="0.25" />
<line x1="323.42932670038863" y1="1064.48446004805" x2="355.12300375730956" y2="1154.325054672052" stroke="#e67700" stroke-width="0.7" opacity="0.25" />
<line x1="331.82547717789566" y1="1063.8634480550681" x2="363.800988382005" y2="1154.2188124076965" stroke="#e67700" stroke-width="0.7" opacity="0.25" />
<line x1="341.6291701392038" y1="1064.3896811461163" x2="372.81465191986354" y2="1153.8155163706033" stroke="#e67700" stroke-width="0.7" opacity="0.25" />
<line x1="350.5291147299595" y1="1064.4050891808583" x2="382.0243903557166" y2="1154.6035130660384" stroke="#e67700" stroke-width="0.7" opacity="0.25" />
<line x1="358.9354574163299" y1="1064.0075046334096" x2="390.7850701115458" y2="1154.0112147908367" stroke="#e67700" stroke-width="0.7" opacity="0.25" />
<line x1="368.081387855098" y1="1064.2871443235417" x2="399.7960068746006" y2="1154.066519741289" stroke="#e67700" stroke-width="0.7" opacity="0.25" />
<line x1="376.99744639504206" y1="1063.773670994393" x2="408.4065734859905" y2="1154.2214438979295" stroke="#e67700" stroke-width="0.7" opacity="0.25" />
<line x1="386.43630890452187" y1="1064.376296929193" x2="413.9645040714771" y2="1142.8727031099447" stroke="#e67700" stroke-width="0.7" opacity="0.25" />
<line x1="395.62155739488253" y1="1064.079904044971" x2="413.8758529489372" y2="1116.8094421011128" stroke="#e67700" stroke-width="0.7" opacity="0.25" />
<line x1="404.52650572864513" y1="1064.1524747871408" x2="413.2418032785921" y2="1090.97647377712" stroke="#e67700" stroke-width="0.7" opacity="0.25" />
<text x="269.4058698638284" y="1109.156528805528" text-anchor="middle" dominant-baseline="central" font-family="'Virgil', 'Segoe Print', 'Comic Sans MS', 'Patrick Hand', cursive" font-size="15" font-weight="normal" fill="#000000"><tspan x="269.4058698638284" dy="0">Eval exit expression</tspan></text></g>
<g><path d="M 572.0884869006381,1065.2015239533885
    L 686.4909641102647,1109.8632107841113
    L 570.6395232821701,1155.6544789981272
    L 455.5363918520255,1109.827715896532 Z" fill="#ffec99" stroke="#e67700" stroke-width="1.5" />
<line x1="456.06520016955835" y1="1141.2243957680132" x2="461.40376386776404" y2="1154.3500749524756" stroke="#e67700" stroke-width="0.7" opacity="0.25" />
<line x1="456.77307295472417" y1="1115.4623979032247" x2="469.9266884164557" y2="1154.578078621511" stroke="#e67700" stroke-width="0.7" opacity="0.25" />
<line x1="456.98223509861634" y1="1090.514421972333" x2="478.9340729075142" y2="1153.9776606291853" stroke="#e67700" stroke-width="0.7" opacity="0.25" />
<line x1="456.9550095750841" y1="1064.0200812867042" x2="487.7220329314281" y2="1153.9755202427914" stroke="#e67700" stroke-width="0.7" opacity="0.25" />
<line x1="465.0407216227344" y1="1064.7199648337119" x2="496.64018501254975" y2="1154.7867031751884" stroke="#e67700" stroke-width="0.7" opacity="0.25" />
<line x1="474.8126758034217" y1="1064.0481222978196" x2="505.71090870336263" y2="1154.0712313499607" stroke="#e67700" stroke-width="0.7" opacity="0.25" />
<line x1="483.75464584175495" y1="1064.5103819460564" x2="515.3914585516708" y2="1154.1298065214214" stroke="#e67700" stroke-width="0.7" opacity="0.25" />
<line x1="492.0841919288599" y1="1064.7569721236105" x2="523.6248334561845" y2="1154.3081028806773" stroke="#e67700" stroke-width="0.7" opacity="0.25" />
<line x1="501.3209475068628" y1="1064.632184601469" x2="533.039738419195" y2="1154.398719002842" stroke="#e67700" stroke-width="0.7" opacity="0.25" />
<line x1="510.2963690900964" y1="1063.9569356424645" x2="541.8577056425733" y2="1154.8070126217572" stroke="#e67700" stroke-width="0.7" opacity="0.25" />
<line x1="519.6210216347703" y1="1064.9172026636807" x2="550.7487255173222" y2="1153.9828529621154" stroke="#e67700" stroke-width="0.7" opacity="0.25" />
<line x1="528.7602405284618" y1="1064.6440302666888" x2="560.4256270198624" y2="1153.9461367045624" stroke="#e67700" stroke-width="0.7" opacity="0.25" />
<line x1="537.230480905166" y1="1064.8964735190348" x2="569.4474857444169" y2="1154.0366740196623" stroke="#e67700" stroke-width="0.7" opacity="0.25" />
<line x1="546.6488836276152" y1="1064.8939735219246" x2="578.1236416431224" y2="1154.239727375032" stroke="#e67700" stroke-width="0.7" opacity="0.25" />
<line x1="555.8317591719555" y1="1064.8524165800318" x2="587.1723537959573" y2="1154.6889175567085" stroke="#e67700" stroke-width="0.7" opacity="0.25" />
<line x1="564.2107471789735" y1="1064.5304012047272" x2="596.0661115316019" y2="1154.2960122477743" stroke="#e67700" stroke-width="0.7" opacity="0.25" />
<line x1="573.7369802700217" y1="1064.5440647425858" x2="604.6628154945087" y2="1154.491670424577" stroke="#e67700" stroke-width="0.7" opacity="0.25" />
<line x1="582.7523883047637" y1="1064.7538031784388" x2="614.4508121899438" y2="1154.46482831287" stroke="#e67700" stroke-width="0.7" opacity="0.25" />
<line x1="591.3548037573149" y1="1064.514482934268" x2="622.858513914742" y2="1154.1748762753377" stroke="#e67700" stroke-width="0.7" opacity="0.25" />
<line x1="600.6344434474471" y1="1064.5254196973228" x2="631.9138188651945" y2="1154.2560023566366" stroke="#e67700" stroke-width="0.7" opacity="0.25" />
<line x1="609.1209701182983" y1="1064.1359863087127" x2="641.0687430218348" y2="1154.170799034131" stroke="#e67700" stroke-width="0.7" opacity="0.25" />
<line x1="618.7235960530983" y1="1064.7939168941994" x2="650.4342879481359" y2="1154.2347959278786" stroke="#e67700" stroke-width="0.7" opacity="0.25" />
<line x1="627.4272031688764" y1="1064.7052657716595" x2="659.0853126535898" y2="1154.7459527143365" stroke="#e67700" stroke-width="0.7" opacity="0.25" />
<line x1="636.4997739110462" y1="1064.0712161013143" x2="667.9666300438824" y2="1154.202343513727" stroke="#e67700" stroke-width="0.7" opacity="0.25" />
<line x1="645.2354619278725" y1="1064.1910968916163" x2="677.3780098241863" y2="1154.7539861393234" stroke="#e67700" stroke-width="0.7" opacity="0.25" />
<line x1="654.0693529599979" y1="1064.4497190581387" x2="685.0748711385424" y2="1152.8653715030564" stroke="#e67700" stroke-width="0.7" opacity="0.25" />
<line x1="663.988452586122" y1="1064.4907371707486" x2="685.5814610577297" y2="1126.7240855687526" stroke="#e67700" stroke-width="0.7" opacity="0.25" />
<line x1="672.7551333494142" y1="1064.3173918156863" x2="685.0526578748329" y2="1101.5220602910028" stroke="#e67700" stroke-width="0.7" opacity="0.25" />
<line x1="681.0242261540078" y1="1064.307960535065" x2="684.9494906165971" y2="1075.9429658073116" stroke="#e67700" stroke-width="0.7" opacity="0.25" />
<text x="570.9538279294334" y="1109.4352826865506" text-anchor="middle" dominant-baseline="central" font-family="'Virgil', 'Segoe Print', 'Comic Sans MS', 'Patrick Hand', cursive" font-size="15" font-weight="normal" fill="#000000"><tspan x="570.9538279294334" dy="0">Eval entry_long</tspan></text></g>
<g><path d="M 6.637986228514637,1291.9947231299695
    L 149.33541599524762,1291.40075494919
    Q 154.13897532064493,1291.5111607436484 155.66911388337175,1297.9890985397737
    L 155.0355731720847,1325.4286942289566
    Q 155.32152613293292,1332.6454433234 149.2109486696063,1332.6416368188306
    L 5.54081565819979,1330.9598073560132
    Q 0.5534687093582761,1331.9650459753873 -0.5332053998397897,1325.4438166677003
    L -0.0575472488446394,1298.2357235382478
    Q 0.3757456442486728,1292.5334192227688 5.119537232421135,1292.2675051818733 Z" fill="#b2f2bb" stroke="#2b8a3e" stroke-width="1.5" />
<line x1="-0.19110240119334776" y1="1303.7017588039732" x2="10.223456836560217" y2="1332.1021121025187" stroke="#2b8a3e" stroke-width="0.7" opacity="0.25" />
<line x1="5.305418401239876" y1="1291.3826423032951" x2="18.619607314067252" y2="1331.4811001095368" stroke="#2b8a3e" stroke-width="0.7" opacity="0.25" />
<line x1="14.473161728368723" y1="1292.2569563075303" x2="28.423300275375368" y2="1332.007333200585" stroke="#2b8a3e" stroke-width="0.7" opacity="0.25" />
<line x1="23.465285495600256" y1="1291.2813690124312" x2="37.32324486613106" y2="1332.022741235327" stroke="#2b8a3e" stroke-width="0.7" opacity="0.25" />
<line x1="31.718436077106162" y1="1291.9263270560987" x2="45.72958755250147" y2="1331.6251566878782" stroke="#2b8a3e" stroke-width="0.7" opacity="0.25" />
<line x1="40.88008913655358" y1="1291.7389072947153" x2="54.87551799126959" y2="1331.9047963780104" stroke="#2b8a3e" stroke-width="0.7" opacity="0.25" />
<line x1="49.890938389970415" y1="1291.325423252245" x2="63.79157653121365" y2="1331.3913230488615" stroke="#2b8a3e" stroke-width="0.7" opacity="0.25" />
<line x1="59.07879663949279" y1="1291.8134575024837" x2="73.23043904069345" y2="1331.9939489836615" stroke="#2b8a3e" stroke-width="0.7" opacity="0.25" />
<line x1="67.5264486723645" y1="1291.546853557178" x2="82.41568753105412" y2="1331.6975560994397" stroke="#2b8a3e" stroke-width="0.7" opacity="0.25" />
<line x1="77.09021521513205" y1="1291.5940794297749" x2="91.32063586481672" y2="1331.7701268416095" stroke="#2b8a3e" stroke-width="0.7" opacity="0.25" />
<line x1="86.12354015534947" y1="1291.3425892178457" x2="100.15998531877267" y2="1331.5058148584358" stroke="#2b8a3e" stroke-width="0.7" opacity="0.25" />
<line x1="94.80447543219634" y1="1291.6442937688626" x2="109.3733188921542" y2="1331.3397058905612" stroke="#2b8a3e" stroke-width="0.7" opacity="0.25" />
<line x1="103.76454442003887" y1="1291.5948433574022" x2="117.58154513084446" y2="1332.2588055166852" stroke="#2b8a3e" stroke-width="0.7" opacity="0.25" />
<line x1="113.4119841877473" y1="1291.9321661523063" x2="126.71787996764238" y2="1332.0254862799775" stroke="#2b8a3e" stroke-width="0.7" opacity="0.25" />
<line x1="121.56812008628185" y1="1291.5338834683498" x2="135.65848360178643" y2="1331.294579084571" stroke="#2b8a3e" stroke-width="0.7" opacity="0.25" />
<line x1="130.71193046595" y1="1291.5532202043905" x2="144.97516918750625" y2="1332.0320802078204" stroke="#2b8a3e" stroke-width="0.7" opacity="0.25" />
<line x1="140.4002797912376" y1="1291.450315670707" x2="153.753850770805" y2="1331.8132150192323" stroke="#2b8a3e" stroke-width="0.7" opacity="0.25" />
<line x1="148.79986764783825" y1="1291.502472470346" x2="154.70632136128552" y2="1308.4294292676407" stroke="#2b8a3e" stroke-width="0.7" opacity="0.25" />
<text x="77.5" y="1311.7741808599967" text-anchor="middle" dominant-baseline="central" font-family="'Virgil', 'Segoe Print', 'Comic Sans MS', 'Patrick Hand', cursive" font-size="13" font-weight="normal" fill="#000000"><tspan x="77.5" dy="0">CLOSE_POSITION</tspan></text></g>
<g><path d="M 219.1085988095976,1288.6128758967666
    L 337.22721844350747,1288.4493046604737
    Q 344.0332096698733,1288.5119675662268 344.2687851025912,1295.4577325828723
    L 344.0581964546378,1323.0587360970585
    Q 344.331152776799,1329.3836207631787 338.56190407731845,1329.7628661742463
    L 219.55548633794115,1328.1783506096604
    Q 213.84286129772372,1328.135645750838 213.5071733584773,1323.7362756964794
    L 213.77843793454812,1295.4740076937778
    Q 214.06303500703217,1289.5472441905963 220.4890317968574,1289.6147501485816 Z" fill="#b2f2bb" stroke="#2b8a3e" stroke-width="1.5" />
<line x1="213.78647541241662" y1="1300.7899284613075" x2="223.48188753411523" y2="1329.00247451217" stroke="#2b8a3e" stroke-width="0.7" opacity="0.25" />
<line x1="218.73702500095624" y1="1288.5695832714264" x2="233.4009871602393" y2="1329.04349262478" stroke="#2b8a3e" stroke-width="0.7" opacity="0.25" />
<line x1="228.07434779586038" y1="1288.7059181082243" x2="242.16766792353155" y2="1328.8701472697176" stroke="#2b8a3e" stroke-width="0.7" opacity="0.25" />
<line x1="236.67606511190388" y1="1288.6465217423683" x2="250.43676072812514" y2="1328.8607159890962" stroke="#2b8a3e" stroke-width="0.7" opacity="0.25" />
<line x1="245.6954018479446" y1="1288.9632073280882" x2="260.17426185137447" y2="1329.2405316973372" stroke="#2b8a3e" stroke-width="0.7" opacity="0.25" />
<line x1="254.59249731426098" y1="1288.741888911387" x2="268.95539666278637" y2="1328.9363116260793" stroke="#2b8a3e" stroke-width="0.7" opacity="0.25" />
<line x1="263.6446541139" y1="1288.6943595018674" x2="277.42875376833763" y2="1328.9198706038806" stroke="#2b8a3e" stroke-width="0.7" opacity="0.25" />
<line x1="273.4039445758244" y1="1289.0540578686282" x2="286.7262110173324" y2="1329.0624246056723" stroke="#2b8a3e" stroke-width="0.7" opacity="0.25" />
<line x1="281.758942849101" y1="1289.091478946495" x2="296.305541611424" y2="1328.9822953559851" stroke="#2b8a3e" stroke-width="0.7" opacity="0.25" />
<line x1="291.0746329632748" y1="1289.4513921337784" x2="304.57112821695773" y2="1328.6615237626847" stroke="#2b8a3e" stroke-width="0.7" opacity="0.25" />
<line x1="300.10189553814416" y1="1288.990118195361" x2="314.24057487247774" y2="1329.1367336995681" stroke="#2b8a3e" stroke-width="0.7" opacity="0.25" />
<line x1="308.44238142579184" y1="1289.2527732402377" x2="322.89065158847734" y2="1329.4331623709404" stroke="#2b8a3e" stroke-width="0.7" opacity="0.25" />
<line x1="317.49422367204534" y1="1289.4331061402338" x2="332.15159410740307" y2="1329.04372584854" stroke="#2b8a3e" stroke-width="0.7" opacity="0.25" />
<line x1="326.5083217615538" y1="1288.6854306082896" x2="341.40429786974573" y2="1329.0767042451043" stroke="#2b8a3e" stroke-width="0.7" opacity="0.25" />
<line x1="336.32557736862873" y1="1288.7208793663995" x2="343.7671438988036" y2="1311.5240633163137" stroke="#2b8a3e" stroke-width="0.7" opacity="0.25" />
<text x="278.9163625035508" y="1308.988038140582" text-anchor="middle" dominant-baseline="central" font-family="'Virgil', 'Segoe Print', 'Comic Sans MS', 'Patrick Hand', cursive" font-size="13" font-weight="normal" fill="#000000"><tspan x="278.9163625035508" dy="0">HOLD</tspan></text></g>
<g><path d="M 390.48256982649326,1294.129966471703
    L 508.8884898101169,1294.5069533548697
    Q 514.2957652658192,1295.6854516079752 514.8910799789134,1301.8033205934153
    L 515.8888391062719,1329.12649770557
    Q 514.6689187009863,1335.1415578322492 508.3523643028777,1334.235405499075
    L 391.49550242317235,1334.5280265565555
    Q 385.84312776652223,1334.724306817077 385.19738482682294,1329.7081845892585
    L 385.0008543639051,1301.8346713302221
    Q 385.2376307422681,1295.8865670618368 390.9433193985214,1295.018104906028 Z" fill="#b2f2bb" stroke="#2b8a3e" stroke-width="1.5" />
<line x1="385.27592647583515" y1="1306.4105227085845" x2="395.4563156065378" y2="1334.5998477562607" stroke="#2b8a3e" stroke-width="0.7" opacity="0.25" />
<line x1="390.4562593758312" y1="1295.242893798939" x2="404.0668790841373" y2="1334.8538290598044" stroke="#2b8a3e" stroke-width="0.7" opacity="0.25" />
<line x1="398.708583843887" y1="1295.4955975612816" x2="413.09985748070176" y2="1335.2348462165064" stroke="#2b8a3e" stroke-width="0.7" opacity="0.25" />
<line x1="407.7440326019969" y1="1294.8584435903394" x2="421.6900736947682" y2="1334.8241645301605" stroke="#2b8a3e" stroke-width="0.7" opacity="0.25" />
<line x1="417.14929978718646" y1="1294.5505948156424" x2="431.0429098598179" y2="1335.0498231121392" stroke="#2b8a3e" stroke-width="0.7" opacity="0.25" />
<line x1="426.2325456266044" y1="1294.8317724344997" x2="440.01297758340297" y2="1335.2417418678742" stroke="#2b8a3e" stroke-width="0.7" opacity="0.25" />
<line x1="434.54796616862814" y1="1295.3536973166192" x2="449.4970815106717" y2="1335.096514103967" stroke="#2b8a3e" stroke-width="0.7" opacity="0.25" />
<line x1="443.57133880464244" y1="1294.6443007731514" x2="457.63879089768307" y2="1335.149656835867" stroke="#2b8a3e" stroke-width="0.7" opacity="0.25" />
<line x1="453.28404610878715" y1="1294.8374607936785" x2="467.49057445417657" y2="1335.0830483696482" stroke="#2b8a3e" stroke-width="0.7" opacity="0.25" />
<line x1="462.10541717871456" y1="1295.2134908419575" x2="476.1091857606589" y2="1335.0484787008481" stroke="#2b8a3e" stroke-width="0.7" opacity="0.25" />
<line x1="471.0565951947792" y1="1295.379650008821" x2="484.5944984088019" y2="1335.3776821483407" stroke="#2b8a3e" stroke-width="0.7" opacity="0.25" />
<line x1="480.20855896922694" y1="1294.647708301236" x2="493.60269082796003" y2="1335.433948997441" stroke="#2b8a3e" stroke-width="0.7" opacity="0.25" />
<line x1="488.5898520949486" y1="1295.4525942449845" x2="503.0455839381684" y2="1334.7424451488987" stroke="#2b8a3e" stroke-width="0.7" opacity="0.25" />
<line x1="497.6514538538613" y1="1294.7828306417723" x2="512.0695221338965" y2="1335.2259759939552" stroke="#2b8a3e" stroke-width="0.7" opacity="0.25" />
<line x1="506.9934183021687" y1="1294.5487050622032" x2="514.9620172373325" y2="1317.9264697279284" stroke="#2b8a3e" stroke-width="0.7" opacity="0.25" />
<text x="450.01119137617934" y="1315.0076621950866" text-anchor="middle" dominant-baseline="central" font-family="'Virgil', 'Segoe Print', 'Comic Sans MS', 'Patrick Hand', cursive" font-size="13" font-weight="normal" fill="#000000"><tspan x="450.01119137617934" dy="0">OPEN_LONG</tspan></text></g>
<g><path d="M 681.1393002666504,1293.9764452613854
    L 800.8963422350196,1338.8915366552355
    L 681.2308775499631,1383.1576515257148
    L 560.9654687179773,1337.1704334295173 Z" fill="#ffec99" stroke="#e67700" stroke-width="1.5" />
<line x1="559.9391252996975" y1="1369.815833363946" x2="564.0774374680104" y2="1383.0221403795367" stroke="#e67700" stroke-width="0.7" opacity="0.25" />
<line x1="559.3849529964064" y1="1344.1025966212499" x2="573.5160070246129" y2="1383.0532335341231" stroke="#e67700" stroke-width="0.7" opacity="0.25" />
<line x1="559.3820767939469" y1="1318.73585407768" x2="582.6789192796023" y2="1383.1276506279537" stroke="#e67700" stroke-width="0.7" opacity="0.25" />
<line x1="560.0972847037738" y1="1292.2738346110127" x2="591.4504241785544" y2="1382.9827924758538" stroke="#e67700" stroke-width="0.7" opacity="0.25" />
<line x1="568.8199764295787" y1="1292.557324665112" x2="600.0959162389408" y2="1382.7394634411394" stroke="#e67700" stroke-width="0.7" opacity="0.25" />
<line x1="577.467427864558" y1="1293.0208345875653" x2="609.3644620248479" y2="1382.9085679942073" stroke="#e67700" stroke-width="0.7" opacity="0.25" />
<line x1="586.5956156006869" y1="1292.7213512866583" x2="617.9697715047587" y2="1382.5446376464597" stroke="#e67700" stroke-width="0.7" opacity="0.25" />
<line x1="595.7877061701438" y1="1292.2911561905566" x2="627.2506927794057" y2="1382.7211623119147" stroke="#e67700" stroke-width="0.7" opacity="0.25" />
<line x1="605.2086313284435" y1="1293.1653461089663" x2="636.564848812799" y2="1383.1269444632308" stroke="#e67700" stroke-width="0.7" opacity="0.25" />
<line x1="614.1834564765886" y1="1292.4136333640536" x2="645.0152948317918" y2="1382.4494041311846" stroke="#e67700" stroke-width="0.7" opacity="0.25" />
<line x1="622.4064003643434" y1="1293.1207124543507" x2="654.8297012891762" y2="1382.3765893332966" stroke="#e67700" stroke-width="0.7" opacity="0.25" />
<line x1="632.0362951549396" y1="1292.2809467357656" x2="663.7417948229631" y2="1382.5308292995396" stroke="#e67700" stroke-width="0.7" opacity="0.25" />
<line x1="640.6925088741045" y1="1292.912018264993" x2="672.2327723102389" y2="1383.0932398822188" stroke="#e67700" stroke-width="0.7" opacity="0.25" />
<line x1="649.6259942427532" y1="1292.8146142679616" x2="681.7364257726731" y2="1382.2900544351287" stroke="#e67700" stroke-width="0.7" opacity="0.25" />
<line x1="658.8126837789532" y1="1292.8201366940066" x2="689.9651883781698" y2="1382.5762508749322" stroke="#e67700" stroke-width="0.7" opacity="0.25" />
<line x1="667.3946441471089" y1="1292.3619217140658" x2="699.1456041757792" y2="1383.2060164125432" stroke="#e67700" stroke-width="0.7" opacity="0.25" />
<line x1="677.1442556339898" y1="1292.3824188100225" x2="708.6915275102801" y2="1382.6286170968106" stroke="#e67700" stroke-width="0.7" opacity="0.25" />
<line x1="686.1577352144304" y1="1292.906281257201" x2="717.8418652075816" y2="1382.854168422382" stroke="#e67700" stroke-width="0.7" opacity="0.25" />
<line x1="694.5738003921033" y1="1292.8512977719583" x2="726.0955348248317" y2="1382.8452283228944" stroke="#e67700" stroke-width="0.7" opacity="0.25" />
<line x1="703.8799760567344" y1="1293.0133860102014" x2="734.9121487885277" y2="1382.7459797724732" stroke="#e67700" stroke-width="0.7" opacity="0.25" />
<line x1="713.1264454850425" y1="1292.337013077551" x2="743.8784462028452" y2="1382.3778150978833" stroke="#e67700" stroke-width="0.7" opacity="0.25" />
<line x1="722.3687553937125" y1="1292.3781510897643" x2="753.4532871506017" y2="1383.2426352835319" stroke="#e67700" stroke-width="0.7" opacity="0.25" />
<line x1="730.7377571602992" y1="1292.8472252159045" x2="762.5075914233603" y2="1382.2770501948544" stroke="#e67700" stroke-width="0.7" opacity="0.25" />
<line x1="740.0189939948978" y1="1293.028380077776" x2="771.4195930492206" y2="1382.5422466267373" stroke="#e67700" stroke-width="0.7" opacity="0.25" />
<line x1="748.9595283110248" y1="1293.0164779255574" x2="780.4592348182123" y2="1383.1512979314793" stroke="#e67700" stroke-width="0.7" opacity="0.25" />
<line x1="758.0533398801817" y1="1293.086117626357" x2="788.9325126767872" y2="1383.093586112751" stroke="#e67700" stroke-width="0.7" opacity="0.25" />
<line x1="766.9643929754384" y1="1292.5673138731509" x2="798.0099333224789" y2="1382.7937184472667" stroke="#e67700" stroke-width="0.7" opacity="0.25" />
<line x1="775.4643316410875" y1="1292.4804608403429" x2="801.0555428659579" y2="1363.639064315697" stroke="#e67700" stroke-width="0.7" opacity="0.25" />
<line x1="784.7387046710119" y1="1292.4748380294186" x2="800.5844369114027" y2="1337.8337696542806" stroke="#e67700" stroke-width="0.7" opacity="0.25" />
<line x1="793.513587114554" y1="1292.3291975394714" x2="801.034268142216" y2="1311.8401899647276" stroke="#e67700" stroke-width="0.7" opacity="0.25" />
<text x="680.2742124628188" y="1337.7617199251545" text-anchor="middle" dominant-baseline="central" font-family="'Virgil', 'Segoe Print', 'Comic Sans MS', 'Patrick Hand', cursive" font-size="15" font-weight="normal" fill="#000000"><tspan x="680.2742124628188" dy="0">Eval entry_short</tspan></text></g>
<g><path d="M 250.20402917997995,1520.04575857819
    L 368.38192881452267,1520.981759494418
    Q 373.9007927141074,1519.7790685337836 373.9651800949432,1527.2304679454471
    L 374.1420812982658,1553.5405237137081
    Q 374.91141765521024,1561.1104240371963 367.6852867468333,1561.0713068221855
    L 251.3472284115323,1559.7318852042881
    Q 244.53346067155798,1560.685565711774 244.98876938796454,1555.2404358336328
    L 244.3034194488049,1526.7168691154498
    Q 243.66195678318905,1521.086768517892 250.11174539798228,1520.9900030509511 Z" fill="#b2f2bb" stroke="#2b8a3e" stroke-width="1.5" />
<line x1="244.36907962649127" y1="1531.5464084146868" x2="254.6720627090857" y2="1560.3635915857667" stroke="#2b8a3e" stroke-width="0.7" opacity="0.25" />
<line x1="249.5367478022457" y1="1520.072630203278" x2="263.6413261403999" y2="1559.9455519539224" stroke="#2b8a3e" stroke-width="0.7" opacity="0.25" />
<line x1="258.4506822606767" y1="1520.027305538706" x2="272.6594577655327" y2="1560.6951634408033" stroke="#2b8a3e" stroke-width="0.7" opacity="0.25" />
<line x1="267.8278951715205" y1="1520.102648409913" x2="281.3516796394691" y2="1560.708643021244" stroke="#2b8a3e" stroke-width="0.7" opacity="0.25" />
<line x1="276.3061795139132" y1="1520.497043884261" x2="290.899803693594" y2="1560.1247081989168" stroke="#2b8a3e" stroke-width="0.7" opacity="0.25" />
<line x1="285.54310177606965" y1="1520.7821026970487" x2="299.59061086288636" y2="1560.430883863548" stroke="#2b8a3e" stroke-width="0.7" opacity="0.25" />
<line x1="294.7384373693043" y1="1520.6760417111436" x2="308.78428508093054" y2="1560.677353291856" stroke="#2b8a3e" stroke-width="0.7" opacity="0.25" />
<line x1="303.3168304972263" y1="1520.024534747783" x2="317.38995085689965" y2="1560.919663200526" stroke="#2b8a3e" stroke-width="0.7" opacity="0.25" />
<line x1="312.29512948019544" y1="1520.244373398964" x2="326.77917928527893" y2="1560.2886649671127" stroke="#2b8a3e" stroke-width="0.7" opacity="0.25" />
<line x1="321.2589862512308" y1="1520.1080303046474" x2="335.44471598311645" y2="1560.5699018017112" stroke="#2b8a3e" stroke-width="0.7" opacity="0.25" />
<line x1="330.02923652457537" y1="1520.006638514802" x2="345.00648907140055" y2="1560.5104361178383" stroke="#2b8a3e" stroke-width="0.7" opacity="0.25" />
<line x1="339.5185508358212" y1="1520.3960696572613" x2="353.56677628005707" y2="1560.6042476869952" stroke="#2b8a3e" stroke-width="0.7" opacity="0.25" />
<line x1="348.9313811620508" y1="1520.5247793150993" x2="362.5322000268919" y2="1560.5153007822519" stroke="#2b8a3e" stroke-width="0.7" opacity="0.25" />
<line x1="357.80397205740735" y1="1519.9813535383655" x2="371.57699371453634" y2="1560.015239447901" stroke="#2b8a3e" stroke-width="0.7" opacity="0.25" />
<line x1="366.4073068785641" y1="1520.6428054998269" x2="374.16223868364466" y2="1543.1467553349682" stroke="#2b8a3e" stroke-width="0.7" opacity="0.25" />
<text x="309.527348524089" y="1540.4251202696323" text-anchor="middle" dominant-baseline="central" font-family="'Virgil', 'Segoe Print', 'Comic Sans MS', 'Patrick Hand', cursive" font-size="13" font-weight="normal" fill="#000000"><tspan x="309.527348524089" dy="0">OPEN_SHORT</tspan></text></g>
<g><path d="M 430.20857485237354,1523.6763816531297
    L 548.2109356976558,1522.4494235251289
    Q 552.8645369897007,1522.5228671617267 553.6083293167743,1528.6939985708493
    L 553.3779838093003,1556.4928419114863
    Q 553.5096004567123,1564.1040731264234 547.0664923539508,1563.356230288824
    L 430.6225639027325,1563.7743930588463
    Q 422.86613432514423,1562.7959015718066 423.43157189045013,1557.6671912209567
    L 423.5112967131179,1529.3678053741648
    Q 423.9969983866278,1522.3414903362748 430.126438685094,1522.5136643985563 Z" fill="#b2f2bb" stroke="#2b8a3e" stroke-width="1.5" />
<line x1="423.7278656452821" y1="1534.6818950353543" x2="433.9360436750161" y2="1563.5382935520174" stroke="#2b8a3e" stroke-width="0.7" opacity="0.25" />
<line x1="428.85657530312017" y1="1523.2187473536178" x2="442.84709677027274" y2="1563.0194897988113" stroke="#2b8a3e" stroke-width="0.7" opacity="0.25" />
<line x1="437.3131495263864" y1="1523.2635410412622" x2="451.34703543592184" y2="1562.9326367660033" stroke="#2b8a3e" stroke-width="0.7" opacity="0.25" />
<line x1="446.97460148784774" y1="1522.8487860103705" x2="460.62140846584623" y2="1562.927013955079" stroke="#2b8a3e" stroke-width="0.7" opacity="0.25" />
<line x1="455.66946373833196" y1="1523.3890650161902" x2="469.3962909093883" y2="1562.7813734651318" stroke="#2b8a3e" stroke-width="0.7" opacity="0.25" />
<line x1="464.6312680565519" y1="1523.6181507870788" x2="478.8830401580457" y2="1562.7831456896529" stroke="#2b8a3e" stroke-width="0.7" opacity="0.25" />
<line x1="473.9189181777168" y1="1523.6816073717928" x2="488.1264997407619" y2="1563.261431879595" stroke="#2b8a3e" stroke-width="0.7" opacity="0.25" />
<line x1="483.05822985665" y1="1523.3510943751517" x2="496.32921721086166" y2="1563.0367774411789" stroke="#2b8a3e" stroke-width="0.7" opacity="0.25" />
<line x1="492.0581448629622" y1="1523.2725104033816" x2="505.90014744824873" y2="1563.4163557291395" stroke="#2b8a3e" stroke-width="0.7" opacity="0.25" />
<line x1="500.55813942968086" y1="1523.2686461993999" x2="514.647459906881" y2="1563.3709789276945" stroke="#2b8a3e" stroke-width="0.7" opacity="0.25" />
<line x1="509.7170273111027" y1="1523.2801430576583" x2="523.6757451182351" y2="1563.0105705965252" stroke="#2b8a3e" stroke-width="0.7" opacity="0.25" />
<line x1="518.4895910018189" y1="1523.6661770474602" x2="532.5512261859825" y2="1563.1306344369114" stroke="#2b8a3e" stroke-width="0.7" opacity="0.25" />
<line x1="527.338320191548" y1="1523.5134596826865" x2="542.1243993688244" y2="1563.1856639706239" stroke="#2b8a3e" stroke-width="0.7" opacity="0.25" />
<line x1="536.4163341097322" y1="1523.2067863539269" x2="550.6956121532443" y2="1562.9045855029326" stroke="#2b8a3e" stroke-width="0.7" opacity="0.25" />
<line x1="545.3307971517846" y1="1522.938649274016" x2="554.0900926127782" y2="1545.743836741958" stroke="#2b8a3e" stroke-width="0.7" opacity="0.25" />
<text x="488.7569162576532" y="1543.2138958508149" text-anchor="middle" dominant-baseline="central" font-family="'Virgil', 'Segoe Print', 'Comic Sans MS', 'Patrick Hand', cursive" font-size="13" font-weight="normal" fill="#000000"><tspan x="488.7569162576532" dy="0">HOLD</tspan></text></g>
<text x="195.28983252340402" y="35" font-family="'Virgil', 'Segoe Print', 'Comic Sans MS', 'Patrick Hand', cursive" font-size="12" fill="#868e96" font-style="italic" opacity="0.8"><tspan x="195.28983252340402" dy="0">AST-validated</tspan><tspan x="195.28983252340402" dy="18">158 indicators available</tspan></text>
<text x="764.5152700380621" y="697.2015553192468" font-family="'Virgil', 'Segoe Print', 'Comic Sans MS', 'Patrick Hand', cursive" font-size="12" fill="#868e96" font-style="italic" opacity="0.8"><tspan x="764.5152700380621" dy="0">safe eval() — empty __builtins__</tspan></text>
<text x="434.3500092523667" y="698.3541845609434" font-family="'Virgil', 'Segoe Print', 'Comic Sans MS', 'Patrick Hand', cursive" font-size="12" fill="#868e96" font-style="italic" opacity="0.8"><tspan x="434.3500092523667" dy="0">errors fed back</tspan><tspan x="434.3500092523667" dy="18">to LLM next cycle</tspan></text>
</g>
</svg>