<svg xmlns="http://www.w3.org/2000/svg" viewBox="0 0 1004.5152700380621 1743.2138958508149" width="1004.5152700380621" height="1743.2138958508149">
<rect width="1004.5152700380621" height="1743.2138958508149" fill="#ffffff" />
<defs>
  <marker id="arrowhead-red" markerWidth="10" markerHeight="7" refX="9" refY="3.5" orient="auto"><polygon points="0 0, 10 3.5, 0 7" fill="#e03131" /></marker>
  <marker id="arrowhead-gray" markerWidth="10" markerHeight="7" refX="9" refY="3.5" orient="auto"><polygon points="0 0, 10 3.5, 0 7" fill="#495057" /></marker>
</defs>
<g transform="translate(60, 120)">
<text x="378.8871062314094" y="-35" text-anchor="middle" dominant-baseline="auto" font-family="'Virgil', 'Segoe Print', 'Comic Sans MS', 'Patrick Hand', cursive" font-size="30" font-weight="600" fill="#1e1e1e">Expression Engine Decision Flow</text>
<path d="M 406.0309200991905,60 Q 409.6969708916531,141.25477559563586 410.093135553474,224.44272932140157" fill="none" stroke="#e03131" stroke-width="1.5" marker-end="url(#arrowhead-red)" />

<path d="M 379.82567963060126,303.6427293214016 Q 324.7268636293072,374.04937503058756 266.16828843407495,447.6892353199073" fill="none" stroke="#e03131" stroke-width="1.5" marker-end="url(#arrowhead-red)" />
<rect x="307.9969840323381" y="362.66598232065445" width="30" height="24" rx="3" fill="white" stroke="none" />
<text x="322.9969840323381" y="375.66598232065445" text-anchor="middle" dominant-baseline="central" font-family="'Virgil', 'Segoe Print', 'Comic Sans MS', 'Patrick Hand', cursive" font-size="13" fill="#e03131" font-style="italic">No</text>
<path d="M 436.80391538876916,303.6427293214016 Q 484.4849292989951,377.19532308983617 532.9395465782954,451.5865533094387" fill="none" stroke="#e03131" stroke-width="1.5" marker-end="url(#arrowhead-red)" />
<rect x="465.8717309835323" y="364.61464131542016" width="38" height="24" rx="3" fill="white" stroke="none" />
<text x="484.8717309835323" y="377.61464131542016" text-anchor="middle" dominant-baseline="central" font-family="'Virgil', 'Segoe Print', 'Comic Sans MS', 'Patrick Hand', cursive" font-size="13" fill="#e03131" font-style="italic">Yes</text>
<path d="M 496.6780700669853,530.7865533094388 Q 381.4129991848132,604.6091284563706 265.66012074053197,678.3541845609434" fill="none" stroke="#e03131" stroke-width="1.5" marker-end="url(#arrowhead-red)" />
<rect x="362.16909540375866" y="591.570368935191" width="38" height="24" rx="3" fill="white" stroke="none" />
<text x="381.16909540375866" y="604.570368935191" text-anchor="middle" dominant-baseline="central" font-family="'Virgil', 'Segoe Print', 'Comic Sans MS', 'Patrick Hand', cursive" font-size="13" fill="#e03131" font-style="italic">Yes</text>
<path d="M 555.9508807208878,530.7865533094388 Q 549.6131567268319,601.1525681817845 546.0957708494583,674.2015553192468" fill="none" stroke="#e03131" stroke-width="1.5" marker-end="url(#arrowhead-red)" />
<rect x="536.023325785173" y="589.4940543143427" width="30" height="24" rx="3" fill="white" stroke="none" />
<text x="551.023325785173" y="602.4940543143427" text-anchor="middle" dominant-baseline="central" font-family="'Virgil', 'Segoe Print', 'Comic Sans MS', 'Patrick Hand', cursive" font-size="13" fill="#e03131" font-style="italic">No</text>
<path d="M 525.3699210446641,720.2015553192468 Q 479.4298174230415,778.2422548932402 429.96504643373055,834.8148808223835" fill="none" stroke="#e03131" stroke-width="1.5" marker-end="url(#arrowhead-red)" />

<path d="M 375.4768228507072,914.0148808223836 Q 331.6225752376165,993.3512404605135 290.9307969190883,1069.5565288055282" fill="none" stroke="#e03131" stroke-width="1.5" marker-end="url(#arrowhead-red)" />
<rect x="314.20380988489774" y="978.7857048139558" width="38" height="24" rx="3" fill="white" stroke="none" />
<text x="333.20380988489774" y="991.7857048139558" text-anchor="middle" dominant-baseline="central" font-family="'Virgil', 'Segoe Print', 'Comic Sans MS', 'Patrick Hand', cursive" font-size="13" fill="#e03131" font-style="italic">Yes</text>
<path d="M 231.89940204351885,1148.756528805528 Q 163.50318785478555,1221.9852030426744 96.44266051530785,1291.7741808599967" fill="none" stroke="#e03131" stroke-width="1.5" marker-end="url(#arrowhead-red)" />
<rect x="141.17103127941334" y="1207.2653548327623" width="46" height="24" rx="3" fill="white" stroke="none" />
<text x="164.17103127941334" y="1220.2653548327623" text-anchor="middle" dominant-baseline="central" font-family="'Virgil', 'Segoe Print', 'Comic Sans MS', 'Patrick Hand', cursive" font-size="13" fill="#e03131" font-style="italic">True</text>
<path d="M 271.2905351490289,1148.756528805528 Q 274.8864474527946,1218.183063389585 277.96451134940907,1288.988038140582" fill="none" stroke="#e03131" stroke-width="1.5" marker-end="url(#arrowhead-red)" />
<rect x="247.627523249219" y="1205.872283473055" width="54" height="24" rx="3" fill="white" stroke="none" />
<text x="274.627523249219" y="1218.872283473055" text-anchor="middle" dominant-baseline="central" font-family="'Virgil', 'Segoe Print', 'Comic Sans MS', 'Patrick Hand', cursive" font-size="13" fill="#e03131" font-style="italic">False</text>
<path d="M 426.3119809969281,914.0148808223836 Q 485.1894614561406,992.0588837399409 541.6435968384724,1069.8352826865507" fill="none" stroke="#e03131" stroke-width="1.5" marker-end="url(#arrowhead-red)" />
<rect x="468.97778891770025" y="978.9250817544671" width="30" height="24" rx="3" fill="white" stroke="none" />
<text x="483.97778891770025" y="991.9250817544671" text-anchor="middle" dominant-baseline="central" font-family="'Virgil', 'Segoe Print', 'Comic Sans MS', 'Patrick Hand', cursive" font-size="13" fill="#e03131" font-style="italic">No</text>
<path d="M 547.6562992489814,1149.0352826865505 Q 503.6303226961985,1222.9839121648881 461.7776200026702,1295.0076621950866" fill="none" stroke="#e03131" stroke-width="1.5" marker-end="url(#arrowhead-red)" />
<rect x="481.7169596258258" y="1209.0214724408186" width="46" height="24" rx="3" fill="white" stroke="none" />
<text x="504.7169596258258" y="1222.0214724408186" text-anchor="middle" dominant-baseline="central" font-family="'Virgil', 'Segoe Print', 'Comic Sans MS', 'Patrick Hand', cursive" font-size="13" fill="#e03131" font-style="italic">True</text>
<path d="M 589.9139066652922,1149.0352826865505 Q 626.0646723718255,1225.4513116228045 661.31413372696,1298.1617199251546" fill="none" stroke="#e03131" stroke-width="1.5" marker-end="url(#arrowhead-red)" />
<rect x="598.6140201961261" y="1210.5985013058526" width="54" height="24" rx="3" fill="white" stroke="none" />
<text x="625.6140201961261" y="1223.5985013058526" text-anchor="middle" dominant-baseline="central" font-family="'Virgil', 'Segoe Print', 'Comic Sans MS', 'Patrick Hand', cursive" font-size="13" fill="#e03131" font-style="italic">False</text>
<path d="M 607.8310590023585,1377.3617199251544 Q 478.1112974647476,1450.2536699025738 346.1147997667457,1520.4251202696323" fill="none" stroke="#e03131" stroke-width="1.5" marker-end="url(#arrowhead-red)" />
<rect x="453.9729293845521" y="1435.8934200973933" width="46" height="24" rx="3" fill="white" stroke="none" />
<text x="476.9729293845521" y="1448.8934200973933" text-anchor="middle" dominant-baseline="central" font-family="'Virgil', 'Segoe Print', 'Comic Sans MS', 'Patrick Hand', cursive" font-size="13" fill="#e03131" font-style="italic">True</text>
<path d="M 643.3600990174166,1377.3617199251544 Q 576.4567176123624,1448.3222528809972 507.4004078967452,1523.2138958508149" fill="none" stroke="#e03131" stroke-width="1.5" marker-end="url(#arrowhead-red)" />
<rect x="548.3802534570809" y="1437.2878078879846" width="54" height="24" rx="3" fill="white" stroke="none" />
<text x="575.3802534570809" y="1450.2878078879846" text-anchor="middle" dominant-baseline="central" font-family="'Virgil', 'Segoe Print', 'Comic Sans MS', 'Patrick Hand', cursive" font-size="13" fill="#e03131" font-style="italic">False</text>
<g><path d="M 309.99985580388454,0.3907589794733212
    L 499.72731635733214,-0.2826256960412138
    Q 505.35612800378294,-0.4049765688629122 505.0040563515882,4.881652546991245
    L 505.49750061922384,55.08079400138522
    Q 505.60478860691654,59.96324503400901 500.80879640249475,59.515017812979934
    L 310.5604412456916,60.56194546174665
    Q 305.8631252376181,60.56095382468775 305.2077644450415,55.07712532219593
    L 305.46220944079977,4.87970798406459
    Q 305.76812559018435,0.29012429406138834 310.36821831719425,-0.11604050536116119 Z" fill="#ffffff" stroke="#1e1e1e" stroke-width="1.5" />
<text x="405.289832523404" y="30" text-anchor="middle" dominant-baseline="central" font-family="'Virgil', 'Segoe Print', 'Comic Sans MS', 'Patrick Hand', cursive" font-size="18" font-weight="600" fill="#1e1e1e"><tspan x="405.289832523404" dy="0">Expression Policy</tspan></text></g>
<g><path d="M 411.50845508741475,218.30496718059385
    L 531.7354902131635,264.1398258977424
    L 410.8129136222109,308.29661786899305
    L 290.1334918702473,264.02225698477196 Z" fill="#ffffff" stroke="#1e1e1e" stroke-width="1" />
<text x="411.07137115351213" y="264.04272932140157" text-anchor="middle" dominant-baseline="central" font-family="'Virgil', 'Segoe Print', 'Comic Sans MS', 'Patrick Hand', cursive" font-size="15" font-weight="normal" fill="#1e1e1e"><tspan x="411.07137115351213" dy="0">Warmup complete?</tspan></text></g>
<g><path d="M 135.31236297858416,447.4536056070559
    L 364.92551273030114,447.73808353952626
    Q 369.79128997928495,447.4323838954471 370.63975152878174,453.2452772935882
    L 370.119063065626,483.13937168818086
    Q 370.12519209770545,487.34680745879143 365.6348340680765,487.6955380840518
    L 135.68516453058257,488.12379027136774
    Q 130.89057164718545,488.142493658181 129.92870109971702,482.23981071780145
    L 130.12677282408697,453.15922978841024
    Q 130.12935683481922,448.11261061682455 135.3959742611056,447.4319732263888 Z" fill="#d8f5a2" stroke="#2b8a3e" stroke-width="1" />
<text x="250.38763614977654" y="467.6892353199073" text-anchor="middle" dominant-baseline="central" font-family="'Virgil', 'Segoe Print', 'Comic Sans MS', 'Patrick Hand', cursive" font-size="13" font-weight="normal" fill="#2b8a3e"><tspan x="250.38763614977654" dy="0">HOLD - indicators still computing</tspan></text></g>
<g><path d="M 559.2614201816817,446.62665445935903
    L 691.3194319085916,491.89297247313334
    L 558.4394174709236,535.7798886659293
    L 426.9345309983516,491.25044626953604 Z" fill="#ffffff" stroke="#1e1e1e" stroke-width="1" />
<text x="558.6720908135525" y="491.18655330943875" text-anchor="middle" dominant-baseline="central" font-family="'Virgil', 'Segoe Print', 'Comic Sans MS', 'Patrick Hand', cursive" font-size="15" font-weight="normal" fill="#1e1e1e"><tspan x="558.6720908135525" dy="0">Validation errors?</tspan></text></g>
<g><path d="M 119.49474451571875,678.6177459185637
    L 348.8037355658074,678.5085614396478
    Q 354.18890274629956,678.0892783088639 354.2176796100841,683.7113338806375
    L 353.99637131388005,713.4574674283707
    Q 353.83841911574996,718.4270153553425 348.8342105795687,718.3073657880159
    L 118.82387052298289,718.1397871368506
    Q 114.26131325712701,718.1778072813701 114.19976573492893,713.5807457595686
    L 114.39204350917423,683.5377398118005
    Q 114.86797354759472,678.0962555384976 118.94857931762087,678.1836848680541 Z" fill="#d8f5a2" stroke="#2b8a3e" stroke-width="1" />
<text x="234.3500092523667" y="698.3541845609434" text-anchor="middle" dominant-baseline="central" font-family="'Virgil', 'Segoe Print', 'Comic Sans MS', 'Patrick Hand', cursive" font-size="13" font-weight="normal" fill="#2b8a3e"><tspan x="234.3500092523667" dy="0">HOLD - report errors to setup agent</tspan></text></g>
<g><path d="M 399.9971386887041,674.0027031021651
    L 689.8134339940293,674.090876909779
    Q 694.1655520125695,673.6780963058379 693.9223858511918,678.750941654612
    L 694.935139884025,714.9073377893816
    Q 694.1693515429326,720.530244687698 689.7400454811747,720.019345008707
    L 400.0363604227687,719.9283857293165
    Q 394.3031097624239,720.5825679317117 393.91553717988086,714.8674023175117
    L 394.49544098591673,679.4484468729788
    Q 394.3468448443537,673.7249578659714 399.2519343346076,674.2270078383735 Z" fill="#ffffff" stroke="#1e1e1e" stroke-width="1" />
<text x="544.5152700380621" y="697.2015553192468" text-anchor="middle" dominant-baseline="central" font-family="'Virgil', 'Segoe Print', 'Comic Sans MS', 'Patrick Hand', cursive" font-size="14" font-weight="normal" fill="#1e1e1e"><tspan x="544.5152700380621" dy="0">Build namespace from signal_state</tspan></text></g>
<g><path d="M 397.56790467747703,829.7866811305003
    L 509.3971709985875,874.3280862649299
    L 396.2834499902641,919.1851836555979
    L 285.1879045513027,874.6988585749823 Z" fill="#ffffff" stroke="#1e1e1e" stroke-width="1" />
<text x="397.00174990596713" y="874.4148808223836" text-anchor="middle" dominant-baseline="central" font-family="'Virgil', 'Segoe Print', 'Comic Sans MS', 'Patrick Hand', cursive" font-size="15" font-weight="normal" fill="#1e1e1e"><tspan x="397.00174990596713" dy="0">Position open?</tspan></text></g>
<g><path d="M 269.5271701804915,1064.5751884463643
    L 413.30739892462805,1108.7317865934601
    L 269.8921854031634,1153.4076576387524
    L 125.12188374955258,1108.9539742417037 Z" fill="#ffffff" stroke="#1e1e1e" stroke-width="1" />
<text x="269.4058698638284" y="1109.156528805528" text-anchor="middle" dominant-baseline="central" font-family="'Virgil', 'Segoe Print', 'Comic Sans MS', 'Patrick Hand', cursive" font-size="15" font-weight="normal" fill="#1e1e1e"><tspan x="269.4058698638284" dy="0">Eval exit expression</tspan></text></g>
<g><path d="M 571.6346233121562,1064.8950274466533
    L 686.0561096379322,1109.692039545087
    L 570.7652451410754,1155.1668004734966
    L 455.92336628298864,1109.6707426125395 Z" fill="#ffffff" stroke="#1e1e1e" stroke-width="1" />
<text x="570.9538279294334" y="1109.4352826865506" text-anchor="middle" dominant-baseline="central" font-family="'Virgil', 'Segoe Print', 'Comic Sans MS', 'Patrick Hand', cursive" font-size="15" font-weight="normal" fill="#1e1e1e"><tspan x="570.9538279294334" dy="0">Eval entry_long</tspan></text></g>
<g><path d="M 5.425324152343092,1291.9212090399785
    L 150.2236106634984,1291.5252302527922
    Q 154.42598354709662,1291.5988341157645 155.44607592224784,1296.9174593131816
    L 155.02371544805646,1326.5438564393032
    Q 155.21435075528862,1332.3550225022657 150.1406324464042,1332.3524848325528
    L 4.693877105466527,1331.2312651906745
    Q 0.36897913957218403,1331.9014242702572 -0.35547026655985975,1326.5539380651323
    L -0.03836483256309293,1297.0818759788308
    Q 0.2504970961657818,1292.2803397685116 4.41302482161409,1292.1030637412478 Z" fill="#d8f5a2" stroke="#2b8a3e" stroke-width="1" />
<text x="77.5" y="1311.7741808599967" text-anchor="middle" dominant-baseline="central" font-family="'Virgil', 'Segoe Print', 'Comic Sans MS', 'Patrick Hand', cursive" font-size="13" font-weight="normal" fill="#2b8a3e"><tspan x="77.5" dy="0">CLOSE_POSITION</tspan></text></g>
<g><path d="M 218.37785337424867,1288.7379299780382
    L 338.45693313018853,1288.6288824871765
    Q 343.99426061443245,1288.6706577576783 344.15131090291106,1294.3011677687755
    L 344.0109184709421,1324.0351701115665
    Q 344.1928893523829,1329.2517598889797 339.34672355272926,1329.504590163025
    L 218.67577839314436,1328.4482464533007
    Q 213.86736169966608,1328.4197765474194 213.64356974016846,1324.4868631778468
    L 213.82441279088235,1294.3120178427125
    Q 214.01414417253835,1289.360842173925 219.29814203242185,1289.405846145915 Z" fill="#d8f5a2" stroke="#2b8a3e" stroke-width="1" />
<text x="278.9163625035508" y="1308.988038140582" text-anchor="middle" dominant-baseline="central" font-family="'Virgil', 'Segoe Print', 'Comic Sans MS', 'Patrick Hand', cursive" font-size="13" font-weight="normal" fill="#2b8a3e"><tspan x="278.9163625035508" dy="0">HOLD</tspan></text></g>
<g><path d="M 389.658777009722,1294.4225317128307
    L 509.9293903321377,1294.6738563016086
    Q 514.5342406359392,1295.4595218036789 514.9311171113353,1300.5381011273057
    L 515.5962898629077,1330.0868858687422
    Q 514.7830095927172,1335.096925953195 509.5719733273116,1334.4928243977454
    L 390.33406540750804,1334.6879051027324
    Q 385.56581563640793,1334.818758609747 385.1353203432751,1330.4746771245345
    L 385.0043000346632,1300.5590016185101
    Q 385.1621509535718,1295.5935987729201 389.96594339107406,1295.014624002381 Z" fill="#d8f5a2" stroke="#2b8a3e" stroke-width="1" />
<text x="450.01119137617934" y="1315.0076621950866" text-anchor="middle" dominant-baseline="central" font-family="'Virgil', 'Segoe Print', 'Comic Sans MS', 'Patrick Hand', cursive" font-size="13" font-weight="normal" fill="#2b8a3e"><tspan x="450.01119137617934" dy="0">OPEN_LONG</tspan></text></g>
<g><path d="M 680.7932651451177,1293.490555126893
    L 800.8074903261393,1338.439609963203
    L 680.8482115151054,1382.9992788854906
    L 560.5289662159139,1337.4069480277722 Z" fill="#ffffff" stroke="#1e1e1e" stroke-width="1" />
<text x="680.2742124628188" y="1337.7617199251545" text-anchor="middle" dominant-baseline="central" font-family="'Virgil', 'Segoe Print', 'Comic Sans MS', 'Patrick Hand', cursive" font-size="15" font-weight="normal" fill="#1e1e1e"><tspan x="680.2742124628188" dy="0">Eval entry_short</tspan></text></g>
<g><path d="M 249.311802294683,1520.1722124753373
    L 369.4304020510448,1520.796213086156
    Q 374.1096446507679,1519.9944191124 374.1525695713251,1525.9620187201756
    L 374.27050370687357,1554.8353892323496
    Q 374.7833946115031,1560.8819894480082 368.9659740059185,1560.8559113046679
    L 250.0739351157179,1559.9629635594029
    Q 244.5314232890683,1560.5987505643934 244.83496243333937,1555.9686639789659
    L 244.3780624738996,1525.6196195001771
    Q 243.9504206968224,1520.8662191018054 249.2502797733512,1520.8017087905114 Z" fill="#d8f5a2" stroke="#2b8a3e" stroke-width="1" />
<text x="309.527348524089" y="1540.4251202696323" text-anchor="middle" dominant-baseline="central" font-family="'Virgil', 'Segoe Print', 'Comic Sans MS', 'Patrick Hand', cursive" font-size="13" font-weight="normal" fill="#2b8a3e"><tspan x="309.527348524089" dy="0">OPEN_SHORT</tspan></text></g>
<g><path d="M 429.05802198746676,1523.5222197190246
    L 549.0595958843215,1522.7042476336908
    Q 553.1619967456849,1522.7532100580895 553.6578582970673,1527.8672976641712
    L 553.504294625418,1557.7331932245957
    Q 553.592039057026,1563.8073473678874 548.296633655185,1563.3087854761543
    L 429.33401468770603,1563.587560656169
    Q 423.1630616359805,1562.9352329981425 423.54002001285113,1558.5160927642428
    L 423.5931698946297,1528.316502199715
    Q 423.9169710103029,1522.6322921744547 429.00326454261375,1522.7470748826424 Z" fill="#d8f5a2" stroke="#2b8a3e" stroke-width="1" />
<text x="488.7569162576532" y="1543.2138958508149" text-anchor="middle" dominant-baseline="central" font-family="'Virgil', 'Segoe Print', 'Comic Sans MS', 'Patrick Hand', cursive" font-size="13" font-weight="normal" fill="#2b8a3e"><tspan x="488.7569162576532" dy="0">HOLD</tspan></text></g>
<text x="195.28983252340402" y="35" font-family="'Virgil', 'Segoe Print', 'Comic Sans MS', 'Patrick Hand', cursive" font-size="13" fill="#868e96" font-style="italic" opacity="0.85"><tspan x="195.28983252340402" dy="0">AST-validated</tspan><tspan x="195.28983252340402" dy="19.5">158 indicators available</tspan></text>
<text x="764.5152700380621" y="697.2015553192468" font-family="'Virgil', 'Segoe Print', 'Comic Sans MS', 'Patrick Hand', cursive" font-size="13" fill="#868e96" font-style="italic" opacity="0.85"><tspan x="764.5152700380621" dy="0">safe eval() — empty __builtins__</tspan></text>
<text x="434.3500092523667" y="698.3541845609434" font-family="'Virgil', 'Segoe Print', 'Comic Sans MS', 'Patrick Hand', cursive" font-size="13" fill="#868e96" font-style="italic" opacity="0.85"><tspan x="434.3500092523667" dy="0">errors fed back</tspan><tspan x="434.3500092523667" dy="19.5">to LLM next cycle</tspan></text>
</g>
</svg>