<svg xmlns="http://www.w3.org/2000/svg" viewBox="0 0 1095.2 1250" width="1095.2" height="1250">
<defs><marker id="arrowhead" markerWidth="10" markerHeight="7" refX="10" refY="3.5" orient="auto"><polygon points="0 0, 10 3.5, 0 7" fill="#495057" /></marker></defs>
<g transform="translate(40, 40)">
<line x1="507.6" y1="50" x2="507.6" y2="165" stroke="#495057" stroke-width="1.5" marker-end="url(#arrowhead)" />

<line x1="448.00000000000006" y1="255" x2="361.91111111111115" y2="320" stroke="#495057" stroke-width="1.5" marker-end="url(#arrowhead)" />
<rect x="387.95555555555563" y="272.5" width="34" height="26" rx="4" fill="white" stroke="none" opacity="0.9" />
<text x="404.95555555555563" y="285.5" text-anchor="middle" dominant-baseline="central" font-family="system-ui, -apple-system, sans-serif" font-size="12" fill="#495057" font-style="italic">No</text>
<line x1="563.85" y1="255" x2="651.35" y2="325" stroke="#495057" stroke-width="1.5" marker-end="url(#arrowhead)" />
<rect x="587.1" y="275" width="41" height="26" rx="4" fill="white" stroke="none" opacity="0.9" />
<text x="607.6" y="288" text-anchor="middle" dominant-baseline="central" font-family="system-ui, -apple-system, sans-serif" font-size="12" fill="#495057" font-style="italic">Yes</text>
<line x1="591.6800000000001" y1="409.123" x2="381.6740740740741" y2="480" stroke="#495057" stroke-width="1.5" marker-end="url(#arrowhead)" />
<rect x="466.17703703703705" y="429.5615" width="41" height="26" rx="4" fill="white" stroke="none" opacity="0.9" />
<text x="486.67703703703705" y="442.5615" text-anchor="middle" dominant-baseline="central" font-family="system-ui, -apple-system, sans-serif" font-size="12" fill="#495057" font-style="italic">Yes</text>
<line x1="707.6" y1="415" x2="707.6" y2="480" stroke="#495057" stroke-width="1.5" marker-end="url(#arrowhead)" />
<rect x="690.6" y="432.5" width="34" height="26" rx="4" fill="white" stroke="none" opacity="0.9" />
<text x="707.6" y="445.5" text-anchor="middle" dominant-baseline="central" font-family="system-ui, -apple-system, sans-serif" font-size="12" fill="#495057" font-style="italic">No</text>
<line x1="680.572972972973" y1="530" x2="556.2486486486487" y2="645" stroke="#495057" stroke-width="1.5" marker-end="url(#arrowhead)" />

<line x1="462.0375" y1="735" x2="391.1625" y2="805" stroke="#495057" stroke-width="1.5" marker-end="url(#arrowhead)" />
<rect x="406.1" y="755" width="41" height="26" rx="4" fill="white" stroke="none" opacity="0.9" />
<text x="426.6" y="768" text-anchor="middle" dominant-baseline="central" font-family="system-ui, -apple-system, sans-serif" font-size="12" fill="#495057" font-style="italic">Yes</text>
<line x1="257.0666666666667" y1="895" x2="129.1851851851852" y2="960" stroke="#495057" stroke-width="1.5" marker-end="url(#arrowhead)" />
<rect x="169.12592592592597" y="912.5" width="48" height="26" rx="4" fill="white" stroke="none" opacity="0.9" />
<text x="193.12592592592597" y="925.5" text-anchor="middle" dominant-baseline="central" font-family="system-ui, -apple-system, sans-serif" font-size="12" fill="#495057" font-style="italic">True</text>
<line x1="343.73333333333335" y1="895" x2="341.03703703703707" y2="960" stroke="#495057" stroke-width="1.5" marker-end="url(#arrowhead)" />
<rect x="314.8851851851852" y="912.5" width="55" height="26" rx="4" fill="white" stroke="none" opacity="0.9" />
<text x="342.3851851851852" y="925.5" text-anchor="middle" dominant-baseline="central" font-family="system-ui, -apple-system, sans-serif" font-size="12" fill="#495057" font-style="italic">False</text>
<line x1="561.0375" y1="735" x2="644.1625" y2="805" stroke="#495057" stroke-width="1.5" marker-end="url(#arrowhead)" />
<rect x="585.6" y="755" width="34" height="26" rx="4" fill="white" stroke="none" opacity="0.9" />
<text x="602.6" y="768" text-anchor="middle" dominant-baseline="central" font-family="system-ui, -apple-system, sans-serif" font-size="12" fill="#495057" font-style="italic">No</text>
<line x1="665.0666666666667" y1="895" x2="618.0740740740741" y2="960" stroke="#495057" stroke-width="1.5" marker-end="url(#arrowhead)" />
<rect x="617.5703703703705" y="912.5" width="48" height="26" rx="4" fill="white" stroke="none" opacity="0.9" />
<text x="641.5703703703705" y="925.5" text-anchor="middle" dominant-baseline="central" font-family="system-ui, -apple-system, sans-serif" font-size="12" fill="#495057" font-style="italic">True</text>
<line x1="753.85" y1="895" x2="841.35" y2="965" stroke="#495057" stroke-width="1.5" marker-end="url(#arrowhead)" />
<rect x="770.1" y="915" width="55" height="26" rx="4" fill="white" stroke="none" opacity="0.9" />
<text x="797.6" y="928" text-anchor="middle" dominant-baseline="central" font-family="system-ui, -apple-system, sans-serif" font-size="12" fill="#495057" font-style="italic">False</text>
<line x1="791.76" y1="1037.4776923076922" x2="457.6" y2="1124.2307692307693" stroke="#495057" stroke-width="1.5" marker-end="url(#arrowhead)" />
<rect x="600.6800000000001" y="1065.8542307692308" width="48" height="26" rx="4" fill="white" stroke="none" opacity="0.9" />
<text x="624.6800000000001" y="1078.8542307692308" text-anchor="middle" dominant-baseline="central" font-family="system-ui, -apple-system, sans-serif" font-size="12" fill="#495057" font-style="italic">True</text>
<line x1="810.9333333333334" y1="1055" x2="685.7481481481482" y2="1120" stroke="#495057" stroke-width="1.5" marker-end="url(#arrowhead)" />
<rect x="720.8407407407408" y="1072.5" width="55" height="26" rx="4" fill="white" stroke="none" opacity="0.9" />
<text x="748.3407407407408" y="1085.5" text-anchor="middle" dominant-baseline="central" font-family="system-ui, -apple-system, sans-serif" font-size="12" fill="#495057" font-style="italic">False</text>
<rect x="419.6" y="0" width="176" height="50" rx="8" ry="8" fill="#a5d8ff" stroke="#1e1e1e" stroke-width="1.5" />
<text x="507.6" y="25" text-anchor="middle" dominant-baseline="central" font-family="system-ui, -apple-system, sans-serif" font-size="14" fill="#1e1e1e"><tspan x="507.6" dy="0">Expression Policy</tspan></text>
<polygon points="507.6,160 625.2,210 507.6,260 390,210" fill="#ffec99" stroke="#1e1e1e" stroke-width="1.5" />
<text x="507.6" y="210" text-anchor="middle" dominant-baseline="central" font-family="system-ui, -apple-system, sans-serif" font-size="14" fill="#1e1e1e"><tspan x="507.6" dy="0">Warmup complete?</tspan></text>
<rect x="178.80000000000007" y="320" width="300" height="50" rx="8" ry="8" fill="#b2f2bb" stroke="#1e1e1e" stroke-width="1.5" />
<text x="328.80000000000007" y="345" text-anchor="middle" dominant-baseline="central" font-family="system-ui, -apple-system, sans-serif" font-size="14" fill="#1e1e1e"><tspan x="328.80000000000007" dy="0">HOLD - indicators still computing</tspan></text>
<polygon points="707.6,320 836.4000000000001,370 707.6,420 578.8000000000001,370" fill="#ffec99" stroke="#1e1e1e" stroke-width="1.5" />
<text x="707.6" y="370" text-anchor="middle" dominant-baseline="central" font-family="system-ui, -apple-system, sans-serif" font-size="14" fill="#1e1e1e"><tspan x="707.6" dy="0">Validation errors?</tspan></text>
<rect x="157.60000000000002" y="480" width="300" height="50" rx="8" ry="8" fill="#b2f2bb" stroke="#1e1e1e" stroke-width="1.5" />
<text x="307.6" y="505" text-anchor="middle" dominant-baseline="central" font-family="system-ui, -apple-system, sans-serif" font-size="14" fill="#1e1e1e"><tspan x="307.6" dy="0">HOLD - report errors to setup agent</tspan></text>
<rect x="557.6" y="480" width="300" height="50" rx="8" ry="8" fill="#a5d8ff" stroke="#1e1e1e" stroke-width="1.5" />
<text x="707.6" y="505" text-anchor="middle" dominant-baseline="central" font-family="system-ui, -apple-system, sans-serif" font-size="14" fill="#1e1e1e"><tspan x="707.6" dy="0">Build namespace from signal_state</tspan></text>
<polygon points="507.6,640 619.6,690 507.6,740 395.6,690" fill="#ffec99" stroke="#1e1e1e" stroke-width="1.5" />
<text x="507.6" y="690" text-anchor="middle" dominant-baseline="central" font-family="system-ui, -apple-system, sans-serif" font-size="14" fill="#1e1e1e"><tspan x="507.6" dy="0">Position open?</tspan></text>
<polygon points="345.6,800 485.6,850 345.6,900 205.60000000000002,850" fill="#ffec99" stroke="#1e1e1e" stroke-width="1.5" />
<text x="345.6" y="850" text-anchor="middle" dominant-baseline="central" font-family="system-ui, -apple-system, sans-serif" font-size="14" fill="#1e1e1e"><tspan x="345.6" dy="0">Eval exit expression</tspan></text>
<polygon points="697.6,800 809.6,850 697.6,900 585.6,850" fill="#ffec99" stroke="#1e1e1e" stroke-width="1.5" />
<text x="697.6" y="850" text-anchor="middle" dominant-baseline="central" font-family="system-ui, -apple-system, sans-serif" font-size="14" fill="#1e1e1e"><tspan x="697.6" dy="0">Eval entry_long</tspan></text>
<rect x="0" y="960" width="160" height="50" rx="8" ry="8" fill="#b2f2bb" stroke="#1e1e1e" stroke-width="1.5" />
<text x="80" y="985" text-anchor="middle" dominant-baseline="central" font-family="system-ui, -apple-system, sans-serif" font-size="14" fill="#1e1e1e"><tspan x="80" dy="0">CLOSE_POSITION</tspan></text>
<rect x="260" y="960" width="160" height="50" rx="8" ry="8" fill="#b2f2bb" stroke="#1e1e1e" stroke-width="1.5" />
<text x="340" y="985" text-anchor="middle" dominant-baseline="central" font-family="system-ui, -apple-system, sans-serif" font-size="14" fill="#1e1e1e"><tspan x="340" dy="0">HOLD</tspan></text>
<rect x="520" y="960" width="160" height="50" rx="8" ry="8" fill="#b2f2bb" stroke="#1e1e1e" stroke-width="1.5" />
<text x="600" y="985" text-anchor="middle" dominant-baseline="central" font-family="system-ui, -apple-system, sans-serif" font-size="14" fill="#1e1e1e"><tspan x="600" dy="0">OPEN_LONG</tspan></text>
<polygon points="897.6,960 1015.2,1010 897.6,1060 780,1010" fill="#ffec99" stroke="#1e1e1e" stroke-width="1.5" />
<text x="897.6" y="1010" text-anchor="middle" dominant-baseline="central" font-family="system-ui, -apple-system, sans-serif" font-size="14" fill="#1e1e1e"><tspan x="897.6" dy="0">Eval entry_short</tspan></text>
<rect x="297.6" y="1120" width="160" height="50" rx="8" ry="8" fill="#b2f2bb" stroke="#1e1e1e" stroke-width="1.5" />
<text x="377.6" y="1145" text-anchor="middle" dominant-baseline="central" font-family="system-ui, -apple-system, sans-serif" font-size="14" fill="#1e1e1e"><tspan x="377.6" dy="0">OPEN_SHORT</tspan></text>
<rect x="557.6" y="1120" width="160" height="50" rx="8" ry="8" fill="#b2f2bb" stroke="#1e1e1e" stroke-width="1.5" />
<text x="637.6" y="1145" text-anchor="middle" dominant-baseline="central" font-family="system-ui, -apple-system, sans-serif" font-size="14" fill="#1e1e1e"><tspan x="637.6" dy="0">HOLD</tspan></text>
</g>
</svg>