<svg width="1003" height="832" viewBox="0 0 1003 832" fill="none" xmlns="http://www.w3.org/2000/svg">
<rect width="1003" height="215" fill="#F5B70A" style="fill:#F5B70A;fill:color(display-p3 0.9608 0.7176 0.0392);fill-opacity:1;"/>
<g clip-path="url(#clip0_408_6748)">
<rect x="61" y="13.6504" width="187.5" height="187.5" rx="90" fill="black" style="fill:black;fill-opacity:1;"/>
<path d="M200.88 59.1243C202.106 56.8015 205.758 52.3108 210.559 52.9301C216.56 53.7043 219.851 66.0933 215.205 75.3853L208.042 68.0291L200.88 59.1243Z" fill="#F5B70A" style="fill:#F5B70A;fill:color(display-p3 0.9608 0.7176 0.0392);fill-opacity:1;"/>
<path d="M127.397 203.549C100.04 197.848 81.5404 181.108 75.5962 169.151C74.9872 167.926 75.1922 166.492 75.9474 165.351C84.2007 152.884 91.9894 130.688 93.5147 123.634C95.1166 116.225 96.7829 105.788 97.6173 99.2802C94.1132 96.5269 85.1758 86.409 89.5975 75.9389C93.2427 67.3074 102.557 67.4667 105.999 68.4992C109.784 58.7479 124.301 39.5352 152.334 39.5352C187.375 39.5352 204.288 64.0421 207.633 70.4219C210.309 75.5257 213.912 100.41 215.379 112.214C217.807 123.865 211.204 130.7 206.265 133.462C205.075 134.128 204.158 135.223 203.61 136.473C200.986 142.464 192.925 148.329 188.783 149.987L191.821 198.576C191.877 199.465 191.66 200.367 191.03 200.997C182.886 209.144 150.321 208.326 127.397 203.549Z" fill="#F5B70A" style="fill:#F5B70A;fill:color(display-p3 0.9608 0.7176 0.0392);fill-opacity:1;"/>
<path d="M188.783 149.987L191.821 198.576C191.877 199.465 191.66 200.367 191.03 200.997C182.886 209.144 150.321 208.326 127.397 203.549C100.04 197.848 81.5404 181.108 75.5962 169.151C74.9872 167.926 75.1922 166.492 75.9474 165.351C84.2007 152.884 91.9894 130.688 93.5147 123.634C95.1166 116.225 96.7829 105.788 97.6173 99.2802M188.783 149.987C192.925 148.329 200.986 142.464 203.61 136.473C204.157 135.223 205.075 134.128 206.265 133.462C211.204 130.7 217.807 123.865 215.379 112.214C213.912 100.41 210.309 75.5257 207.633 70.4219C204.288 64.0421 187.375 39.5352 152.334 39.5352C124.301 39.5352 109.784 58.7479 105.999 68.4992M188.783 149.987C185.673 150.844 187.572 151.635 179.86 151.635M105.999 68.4992C102.557 67.4667 93.2427 67.3074 89.5975 75.9389C85.1758 86.409 94.1132 96.5269 97.6173 99.2802M105.999 68.4992C109.44 69.5317 113.26 71.1441 116.167 73.2751M97.6173 99.2802C100.046 101.089 107.218 105.881 113.545 108.993" stroke="black" style="stroke:black;stroke-opacity:1;" stroke-width="6" stroke-linecap="round"/>
<path d="M186.76 154.597C179.973 156.165 166.338 154.71 157.644 150.7C156.619 150.227 157.36 148.319 158.487 148.4C166.67 148.988 180.613 148.868 186.76 147.539L186.76 154.597Z" fill="black" style="fill:black;fill-opacity:1;"/>
<path d="M210.761 114.021C215.055 114.022 225.307 115.149 231.962 119.657" stroke="black" style="stroke:black;stroke-opacity:1;" stroke-width="3" stroke-linecap="round"/>
<path d="M211.819 119.921C215.597 121.962 224.08 127.828 227.792 134.959" stroke="black" style="stroke:black;stroke-opacity:1;" stroke-width="3" stroke-linecap="round"/>
<path d="M210.761 114.021C215.055 114.022 225.307 115.149 231.962 119.657" stroke="#F5B70A" style="stroke:#F5B70A;stroke:color(display-p3 0.9608 0.7176 0.0392);stroke-opacity:1;" stroke-width="3" stroke-linecap="round"/>
<path d="M211.819 119.921C215.597 121.962 224.08 127.828 227.792 134.959" stroke="#F5B70A" style="stroke:#F5B70A;stroke:color(display-p3 0.9608 0.7176 0.0392);stroke-opacity:1;" stroke-width="3" stroke-linecap="round"/>
<path d="M164.132 70.7979C177.681 69.7855 193.295 69.7872 209.834 70.7959C216.518 71.2036 223.095 72.0641 226.7 72.8135C228.573 73.2027 229.856 74.9047 229.711 76.8145C229.391 81.0205 228.123 87.7826 225.971 93.6836C224.895 96.6323 223.563 99.4697 221.948 101.684C220.362 103.859 218.288 105.723 215.659 106.138C211.228 106.837 208.171 105.939 205.659 104.524C204.468 103.854 203.404 103.068 202.479 102.406C201.52 101.719 200.683 101.144 199.781 100.707C198.049 99.8671 195.476 99.4778 192.733 99.5918C190.004 99.7053 187.4 100.306 185.661 101.179C184.8 101.611 183.781 102.334 182.39 103.326C181.051 104.281 179.459 105.415 177.612 106.484C173.888 108.642 169.104 110.562 162.883 110.562C153.706 110.562 146.133 104.956 140.486 98.6396C134.805 92.2849 130.777 84.8846 128.689 80.5859C127.175 77.4681 129.318 74.049 132.594 73.7139C139.531 73.0042 154.163 71.5427 164.132 70.7979Z" fill="black" stroke="#F5B70A" style="fill:black;fill-opacity:1;stroke:#F5B70A;stroke:color(display-p3 0.9608 0.7176 0.0392);stroke-opacity:1;" stroke-width="4"/>
<path fill-rule="evenodd" clip-rule="evenodd" d="M193.875 100.523C200.726 100.524 206.28 103.475 206.28 107.114C206.28 108.877 204.976 110.476 202.854 111.659C202.209 112.018 201.892 112.778 201.892 113.517C201.892 116.228 199.171 118.427 195.813 118.427C192.455 118.427 189.733 116.228 189.733 113.517C189.733 113.408 189.658 113.312 189.551 113.291C184.832 112.359 181.47 109.946 181.469 107.114C181.469 103.475 187.023 100.523 193.875 100.523Z" fill="black" style="fill:black;fill-opacity:1;"/>
<path d="M176.967 114.021C170.884 114.379 156.035 117.187 145.3 125.561" stroke="black" style="stroke:black;stroke-opacity:1;" stroke-width="3" stroke-linecap="round"/>
<path d="M178.846 120.193C173.389 122.161 160.489 128.781 152.546 139.516" stroke="black" style="stroke:black;stroke-opacity:1;" stroke-width="3" stroke-linecap="round"/>
</g>
<path d="M635.416 98.5915V90.8155H683.098V98.5915H662.902V128.021H655.126V98.5915H635.416ZM696.827 113.279V105.503H735.221C736.517 105.503 737.435 105.233 737.975 104.693C738.515 104.153 738.785 103.253 738.785 101.993C738.785 100.769 738.497 99.8875 737.921 99.3475C737.381 98.8075 736.481 98.5375 735.221 98.5375H697.421C696.161 98.5375 695.261 98.8075 694.721 99.3475C694.181 99.8875 693.911 100.769 693.911 101.993V128.021H686.135V101.993C686.135 100.445 686.423 98.9875 686.999 97.6195C687.611 96.2515 688.421 95.0635 689.429 94.0555C690.437 93.0475 691.625 92.2555 692.993 91.6795C694.361 91.1035 695.837 90.8155 697.421 90.8155H735.221C736.769 90.8155 738.227 91.1035 739.595 91.6795C740.999 92.2555 742.205 93.0475 743.213 94.0555C744.221 95.0635 745.013 96.2515 745.589 97.6195C746.201 98.9875 746.507 100.445 746.507 101.993C746.507 103.613 746.237 105.089 745.697 106.421C745.193 107.753 744.473 108.905 743.537 109.877C742.637 110.849 741.557 111.623 740.297 112.199C739.037 112.775 737.651 113.117 736.139 113.225C737.903 115.601 739.757 118.085 741.701 120.677C743.645 123.269 745.499 125.717 747.263 128.021H737.597L726.527 113.279H696.827ZM799.822 90.8155C801.37 90.8155 802.828 91.1035 804.196 91.6795C805.564 92.2555 806.752 93.0475 807.76 94.0555C808.804 95.0635 809.614 96.2515 810.19 97.6195C810.766 98.9875 811.054 100.445 811.054 101.993V128.021H803.332V115.331H761.59V107.609H803.332V101.993C803.332 100.769 803.044 99.8875 802.468 99.3475C801.928 98.8075 801.046 98.5375 799.822 98.5375H761.914C760.69 98.5375 759.808 98.8075 759.268 99.3475C758.728 99.8875 758.458 100.769 758.458 101.993V128.021H750.682V101.993C750.682 100.445 750.97 98.9875 751.546 97.6195C752.158 96.2515 752.968 95.0635 753.976 94.0555C754.984 93.0475 756.172 92.2555 757.54 91.6795C758.908 91.1035 760.366 90.8155 761.914 90.8155H799.822ZM875.023 116.789C875.023 118.373 874.717 119.849 874.105 121.217C873.529 122.549 872.737 123.737 871.729 124.781C870.721 125.789 869.533 126.581 868.165 127.157C866.797 127.733 865.339 128.021 863.791 128.021H816.757V90.8155H863.791C865.339 90.8155 866.797 91.1215 868.165 91.7335C869.533 92.3095 870.721 93.1015 871.729 94.1095C872.737 95.1175 873.529 96.3055 874.105 97.6735C874.717 99.0415 875.023 100.499 875.023 102.047V116.789ZM824.533 120.299H863.791C865.015 120.299 865.897 120.029 866.437 119.489C866.977 118.949 867.247 118.049 867.247 116.789V102.047C867.247 100.823 866.977 99.9415 866.437 99.4015C865.897 98.8615 865.015 98.5915 863.791 98.5915H824.533V120.299ZM938.671 90.8155V98.5915H891.637C890.413 98.5915 889.531 98.8615 888.991 99.4015C888.451 99.9415 888.181 100.823 888.181 102.047C888.181 103.271 888.451 104.171 888.991 104.747C889.531 105.287 890.413 105.557 891.637 105.557H938.671V113.333H891.637C890.413 113.333 889.531 113.603 888.991 114.143C888.451 114.683 888.181 115.565 888.181 116.789C888.181 118.049 888.451 118.949 888.991 119.489C889.531 120.029 890.413 120.299 891.637 120.299H938.671V128.021H891.637C890.089 128.021 888.631 127.733 887.263 127.157C885.895 126.545 884.689 125.735 883.645 124.727C882.637 123.683 881.827 122.477 881.215 121.109C880.639 119.741 880.351 118.265 880.351 116.681C880.351 115.349 880.603 114.071 881.107 112.847C881.611 111.587 882.277 110.453 883.105 109.445C882.241 108.401 881.557 107.267 881.053 106.043C880.585 104.819 880.351 103.523 880.351 102.155C880.351 100.607 880.639 99.1495 881.215 97.7815C881.791 96.3775 882.583 95.1715 883.591 94.1635C884.599 93.1195 885.787 92.3095 887.155 91.7335C888.559 91.1215 890.053 90.8155 891.637 90.8155H938.671Z" fill="black" style="fill:black;fill-opacity:1;"/>
<path d="M340.778 90.8155C342.326 90.8155 343.766 91.1215 345.098 91.7335C346.466 92.3095 347.654 93.1015 348.662 94.1095C349.706 95.1175 350.516 96.3055 351.092 97.6735C351.704 99.0055 352.01 100.445 352.01 101.993V116.735C352.01 118.319 351.704 119.795 351.092 121.163C350.516 122.531 349.724 123.719 348.716 124.727C347.708 125.735 346.52 126.545 345.152 127.157C343.784 127.733 342.326 128.021 340.778 128.021H305.354C303.806 128.021 302.348 127.733 300.98 127.157C299.612 126.545 298.424 125.735 297.416 124.727C296.408 123.719 295.598 122.531 294.986 121.163C294.41 119.795 294.122 118.319 294.122 116.735V101.993C294.122 100.445 294.41 99.0055 294.986 97.6735C295.598 96.3055 296.408 95.1175 297.416 94.1095C298.46 93.1015 299.648 92.3095 300.98 91.7335C302.348 91.1215 303.806 90.8155 305.354 90.8155H340.778ZM344.234 101.993C344.234 100.769 343.964 99.8875 343.424 99.3475C342.884 98.8075 342.002 98.5375 340.778 98.5375H305.354C304.13 98.5375 303.248 98.8075 302.708 99.3475C302.168 99.8875 301.898 100.769 301.898 101.993V116.735C301.898 117.995 302.168 118.895 302.708 119.435C303.248 119.975 304.13 120.245 305.354 120.245H340.778C342.002 120.245 342.884 119.975 343.424 119.435C343.964 118.895 344.234 117.995 344.234 116.735V101.993ZM360.645 98.5915V90.8155H408.327V98.5915H388.131V128.021H380.355V98.5915H360.645ZM414.442 98.5915V90.8155H462.124V98.5915H441.928V128.021H434.152V98.5915H414.442ZM528.126 90.8155V98.5915H481.092C479.868 98.5915 478.986 98.8615 478.446 99.4015C477.906 99.9415 477.636 100.823 477.636 102.047C477.636 103.271 477.906 104.171 478.446 104.747C478.986 105.287 479.868 105.557 481.092 105.557H528.126V113.333H481.092C479.868 113.333 478.986 113.603 478.446 114.143C477.906 114.683 477.636 115.565 477.636 116.789C477.636 118.049 477.906 118.949 478.446 119.489C478.986 120.029 479.868 120.299 481.092 120.299H528.126V128.021H481.092C479.544 128.021 478.086 127.733 476.718 127.157C475.35 126.545 474.144 125.735 473.1 124.727C472.092 123.683 471.282 122.477 470.67 121.109C470.094 119.741 469.806 118.265 469.806 116.681C469.806 115.349 470.058 114.071 470.562 112.847C471.066 111.587 471.732 110.453 472.56 109.445C471.696 108.401 471.012 107.267 470.508 106.043C470.04 104.819 469.806 103.523 469.806 102.155C469.806 100.607 470.094 99.1495 470.67 97.7815C471.246 96.3775 472.038 95.1715 473.046 94.1635C474.054 93.1195 475.242 92.3095 476.61 91.7335C478.014 91.1215 479.508 90.8155 481.092 90.8155H528.126ZM548.802 113.279V105.503H587.196C588.492 105.503 589.41 105.233 589.95 104.693C590.49 104.153 590.76 103.253 590.76 101.993C590.76 100.769 590.472 99.8875 589.896 99.3475C589.356 98.8075 588.456 98.5375 587.196 98.5375H549.396C548.136 98.5375 547.236 98.8075 546.696 99.3475C546.156 99.8875 545.886 100.769 545.886 101.993V128.021H538.11V101.993C538.11 100.445 538.398 98.9875 538.974 97.6195C539.586 96.2515 540.396 95.0635 541.404 94.0555C542.412 93.0475 543.6 92.2555 544.968 91.6795C546.336 91.1035 547.812 90.8155 549.396 90.8155H587.196C588.744 90.8155 590.202 91.1035 591.57 91.6795C592.974 92.2555 594.18 93.0475 595.188 94.0555C596.196 95.0635 596.988 96.2515 597.564 97.6195C598.176 98.9875 598.482 100.445 598.482 101.993C598.482 103.613 598.212 105.089 597.672 106.421C597.168 107.753 596.448 108.905 595.512 109.877C594.612 110.849 593.532 111.623 592.272 112.199C591.012 112.775 589.626 113.117 588.114 113.225C589.878 115.601 591.732 118.085 593.676 120.677C595.62 123.269 597.474 125.717 599.238 128.021H589.572L578.502 113.279H548.802Z" fill="black" style="fill:black;fill-opacity:1;"/>
<g clip-path="url(#clip1_408_6748)">
<rect width="1003" height="215" transform="translate(-52.9915 624.603)" fill="black" style="fill:black;fill-opacity:1;"/>
<g clip-path="url(#clip2_408_6748)">
<rect x="8.00854" y="638.253" width="187.5" height="187.5" rx="90" fill="black" style="fill:black;fill-opacity:1;"/>
<path d="M147.888 683.727C149.114 681.404 152.767 676.913 157.567 677.533C163.569 678.307 166.86 690.696 162.214 699.988L155.051 692.632L147.888 683.727Z" fill="#F5B70A" style="fill:#F5B70A;fill:color(display-p3 0.9608 0.7176 0.0392);fill-opacity:1;"/>
<path d="M74.4055 828.151C47.0486 822.45 28.5489 805.71 22.6047 793.754C21.9957 792.529 22.2008 791.094 22.9559 789.954C31.2093 777.486 38.998 755.291 40.5233 748.236C42.1252 740.827 43.7915 730.39 44.6258 723.883C41.1217 721.129 32.1844 711.012 36.6061 700.541C40.2512 691.91 49.5654 692.069 53.007 693.102C56.7928 683.35 71.3093 664.138 99.3421 664.138C134.383 664.138 151.296 688.645 154.641 695.024C157.317 700.128 160.921 725.013 162.388 736.817C164.815 748.468 158.212 755.302 153.274 758.065C152.083 758.731 151.166 759.826 150.619 761.075C147.994 767.066 139.934 772.932 135.791 774.589L138.829 823.178C138.885 824.068 138.668 824.969 138.038 825.6C129.895 833.747 97.33 832.929 74.4055 828.151Z" fill="#F5B70A" style="fill:#F5B70A;fill:color(display-p3 0.9608 0.7176 0.0392);fill-opacity:1;"/>
<path d="M135.791 774.589L138.829 823.178C138.885 824.068 138.668 824.969 138.038 825.6C129.895 833.747 97.33 832.929 74.4055 828.151C47.0486 822.45 28.5489 805.71 22.6047 793.754C21.9957 792.529 22.2008 791.094 22.9559 789.954C31.2093 777.486 38.998 755.291 40.5233 748.236C42.1252 740.827 43.7915 730.39 44.6258 723.883M135.791 774.589C139.934 772.932 147.994 767.066 150.619 761.075C151.166 759.826 152.083 758.731 153.274 758.065C158.212 755.302 164.815 748.468 162.388 736.817C160.921 725.013 157.317 700.128 154.641 695.024C151.296 688.645 134.383 664.138 99.3421 664.138C71.3093 664.138 56.7928 683.35 53.007 693.102M135.791 774.589C132.682 775.447 134.581 776.238 126.869 776.238M53.007 693.102C49.5654 692.069 40.2512 691.91 36.6061 700.541C32.1844 711.012 41.1217 721.129 44.6258 723.883M53.007 693.102C56.4487 694.134 60.2686 695.747 63.1755 697.878M44.6258 723.883C47.0543 725.691 54.227 730.484 60.5537 733.595" stroke="black" style="stroke:black;stroke-opacity:1;" stroke-width="6" stroke-linecap="round"/>
<path d="M127.177 778.346C133.021 778.089 134.611 779.806 134.911 784.619" stroke="black" style="stroke:black;stroke-opacity:1;" stroke-width="3" stroke-linecap="round"/>
<path d="M133.768 779.199C126.981 780.767 113.346 779.312 104.653 775.303C103.627 774.83 104.369 772.922 105.495 773.003C113.678 773.591 127.622 773.471 133.768 772.141L133.768 779.199Z" fill="black" style="fill:black;fill-opacity:1;"/>
<path d="M157.77 738.624C162.063 738.624 172.315 739.751 178.971 744.26" stroke="black" style="stroke:black;stroke-opacity:1;" stroke-width="3" stroke-linecap="round"/>
<path d="M158.828 744.523C162.605 746.565 171.088 752.431 174.8 759.561" stroke="black" style="stroke:black;stroke-opacity:1;" stroke-width="3" stroke-linecap="round"/>
<path d="M157.77 738.624C162.063 738.624 172.315 739.751 178.971 744.26" stroke="#F5B70A" style="stroke:#F5B70A;stroke:color(display-p3 0.9608 0.7176 0.0392);stroke-opacity:1;" stroke-width="3" stroke-linecap="round"/>
<path d="M158.828 744.523C162.605 746.565 171.088 752.431 174.8 759.561" stroke="#F5B70A" style="stroke:#F5B70A;stroke:color(display-p3 0.9608 0.7176 0.0392);stroke-opacity:1;" stroke-width="3" stroke-linecap="round"/>
<path d="M111.14 695.4C124.689 694.388 140.303 694.39 156.843 695.398C163.527 695.806 170.103 696.667 173.709 697.416C175.581 697.805 176.865 699.507 176.719 701.417C176.399 705.623 175.131 712.385 172.979 718.286C171.904 721.235 170.571 724.072 168.957 726.286C167.37 728.462 165.296 730.325 162.668 730.74C158.236 731.44 155.18 730.541 152.668 729.127C151.476 728.456 150.412 727.67 149.488 727.009C148.528 726.322 147.691 725.747 146.79 725.31C145.058 724.47 142.485 724.08 139.742 724.194C137.012 724.308 134.408 724.908 132.67 725.781C131.808 726.214 130.79 726.937 129.398 727.929C128.059 728.884 126.467 730.017 124.621 731.087C120.897 733.245 116.113 735.164 109.891 735.164C100.715 735.164 93.1414 729.559 87.4949 723.242C81.814 716.887 77.7854 709.487 75.698 705.188C74.184 702.071 76.3267 698.652 79.6023 698.316C86.5393 697.607 101.171 696.145 111.14 695.4Z" fill="black" stroke="#F5B70A" style="fill:black;fill-opacity:1;stroke:#F5B70A;stroke:color(display-p3 0.9608 0.7176 0.0392);stroke-opacity:1;" stroke-width="4"/>
<path d="M140.883 725.126C147.734 725.126 153.289 728.077 153.289 731.717C153.288 733.479 151.985 735.079 149.863 736.261C149.218 736.62 148.901 737.381 148.901 738.119C148.901 740.831 146.179 743.029 142.822 743.029C139.464 743.029 136.742 740.831 136.742 738.119C136.742 738.01 136.666 737.915 136.56 737.894C131.84 736.961 128.478 734.549 128.478 731.717C128.478 728.077 134.032 725.126 140.883 725.126Z" fill="black" style="fill:black;fill-opacity:1;"/>
<path d="M123.976 738.624C117.893 738.981 103.043 741.79 92.3083 750.163" stroke="black" style="stroke:black;stroke-opacity:1;" stroke-width="3" stroke-linecap="round"/>
<path d="M125.854 744.796C120.398 746.764 107.498 753.383 99.5542 764.118" stroke="black" style="stroke:black;stroke-opacity:1;" stroke-width="3" stroke-linecap="round"/>
</g>
<rect x="9.50854" y="639.753" width="184.5" height="184.5" rx="88.5" stroke="#F5B70A" style="stroke:#F5B70A;stroke:color(display-p3 0.9608 0.7176 0.0392);stroke-opacity:1;" stroke-width="3"/>
</g>
<g clip-path="url(#clip3_408_6748)">
<g clip-path="url(#clip4_408_6748)">
<rect width="951.986" height="243.929" transform="translate(174.009 627.475)" fill="black" style="fill:black;fill-opacity:1;"/>
<mask id="mask0_408_6748" style="mask-type:alpha" maskUnits="userSpaceOnUse" x="204" y="613" width="234" height="233">
<circle cx="320.888" cy="729.413" r="116.255" transform="rotate(-11.3007 320.888 729.413)" fill="url(#paint0_linear_408_6748)"/>
</mask>
<g mask="url(#mask0_408_6748)">
<g filter="url(#filter0_f_408_6748)">
<circle cx="320.888" cy="729.413" r="116.255" transform="rotate(-11.3007 320.888 729.413)" fill="url(#paint1_linear_408_6748)"/>
</g>
</g>
<mask id="mask1_408_6748" style="mask-type:alpha" maskUnits="userSpaceOnUse" x="215" y="617" width="224" height="223">
<circle cx="326.947" cy="728.514" r="111.233" transform="rotate(163.926 326.947 728.514)" fill="url(#paint2_linear_408_6748)"/>
</mask>
<g mask="url(#mask1_408_6748)">
<g filter="url(#filter1_f_408_6748)">
<circle cx="326.947" cy="728.514" r="111.233" transform="rotate(163.926 326.947 728.514)" fill="url(#paint3_linear_408_6748)"/>
</g>
</g>
<g clip-path="url(#clip5_408_6748)">
<rect x="231.906" y="642.329" width="177.964" height="177.964" rx="85.4225" fill="white" style="fill:white;fill-opacity:1;"/>
<path d="M364.671 685.49C365.835 683.285 369.301 679.023 373.858 679.611C379.554 680.346 382.677 692.104 378.267 700.924L371.469 693.942L364.671 685.49Z" fill="url(#paint4_linear_408_6748)"/>
<path d="M294.926 822.569C268.96 817.158 251.402 801.27 245.76 789.921C245.182 788.758 245.376 787.397 246.093 786.314C253.927 774.481 261.319 753.414 262.767 746.719C264.287 739.687 265.869 729.78 266.661 723.604C263.335 720.991 254.852 711.387 259.049 701.45C262.509 693.257 271.349 693.408 274.616 694.388C278.209 685.133 291.987 666.897 318.594 666.897C351.853 666.897 367.906 690.158 371.081 696.213C373.621 701.057 377.041 724.676 378.433 735.88C380.737 746.938 374.47 753.425 369.783 756.047C368.653 756.679 367.782 757.719 367.263 758.905C364.772 764.591 357.121 770.158 353.19 771.731L356.073 817.849C356.126 818.693 355.92 819.549 355.322 820.147C347.593 827.88 316.684 827.104 294.926 822.569Z" fill="url(#paint5_linear_408_6748)"/>
<path d="M353.19 771.731L356.073 817.849C356.126 818.693 355.92 819.549 355.322 820.147C347.593 827.88 316.684 827.104 294.926 822.569C268.96 817.158 251.402 801.27 245.76 789.921C245.182 788.758 245.376 787.397 246.093 786.314C253.927 774.481 261.319 753.414 262.767 746.719C264.287 739.687 265.869 729.78 266.661 723.604M353.19 771.731C357.121 770.158 364.772 764.591 367.263 758.905C367.782 757.719 368.653 756.679 369.783 756.047C374.47 753.425 380.737 746.938 378.433 735.88C377.041 724.676 373.621 701.057 371.081 696.213C367.906 690.158 351.853 666.897 318.594 666.897C291.987 666.897 278.209 685.133 274.616 694.388M353.19 771.731C350.238 772.545 352.04 773.296 344.721 773.296M274.616 694.388C271.349 693.408 262.509 693.257 259.049 701.45C254.852 711.387 263.335 720.991 266.661 723.604M274.616 694.388C277.882 695.368 281.508 696.899 284.267 698.921M266.661 723.604C268.966 725.32 275.774 729.869 281.778 732.823" stroke="white" style="stroke:white;stroke-opacity:1;" stroke-width="5.69483" stroke-linecap="round"/>
<mask id="mask2_408_6748" style="mask-type:alpha" maskUnits="userSpaceOnUse" x="242" y="664" width="140" height="165">
<path d="M294.926 822.569C268.96 817.158 251.402 801.27 245.76 789.921C245.182 788.758 245.376 787.397 246.093 786.314C253.927 774.481 261.319 753.414 262.767 746.719C264.287 739.687 265.869 729.78 266.661 723.604C263.335 720.991 254.852 711.387 259.049 701.45C262.509 693.257 271.349 693.408 274.616 694.388C278.209 685.133 291.987 666.897 318.594 666.897C351.853 666.897 367.906 690.158 371.081 696.213C373.621 701.057 377.041 724.676 378.433 735.88C380.737 746.938 374.47 753.425 369.783 756.047C368.653 756.679 367.782 757.719 367.263 758.905C364.772 764.591 357.121 770.158 353.19 771.731L356.073 817.849C356.126 818.693 355.92 819.549 355.322 820.147C347.593 827.88 316.684 827.104 294.926 822.569Z" fill="url(#paint6_linear_408_6748)"/>
<path d="M353.19 771.731L356.073 817.849C356.126 818.693 355.92 819.549 355.322 820.147C347.593 827.88 316.684 827.104 294.926 822.569C268.96 817.158 251.402 801.27 245.76 789.921C245.182 788.758 245.376 787.397 246.093 786.314C253.927 774.481 261.319 753.414 262.767 746.719C264.287 739.687 265.869 729.78 266.661 723.604M353.19 771.731C357.121 770.158 364.772 764.591 367.263 758.905C367.782 757.719 368.653 756.679 369.783 756.047C374.47 753.425 380.737 746.938 378.433 735.88C377.041 724.676 373.621 701.057 371.081 696.213C367.906 690.158 351.853 666.897 318.594 666.897C291.987 666.897 278.209 685.133 274.616 694.388M353.19 771.731C350.238 772.545 352.04 773.296 344.721 773.296M274.616 694.388C271.349 693.408 262.509 693.257 259.049 701.45C254.852 711.387 263.335 720.991 266.661 723.604M274.616 694.388C277.882 695.368 281.508 696.899 284.267 698.921M266.661 723.604C268.966 725.32 275.774 729.869 281.778 732.823" stroke="white" style="stroke:white;stroke-opacity:1;" stroke-width="5.69483" stroke-linecap="round"/>
</mask>
<g mask="url(#mask2_408_6748)">
<path d="M294.926 822.569C268.96 817.158 251.402 801.27 245.76 789.921C245.182 788.758 245.376 787.397 246.093 786.314C253.927 774.481 261.319 753.414 262.767 746.719C264.287 739.687 265.869 729.78 266.661 723.604C263.335 720.991 254.852 711.387 259.049 701.45C262.509 693.257 271.349 693.408 274.616 694.388C278.209 685.133 291.987 666.897 318.594 666.897C351.853 666.897 367.906 690.158 371.081 696.213C373.621 701.057 377.041 724.676 378.433 735.88C380.737 746.938 374.47 753.425 369.783 756.047C368.653 756.679 367.782 757.719 367.263 758.905C364.772 764.591 357.121 770.158 353.19 771.731L356.073 817.849C356.126 818.693 355.92 819.549 355.322 820.147C347.593 827.88 316.684 827.104 294.926 822.569Z" fill="url(#paint7_linear_408_6748)"/>
<path d="M353.19 771.731L356.073 817.849C356.126 818.693 355.92 819.549 355.322 820.147C347.593 827.88 316.684 827.104 294.926 822.569C268.96 817.158 251.402 801.27 245.76 789.921C245.182 788.758 245.376 787.397 246.093 786.314C253.927 774.481 261.319 753.414 262.767 746.719C264.287 739.687 265.869 729.78 266.661 723.604M353.19 771.731C357.121 770.158 364.772 764.591 367.263 758.905C367.782 757.719 368.653 756.679 369.783 756.047C374.47 753.425 380.737 746.938 378.433 735.88C377.041 724.676 373.621 701.057 371.081 696.213C367.906 690.158 351.853 666.897 318.594 666.897C291.987 666.897 278.209 685.133 274.616 694.388M353.19 771.731C350.238 772.545 352.04 773.296 344.721 773.296M274.616 694.388C271.349 693.408 262.509 693.257 259.049 701.45C254.852 711.387 263.335 720.991 266.661 723.604M274.616 694.388C277.882 695.368 281.508 696.899 284.267 698.921M266.661 723.604C268.966 725.32 275.774 729.869 281.778 732.823" stroke="white" style="stroke:white;stroke-opacity:1;" stroke-width="5.69483" stroke-linecap="round"/>
</g>
<path d="M348.971 776.014C349.52 775.852 351.212 776.014 351.212 777.842" stroke="white" style="stroke:white;stroke-opacity:1;" stroke-width="0.949139" stroke-linecap="round"/>
<path d="M351.269 776.107C344.828 777.595 331.886 776.214 323.635 772.408C322.661 771.96 323.365 770.149 324.434 770.226C332.201 770.784 345.435 770.67 351.269 769.408L351.269 776.107Z" fill="white" style="fill:white;fill-opacity:1;"/>
<path d="M374.05 737.595C378.125 737.595 387.856 738.665 394.173 742.944" stroke="white" style="stroke:white;stroke-opacity:1;" stroke-width="2.84742" stroke-linecap="round"/>
<path d="M375.054 743.194C378.639 745.132 386.691 750.699 390.214 757.467" stroke="white" style="stroke:white;stroke-opacity:1;" stroke-width="2.84742" stroke-linecap="round"/>
<path d="M374.05 737.595C378.125 737.595 387.856 738.665 394.173 742.944" stroke="#A38540" style="stroke:#A38540;stroke:color(display-p3 0.6392 0.5216 0.2510);stroke-opacity:1;" stroke-width="2.84742" stroke-linecap="round"/>
<path d="M375.054 743.194C378.639 745.132 386.691 750.699 390.214 757.467" stroke="#A38540" style="stroke:#A38540;stroke:color(display-p3 0.6392 0.5216 0.2510);stroke-opacity:1;" stroke-width="2.84742" stroke-linecap="round"/>
<path d="M329.792 696.191C342.652 695.231 357.471 695.232 373.169 696.189C379.514 696.576 385.757 697.392 389.179 698.104C390.958 698.473 392.167 700.087 392.044 701.887C391.775 705.846 390.716 712.195 388.806 717.741C387.852 720.511 386.652 723.181 385.165 725.268C383.7 727.324 381.761 729.082 379.263 729.477C375.023 730.146 372.17 729.207 369.795 727.87C368.706 727.257 367.625 726.5 366.756 725.945C365.827 725.353 364.969 724.871 364.02 724.546C361.99 723.852 359.198 723.547 356.399 723.672C353.583 723.798 351.016 724.347 349.39 725.163C348.593 725.563 347.688 726.229 346.452 727.154C345.266 728.043 343.854 729.107 342.202 730.11C338.855 732.143 334.513 733.933 328.607 733.933C319.897 733.933 312.708 728.612 307.349 722.617C301.957 716.586 298.134 709.561 296.153 705.481C294.716 702.522 296.749 699.277 299.858 698.959C306.442 698.285 320.33 696.898 329.792 696.191Z" fill="white" stroke="url(#paint8_linear_408_6748)" style="fill:white;fill-opacity:1;" stroke-width="3.79656"/>
<path d="M358.022 724.783C364.525 724.783 369.797 727.584 369.797 731.039C369.797 732.712 368.559 734.23 366.546 735.351C365.933 735.693 365.633 736.415 365.633 737.116C365.633 739.69 363.049 741.776 359.862 741.776C356.675 741.776 354.091 739.69 354.091 737.116C354.091 737.013 354.019 736.921 353.918 736.901C349.439 736.016 346.248 733.727 346.248 731.039C346.248 727.584 351.52 724.783 358.022 724.783Z" fill="white" style="fill:white;fill-opacity:1;"/>
<path d="M341.975 737.595C336.201 737.934 322.107 740.599 311.918 748.547" stroke="white" style="stroke:white;stroke-opacity:1;" stroke-width="2.84742" stroke-linecap="round"/>
<path d="M343.758 743.453C338.579 745.321 326.336 751.604 318.796 761.793" stroke="white" style="stroke:white;stroke-opacity:1;" stroke-width="2.84742" stroke-linecap="round"/>
</g>
</g>
</g>
<g clip-path="url(#clip6_408_6748)">
<g clip-path="url(#clip7_408_6748)">
<rect width="956.011" height="244.96" transform="translate(384.009 621.475)" fill="black" style="fill:black;fill-opacity:1;"/>
<mask id="mask3_408_6748" style="mask-type:alpha" maskUnits="userSpaceOnUse" x="414" y="607" width="235" height="234">
<circle cx="531.508" cy="723.844" r="116.747" transform="rotate(-11.3007 531.508 723.844)" fill="url(#paint9_linear_408_6748)"/>
</mask>
<g mask="url(#mask3_408_6748)">
<g filter="url(#filter2_f_408_6748)">
<circle cx="531.508" cy="723.844" r="116.747" transform="rotate(-11.3007 531.508 723.844)" fill="url(#paint10_linear_408_6748)"/>
</g>
</g>
<mask id="mask4_408_6748" style="mask-type:alpha" maskUnits="userSpaceOnUse" x="425" y="611" width="225" height="224">
<circle cx="537.593" cy="722.941" r="111.703" transform="rotate(163.926 537.593 722.941)" fill="url(#paint11_linear_408_6748)"/>
</mask>
<g mask="url(#mask4_408_6748)">
<g filter="url(#filter3_f_408_6748)">
<circle cx="537.593" cy="722.941" r="111.703" transform="rotate(163.926 537.593 722.941)" fill="url(#paint12_linear_408_6748)"/>
</g>
</g>
<g clip-path="url(#clip8_408_6748)">
<rect x="442.151" y="641.157" width="178.716" height="178.716" rx="85.7836" fill="white" style="fill:white;fill-opacity:1;"/>
<rect x="442.151" y="641.157" width="178.716" height="178.716" rx="85.7836" fill="url(#paint13_radial_408_6748)"/>
<rect x="442.151" y="641.157" width="178.716" height="178.716" rx="85.7836" fill="url(#paint14_radial_408_6748)"/>
<rect x="442.151" y="641.157" width="178.716" height="178.716" rx="85.7836" fill="url(#paint15_radial_408_6748)"/>
<rect x="442.151" y="641.157" width="178.716" height="178.716" rx="85.7836" fill="url(#paint16_radial_408_6748)"/>
<path d="M575.477 684.501C576.646 682.287 580.127 678.007 584.703 678.597C590.423 679.335 593.56 691.144 589.131 700.001L582.304 692.989L575.477 684.501Z" fill="#2D44C7" style="fill:#2D44C7;fill:color(display-p3 0.1765 0.2667 0.7804);fill-opacity:1;"/>
<path d="M505.437 822.16C479.362 816.726 461.729 800.77 456.063 789.374C455.483 788.206 455.678 786.839 456.398 785.752C464.264 773.868 471.688 752.713 473.142 745.989C474.669 738.927 476.257 728.979 477.052 722.776C473.713 720.152 465.194 710.508 469.408 700.528C472.883 692.301 481.761 692.453 485.041 693.437C488.65 684.143 502.486 665.83 529.205 665.83C562.605 665.83 578.726 689.189 581.914 695.27C584.465 700.135 587.899 723.853 589.298 735.104C591.611 746.209 585.318 752.724 580.61 755.357C579.476 755.991 578.601 757.036 578.08 758.226C575.578 763.937 567.896 769.527 563.947 771.107L566.843 817.42C566.896 818.268 566.689 819.127 566.089 819.728C558.327 827.493 527.288 826.713 505.437 822.16Z" fill="url(#paint17_linear_408_6748)"/>
<path d="M563.947 771.107L566.843 817.42C566.896 818.268 566.689 819.127 566.089 819.728C558.327 827.493 527.288 826.713 505.437 822.16C479.362 816.726 461.729 800.77 456.063 789.374C455.483 788.206 455.678 786.839 456.398 785.752C464.264 773.868 471.688 752.713 473.142 745.989C474.669 738.927 476.257 728.979 477.052 722.776M563.947 771.107C567.896 769.527 575.578 763.937 578.08 758.226C578.601 757.036 579.476 755.991 580.61 755.357C585.318 752.724 591.611 746.209 589.298 735.104C587.899 723.853 584.465 700.135 581.914 695.27C578.726 689.189 562.605 665.83 529.205 665.83C502.486 665.83 488.65 684.143 485.041 693.437M563.947 771.107C560.983 771.924 562.793 772.679 555.442 772.679M485.041 693.437C481.761 692.453 472.883 692.301 469.408 700.528C465.194 710.508 473.713 720.152 477.052 722.776M485.041 693.437C488.321 694.421 491.962 695.958 494.733 697.989M477.052 722.776C479.367 724.5 486.204 729.068 492.234 732.034" stroke="#7E83FF" style="stroke:#7E83FF;stroke:color(display-p3 0.4941 0.5137 1.0000);stroke-opacity:1;" stroke-width="5.71891" stroke-linecap="round"/>
<mask id="mask5_408_6748" style="mask-type:alpha" maskUnits="userSpaceOnUse" x="452" y="662" width="141" height="167">
<path d="M505.437 822.16C479.362 816.726 461.729 800.77 456.063 789.374C455.483 788.206 455.678 786.839 456.398 785.752C464.265 773.868 471.689 752.713 473.142 745.989C474.669 738.927 476.257 728.979 477.053 722.776C473.713 720.152 465.194 710.508 469.409 700.528C472.883 692.301 481.761 692.453 485.041 693.437C488.65 684.143 502.486 665.83 529.206 665.83C562.605 665.83 578.726 689.189 581.914 695.27C584.465 700.135 587.899 723.853 589.298 735.104C591.611 746.209 585.318 752.724 580.611 755.357C579.476 755.991 578.602 757.036 578.08 758.226C575.579 763.937 567.896 769.527 563.947 771.107L566.843 817.42C566.896 818.268 566.689 819.127 566.089 819.728C558.327 827.493 527.288 826.713 505.437 822.16Z" fill="url(#paint18_linear_408_6748)"/>
<path d="M563.947 771.107L566.843 817.42C566.896 818.268 566.689 819.127 566.089 819.728C558.327 827.493 527.288 826.713 505.437 822.16C479.362 816.726 461.729 800.77 456.063 789.374C455.483 788.206 455.678 786.839 456.398 785.752C464.265 773.868 471.689 752.713 473.142 745.989C474.669 738.927 476.257 728.979 477.053 722.776M563.947 771.107C567.896 769.527 575.579 763.937 578.08 758.226C578.602 757.036 579.476 755.991 580.611 755.357C585.318 752.724 591.611 746.209 589.298 735.104C587.899 723.853 584.465 700.135 581.914 695.27C578.726 689.189 562.605 665.83 529.206 665.83C502.486 665.83 488.65 684.143 485.041 693.437M563.947 771.107C560.984 771.924 562.793 772.679 555.443 772.679M485.041 693.437C481.761 692.453 472.883 692.301 469.409 700.528C465.194 710.508 473.713 720.152 477.053 722.776M485.041 693.437C488.322 694.421 491.963 695.958 494.733 697.989M477.053 722.776C479.367 724.5 486.204 729.068 492.234 732.034" stroke="white" style="stroke:white;stroke-opacity:1;" stroke-width="5.71891" stroke-linecap="round"/>
</mask>
<g mask="url(#mask5_408_6748)">
<path d="M563.947 771.107L566.802 816.766C566.882 818.037 566.573 819.345 565.606 820.175C557.113 827.461 526.859 826.624 505.437 822.16C480.062 816.872 462.682 801.619 456.545 790.301C455.613 788.582 455.918 786.522 456.969 784.872C464.621 772.852 471.724 752.55 473.142 745.989C474.669 738.927 476.257 728.979 477.053 722.776M563.947 771.107C567.679 769.614 574.747 764.538 577.623 759.165C578.543 757.446 579.862 755.873 581.503 754.821C586.066 751.897 591.468 745.52 589.298 735.104C587.899 723.853 584.465 700.135 581.914 695.27C578.726 689.189 562.605 665.83 529.206 665.83C502.486 665.83 488.65 684.143 485.041 693.437M563.947 771.107C560.984 771.924 562.793 772.679 555.443 772.679M485.041 693.437C481.761 692.453 472.883 692.301 469.409 700.528C465.194 710.508 473.713 720.152 477.053 722.776M485.041 693.437C488.322 694.421 491.963 695.958 494.733 697.989M477.053 722.776C479.367 724.5 486.204 729.068 492.234 732.034" stroke="#7E83FF" style="stroke:#7E83FF;stroke:color(display-p3 0.4960 0.5128 1.0000);stroke-opacity:1;" stroke-width="3.81261" stroke-linecap="round"/>
</g>
<path d="M559.711 775.408C560.262 775.245 561.961 775.408 561.961 777.243" stroke="#7E83FF" style="stroke:#7E83FF;stroke:color(display-p3 0.4941 0.5137 1.0000);stroke-opacity:1;" stroke-width="0.953152" stroke-linecap="round"/>
<path d="M562.019 775.501C555.55 776.995 542.554 775.608 534.267 771.786C533.29 771.336 533.997 769.517 535.07 769.594C542.87 770.155 556.16 770.041 562.019 768.773L562.019 775.501Z" fill="#7E83FF" style="fill:#7E83FF;fill:color(display-p3 0.4941 0.5137 1.0000);fill-opacity:1;"/>
<path d="M584.896 736.826C588.988 736.826 598.76 737.901 605.103 742.198" stroke="white" style="stroke:white;stroke-opacity:1;" stroke-width="2.85945" stroke-linecap="round"/>
<path d="M585.904 742.449C589.505 744.395 597.59 749.986 601.128 756.783" stroke="white" style="stroke:white;stroke-opacity:1;" stroke-width="2.85945" stroke-linecap="round"/>
<path d="M584.896 736.826C588.988 736.826 598.76 737.901 605.103 742.198" stroke="#2B365F" style="stroke:#2B365F;stroke:color(display-p3 0.1686 0.2118 0.3725);stroke-opacity:1;" stroke-width="2.85945" stroke-linecap="round"/>
<path d="M585.904 742.449C589.505 744.395 597.59 749.986 601.128 756.783" stroke="#2B365F" style="stroke:#2B365F;stroke:color(display-p3 0.1686 0.2118 0.3725);stroke-opacity:1;" stroke-width="2.85945" stroke-linecap="round"/>
<path d="M540.451 694.521C553.365 693.557 568.247 693.558 584.011 694.52C588.194 694.775 592.318 695.215 595.62 695.686C600.066 696.32 603.135 700.276 602.447 704.781C601.789 709.091 600.559 714.417 598.697 718.833C597.768 721.038 596.644 723.104 595.292 724.712C593.944 726.313 592.236 727.615 590.131 727.947C585.872 728.619 583.008 727.677 580.623 726.334C579.53 725.718 578.444 724.958 577.571 724.401C576.638 723.806 575.776 723.322 574.823 722.996C572.785 722.299 569.981 721.993 567.17 722.118C564.342 722.244 561.764 722.795 560.132 723.615C559.331 724.017 558.422 724.686 557.181 725.615C555.99 726.508 554.572 727.577 552.913 728.584C549.551 730.625 545.192 732.422 539.26 732.422C532.159 732.422 526.064 728.893 521.169 724.377C516.268 719.855 512.399 714.193 509.7 709.545C506.372 703.812 510.444 697.285 516.674 696.667C523.811 695.959 533.365 695.051 540.451 694.521Z" fill="white" style="fill:white;fill-opacity:1;"/>
<path d="M540.451 694.521C553.365 693.557 568.247 693.558 584.011 694.52C588.194 694.775 592.318 695.215 595.62 695.686C600.066 696.32 603.135 700.276 602.447 704.781C601.789 709.091 600.559 714.417 598.697 718.833C597.768 721.038 596.644 723.104 595.292 724.712C593.944 726.313 592.236 727.615 590.131 727.947C585.872 728.619 583.008 727.677 580.623 726.334C579.53 725.718 578.444 724.958 577.571 724.401C576.638 723.806 575.776 723.322 574.823 722.996C572.785 722.299 569.981 721.993 567.17 722.118C564.342 722.244 561.764 722.795 560.132 723.615C559.331 724.017 558.422 724.686 557.181 725.615C555.99 726.508 554.572 727.577 552.913 728.584C549.551 730.625 545.192 732.422 539.26 732.422C532.159 732.422 526.064 728.893 521.169 724.377C516.268 719.855 512.399 714.193 509.7 709.545C506.372 703.812 510.444 697.285 516.674 696.667C523.811 695.959 533.365 695.051 540.451 694.521Z" fill="url(#paint19_radial_408_6748)"/>
<path d="M540.451 694.521C553.365 693.557 568.247 693.558 584.011 694.52C588.194 694.775 592.318 695.215 595.62 695.686C600.066 696.32 603.135 700.276 602.447 704.781C601.789 709.091 600.559 714.417 598.697 718.833C597.768 721.038 596.644 723.104 595.292 724.712C593.944 726.313 592.236 727.615 590.131 727.947C585.872 728.619 583.008 727.677 580.623 726.334C579.53 725.718 578.444 724.958 577.571 724.401C576.638 723.806 575.776 723.322 574.823 722.996C572.785 722.299 569.981 721.993 567.17 722.118C564.342 722.244 561.764 722.795 560.132 723.615C559.331 724.017 558.422 724.686 557.181 725.615C555.99 726.508 554.572 727.577 552.913 728.584C549.551 730.625 545.192 732.422 539.26 732.422C532.159 732.422 526.064 728.893 521.169 724.377C516.268 719.855 512.399 714.193 509.7 709.545C506.372 703.812 510.444 697.285 516.674 696.667C523.811 695.959 533.365 695.051 540.451 694.521Z" fill="url(#paint20_radial_408_6748)"/>
<path d="M540.451 694.521C553.365 693.557 568.247 693.558 584.011 694.52C588.194 694.775 592.318 695.215 595.62 695.686C600.066 696.32 603.135 700.276 602.447 704.781C601.789 709.091 600.559 714.417 598.697 718.833C597.768 721.038 596.644 723.104 595.292 724.712C593.944 726.313 592.236 727.615 590.131 727.947C585.872 728.619 583.008 727.677 580.623 726.334C579.53 725.718 578.444 724.958 577.571 724.401C576.638 723.806 575.776 723.322 574.823 722.996C572.785 722.299 569.981 721.993 567.17 722.118C564.342 722.244 561.764 722.795 560.132 723.615C559.331 724.017 558.422 724.686 557.181 725.615C555.99 726.508 554.572 727.577 552.913 728.584C549.551 730.625 545.192 732.422 539.26 732.422C532.159 732.422 526.064 728.893 521.169 724.377C516.268 719.855 512.399 714.193 509.7 709.545C506.372 703.812 510.444 697.285 516.674 696.667C523.811 695.959 533.365 695.051 540.451 694.521Z" fill="url(#paint21_radial_408_6748)"/>
<path d="M540.451 694.521C553.365 693.557 568.247 693.558 584.011 694.52C588.194 694.775 592.318 695.215 595.62 695.686C600.066 696.32 603.135 700.276 602.447 704.781C601.789 709.091 600.559 714.417 598.697 718.833C597.768 721.038 596.644 723.104 595.292 724.712C593.944 726.313 592.236 727.615 590.131 727.947C585.872 728.619 583.008 727.677 580.623 726.334C579.53 725.718 578.444 724.958 577.571 724.401C576.638 723.806 575.776 723.322 574.823 722.996C572.785 722.299 569.981 721.993 567.17 722.118C564.342 722.244 561.764 722.795 560.132 723.615C559.331 724.017 558.422 724.686 557.181 725.615C555.99 726.508 554.572 727.577 552.913 728.584C549.551 730.625 545.192 732.422 539.26 732.422C532.159 732.422 526.064 728.893 521.169 724.377C516.268 719.855 512.399 714.193 509.7 709.545C506.372 703.812 510.444 697.285 516.674 696.667C523.811 695.959 533.365 695.051 540.451 694.521Z" fill="url(#paint22_radial_408_6748)"/>
<path d="M540.451 694.521C553.365 693.557 568.247 693.558 584.011 694.52C588.194 694.775 592.318 695.215 595.62 695.686C600.066 696.32 603.135 700.276 602.447 704.781C601.789 709.091 600.559 714.417 598.697 718.833C597.768 721.038 596.644 723.104 595.292 724.712C593.944 726.313 592.236 727.615 590.131 727.947C585.872 728.619 583.008 727.677 580.623 726.334C579.53 725.718 578.444 724.958 577.571 724.401C576.638 723.806 575.776 723.322 574.823 722.996C572.785 722.299 569.981 721.993 567.17 722.118C564.342 722.244 561.764 722.795 560.132 723.615C559.331 724.017 558.422 724.686 557.181 725.615C555.99 726.508 554.572 727.577 552.913 728.584C549.551 730.625 545.192 732.422 539.26 732.422C532.159 732.422 526.064 728.893 521.169 724.377C516.268 719.855 512.399 714.193 509.7 709.545C506.372 703.812 510.444 697.285 516.674 696.667C523.811 695.959 533.365 695.051 540.451 694.521Z" stroke="#7B7FFF" style="stroke:#7B7FFF;stroke:color(display-p3 0.4815 0.4988 1.0000);stroke-opacity:1;" stroke-width="3.81261"/>
<path d="M568.8 723.961C575.33 723.961 580.624 726.773 580.624 730.242C580.624 731.922 579.382 733.447 577.359 734.574C576.745 734.917 576.442 735.641 576.442 736.345C576.442 738.929 573.848 741.025 570.647 741.025C567.447 741.025 564.852 738.929 564.852 736.345C564.852 736.241 564.781 736.15 564.679 736.13C560.181 735.241 556.975 732.941 556.975 730.242C556.975 726.773 562.269 723.961 568.8 723.961Z" fill="#C4C6FF" style="fill:#C4C6FF;fill:color(display-p3 0.7698 0.7775 1.0000);fill-opacity:1;"/>
<path d="M552.685 736.826C546.887 737.167 532.733 739.844 522.501 747.825" stroke="#C4C6FF" style="stroke:#C4C6FF;stroke:color(display-p3 0.7698 0.7775 1.0000);stroke-opacity:1;" stroke-width="2.85945" stroke-linecap="round"/>
<path d="M554.476 742.709C549.275 744.585 536.979 750.894 529.408 761.126" stroke="#C4C6FF" style="stroke:#C4C6FF;stroke:color(display-p3 0.7698 0.7775 1.0000);stroke-opacity:1;" stroke-width="2.85945" stroke-linecap="round"/>
</g>
<rect x="442.627" y="641.634" width="177.763" height="177.763" rx="85.3071" stroke="black" stroke-opacity="0.05" style="stroke:black;stroke-opacity:0.05;" stroke-width="0.953152"/>
</g>
</g>
<rect width="215" height="215" transform="translate(0 269.316)" fill="#F5B70A" style="fill:#F5B70A;fill:color(display-p3 0.9608 0.7176 0.0392);fill-opacity:1;"/>
<g clip-path="url(#clip9_408_6748)">
<rect x="13.75" y="286.967" width="187.5" height="187.5" rx="90" fill="black" style="fill:black;fill-opacity:1;"/>
<path d="M153.63 332.441C154.856 330.118 158.508 325.627 163.309 326.247C169.31 327.021 172.601 339.41 167.955 348.702L160.792 341.346L153.63 332.441Z" fill="#F5B70A" style="fill:#F5B70A;fill:color(display-p3 0.9608 0.7176 0.0392);fill-opacity:1;"/>
<path d="M80.147 476.865C52.7901 471.164 34.2904 454.424 28.3462 442.467C27.7372 441.242 27.9422 439.808 28.6974 438.668C36.9507 426.2 44.7394 404.004 46.2647 396.95C47.8666 389.541 49.5329 379.104 50.3673 372.597C46.8632 369.843 37.9258 359.725 42.3475 349.255C45.9927 340.624 55.3069 340.783 58.7485 341.816C62.5343 332.064 77.0508 312.852 105.084 312.852C140.125 312.852 157.038 337.358 160.383 343.738C163.059 348.842 166.662 373.727 168.129 385.531C170.557 397.182 163.954 404.016 159.015 406.779C157.825 407.444 156.908 408.54 156.36 409.789C153.736 415.78 145.675 421.646 141.533 423.303L144.571 471.892C144.627 472.781 144.41 473.683 143.78 474.314C135.636 482.46 103.071 481.643 80.147 476.865Z" fill="#F5B70A" style="fill:#F5B70A;fill:color(display-p3 0.9608 0.7176 0.0392);fill-opacity:1;"/>
<path d="M141.533 423.303L144.571 471.892C144.627 472.781 144.41 473.683 143.78 474.314C135.636 482.46 103.071 481.643 80.147 476.865C52.7901 471.164 34.2904 454.424 28.3462 442.467C27.7372 441.242 27.9422 439.808 28.6974 438.668C36.9507 426.2 44.7394 404.004 46.2647 396.95C47.8666 389.541 49.5329 379.104 50.3673 372.597M141.533 423.303C145.675 421.646 153.736 415.78 156.36 409.789C156.907 408.54 157.825 407.444 159.015 406.779C163.954 404.016 170.557 397.182 168.129 385.531C166.662 373.727 163.059 348.842 160.383 343.738C157.038 337.358 140.125 312.852 105.084 312.852C77.0508 312.852 62.5343 332.064 58.7485 341.816M141.533 423.303C138.423 424.161 140.322 424.952 132.61 424.952M58.7485 341.816C55.3069 340.783 45.9927 340.624 42.3475 349.255C37.9258 359.725 46.8632 369.843 50.3673 372.597M58.7485 341.816C62.1901 342.848 66.0101 344.46 68.917 346.591M50.3673 372.597C52.7958 374.405 59.9685 379.198 66.2951 382.309" stroke="black" style="stroke:black;stroke-opacity:1;" stroke-width="6" stroke-linecap="round"/>
<path d="M132.296 426.934C138.925 426.933 140.689 428.758 140.689 433.806" stroke="black" style="stroke:black;stroke-opacity:1;" stroke-width="3" stroke-linecap="round"/>
<path d="M139.51 427.913C132.723 429.481 119.088 428.026 110.394 424.016C109.369 423.543 110.11 421.636 111.237 421.717C119.42 422.305 133.363 422.185 139.51 420.855L139.51 427.913Z" fill="black" style="fill:black;fill-opacity:1;"/>
<path d="M163.511 387.338C167.805 387.338 178.057 388.465 184.712 392.974" stroke="black" style="stroke:black;stroke-opacity:1;" stroke-width="3" stroke-linecap="round"/>
<path d="M164.569 393.237C168.347 395.279 176.83 401.144 180.542 408.275" stroke="black" style="stroke:black;stroke-opacity:1;" stroke-width="3" stroke-linecap="round"/>
<path d="M163.511 387.338C167.805 387.338 178.057 388.465 184.712 392.974" stroke="#F5B70A" style="stroke:#F5B70A;stroke:color(display-p3 0.9608 0.7176 0.0392);stroke-opacity:1;" stroke-width="3" stroke-linecap="round"/>
<path d="M164.569 393.237C168.347 395.279 176.83 401.144 180.542 408.275" stroke="#F5B70A" style="stroke:#F5B70A;stroke:color(display-p3 0.9608 0.7176 0.0392);stroke-opacity:1;" stroke-width="3" stroke-linecap="round"/>
<path d="M116.882 344.114C130.431 343.102 146.045 343.104 162.584 344.112C169.268 344.52 175.845 345.381 179.45 346.13C181.323 346.519 182.606 348.221 182.461 350.131C182.141 354.337 180.873 361.099 178.721 367C177.645 369.949 176.313 372.786 174.698 375C173.112 377.176 171.038 379.039 168.409 379.454C163.978 380.153 160.921 379.255 158.409 377.841C157.218 377.17 156.154 376.384 155.229 375.723C154.27 375.036 153.433 374.461 152.531 374.023C150.799 373.184 148.226 372.794 145.483 372.908C142.754 373.022 140.15 373.622 138.411 374.495C137.55 374.928 136.531 375.65 135.14 376.643C133.801 377.597 132.209 378.731 130.362 379.801C126.638 381.958 121.854 383.878 115.633 383.878C106.456 383.878 98.8829 378.272 93.2363 371.956C87.5555 365.601 83.5268 358.201 81.4395 353.902C79.9255 350.784 82.0682 347.365 85.3438 347.03C92.2807 346.321 106.913 344.859 116.882 344.114Z" fill="black" stroke="#F5B70A" style="fill:black;fill-opacity:1;stroke:#F5B70A;stroke:color(display-p3 0.9608 0.7176 0.0392);stroke-opacity:1;" stroke-width="4"/>
<path d="M146.625 373.84C153.476 373.84 159.03 376.791 159.03 380.431C159.03 382.193 157.726 383.793 155.604 384.975C154.959 385.334 154.642 386.095 154.642 386.833C154.642 389.545 151.921 391.743 148.563 391.743C145.205 391.743 142.483 389.545 142.483 386.833C142.483 386.724 142.408 386.629 142.301 386.608C137.582 385.675 134.219 383.262 134.218 380.431C134.218 376.791 139.773 373.84 146.625 373.84Z" fill="black" style="fill:black;fill-opacity:1;"/>
<path d="M129.717 387.338C123.634 387.695 108.785 390.504 98.0498 398.877" stroke="black" style="stroke:black;stroke-opacity:1;" stroke-width="3" stroke-linecap="round"/>
<path d="M131.596 393.51C126.139 395.478 113.239 402.097 105.296 412.832" stroke="black" style="stroke:black;stroke-opacity:1;" stroke-width="3" stroke-linecap="round"/>
</g>
<rect width="215" height="215" transform="translate(248.5 269.316)" fill="#F5B70A" style="fill:#F5B70A;fill:color(display-p3 0.9608 0.7176 0.0392);fill-opacity:1;"/>
<g clip-path="url(#clip10_408_6748)">
<rect x="262.25" y="286.967" width="187.5" height="187.5" rx="90" fill="black" style="fill:black;fill-opacity:1;"/>
<path d="M402.13 332.441C403.356 330.118 407.008 325.627 411.809 326.247C417.81 327.021 421.101 339.41 416.455 348.702L409.292 341.346L402.13 332.441Z" fill="#F5B70A" style="fill:#F5B70A;fill:color(display-p3 0.9608 0.7176 0.0392);fill-opacity:1;"/>
<path d="M328.647 476.865C301.29 471.164 282.79 454.424 276.846 442.467C276.237 441.242 276.442 439.808 277.197 438.668C285.451 426.2 293.239 404.004 294.765 396.95C296.367 389.541 298.033 379.104 298.867 372.597C295.363 369.843 286.426 359.725 290.848 349.255C294.493 340.624 303.807 340.783 307.249 341.816C311.034 332.064 325.551 312.852 353.584 312.852C388.625 312.852 405.538 337.358 408.883 343.738C411.559 348.842 415.162 373.727 416.629 385.531C419.057 397.182 412.454 404.016 407.515 406.779C406.325 407.444 405.408 408.54 404.86 409.789C402.236 415.78 394.175 421.646 390.033 423.303L393.071 471.892C393.127 472.781 392.91 473.683 392.28 474.314C384.136 482.46 351.571 481.643 328.647 476.865Z" fill="#F5B70A" style="fill:#F5B70A;fill:color(display-p3 0.9608 0.7176 0.0392);fill-opacity:1;"/>
<path d="M387.856 433.603C387.856 431.177 387.415 430.05 386.671 429.412C385.846 428.706 384.246 428.229 380.964 428.229C380.135 428.229 379.464 427.558 379.464 426.729C379.464 425.901 380.135 425.23 380.964 425.229C384.31 425.229 386.907 425.666 388.622 427.134C390.416 428.67 390.856 430.981 390.856 433.603C390.856 434.431 390.184 435.103 389.356 435.103C388.528 435.102 387.856 434.431 387.856 433.603Z" fill="black" style="fill:black;fill-opacity:1;"/>
<path d="M353.583 309.852C390.207 309.852 407.938 335.475 411.54 342.345C412.418 344.019 413.215 346.909 413.941 350.095C414.695 353.407 415.454 357.426 416.167 361.618C417.587 369.958 418.853 379.115 419.592 385.052C422.287 398.284 414.666 406.216 408.98 409.396C408.434 409.702 407.93 410.26 407.609 410.993C406.03 414.596 402.963 417.914 399.954 420.461C397.692 422.376 395.262 424.023 393.153 425.144L396.065 471.705C396.154 473.139 395.832 475.004 394.402 476.435C391.738 479.1 387.466 480.726 382.765 481.752C377.95 482.803 372.187 483.325 366.06 483.436C353.8 483.656 339.705 482.234 328.035 479.802C299.906 473.94 280.568 456.693 274.159 443.803C272.987 441.444 273.466 438.869 274.696 437.012C278.652 431.035 282.572 422.594 285.715 414.673C288.861 406.744 291.121 399.608 291.832 396.316C293.288 389.585 294.802 380.267 295.678 373.8C293.672 371.92 291.094 368.894 289.209 365.176C286.851 360.523 285.412 354.415 288.084 348.088C290.321 342.793 294.375 340.139 298.307 339.025C300.855 338.304 303.39 338.213 305.455 338.432C310.737 327.47 326.019 309.852 353.583 309.852ZM353.583 315.852C329.694 315.852 316.289 330.607 311.353 340.048C314.071 341.089 316.856 342.461 319.191 344.172C320.527 345.151 320.816 347.029 319.836 348.365C318.857 349.701 316.979 349.99 315.643 349.011C313.111 347.155 309.643 345.667 306.386 344.689C305.171 344.325 302.566 344.055 299.942 344.798C297.445 345.505 295.02 347.087 293.612 350.423C291.862 354.566 292.679 358.751 294.561 362.464C296.45 366.191 299.241 369.067 300.698 370.219C303.059 371.971 310.031 376.623 316.119 379.617C317.606 380.348 318.218 382.146 317.488 383.633C316.756 385.12 314.958 385.732 313.471 385.001C309.188 382.894 304.562 380.061 301.17 377.829C300.26 384.044 298.963 391.729 297.697 397.584C296.883 401.348 294.485 408.836 291.292 416.885C288.096 424.942 283.995 433.832 279.698 440.323C279.418 440.748 279.487 441.041 279.532 441.132C285.012 452.155 302.675 468.388 329.259 473.928C340.514 476.273 354.163 477.649 365.952 477.437C371.849 477.33 377.188 476.828 381.486 475.89C385.81 474.946 388.635 473.651 390.071 472.273C390.071 472.267 390.074 472.26 390.074 472.253C390.079 472.208 390.081 472.15 390.076 472.079L387.292 427.554C385.953 427.841 384.113 427.952 381.11 427.952C379.453 427.952 378.11 426.609 378.11 424.952C378.11 423.295 379.453 421.952 381.11 421.952C385.006 421.952 385.976 421.732 386.313 421.615C386.49 421.554 386.479 421.542 387.042 421.253C387.541 420.997 388.143 420.728 389.03 420.47C390.725 419.767 393.44 418.115 396.077 415.882C398.791 413.584 401.067 410.973 402.113 408.585C402.886 406.82 404.216 405.186 406.051 404.16C410.223 401.826 415.774 396.132 413.693 386.143L413.667 386.022L413.653 385.9C412.923 380.029 411.661 370.903 410.252 362.625C409.547 358.483 408.811 354.586 408.091 351.428C407.343 348.143 406.686 346.008 406.226 345.131C403.137 339.241 387.04 315.852 353.583 315.852Z" fill="black" style="fill:black;fill-opacity:1;"/>
<path d="M388.01 427.913C381.223 429.481 367.588 428.026 358.894 424.016C357.869 423.543 358.61 421.636 359.737 421.717C367.92 422.305 381.863 422.185 388.01 420.855L388.01 427.913Z" fill="black" style="fill:black;fill-opacity:1;"/>
<path d="M412.011 387.338C416.305 387.338 426.557 388.465 433.212 392.974" stroke="black" style="stroke:black;stroke-opacity:1;" stroke-width="3" stroke-linecap="round"/>
<path d="M413.069 393.237C416.847 395.279 425.33 401.144 429.042 408.275" stroke="black" style="stroke:black;stroke-opacity:1;" stroke-width="3" stroke-linecap="round"/>
<path d="M412.011 385.838C414.263 385.838 418.005 386.131 422.042 386.999C426.065 387.864 430.501 389.325 434.053 391.731C434.739 392.196 434.919 393.129 434.455 393.814C433.99 394.5 433.057 394.68 432.372 394.216C429.268 392.114 425.25 390.757 421.411 389.932C417.584 389.109 414.054 388.838 412.011 388.838C411.183 388.838 410.511 388.166 410.511 387.338C410.511 386.509 411.183 385.838 412.011 385.838Z" fill="#F5B70A" style="fill:#F5B70A;fill:color(display-p3 0.9608 0.7176 0.0392);fill-opacity:1;"/>
<path d="M413.782 391.917C415.763 392.988 418.916 395.025 422.054 397.707C425.183 400.381 428.391 403.776 430.372 407.582C430.754 408.316 430.469 409.222 429.735 409.605C429 409.987 428.094 409.702 427.711 408.968C425.98 405.643 423.091 402.539 420.105 399.988C417.13 397.445 414.153 395.528 412.356 394.557C411.627 394.163 411.356 393.253 411.749 392.524C412.143 391.795 413.053 391.523 413.782 391.917Z" fill="#F5B70A" style="fill:#F5B70A;fill:color(display-p3 0.9608 0.7176 0.0392);fill-opacity:1;"/>
<path d="M331.738 353.029C330.869 351.238 332.066 349.222 334.047 349.02C340.986 348.31 355.593 346.851 365.531 346.109C378.972 345.104 394.494 345.104 410.962 346.109C417.582 346.512 424.059 347.363 427.544 348.088C428.433 348.273 429.036 349.073 428.967 349.979C428.353 358.048 424.036 376.305 416.597 377.479C408.688 378.727 406.185 374.3 401.904 372.224C397.623 370.147 390.139 370.636 386.013 372.707C381.887 374.779 375.688 381.878 364.133 381.878C347.473 381.878 335.843 361.481 331.738 353.029Z" fill="black" style="fill:black;fill-opacity:1;"/>
<path d="M365.233 342.12C378.89 341.1 394.596 341.103 411.206 342.116C417.955 342.528 424.632 343.397 428.357 344.172C431.212 344.765 433.177 347.369 432.955 350.282C432.622 354.66 431.318 361.602 429.1 367.684C427.992 370.722 426.582 373.752 424.814 376.178C423.101 378.526 420.618 380.893 417.221 381.43C412.311 382.204 408.803 381.201 405.928 379.583C404.619 378.846 403.454 377.984 402.565 377.348C401.606 376.662 400.891 376.178 400.158 375.822C398.835 375.18 396.629 374.799 394.066 374.906C391.528 375.012 389.223 375.572 387.809 376.282C387.117 376.629 386.242 377.244 384.801 378.271C383.465 379.224 381.802 380.408 379.864 381.531C375.927 383.813 370.798 385.878 364.133 385.878C354.109 385.878 346.035 379.766 340.245 373.289C334.387 366.736 330.263 359.148 328.141 354.776C325.982 350.331 329.069 345.507 333.64 345.04L340.096 344.389C347.613 343.643 357.733 342.68 365.233 342.12ZM410.962 346.108C394.494 345.104 378.973 345.104 365.531 346.108L361.609 346.418C352.061 347.204 340.119 348.398 334.047 349.019C332.067 349.222 330.869 351.237 331.738 353.028C335.778 361.348 347.112 381.243 363.355 381.863L364.133 381.878C375.688 381.878 381.887 374.779 386.013 372.707C390.138 370.635 397.623 370.147 401.904 372.223C406.185 374.3 408.689 378.726 416.597 377.478C424.036 376.304 428.353 358.047 428.967 349.978C429.031 349.129 428.506 348.373 427.707 348.13L427.544 348.088C424.059 347.363 417.581 346.512 410.962 346.108Z" fill="#F5B70A" style="fill:#F5B70A;fill:color(display-p3 0.9608 0.7176 0.0392);fill-opacity:1;"/>
<path d="M395.125 373.84C401.976 373.84 407.53 376.791 407.53 380.431C407.53 382.193 406.226 383.793 404.104 384.975C403.459 385.334 403.142 386.095 403.142 386.833C403.142 389.545 400.421 391.743 397.063 391.743C393.705 391.743 390.983 389.545 390.983 386.833C390.983 386.724 390.908 386.629 390.801 386.608C386.082 385.675 382.72 383.262 382.719 380.431C382.719 376.791 388.273 373.84 395.125 373.84Z" fill="black" style="fill:black;fill-opacity:1;"/>
<path d="M378.13 385.84C378.957 385.792 379.666 386.423 379.715 387.25C379.763 388.077 379.133 388.786 378.306 388.835C372.385 389.183 357.876 391.944 347.473 400.059C346.82 400.569 345.877 400.452 345.367 399.799C344.858 399.146 344.974 398.204 345.627 397.694C356.693 389.062 371.884 386.208 378.13 385.84Z" fill="black" style="fill:black;fill-opacity:1;"/>
<path d="M379.587 392.099C380.366 391.818 381.226 392.222 381.507 393.001C381.788 393.781 381.384 394.64 380.604 394.921C375.307 396.832 362.707 403.312 355.002 413.725C354.509 414.391 353.569 414.531 352.903 414.039C352.237 413.546 352.097 412.606 352.59 411.94C360.772 400.883 373.97 394.125 379.587 392.099Z" fill="black" style="fill:black;fill-opacity:1;"/>
</g>
<path d="M63.8157 542.312H66.7757V547.792H80.4957V550.592H66.7757V557.672H82.6157V560.472H69.4157C72.0957 565.512 76.7357 569.992 83.2957 573.952L81.2957 576.512C74.4957 571.712 69.7357 566.392 67.0957 560.472H66.7757V578.712H63.8157V560.472H63.4557C60.5757 567.032 55.7357 572.392 48.9357 576.632L47.2957 573.952C53.6957 570.432 58.3357 565.952 61.2157 560.472H47.9757V557.672H63.8157V550.592H50.3757V547.792H63.8157V542.312ZM94.9757 553.152H97.7357V559.232H102.176V561.832H97.7357V567.312C99.6957 566.912 101.536 566.472 103.296 566.032V568.752C101.496 569.232 99.6557 569.712 97.7357 570.112V578.792H94.9757V570.672C92.4957 571.112 89.9357 571.512 87.2157 571.872L86.8557 569.032C89.7357 568.672 92.4157 568.272 94.9757 567.832V561.832H88.2557L87.6557 559.272C88.8157 556.872 89.8957 553.872 90.8957 550.192H86.8957V547.392H91.6157C92.0157 545.712 92.3757 543.912 92.7757 542.072L95.4957 542.472C95.1357 544.192 94.7757 545.832 94.4157 547.392H102.016V550.192H93.6957C92.7357 553.632 91.6957 556.632 90.5757 559.232H94.9757V553.152ZM103.856 547.392H110.136C110.456 545.632 110.776 543.832 111.096 541.992L113.936 542.272C113.616 544.032 113.336 545.752 113.016 547.392H122.736V550.192H112.456L111.416 554.792H123.736V557.552H110.736C110.256 559.392 109.736 561.072 109.216 562.632H121.976V565.032C120.616 567.752 118.536 570.472 115.696 573.192C117.336 574.192 118.896 575.232 120.376 576.352L118.776 578.792C114.616 575.592 110.336 573.032 105.936 571.192L107.456 568.912C109.536 569.792 111.496 570.792 113.336 571.832C115.736 569.712 117.616 567.512 119.016 565.192H105.616C106.416 562.712 107.176 560.192 107.856 557.552H102.696V554.792H108.536C108.896 553.232 109.256 551.712 109.576 550.192H103.856V547.392ZM160.736 549.032V578.752H157.976V576.712H132.616V578.752H129.856V549.032H139.256V542.072H142.136V549.032H148.336V542.072H151.216V549.032H160.736ZM132.616 573.952H139.256V563.752H132.616V573.952ZM142.136 563.752V573.952H148.336V563.752H142.136ZM151.216 563.752V573.952H157.976V563.752H151.216ZM132.616 561.032H139.256V551.832H132.616V561.032ZM142.136 551.832V561.032H148.336V551.832H142.136ZM151.216 551.832V561.032H157.976V551.832H151.216Z" fill="white" style="fill:white;fill-opacity:1;"/>
<path d="M335.784 560.272H310.664V572.072C310.664 573.832 311.584 574.752 313.424 574.752H333.504C334.464 574.752 335.264 574.512 335.864 574.032C336.664 573.312 337.184 570.752 337.424 566.352L340.224 567.232C339.824 572.192 339.144 575.152 338.184 576.192C337.304 577.032 335.984 577.472 334.304 577.552H312.624C309.384 577.552 307.784 575.872 307.784 572.592V551.592H310.664V557.512H332.864V547.072H306.184V544.272H335.784V560.272ZM352.064 553.152H354.824V559.232H359.264V561.832H354.824V567.312C356.784 566.912 358.624 566.472 360.384 566.032V568.752C358.584 569.232 356.744 569.712 354.824 570.112V578.792H352.064V570.672C349.584 571.112 347.024 571.512 344.304 571.872L343.944 569.032C346.824 568.672 349.504 568.272 352.064 567.832V561.832H345.344L344.744 559.272C345.904 556.872 346.984 553.872 347.984 550.192H343.984V547.392H348.704C349.104 545.712 349.464 543.912 349.864 542.072L352.584 542.472C352.224 544.192 351.864 545.832 351.504 547.392H359.104V550.192H350.784C349.824 553.632 348.784 556.632 347.664 559.232H352.064V553.152ZM360.944 547.392H367.224C367.544 545.632 367.864 543.832 368.184 541.992L371.024 542.272C370.704 544.032 370.424 545.752 370.104 547.392H379.824V550.192H369.544L368.504 554.792H380.824V557.552H367.824C367.344 559.392 366.824 561.072 366.304 562.632H379.064V565.032C377.704 567.752 375.624 570.472 372.784 573.192C374.424 574.192 375.984 575.232 377.464 576.352L375.864 578.792C371.704 575.592 367.424 573.032 363.024 571.192L364.544 568.912C366.624 569.792 368.584 570.792 370.424 571.832C372.824 569.712 374.704 567.512 376.104 565.192H362.704C363.504 562.712 364.264 560.192 364.944 557.552H359.784V554.792H365.624C365.984 553.232 366.344 551.712 366.664 550.192H360.944V547.392ZM417.824 549.032V578.752H415.064V576.712H389.704V578.752H386.944V549.032H396.344V542.072H399.224V549.032H405.424V542.072H408.304V549.032H417.824ZM389.704 573.952H396.344V563.752H389.704V573.952ZM399.224 563.752V573.952H405.424V563.752H399.224ZM408.304 563.752V573.952H415.064V563.752H408.304ZM389.704 561.032H396.344V551.832H389.704V561.032ZM399.224 551.832V561.032H405.424V551.832H399.224ZM408.304 551.832V561.032H415.064V551.832H408.304Z" fill="white" style="fill:white;fill-opacity:1;"/>
<path d="M633.246 279.76V291.802H629.358V283.486H591.342V291.802H587.454V279.76H608.676C607.92 277.816 607.11 276.088 606.246 274.522L610.674 273.766C611.43 275.548 612.186 277.546 612.888 279.76H633.246ZM595.77 289.318H624.768V292.936C621.258 295.42 617.316 297.796 612.996 300.172V303.79H634.272V307.57H612.996V319.018C612.996 321.988 611.43 323.5 608.298 323.5H601.656L600.738 319.936C602.628 319.99 604.68 320.044 606.948 320.044C608.352 320.044 609.054 319.234 609.054 317.668V307.57H586.482V303.79H609.054V298.498C613.428 296.23 616.722 294.34 618.936 292.936H595.77V289.318ZM646.044 294.61C644.37 297.04 642.534 299.362 640.59 301.576L639.456 297.688C645.072 290.776 649.122 282.892 651.606 273.982L655.116 275.602C653.712 280.084 651.984 284.35 649.878 288.346V323.77H646.044V294.61ZM654.198 283.432H668.508V274.144H672.342V283.432H687.084V287.212H676.068C678.552 296.122 682.926 304.06 689.19 311.026L686.652 314.212C680.064 306.22 675.474 297.202 672.99 287.212H672.342V308.866H680.712V312.592H672.342V323.716H668.508V312.592H660.246V308.866H668.508V287.212H667.86C665.16 298.444 660.462 307.678 653.82 314.86L651.822 311.512C657.87 305.248 662.136 297.148 664.728 287.212H654.198V283.432ZM704.85 285.43C705.768 285.43 706.578 285.754 707.226 286.456C707.874 287.05 708.198 287.806 708.198 288.778C708.198 289.696 707.874 290.452 707.226 291.1C706.578 291.748 705.768 292.072 704.85 292.072C703.878 292.072 703.122 291.748 702.474 291.1C701.826 290.452 701.556 289.696 701.556 288.778C701.556 287.806 701.826 287.05 702.474 286.456C703.122 285.754 703.878 285.43 704.85 285.43ZM704.85 305.194C705.768 305.194 706.578 305.518 707.226 306.22C707.874 306.814 708.198 307.57 708.198 308.542C708.198 309.46 707.874 310.216 707.226 310.864C706.578 311.512 705.768 311.836 704.85 311.836C703.878 311.836 703.122 311.512 702.474 310.864C701.826 310.216 701.556 309.46 701.556 308.542C701.556 307.57 701.826 306.814 702.474 306.22C703.122 305.518 703.878 305.194 704.85 305.194ZM749.238 279.76H765.006C773.862 279.76 778.29 283.54 778.29 291.1C778.29 298.714 773.808 302.548 764.952 302.548H753.666V318.316H749.238V279.76ZM753.666 283.594V298.714H764.736C767.868 298.714 770.136 298.066 771.648 296.824C773.106 295.582 773.862 293.692 773.862 291.1C773.862 288.508 773.106 286.618 771.594 285.484C770.082 284.188 767.814 283.594 764.736 283.594H753.666ZM786.909 279.868C787.827 279.868 788.583 280.138 789.231 280.786C789.879 281.326 790.203 282.082 790.203 283.054C790.203 283.972 789.879 284.728 789.231 285.376C788.583 285.97 787.827 286.294 786.909 286.294C785.991 286.294 785.235 285.97 784.587 285.376C783.939 284.728 783.669 283.972 783.669 283.054C783.669 282.082 783.939 281.326 784.587 280.786C785.235 280.138 785.991 279.868 786.909 279.868ZM784.749 290.398H789.069V318.316H784.749V290.398ZM804.613 281.38V290.398H811.525V294.016H804.613V311.782C804.613 312.808 804.775 313.564 805.207 313.996C805.585 314.428 806.287 314.698 807.259 314.698H810.823V318.316H806.611C804.343 318.316 802.669 317.722 801.697 316.534C800.779 315.454 800.347 313.888 800.347 311.782V294.016H794.731V290.398H800.347V283.162L804.613 281.38ZM813.278 290.398H818.03L826.022 312.916L834.014 290.398H838.766L828.182 318.316H823.808L813.278 290.398ZM845.971 279.868C846.889 279.868 847.645 280.138 848.293 280.786C848.941 281.326 849.265 282.082 849.265 283.054C849.265 283.972 848.941 284.728 848.293 285.376C847.645 285.97 846.889 286.294 845.971 286.294C845.053 286.294 844.297 285.97 843.649 285.376C843.001 284.728 842.731 283.972 842.731 283.054C842.731 282.082 843.001 281.326 843.649 280.786C844.297 280.138 845.053 279.868 845.971 279.868ZM843.811 290.398H848.131V318.316H843.811V290.398ZM869.561 289.642C873.557 289.642 876.743 291.1 879.065 294.124C881.171 296.824 882.251 300.226 882.251 304.438C882.251 308.542 881.171 311.944 879.119 314.644C876.851 317.56 873.773 319.072 869.777 319.072C865.781 319.072 862.703 317.128 860.543 313.24V329.008H856.223V290.398H860.273V294.988C862.271 291.424 865.349 289.642 869.561 289.642ZM869.021 293.206C866.213 293.206 863.999 294.286 862.487 296.5C861.083 298.444 860.381 301.036 860.381 304.168V304.708C860.381 307.948 861.137 310.54 862.757 312.538C864.269 314.482 866.267 315.508 868.859 315.508C871.883 315.508 874.151 314.428 875.717 312.376C877.121 310.432 877.823 307.786 877.823 304.438C877.823 301.144 877.121 298.498 875.825 296.554C874.259 294.286 871.991 293.206 869.021 293.206ZM899.366 289.642C903.848 289.642 907.25 291.154 909.518 294.178C911.57 296.878 912.65 300.712 912.758 305.572H890.726C890.942 308.704 891.752 311.134 893.264 312.862C894.776 314.59 896.882 315.454 899.528 315.454C901.796 315.454 903.686 314.86 905.09 313.726C906.278 312.754 907.196 311.296 907.898 309.352H912.218C911.57 312.052 910.328 314.212 908.438 315.94C906.116 317.992 903.146 319.072 899.528 319.072C895.532 319.072 892.292 317.722 889.916 315.13C887.432 312.43 886.244 308.866 886.244 304.33C886.244 300.226 887.378 296.77 889.754 294.016C892.13 291.1 895.316 289.642 899.366 289.642ZM899.474 293.26C896.99 293.26 894.992 294.07 893.48 295.69C891.968 297.31 891.104 299.47 890.834 302.224H908.276C907.736 296.23 904.766 293.26 899.474 293.26ZM930.075 289.642C931.587 289.642 932.883 289.858 933.909 290.29V294.61C932.505 294.178 931.101 294.016 929.751 294.016C927.591 294.016 925.755 294.934 924.297 296.878C922.785 298.714 922.083 300.928 922.083 303.52V318.316H917.817V290.398H922.083V295.258C922.839 293.638 923.811 292.342 924.999 291.424C926.457 290.236 928.131 289.642 930.075 289.642Z" fill="white" style="fill:white;fill-opacity:1;"/>
<defs>
<filter id="filter0_f_408_6748" x="147.662" y="556.187" width="346.452" height="346.452" filterUnits="userSpaceOnUse" color-interpolation-filters="sRGB">
<feFlood flood-opacity="0" result="BackgroundImageFix"/>
<feBlend mode="normal" in="SourceGraphic" in2="BackgroundImageFix" result="shape"/>
<feGaussianBlur stdDeviation="28.4742" result="effect1_foregroundBlur_408_6748"/>
</filter>
<filter id="filter1_f_408_6748" x="158.736" y="560.304" width="336.421" height="336.421" filterUnits="userSpaceOnUse" color-interpolation-filters="sRGB">
<feFlood flood-opacity="0" result="BackgroundImageFix"/>
<feBlend mode="normal" in="SourceGraphic" in2="BackgroundImageFix" result="shape"/>
<feGaussianBlur stdDeviation="28.4742" result="effect1_foregroundBlur_408_6748"/>
</filter>
<filter id="filter2_f_408_6748" x="357.55" y="549.886" width="347.917" height="347.916" filterUnits="userSpaceOnUse" color-interpolation-filters="sRGB">
<feFlood flood-opacity="0" result="BackgroundImageFix"/>
<feBlend mode="normal" in="SourceGraphic" in2="BackgroundImageFix" result="shape"/>
<feGaussianBlur stdDeviation="28.5945" result="effect1_foregroundBlur_408_6748"/>
</filter>
<filter id="filter3_f_408_6748" x="368.672" y="554.019" width="337.843" height="337.843" filterUnits="userSpaceOnUse" color-interpolation-filters="sRGB">
<feFlood flood-opacity="0" result="BackgroundImageFix"/>
<feBlend mode="normal" in="SourceGraphic" in2="BackgroundImageFix" result="shape"/>
<feGaussianBlur stdDeviation="28.5945" result="effect1_foregroundBlur_408_6748"/>
</filter>
<linearGradient id="paint0_linear_408_6748" x1="270.781" y1="659.799" x2="333.865" y2="713.576" gradientUnits="userSpaceOnUse">
<stop stop-color="#3C87DA" style="stop-color:#3C87DA;stop-color:color(display-p3 0.2347 0.5289 0.8545);stop-opacity:1;"/>
<stop offset="1" stop-color="#204874" stop-opacity="0" style="stop-color:none;stop-opacity:0;"/>
</linearGradient>
<linearGradient id="paint1_linear_408_6748" x1="254.145" y1="657.46" x2="307.831" y2="715.939" gradientUnits="userSpaceOnUse">
<stop stop-color="#3E97F9" style="stop-color:#3E97F9;stop-color:color(display-p3 0.2419 0.5913 0.9782);stop-opacity:1;"/>
<stop offset="1" stop-color="#B3D5FA" style="stop-color:#B3D5FA;stop-color:color(display-p3 0.7011 0.8341 0.9814);stop-opacity:1;"/>
</linearGradient>
<linearGradient id="paint2_linear_408_6748" x1="279.005" y1="661.907" x2="339.364" y2="713.361" gradientUnits="userSpaceOnUse">
<stop stop-color="#3C87DA" style="stop-color:#3C87DA;stop-color:color(display-p3 0.2347 0.5289 0.8545);stop-opacity:1;"/>
<stop offset="1" stop-color="#204874" stop-opacity="0" style="stop-color:none;stop-opacity:0;"/>
</linearGradient>
<linearGradient id="paint3_linear_408_6748" x1="263.088" y1="659.67" x2="314.454" y2="715.622" gradientUnits="userSpaceOnUse">
<stop stop-color="#F9D13E" style="stop-color:#F9D13E;stop-color:color(display-p3 0.9782 0.8186 0.2419);stop-opacity:1;"/>
<stop offset="1" stop-color="#A99449" style="stop-color:#A99449;stop-color:color(display-p3 0.6613 0.5812 0.2867);stop-opacity:1;"/>
</linearGradient>
<linearGradient id="paint4_linear_408_6748" x1="372.511" y1="679.556" x2="372.511" y2="700.924" gradientUnits="userSpaceOnUse">
<stop stop-color="#635F4D" style="stop-color:#635F4D;stop-color:color(display-p3 0.3882 0.3725 0.3020);stop-opacity:1;"/>
<stop offset="1" stop-color="#7B6F45" style="stop-color:#7B6F45;stop-color:color(display-p3 0.4824 0.4353 0.2706);stop-opacity:1;"/>
</linearGradient>
<linearGradient id="paint5_linear_408_6748" x1="274.992" y1="706.34" x2="274.449" y2="819.295" gradientUnits="userSpaceOnUse">
<stop stop-color="#375C84" style="stop-color:#375C84;stop-color:color(display-p3 0.2157 0.3608 0.5176);stop-opacity:1;"/>
<stop offset="0.802658" stop-color="#0E1113" style="stop-color:#0E1113;stop-color:color(display-p3 0.0534 0.0660 0.0744);stop-opacity:1;"/>
</linearGradient>
<linearGradient id="paint6_linear_408_6748" x1="311.918" y1="788.817" x2="364.524" y2="736.737" gradientUnits="userSpaceOnUse">
<stop offset="0.299635" stop-color="#375C84" stop-opacity="0" style="stop-color:none;stop-opacity:0;"/>
<stop offset="0.519103" stop-color="#403D2A" stop-opacity="0.5" style="stop-color:#403D2A;stop-color:color(display-p3 0.2510 0.2392 0.1647);stop-opacity:0.5;"/>
<stop offset="1" stop-color="#A5863E" style="stop-color:#A5863E;stop-color:color(display-p3 0.6471 0.5255 0.2431);stop-opacity:1;"/>
</linearGradient>
<linearGradient id="paint7_linear_408_6748" x1="262.121" y1="692.37" x2="378.926" y2="738.585" gradientUnits="userSpaceOnUse">
<stop offset="0.198653" stop-color="#375C84" stop-opacity="0" style="stop-color:none;stop-opacity:0;"/>
<stop offset="0.445733" stop-color="#403D2A" stop-opacity="0.5" style="stop-color:#403D2A;stop-color:color(display-p3 0.2510 0.2392 0.1647);stop-opacity:0.5;"/>
<stop offset="1" stop-color="#A5863E" style="stop-color:#A5863E;stop-color:color(display-p3 0.6471 0.5255 0.2431);stop-opacity:1;"/>
</linearGradient>
<linearGradient id="paint8_linear_408_6748" x1="390.214" y1="717.293" x2="296.312" y2="714.702" gradientUnits="userSpaceOnUse">
<stop stop-color="#998344" style="stop-color:#998344;stop-color:color(display-p3 0.6017 0.5143 0.2676);stop-opacity:1;"/>
<stop offset="1" stop-color="#365B82" style="stop-color:#365B82;stop-color:color(display-p3 0.2118 0.3569 0.5098);stop-opacity:1;"/>
</linearGradient>
<linearGradient id="paint9_linear_408_6748" x1="481.19" y1="653.936" x2="544.541" y2="707.939" gradientUnits="userSpaceOnUse">
<stop stop-color="#3C87DA" style="stop-color:#3C87DA;stop-color:color(display-p3 0.2347 0.5289 0.8545);stop-opacity:1;"/>
<stop offset="1" stop-color="#204874" stop-opacity="0" style="stop-color:none;stop-opacity:0;"/>
</linearGradient>
<linearGradient id="paint10_linear_408_6748" x1="464.484" y1="651.587" x2="518.397" y2="710.313" gradientUnits="userSpaceOnUse">
<stop stop-color="#D9AEB7" style="stop-color:#D9AEB7;stop-color:color(display-p3 0.8522 0.6822 0.7176);stop-opacity:1;"/>
<stop offset="1" stop-color="#B3D5FA" style="stop-color:#B3D5FA;stop-color:color(display-p3 0.7011 0.8341 0.9814);stop-opacity:1;"/>
</linearGradient>
<linearGradient id="paint11_linear_408_6748" x1="489.449" y1="656.052" x2="550.062" y2="707.723" gradientUnits="userSpaceOnUse">
<stop stop-color="#3C87DA" style="stop-color:#3C87DA;stop-color:color(display-p3 0.2347 0.5289 0.8545);stop-opacity:1;"/>
<stop offset="1" stop-color="#204874" stop-opacity="0" style="stop-color:none;stop-opacity:0;"/>
</linearGradient>
<linearGradient id="paint12_linear_408_6748" x1="473.464" y1="653.805" x2="525.048" y2="709.994" gradientUnits="userSpaceOnUse">
<stop stop-color="#A78EFF" style="stop-color:#A78EFF;stop-color:color(display-p3 0.6543 0.5575 1.0000);stop-opacity:1;"/>
<stop offset="1" stop-color="#A99449" style="stop-color:#A99449;stop-color:color(display-p3 0.6613 0.5812 0.2867);stop-opacity:1;"/>
</linearGradient>
<radialGradient id="paint13_radial_408_6748" cx="0" cy="0" r="1" gradientTransform="matrix(38.759 87.6549 -74.8749 187.388 445.594 671.074)" gradientUnits="userSpaceOnUse">
<stop stop-color="#FFCCC1" style="stop-color:#FFCCC1;stop-color:color(display-p3 1.0000 0.8000 0.7569);stop-opacity:1;"/>
<stop offset="1" stop-color="#FFCCC1" stop-opacity="0" style="stop-color:none;stop-opacity:0;"/>
</radialGradient>
<radialGradient id="paint14_radial_408_6748" cx="0" cy="0" r="1" gradientTransform="matrix(-116.853 165.478 -165.478 -677.233 620.867 641.157)" gradientUnits="userSpaceOnUse">
<stop stop-color="#CFAFFF" style="stop-color:#CFAFFF;stop-color:color(display-p3 0.8118 0.6863 1.0000);stop-opacity:1;"/>
<stop offset="1" stop-color="#CFAFFF" stop-opacity="0" style="stop-color:none;stop-opacity:0;"/>
</radialGradient>
<radialGradient id="paint15_radial_408_6748" cx="0" cy="0" r="1" gradientTransform="matrix(-125.932 -212.006 41.0599 -131.34 559.003 819.873)" gradientUnits="userSpaceOnUse">
<stop stop-color="#8EB2FF" style="stop-color:#8EB2FF;stop-color:color(display-p3 0.5569 0.6980 1.0000);stop-opacity:1;"/>
<stop offset="1" stop-color="#8EB2FF" stop-opacity="0" style="stop-color:none;stop-opacity:0;"/>
</radialGradient>
<radialGradient id="paint16_radial_408_6748" cx="0" cy="0" r="1" gradientTransform="matrix(41.9713 -155.438 45.9409 66.2656 490.912 763.499)" gradientUnits="userSpaceOnUse">
<stop stop-color="#95FFFA" stop-opacity="0.7" style="stop-color:#95FFFA;stop-color:color(display-p3 0.5843 1.0000 0.9804);stop-opacity:0.7;"/>
<stop offset="1" stop-color="#95FFFA" stop-opacity="0" style="stop-color:none;stop-opacity:0;"/>
</radialGradient>
<linearGradient id="paint17_linear_408_6748" x1="485.419" y1="705.44" x2="484.874" y2="818.872" gradientUnits="userSpaceOnUse">
<stop stop-color="#2D44C7" style="stop-color:#2D44C7;stop-color:color(display-p3 0.1757 0.2664 0.7800);stop-opacity:1;"/>
<stop offset="0.802658" stop-color="#0E1113" style="stop-color:#0E1113;stop-color:color(display-p3 0.0534 0.0660 0.0744);stop-opacity:1;"/>
</linearGradient>
<linearGradient id="paint18_linear_408_6748" x1="522.501" y1="788.265" x2="575.33" y2="735.964" gradientUnits="userSpaceOnUse">
<stop offset="0.299635" stop-color="#375C84" stop-opacity="0" style="stop-color:none;stop-opacity:0;"/>
<stop offset="0.519103" stop-color="#403D2A" stop-opacity="0.5" style="stop-color:#403D2A;stop-color:color(display-p3 0.2510 0.2392 0.1647);stop-opacity:0.5;"/>
<stop offset="1" stop-color="#A5863E" style="stop-color:#A5863E;stop-color:color(display-p3 0.6471 0.5255 0.2431);stop-opacity:1;"/>
</linearGradient>
<radialGradient id="paint19_radial_408_6748" cx="0" cy="0" r="1" gradientTransform="matrix(27.5644 29.6546 -80.3289 58.9749 511.907 698.283)" gradientUnits="userSpaceOnUse">
<stop stop-color="#FFCCC1" style="stop-color:#FFCCC1;stop-color:color(display-p3 1.0000 0.8000 0.7569);stop-opacity:1;"/>
<stop offset="1" stop-color="#FFCCC1" stop-opacity="0" style="stop-color:none;stop-opacity:0;"/>
</radialGradient>
<radialGradient id="paint20_radial_408_6748" cx="0" cy="0" r="1" gradientTransform="matrix(-61.6571 32.2332 -87.314 -131.917 601.128 695.704)" gradientUnits="userSpaceOnUse">
<stop stop-color="#CFAFFF" style="stop-color:#CFAFFF;stop-color:color(display-p3 0.8118 0.6863 1.0000);stop-opacity:1;"/>
<stop offset="1" stop-color="#CFAFFF" stop-opacity="0" style="stop-color:none;stop-opacity:0;"/>
</radialGradient>
<radialGradient id="paint21_radial_408_6748" cx="0" cy="0" r="1" gradientTransform="matrix(-24.6628 -34.8119 29.9538 -16.7613 568.486 730.516)" gradientUnits="userSpaceOnUse">
<stop stop-color="#8EB2FF" style="stop-color:#8EB2FF;stop-color:color(display-p3 0.5569 0.6980 1.0000);stop-opacity:1;"/>
<stop offset="1" stop-color="#8EB2FF" stop-opacity="0" style="stop-color:none;stop-opacity:0;"/>
</radialGradient>
<radialGradient id="paint22_radial_408_6748" cx="0" cy="0" r="1" gradientTransform="matrix(18.8598 -30.2992 25.3245 12.4505 535.844 719.557)" gradientUnits="userSpaceOnUse">
<stop stop-color="#95FFFA" stop-opacity="0.7" style="stop-color:#95FFFA;stop-color:color(display-p3 0.5843 1.0000 0.9804);stop-opacity:0.7;"/>
<stop offset="1" stop-color="#95FFFA" stop-opacity="0" style="stop-color:none;stop-opacity:0;"/>
</radialGradient>
<clipPath id="clip0_408_6748">
<rect x="61" y="13.6504" width="187.5" height="187.5" rx="90" fill="white" style="fill:white;fill-opacity:1;"/>
</clipPath>
<clipPath id="clip1_408_6748">
<rect width="200" height="200" fill="white" style="fill:white;fill-opacity:1;" transform="translate(0.00854492 631.603)"/>
</clipPath>
<clipPath id="clip2_408_6748">
<rect x="8.00854" y="638.253" width="187.5" height="187.5" rx="90" fill="white" style="fill:white;fill-opacity:1;"/>
</clipPath>
<clipPath id="clip3_408_6748">
<rect width="200" height="200" fill="white" style="fill:white;fill-opacity:1;" transform="translate(219.976 630.266)"/>
</clipPath>
<clipPath id="clip4_408_6748">
<rect width="951.986" height="243.929" fill="white" style="fill:white;fill-opacity:1;" transform="translate(174.009 627.475)"/>
</clipPath>
<clipPath id="clip5_408_6748">
<rect x="231.906" y="642.329" width="177.964" height="177.964" rx="85.4225" fill="white" style="fill:white;fill-opacity:1;"/>
</clipPath>
<clipPath id="clip6_408_6748">
<rect width="200" height="200" fill="white" style="fill:white;fill-opacity:1;" transform="translate(428.285 629.515)"/>
</clipPath>
<clipPath id="clip7_408_6748">
<rect width="956.011" height="244.96" fill="white" style="fill:white;fill-opacity:1;" transform="translate(384.009 621.475)"/>
</clipPath>
<clipPath id="clip8_408_6748">
<rect x="442.151" y="641.157" width="178.716" height="178.716" rx="85.7836" fill="white" style="fill:white;fill-opacity:1;"/>
</clipPath>
<clipPath id="clip9_408_6748">
<rect x="13.75" y="286.967" width="187.5" height="187.5" rx="90" fill="white" style="fill:white;fill-opacity:1;"/>
</clipPath>
<clipPath id="clip10_408_6748">
<rect x="262.25" y="286.967" width="187.5" height="187.5" rx="90" fill="white" style="fill:white;fill-opacity:1;"/>
</clipPath>
</defs>
</svg>
