<svg xmlns="http://www.w3.org/2000/svg" viewBox="0 0 665.9558698638284 1150.7314515385951" width="665.9558698638284" height="1150.7314515385951">
<rect width="665.9558698638284" height="1150.7314515385951" fill="#ffffff" />
<defs><marker id="arrowhead" markerWidth="10" markerHeight="7" refX="10" refY="3.5" orient="auto"><polygon points="0 0, 10 3.5, 0 7" fill="#000000" /></marker></defs>
<g transform="translate(176.60174990596715, 100)">
<path d="M -28.94743602528906,-50.339266327767106
    L 380.5858429086191,-50.647877825192154
    Q 386.6421541982083,-49.516500137202094 385.74293032281787,-44.88561179620301
    L 385.8985403792316,995.325006540805
    Q 386.41678978631097,1000.486510368024 380.31924222170494,1000.9917841222839
    L -27.907562153459004,999.9343522236435
    Q -34.807146907794234,1000.9960037440221 -34.67098750055411,994.7813335412851
    L -34.194229226748575,-43.22954892560665
    Q -33.91241812431254,-49.519665569185236 -28.065848831692712,-50.08650005173113 Z" fill="#f8f9fa" stroke="#868e96" stroke-width="1" stroke-dasharray="8,5" />
<text x="-22.211917382563115" y="-30" font-family="'Virgil', 'Segoe Print', 'Comic Sans MS', 'Patrick Hand', cursive" font-size="13" fill="#868e96" font-weight="600">Outer Loop (LLM) — every 10-60 min</text>
<path d="M -34.73551864272595,168.30723967073862
    L 376.607576321291,167.9986281733136
    Q 382.6638876108802,169.13000586130366 381.76466373548976,173.76089420230272
    L 381.92027379190347,841.7073544863364
    Q 382.43852319898286,846.8688583135554 376.34097563437683,847.3741320678153
    L -33.69564477089589,846.3167001691749
    Q -40.59522952523112,847.3783516895535 -40.459070117991,841.1636814868165
    L -39.98231184418546,175.4169570728991
    Q -39.70050074174942,169.1268404293205 -33.8539314491296,168.56000594677462 Z" fill="#f8f9fa" stroke="#868e96" stroke-width="1" stroke-dasharray="8,5" />
<text x="-28" y="188.64650599850575" font-family="'Virgil', 'Segoe Print', 'Comic Sans MS', 'Patrick Hand', cursive" font-size="13" fill="#868e96" font-weight="600">Inner Loop (deterministic) — every candle</text>
<path d="M 173.4588034085017,914.7314515385951 Q 176.62763055257543,486.15748943796643 175.70910003334706,60" fill="none" stroke="#000000" stroke-width="1.5" marker-end="url(#arrowhead)" />
<rect x="138.33395172092438" y="473.36572576929757" width="72.5" height="26" rx="4" fill="white" stroke="none" />
<text x="174.58395172092438" y="486.36572576929757" text-anchor="middle" dominant-baseline="central" font-family="'Virgil', 'Segoe Print', 'Comic Sans MS', 'Patrick Hand', cursive" font-size="12" fill="#495057" font-style="italic">defines</text>
<path d="M 178.39988782342525,264.64650599850575 Q 181.10219563432403,320.65822150644016 179.47980445280004,380.7114552395418" fill="none" stroke="#000000" stroke-width="1.5" marker-end="url(#arrowhead)" />
<rect x="135.18984613811264" y="308.6789806190238" width="87.5" height="26" rx="4" fill="white" stroke="none" />
<text x="178.93984613811264" y="321.6789806190238" text-anchor="middle" dominant-baseline="central" font-family="'Virgil', 'Segoe Print', 'Comic Sans MS', 'Patrick Hand', cursive" font-size="12" fill="#495057" font-style="italic">evaluates</text>
<path d="M 159.88875391409667,459.91145523954185 Q 124.00719587338398,529.6176555882819 89.09264204401431,600.372151500982" fill="none" stroke="#000000" stroke-width="1.5" marker-end="url(#arrowhead)" />
<rect x="103.24069797905548" y="516.1418033702619" width="42.5" height="26" rx="4" fill="white" stroke="none" />
<text x="124.49069797905548" y="529.1418033702619" text-anchor="middle" dominant-baseline="central" font-family="'Virgil', 'Segoe Print', 'Comic Sans MS', 'Patrick Hand', cursive" font-size="12" fill="#495057" font-style="italic">Yes</text>
<path d="M 92.07397499916425,646.372151500982 Q 128.7319397052488,703.7914248940288 164.780144958697,761.1137994841265" fill="none" stroke="#000000" stroke-width="1.5" marker-end="url(#arrowhead)" />

<path d="M 198.3644038799282,459.91145523954185 Q 231.1486045579687,532.1191858455029 267.458227881862,607.6806317828596" fill="none" stroke="#000000" stroke-width="1.5" marker-end="url(#arrowhead)" />
<rect x="215.4113158808951" y="519.7960435112007" width="35" height="26" rx="4" fill="white" stroke="none" />
<text x="232.9113158808951" y="532.7960435112007" text-anchor="middle" dominant-baseline="central" font-family="'Virgil', 'Segoe Print', 'Comic Sans MS', 'Patrick Hand', cursive" font-size="12" fill="#495057" font-style="italic">No</text>
<path d="M 176.12796117320045,60 Q 179.22955403360078,140.24079902728408 177.92531268439063,218.64650599850575" fill="none" stroke="#000000" stroke-width="1.5" marker-end="url(#arrowhead)" />

<path d="M 178.46239296531823,807.1137994841265 Q 174.3996417168455,862.8795450695579 174.28997708657587,914.7314515385951" fill="none" stroke="#000000" stroke-width="1.5" marker-end="url(#arrowhead)" />
<rect x="91.37618502594705" y="846.9226255113608" width="170" height="26" rx="4" fill="white" stroke="none" />
<text x="176.37618502594705" y="859.9226255113608" text-anchor="middle" dominant-baseline="central" font-family="'Virgil', 'Segoe Print', 'Comic Sans MS', 'Patrick Hand', cursive" font-size="12" fill="#495057" font-style="italic">performance feedback</text>
<g><path d="M 11.353117538157676,0.5861384692099819
    L 338.9443083683291,-0.42393854406182074
    Q 345.8875258380052,-0.6074648532943684 345.3594183597132,5.822478820486867
    L 346.0995847611666,54.12119100207783
    Q 346.26051674270565,59.94486755101352 340.566528436073,59.272526719469894
    L 12.193995700868253,60.84291819261998
    Q 6.648021688757945,60.84143073703162 5.664980499893136,54.1156879832939
    L 6.046647993530496,5.8195619760968835
    Q 6.505522217607359,0.43518644109208254 11.905661308122216,-0.1740607580417418 Z" fill="#a5d8ff" stroke="#1864ab" stroke-width="2.2" />
<line x1="5.378687209115014" y1="42.83720775575577" x2="11.778549097660289" y2="60.41017200548231" stroke="#1864ab" stroke-width="0.7" opacity="0.25" />
<line x1="5.675947255695064" y1="16.960273750717793" x2="20.49901197184954" y2="59.7399235008852" stroke="#1864ab" stroke-width="0.7" opacity="0.25" />
<line x1="8.452711084297334" y1="-0.1564768865973747" x2="29.55004357724829" y2="60.108072906579764" stroke="#1864ab" stroke-width="0.7" opacity="0.25" />
<line x1="17.749384216464023" y1="-0.13223915312846657" x2="38.312791758293315" y2="60.44058342096105" stroke="#1864ab" stroke-width="0.7" opacity="0.25" />
<line x1="26.558786876426893" y1="-0.3195689037656848" x2="47.91165980546066" y2="59.90936176973992" stroke="#1864ab" stroke-width="0.7" opacity="0.25" />
<line x1="36.042065100926266" y1="-0.34433111074758926" x2="56.61677370770485" y2="60.429067521916295" stroke="#1864ab" stroke-width="0.7" opacity="0.25" />
<line x1="44.780800999331404" y1="0.1677269966021413" x2="65.62112176127994" y2="60.429962052478004" stroke="#1864ab" stroke-width="0.7" opacity="0.25" />
<line x1="53.68969324507634" y1="-0.054618182959529804" x2="75.07715954894229" y2="60.29138928926841" stroke="#1864ab" stroke-width="0.7" opacity="0.25" />
<line x1="62.429496428593666" y1="-0.013648224419739563" x2="84.0592287478903" y2="59.60105865212972" stroke="#1864ab" stroke-width="0.7" opacity="0.25" />
<line x1="71.93190705979941" y1="0.3029181346100813" x2="92.82153311380534" y2="59.99169758801145" stroke="#1864ab" stroke-width="0.7" opacity="0.25" />
<line x1="80.64908261797973" y1="-0.4681025684476481" x2="102.21565356792962" y2="60.04677111742785" stroke="#1864ab" stroke-width="0.7" opacity="0.25" />
<line x1="89.55310767489937" y1="0.14759255269746063" x2="110.46572303667926" y2="59.991350013955525" stroke="#1864ab" stroke-width="0.7" opacity="0.25" />
<line x1="98.90074566136173" y1="0.46320257923798636" x2="120.09211268752551" y2="59.59171048167627" stroke="#1864ab" stroke-width="0.7" opacity="0.25" />
<line x1="107.68031799211894" y1="-0.334359974549443" x2="128.47946759804108" y2="60.347892614183365" stroke="#1864ab" stroke-width="0.7" opacity="0.25" />
<line x1="117.11176652635913" y1="0.3359140722841403" x2="138.02546405923204" y2="60.428288069841074" stroke="#1864ab" stroke-width="0.7" opacity="0.25" />
<line x1="125.29669386569003" y1="0.44330623788846424" x2="147.21283284937726" y2="59.82317348699871" stroke="#1864ab" stroke-width="0.7" opacity="0.25" />
<line x1="134.59691855422352" y1="-0.33158866696612677" x2="155.54674842392706" y2="60.18287753256209" stroke="#1864ab" stroke-width="0.7" opacity="0.25" />
<line x1="143.44565017052082" y1="-0.10736422139962087" x2="164.66630835606338" y2="60.25988765528746" stroke="#1864ab" stroke-width="0.7" opacity="0.25" />
<line x1="153.03525042842284" y1="-0.44149515452591004" x2="173.32955103721542" y2="60.119890181318624" stroke="#1864ab" stroke-width="0.7" opacity="0.25" />
<line x1="161.57403976372007" y1="0.21009614917102226" x2="183.25145092883758" y2="59.7761890965412" stroke="#1864ab" stroke-width="0.7" opacity="0.25" />
<line x1="171.03602293477525" y1="0.36212912621704163" x2="192.2071955319443" y2="60.37771528189478" stroke="#1864ab" stroke-width="0.7" opacity="0.25" />
<line x1="180.1408953648679" y1="0.006948426107555861" x2="200.5736975395048" y2="59.85000347418827" stroke="#1864ab" stroke-width="0.7" opacity="0.25" />
<line x1="189.13344968600722" y1="0.06278267137531657" x2="209.5867546568261" y2="60.06549490468751" stroke="#1864ab" stroke-width="0.7" opacity="0.25" />
<line x1="197.92873313468453" y1="-0.11822523276350694" x2="218.90274132756895" y2="59.64183672217405" stroke="#1864ab" stroke-width="0.7" opacity="0.25" />
<line x1="206.4276039253382" y1="0.2611015922175284" x2="228.17586434306577" y2="60.48804092258433" stroke="#1864ab" stroke-width="0.7" opacity="0.25" />
<line x1="215.99378587457613" y1="0.18009982910734834" x2="237.03261177114473" y2="59.856994106383354" stroke="#1864ab" stroke-width="0.7" opacity="0.25" />
<line x1="224.43151120860057" y1="0.15121683025063248" x2="245.62199217487796" y2="60.1151982060112" stroke="#1864ab" stroke-width="0.7" opacity="0.25" />
<line x1="234.18570104821993" y1="-0.4451594973579631" x2="254.7668830650582" y2="59.592676178923284" stroke="#1864ab" stroke-width="0.7" opacity="0.25" />
<line x1="242.52520640477314" y1="-0.45042252879648004" x2="264.00339587583585" y2="59.66919091283489" stroke="#1864ab" stroke-width="0.7" opacity="0.25" />
<line x1="252.00311787528335" y1="0.04214918381865118" x2="272.550244957798" y2="59.64476573990396" stroke="#1864ab" stroke-width="0.7" opacity="0.25" />
<line x1="260.6329670556843" y1="-0.2711097623396199" x2="282.16304274063623" y2="60.04259530673153" stroke="#1864ab" stroke-width="0.7" opacity="0.25" />
<line x1="270.1390004616442" y1="-0.41748712203116156" x2="290.9534056955745" y2="59.711271875732905" stroke="#1864ab" stroke-width="0.7" opacity="0.25" />
<line x1="278.30637399011175" y1="0.41259809061375563" x2="299.3137453445306" y2="59.5317915861815" stroke="#1864ab" stroke-width="0.7" opacity="0.25" />
<line x1="288.1189020991617" y1="-0.46455836162203923" x2="308.4245421665655" y2="59.69411048454276" stroke="#1864ab" stroke-width="0.7" opacity="0.25" />
<line x1="296.69690731700393" y1="0.0919990941999913" x2="318.2461112560195" y2="60.00308955490982" stroke="#1864ab" stroke-width="0.7" opacity="0.25" />
<line x1="305.6253337127455" y1="0.18583960508112796" x2="326.7227488441665" y2="60.27801079526398" stroke="#1864ab" stroke-width="0.7" opacity="0.25" />
<line x1="315.2595368476941" y1="0.01831298640172463" x2="335.29624133455945" y2="59.88309466357123" stroke="#1864ab" stroke-width="0.7" opacity="0.25" />
<line x1="323.36551824950584" y1="-0.1679299299576087" x2="344.6920782550478" y2="59.86915015492559" stroke="#1864ab" stroke-width="0.7" opacity="0.25" />
<line x1="333.23096055699625" y1="-0.4496677641145652" x2="345.90502414447474" y2="37.61689136751583" stroke="#1864ab" stroke-width="0.7" opacity="0.25" />
<line x1="341.44398726655345" y1="0.12389545281303072" x2="345.4434816456196" y2="11.77352196034813" stroke="#1864ab" stroke-width="0.7" opacity="0.25" />
<text x="175.78808261743688" y="30" text-anchor="middle" dominant-baseline="central" font-family="'Virgil', 'Segoe Print', 'Comic Sans MS', 'Patrick Hand', cursive" font-size="18" font-weight="600" fill="#000000"><tspan x="175.78808261743688" dy="0">entry_long = rsi_14 &lt; 30 and close &gt; sma_50</tspan></text></g>
<g><path d="M 94.4603869644925,217.7611914295365
    L 262.7528291153911,218.76302189011477
    Q 268.1257372062479,217.75117225561553 267.7904311038916,224.6219391945502
    L 268.9239492786255,257.92841157233926
    Q 268.4709199886929,264.8035161609825 261.73502140134224,264.7262073754973
    L 94.70413564183691,264.9053899947583
    Q 88.48113888610752,264.706716891969 87.92094190222997,258.80231738472213
    L 87.94700127723627,224.99057291732734
    Q 88.08153476644512,217.95931693545063 93.68568624478648,217.80392137529998 Z" fill="#d0ebff" stroke="#1971c2" stroke-width="1.5" />
<line x1="87.44490120561386" y1="246.9299593336847" x2="94.10548883741976" y2="264.7591690424306" stroke="#1971c2" stroke-width="0.7" opacity="0.25" />
<line x1="87.67351064725517" y1="221.91471955596145" x2="103.44573493943753" y2="264.5387413731878" stroke="#1971c2" stroke-width="0.7" opacity="0.25" />
<line x1="95.8614308614633" y1="218.89893291531553" x2="112.45274814168951" y2="264.970189907428" stroke="#1971c2" stroke-width="0.7" opacity="0.25" />
<line x1="105.01270662826937" y1="218.49268290249165" x2="121.30500228262972" y2="264.1551172467589" stroke="#1971c2" stroke-width="0.7" opacity="0.25" />
<line x1="113.98374608473387" y1="218.80286268724012" x2="129.79107222785532" y2="264.4553419352924" stroke="#1971c2" stroke-width="0.7" opacity="0.25" />
<line x1="122.91768721406697" y1="218.78485171726788" x2="138.59041342674354" y2="264.3040735515897" stroke="#1971c2" stroke-width="0.7" opacity="0.25" />
<line x1="132.41576900003201" y1="218.40028906143925" x2="148.0837272533332" y2="264.8936738094917" stroke="#1971c2" stroke-width="0.7" opacity="0.25" />
<line x1="140.55078339424654" y1="218.6872128481882" x2="156.53893110173303" y2="264.4324631447889" stroke="#1971c2" stroke-width="0.7" opacity="0.25" />
<line x1="149.65052969287945" y1="218.8525042637557" x2="166.0411385472631" y2="264.8944463158441" stroke="#1971c2" stroke-width="0.7" opacity="0.25" />
<line x1="158.71850013906806" y1="219.03816805559154" x2="174.82065348134492" y2="264.99931874593676" stroke="#1971c2" stroke-width="0.7" opacity="0.25" />
<line x1="167.788332934575" y1="218.5785609285158" x2="183.89480571519252" y2="264.9918730670761" stroke="#1971c2" stroke-width="0.7" opacity="0.25" />
<line x1="177.13862638214414" y1="218.68385686069814" x2="193.25651461452944" y2="264.7871565157534" stroke="#1971c2" stroke-width="0.7" opacity="0.25" />
<line x1="186.1719126267053" y1="218.63407353237562" x2="202.19729177391636" y2="264.28602730640705" stroke="#1971c2" stroke-width="0.7" opacity="0.25" />
<line x1="195.16745931184687" y1="218.89411192075931" x2="211.49693578818696" y2="264.852209255645" stroke="#1971c2" stroke-width="0.7" opacity="0.25" />
<line x1="204.0675140804742" y1="218.95406436024587" x2="220.3351325386262" y2="264.28993458966943" stroke="#1971c2" stroke-width="0.7" opacity="0.25" />
<line x1="212.60493514801783" y1="218.57082264524797" x2="229.52005317417692" y2="265.0441244292888" stroke="#1971c2" stroke-width="0.7" opacity="0.25" />
<line x1="222.27068947049702" y1="218.5541526715606" x2="237.6520042791395" y2="264.383629785842" stroke="#1971c2" stroke-width="0.7" opacity="0.25" />
<line x1="230.9130416664848" y1="218.43882959950133" x2="247.32899908383988" y2="264.8615412563522" stroke="#1971c2" stroke-width="0.7" opacity="0.25" />
<line x1="240.2292870104229" y1="218.87806672853185" x2="256.5068323529391" y2="264.49139043675314" stroke="#1971c2" stroke-width="0.7" opacity="0.25" />
<line x1="249.35457220950775" y1="218.60230977879328" x2="265.4503244360036" y2="264.99742384271303" stroke="#1971c2" stroke-width="0.7" opacity="0.25" />
<line x1="257.6587220396723" y1="218.16466210396902" x2="268.0627347660519" y2="248.16479737118058" stroke="#1971c2" stroke-width="0.7" opacity="0.25" />
<text x="178.18588624380936" y="241.64650599850575" text-anchor="middle" dominant-baseline="central" font-family="'Virgil', 'Segoe Print', 'Comic Sans MS', 'Patrick Hand', cursive" font-size="14" font-weight="normal" fill="#000000"><tspan x="178.18588624380936" dy="0">Expression Engine</tspan></text></g>
<g><path d="M 179.69144023974877,374.8205600044348
    L 290.8855022224925,420.413222363748
    L 178.60587149120875,464.7763481052498
    L 68.37349971932713,421.4698760180436 Z" fill="#ffec99" stroke="#e67700" stroke-width="1.5" />
<line x1="67.63302658393513" y1="452.80712512982996" x2="72.35520777250713" y2="465.09707016160974" stroke="#e67700" stroke-width="0.7" opacity="0.25" />
<line x1="67.70717881778273" y1="427.0853937366836" x2="81.41104201777489" y2="465.11012727893103" stroke="#e67700" stroke-width="0.7" opacity="0.25" />
<line x1="68.06888771711965" y1="401.1663914710752" x2="90.23003411363607" y2="465.4261139496739" stroke="#e67700" stroke-width="0.7" opacity="0.25" />
<line x1="68.00966487650658" y1="374.95097654744313" x2="99.6093609386171" y2="465.6992369651707" stroke="#e67700" stroke-width="0.7" opacity="0.25" />
<line x1="77.30930889077717" y1="375.5171584966811" x2="108.52835917550692" y2="465.5559843932497" stroke="#e67700" stroke-width="0.7" opacity="0.25" />
<line x1="86.14750564121641" y1="374.9548838307055" x2="117.4994761766502" y2="465.1453647969829" stroke="#e67700" stroke-width="0.7" opacity="0.25" />
<line x1="95.33242627676714" y1="375.70907367032487" x2="125.90309984904161" y2="465.29025568716315" stroke="#e67700" stroke-width="0.7" opacity="0.25" />
<line x1="103.46437738172972" y1="375.0485790268781" x2="134.8978368176031" y2="465.5267684979408" stroke="#e67700" stroke-width="0.7" opacity="0.25" />
<line x1="113.14137218643009" y1="375.5264904973883" x2="144.39040853021822" y2="465.07361757990293" stroke="#e67700" stroke-width="0.7" opacity="0.25" />
<line x1="122.3192054555293" y1="375.1563396777892" x2="153.07714958405995" y2="465.6864153627412" stroke="#e67700" stroke-width="0.7" opacity="0.25" />
<line x1="131.26269753859378" y1="375.6623730837491" x2="161.9307722243684" y2="465.4767783176794" stroke="#e67700" stroke-width="0.7" opacity="0.25" />
<line x1="139.4751078686421" y1="374.8297466122167" x2="171.76085743701333" y2="464.83711796663556" stroke="#e67700" stroke-width="0.7" opacity="0.25" />
<line x1="148.53218952763564" y1="375.64227472126663" x2="179.88370098477753" y2="464.94791478867046" stroke="#e67700" stroke-width="0.7" opacity="0.25" />
<line x1="158.22922780887893" y1="375.2202799391089" x2="189.44025844059956" y2="465.76948387812445" stroke="#e67700" stroke-width="0.7" opacity="0.25" />
<line x1="166.86435139764217" y1="375.14870633485043" x2="198.5340989514807" y2="465.24612146627146" stroke="#e67700" stroke-width="0.7" opacity="0.25" />
<line x1="175.57629671339964" y1="375.78290946979905" x2="207.3665723328013" y2="464.8196139566644" stroke="#e67700" stroke-width="0.7" opacity="0.25" />
<line x1="184.44370618015319" y1="374.8888908716108" x2="216.18032941644196" y2="465.21545087715276" stroke="#e67700" stroke-width="0.7" opacity="0.25" />
<line x1="193.41113331662928" y1="375.7543331791012" x2="224.898591582285" y2="465.4283967665797" stroke="#e67700" stroke-width="0.7" opacity="0.25" />
<line x1="202.4639338724919" y1="374.9673598886584" x2="234.4721547992126" y2="464.96685426772456" stroke="#e67700" stroke-width="0.7" opacity="0.25" />
<line x1="212.154760238147" y1="374.86878329649335" x2="243.07429305233381" y2="464.9257105390843" stroke="#e67700" stroke-width="0.7" opacity="0.25" />
<line x1="220.39303127426683" y1="375.4401026384621" x2="252.21400392467694" y2="465.09070002947556" stroke="#e67700" stroke-width="0.7" opacity="0.25" />
<line x1="229.9089516750655" y1="374.8816230122102" x2="261.3092437022933" y2="464.87300629838865" stroke="#e67700" stroke-width="0.7" opacity="0.25" />
<line x1="238.88328789373918" y1="375.46441794858947" x2="270.7798962590896" y2="465.0965143875037" stroke="#e67700" stroke-width="0.7" opacity="0.25" />
<line x1="247.7212736787842" y1="375.8106111439047" x2="278.86890079217665" y2="465.4311621910383" stroke="#e67700" stroke-width="0.7" opacity="0.25" />
<line x1="257.13263611129514" y1="375.42928828626464" x2="288.3089854576756" y2="465.4993624396802" stroke="#e67700" stroke-width="0.7" opacity="0.25" />
<line x1="265.4177252585505" y1="374.87231794552645" x2="291.7505431350837" y2="450.01176513262595" stroke="#e67700" stroke-width="0.7" opacity="0.25" />
<line x1="275.0448833930668" y1="375.16894615052297" x2="291.7574603586618" y2="424.08818098113727" stroke="#e67700" stroke-width="0.7" opacity="0.25" />
<line x1="283.9030881035651" y1="374.986190685152" x2="292.2017122091347" y2="398.5158697482381" stroke="#e67700" stroke-width="0.7" opacity="0.25" />
<text x="179.84825934639957" y="420.31145523954183" text-anchor="middle" dominant-baseline="central" font-family="'Virgil', 'Segoe Print', 'Comic Sans MS', 'Patrick Hand', cursive" font-size="15" font-weight="normal" fill="#000000"><tspan x="179.84825934639957" dy="0">Signal?</tspan></text></g>
<g><path d="M 6.707195241755107,600.9002728808864
    L 149.416809314047,601.2198544974156
    Q 154.7207919888453,599.8841539287707 155.67492822175888,606.4488230530987
    L 154.75341167857988,639.5815192215836
    Q 155.7536347382571,646.2925983054996 149.74598874594957,647.0038036205551
    L 5.248523180343909,646.6697330416297
    Q -0.5197106236807713,647.0890582594031 -0.19848155795989442,639.8732559335352
    L -0.8673190101661021,605.7004788410186
    Q -0.8670755291852402,601.1148280640867 5.146192908768716,599.5293763561087 Z" fill="#d0ebff" stroke="#1971c2" stroke-width="1.5" />
<line x1="0.380968462479359" y1="628.8524047719776" x2="6.191999094199989" y2="646.8301801395646" stroke="#1971c2" stroke-width="0.7" opacity="0.25" />
<line x1="0.016092051242594607" y1="603.0665454534335" x2="15.285839605081126" y2="646.3068177277116" stroke="#1971c2" stroke-width="0.7" opacity="0.25" />
<line x1="7.72803736700007" y1="600.8436057312392" x2="24.118312986401722" y2="645.8803102181046" stroke="#1971c2" stroke-width="0.7" opacity="0.25" />
<line x1="16.595446833753613" y1="599.949587133051" x2="32.932070070042386" y2="646.2761471385929" stroke="#1971c2" stroke-width="0.7" opacity="0.25" />
<line x1="25.562873970229703" y1="600.8150294405414" x2="41.65033223588543" y2="646.4890930280199" stroke="#1971c2" stroke-width="0.7" opacity="0.25" />
<line x1="34.615674526092334" y1="600.0280561500986" x2="51.223895452813025" y2="646.0275505291647" stroke="#1971c2" stroke-width="0.7" opacity="0.25" />
<line x1="44.30650089174742" y1="599.9294795579335" x2="59.826033705934236" y2="645.9864068005245" stroke="#1971c2" stroke-width="0.7" opacity="0.25" />
<line x1="52.54477192786726" y1="600.5007988999023" x2="68.96574457827737" y2="646.1513962909157" stroke="#1971c2" stroke-width="0.7" opacity="0.25" />
<line x1="62.06069232866594" y1="599.9423192736504" x2="78.06098435589374" y2="645.9337025598288" stroke="#1971c2" stroke-width="0.7" opacity="0.25" />
<line x1="71.0350285473396" y1="600.5251142100296" x2="87.53163691269" y2="646.1572106489439" stroke="#1971c2" stroke-width="0.7" opacity="0.25" />
<line x1="79.87301433238463" y1="600.8713074053449" x2="95.62064144577707" y2="646.4918584524785" stroke="#1971c2" stroke-width="0.7" opacity="0.25" />
<line x1="89.28437676489557" y1="600.4899845477048" x2="105.06072611127601" y2="646.5600587011204" stroke="#1971c2" stroke-width="0.7" opacity="0.25" />
<line x1="97.56946591215092" y1="599.9330142069666" x2="114.00228378868414" y2="646.7867471083518" stroke="#1971c2" stroke-width="0.7" opacity="0.25" />
<line x1="107.19662404666724" y1="600.2296424119631" x2="123.0092010122622" y2="646.5774486711489" stroke="#1971c2" stroke-width="0.7" opacity="0.25" />
<line x1="116.05482875716552" y1="600.0468869465922" x2="132.45345286273513" y2="646.7194231525355" stroke="#1971c2" stroke-width="0.7" opacity="0.25" />
<line x1="125.03919987202971" y1="600.5136336944634" x2="140.86879155754795" y2="646.4397642481927" stroke="#1971c2" stroke-width="0.7" opacity="0.25" />
<line x1="133.5385828852959" y1="600.4047283202854" x2="150.35235940545098" y2="646.8268611718458" stroke="#1971c2" stroke-width="0.7" opacity="0.25" />
<line x1="143.05415355785954" y1="600.1709661836649" x2="154.581871233524" y2="635.0496231557378" stroke="#1971c2" stroke-width="0.7" opacity="0.25" />
<text x="77.5" y="623.372151500982" text-anchor="middle" dominant-baseline="central" font-family="'Virgil', 'Segoe Print', 'Comic Sans MS', 'Patrick Hand', cursive" font-size="14" font-weight="normal" fill="#000000"><tspan x="77.5" dy="0">Strategy Layer</tspan></text></g>
<g><path d="M 218.02691892513684,608.0759738192901
    L 334.99040550026984,607.912197100916
    Q 341.56815627100804,607.2832724047403 341.6113215666848,614.2163557624008
    L 341.2793591223788,641.8355560840006
    Q 341.0424308251837,647.7898779744582 335.03611802091183,647.6104036234683
    L 217.02060793603306,647.3590356467205
    Q 211.67677203724924,647.4160658634995 211.58445075395213,642.0204735807972
    L 211.87286741532006,613.9559646591454
    Q 212.5867624729508,607.2937382491909 217.20767112799004,607.4248822435256 Z" fill="#b2f2bb" stroke="#2b8a3e" stroke-width="1.5" />
<line x1="211.74587843407062" y1="619.467767239309" x2="221.3792819422597" y2="647.2414944888442" stroke="#2b8a3e" stroke-width="0.7" opacity="0.25" />
<line x1="216.44452532839568" y1="607.6685452667152" x2="231.00644007677602" y2="647.5381226938407" stroke="#2b8a3e" stroke-width="0.7" opacity="0.25" />
<line x1="225.4439086591301" y1="607.2609770521703" x2="239.8646447872743" y2="647.3553672284697" stroke="#2b8a3e" stroke-width="0.7" opacity="0.25" />
<line x1="234.75220606349467" y1="607.8251233084156" x2="248.8490159021385" y2="647.8221139763409" stroke="#2b8a3e" stroke-width="0.7" opacity="0.25" />
<line x1="244.14554397344727" y1="607.2958608490662" x2="257.3483989154047" y2="647.7132086021629" stroke="#2b8a3e" stroke-width="0.7" opacity="0.25" />
<line x1="252.8665839217865" y1="607.5435337321524" x2="266.8639695879683" y2="647.4794464655424" stroke="#2b8a3e" stroke-width="0.7" opacity="0.25" />
<line x1="261.98811789713" y1="608.0821889917279" x2="275.64410584920734" y2="647.9291017461655" stroke="#2b8a3e" stroke-width="0.7" opacity="0.25" />
<line x1="271.15970756841125" y1="607.4354505079718" x2="284.5215506175009" y2="647.9545395899022" stroke="#2b8a3e" stroke-width="0.7" opacity="0.25" />
<line x1="280.12732654049614" y1="607.1808544010419" x2="293.5313551953295" y2="647.6641075727384" stroke="#2b8a3e" stroke-width="0.7" opacity="0.25" />
<line x1="288.44608645569497" y1="607.9632565777574" x2="302.6546061078916" y2="647.737390460512" stroke="#2b8a3e" stroke-width="0.7" opacity="0.25" />
<line x1="298.1236953250482" y1="607.6018331584" x2="311.34093959191523" y2="648.0811702743085" stroke="#2b8a3e" stroke-width="0.7" opacity="0.25" />
<line x1="307.23198067053454" y1="607.3343470529071" x2="320.46390115852773" y2="647.7551001390239" stroke="#2b8a3e" stroke-width="0.7" opacity="0.25" />
<line x1="315.3929640508213" y1="607.4418432919047" x2="329.8536943282088" y2="647.4916804094155" stroke="#2b8a3e" stroke-width="0.7" opacity="0.25" />
<line x1="324.46700698406494" y1="608.1068541890563" x2="338.61820440072916" y2="648.1679698372391" stroke="#2b8a3e" stroke-width="0.7" opacity="0.25" />
<line x1="333.8953061770153" y1="607.5061130810427" x2="341.80971885899635" y2="630.1235477594726" stroke="#2b8a3e" stroke-width="0.7" opacity="0.25" />
<text x="276.8098160301088" y="627.6806317828596" text-anchor="middle" dominant-baseline="central" font-family="'Virgil', 'Segoe Print', 'Comic Sans MS', 'Patrick Hand', cursive" font-size="13" font-weight="normal" fill="#000000"><tspan x="276.8098160301088" dy="0">HOLD</tspan></text></g>
<g><path d="M 111.07692293382425,760.8155211585039
    L 248.80136589181203,760.9477818699248
    Q 253.82954291962233,760.3286109640133 253.46479367755583,766.4378789871741
    L 254.9839247268057,800.6724731893286
    Q 253.83524221516709,807.6068335368033 248.69128312253014,806.8404840183168
    L 111.13575553492119,806.704045099231
    Q 104.03587954440391,807.6853184028238 103.4545206705894,800.6125699815238
    L 104.32437637964321,767.4841368147245
    Q 104.10148216729867,760.3989033042133 109.9591164026795,761.1519782628166 Z" fill="#d0ebff" stroke="#1971c2" stroke-width="1.5" />
<line x1="104.09280735011998" y1="790.0825286155024" x2="110.09597791563428" y2="807.4735822247821" stroke="#1971c2" stroke-width="0.7" opacity="0.25" />
<line x1="104.53839446844358" y1="763.7163937788407" x2="118.98680412167741" y2="807.3077518945065" stroke="#1971c2" stroke-width="0.7" opacity="0.25" />
<line x1="112.27840941552131" y1="761.3264652994258" x2="128.50921426305067" y2="806.7300315662505" stroke="#1971c2" stroke-width="0.7" opacity="0.25" />
<line x1="121.72237469331048" y1="761.2061846392899" x2="136.956360032667" y2="806.759377703449" stroke="#1971c2" stroke-width="0.7" opacity="0.25" />
<line x1="130.34099372189667" y1="761.4157032147486" x2="146.0448409687029" y2="807.1831834005861" stroke="#1971c2" stroke-width="0.7" opacity="0.25" />
<line x1="139.46964281136025" y1="760.6588735128462" x2="155.0423547399765" y2="807.5452285979263" stroke="#1971c2" stroke-width="0.7" opacity="0.25" />
<line x1="148.62808142513677" y1="761.533671976289" x2="164.61845662300183" y2="807.3173269207164" stroke="#1971c2" stroke-width="0.7" opacity="0.25" />
<line x1="157.61773401960818" y1="761.055936445824" x2="172.97525334739257" y2="806.9606680396028" stroke="#1971c2" stroke-width="0.7" opacity="0.25" />
<line x1="166.03763565667032" y1="761.1266109584103" x2="182.73063501733267" y2="807.5554914267777" stroke="#1971c2" stroke-width="0.7" opacity="0.25" />
<line x1="175.23546640884888" y1="760.963117189116" x2="191.82999390467157" y2="807.3751558258737" stroke="#1971c2" stroke-width="0.7" opacity="0.25" />
<line x1="184.19625594248282" y1="760.6460400180295" x2="200.22296034941937" y2="807.4537290167355" stroke="#1971c2" stroke-width="0.7" opacity="0.25" />
<line x1="193.55495230328233" y1="760.8887124321845" x2="209.56776672227133" y2="807.5794037300639" stroke="#1971c2" stroke-width="0.7" opacity="0.25" />
<line x1="202.71980139932566" y1="761.2715283984871" x2="218.2635890618163" y2="806.7380184810972" stroke="#1971c2" stroke-width="0.7" opacity="0.25" />
<line x1="211.83471134257707" y1="761.0703200044445" x2="226.9722097581267" y2="807.0368971915632" stroke="#1971c2" stroke-width="0.7" opacity="0.25" />
<line x1="220.7243296556553" y1="760.8519437186696" x2="236.44681051813822" y2="807.4107868190986" stroke="#1971c2" stroke-width="0.7" opacity="0.25" />
<line x1="229.78715480026221" y1="760.6551541488734" x2="245.59064555350923" y2="807.6015865929221" stroke="#1971c2" stroke-width="0.7" opacity="0.25" />
<line x1="238.32143085676216" y1="760.8353048209883" x2="254.14065624439536" y2="806.4805298506631" stroke="#1971c2" stroke-width="0.7" opacity="0.25" />
<line x1="247.35807071483578" y1="761.1909220603702" x2="254.36501766219408" y2="781.2200377560002" stroke="#1971c2" stroke-width="0.7" opacity="0.25" />
<text x="179.35411995786126" y="784.1137994841265" text-anchor="middle" dominant-baseline="central" font-family="'Virgil', 'Segoe Print', 'Comic Sans MS', 'Patrick Hand', cursive" font-size="14" font-weight="normal" fill="#000000"><tspan x="179.35411995786126" dy="0">Execute Trade</tspan></text></g>
<g><path d="M 105.07763581984473,915.1776119083352
    L 242.87275540517732,914.6272980696507
    Q 247.53629019518922,914.4558149384524 248.62163566843554,921.0722248417136
    L 247.67458201403787,955.4017743896344
    Q 248.69075391223595,960.1617797964515 242.4213107477437,961.2291786456437
    L 105.19329559080506,960.0018854561451
    Q 98.98563779224605,960.9683130655234 99.18375964873849,954.7922487612268
    L 98.18467370581057,920.4602234075762
    Q 99.07482319829141,915.2018929537401 104.76546484530772,915.4687533907127 Z" fill="#d0ebff" stroke="#1971c2" stroke-width="1.5" />
<line x1="98.17316304209089" y1="943.4165268744338" x2="104.9638543399702" y2="960.6233955859643" stroke="#1971c2" stroke-width="0.7" opacity="0.25" />
<line x1="98.55597900839348" y1="917.3980634996931" x2="113.12246909100358" y2="960.6945328135389" stroke="#1971c2" stroke-width="0.7" opacity="0.25" />
<line x1="106.35477061435085" y1="914.2495413388606" x2="122.42134780146952" y2="960.7942541687007" stroke="#1971c2" stroke-width="0.7" opacity="0.25" />
<line x1="115.13639432857599" y1="914.7241420988721" x2="131.7952374290049" y2="960.8244762447939" stroke="#1971c2" stroke-width="0.7" opacity="0.25" />
<line x1="123.93960475877975" y1="914.8679771342431" x2="140.98603720282844" y2="960.2407945321538" stroke="#1971c2" stroke-width="0.7" opacity="0.25" />
<line x1="133.11975543089466" y1="914.5179878251292" x2="149.15069474628362" y2="961.1870157519952" stroke="#1971c2" stroke-width="0.7" opacity="0.25" />
<line x1="142.47537267027656" y1="914.742349242928" x2="158.60448836590658" y2="960.9941171709597" stroke="#1971c2" stroke-width="0.7" opacity="0.25" />
<line x1="151.19926946789928" y1="914.4482900638832" x2="167.8224604535895" y2="960.232204094078" stroke="#1971c2" stroke-width="0.7" opacity="0.25" />
<line x1="160.46912575415627" y1="914.8217860708028" x2="176.3703226311205" y2="960.4159541390854" stroke="#1971c2" stroke-width="0.7" opacity="0.25" />
<line x1="169.5402864369462" y1="914.5576336188478" x2="185.35584434865595" y2="960.2600449114543" stroke="#1971c2" stroke-width="0.7" opacity="0.25" />
<line x1="178.40963425930386" y1="914.7919242862772" x2="194.06630751012707" y2="960.8197935399439" stroke="#1971c2" stroke-width="0.7" opacity="0.25" />
<line x1="187.10070973472466" y1="914.663823512692" x2="203.40283555153437" y2="961.0509233972552" stroke="#1971c2" stroke-width="0.7" opacity="0.25" />
<line x1="196.3767480330207" y1="915.085409977939" x2="212.22346409218844" y2="960.4063971116775" stroke="#1971c2" stroke-width="0.7" opacity="0.25" />
<line x1="205.0086787711407" y1="914.3847351847289" x2="221.0509967257254" y2="961.0980463556734" stroke="#1971c2" stroke-width="0.7" opacity="0.25" />
<line x1="214.82932936452562" y1="914.9665401782258" x2="230.41463338606408" y2="961.0437987851983" stroke="#1971c2" stroke-width="0.7" opacity="0.25" />
<line x1="223.5297061836518" y1="915.0727955311304" x2="239.26856917852055" y2="960.5143891890693" stroke="#1971c2" stroke-width="0.7" opacity="0.25" />
<line x1="232.6157903012354" y1="915.2025285371474" x2="248.7201030491633" y2="960.6391816652317" stroke="#1971c2" stroke-width="0.7" opacity="0.25" />
<line x1="241.7755152381942" y1="914.7292471087567" x2="248.44242041106372" y2="935.1026242820008" stroke="#1971c2" stroke-width="0.7" opacity="0.25" />
<text x="173.39825009403285" y="937.7314515385951" text-anchor="middle" dominant-baseline="central" font-family="'Virgil', 'Segoe Print', 'Comic Sans MS', 'Patrick Hand', cursive" font-size="14" font-weight="normal" fill="#000000"><tspan x="173.39825009403285" dy="0">Setup Agent</tspan></text></g>
<text x="-26.601749905967154" y="942.7314515385951" font-family="'Virgil', 'Segoe Print', 'Comic Sans MS', 'Patrick Hand', cursive" font-size="12" fill="#868e96" font-style="italic" opacity="0.8"><tspan x="-26.601749905967154" dy="0">~$0.005 / cycle</tspan><tspan x="-26.601749905967154" dy="18">no per-tick API calls</tspan></text>
<text x="-11.814113756190636" y="246.64650599850575" font-family="'Virgil', 'Segoe Print', 'Comic Sans MS', 'Patrick Hand', cursive" font-size="12" fill="#868e96" font-style="italic" opacity="0.8"><tspan x="-11.814113756190636" dy="0">pure math, zero latency</tspan></text>
<text x="339.35411995786126" y="784.1137994841265" font-family="'Virgil', 'Segoe Print', 'Comic Sans MS', 'Patrick Hand', cursive" font-size="12" fill="#868e96" font-style="italic" opacity="0.8"><tspan x="339.35411995786126" dy="0">closes the loop</tspan></text>
</g>
</svg>