<svg xmlns="http://www.w3.org/2000/svg" viewBox="0 0 725.9558698638284 1230.7314515385951" width="725.9558698638284" height="1230.7314515385951">
<rect width="725.9558698638284" height="1230.7314515385951" fill="#ffffff" />
<defs>
  <marker id="arrowhead-red" markerWidth="10" markerHeight="7" refX="9" refY="3.5" orient="auto"><polygon points="0 0, 10 3.5, 0 7" fill="#e03131" /></marker>
  <marker id="arrowhead-gray" markerWidth="10" markerHeight="7" refX="9" refY="3.5" orient="auto"><polygon points="0 0, 10 3.5, 0 7" fill="#495057" /></marker>
</defs>
<g transform="translate(206.60174990596715, 170)">
<text x="177.1549080150544" y="-35" text-anchor="middle" dominant-baseline="auto" font-family="'Virgil', 'Segoe Print', 'Comic Sans MS', 'Patrick Hand', cursive" font-size="30" font-weight="600" fill="#1e1e1e">Two-Loop Architecture</text>
<path d="M -29.702263144380414,-50.22617755184474
    L 381.31992281155834,-50.4319185501281
    Q 386.3574636712845,-49.67766675813473 385.75798108769084,-45.590407864135344
    L 385.86172112530005,996.1271548734018
    Q 386.2072207300196,1000.5681574248811 381.1421890202822,1000.9050065943877
    L -29.009013896493705,1000.2000519952941
    Q -34.60873706605052,1000.9078196755465 -34.517964127890444,995.7647062070552
    L -34.200125278686755,-44.48636595040443
    Q -34.01225121039606,-49.67977704612349 -29.11453834864951,-50.05766670115408 Z" fill="none" stroke="#adb5bd" stroke-width="1" stroke-dasharray="8,5" />
<text x="-22.211917382563115" y="-32" font-family="'Virgil', 'Segoe Print', 'Comic Sans MS', 'Patrick Hand', cursive" font-size="13" fill="#868e96" font-weight="600">Outer Loop (LLM) — every 10-60 min</text>
<path d="M -35.490345761817295,168.42032844666102
    L 377.34165622423023,168.21458744837764
    Q 382.3791970839564,168.968839240371 381.77971450036273,173.05609813437042
    L 381.88345453797194,842.5095028189331
    Q 382.2289541426915,846.9505053704124 377.1639224329541,847.2873545399191
    L -34.79709651393059,846.5823999408254
    Q -40.39681968348741,847.2901676210779 -40.30604674532733,842.1470541525865
    L -39.98820789612364,174.1601400481013
    Q -39.800333827832944,168.96672895238225 -34.902620966086396,168.58883929735165 Z" fill="none" stroke="#adb5bd" stroke-width="1" stroke-dasharray="8,5" />
<text x="-28" y="186.64650599850575" font-family="'Virgil', 'Segoe Print', 'Comic Sans MS', 'Patrick Hand', cursive" font-size="13" fill="#868e96" font-weight="600">Inner Loop (deterministic) — every candle</text>
<path d="M 173.4588034085017,914.7314515385951 Q 176.21889478624522,486.39913670423266 175.70910003334706,60" fill="none" stroke="#495057" stroke-width="1.5" marker-end="url(#arrowhead-gray)" />
<rect x="139.58395172092438" y="474.36572576929757" width="70" height="24" rx="3" fill="white" stroke="none" />
<text x="174.58395172092438" y="487.36572576929757" text-anchor="middle" dominant-baseline="central" font-family="'Virgil', 'Segoe Print', 'Comic Sans MS', 'Patrick Hand', cursive" font-size="13" fill="#495057" font-style="italic">defines</text>
<path d="M 178.39988782342525,264.64650599850575 Q 180.66972573508176,321.0623733289569 179.47980445280004,380.7114552395418" fill="none" stroke="#e03131" stroke-width="1.5" marker-end="url(#arrowhead-red)" />
<rect x="135.93984613811264" y="309.6789806190238" width="86" height="24" rx="3" fill="white" stroke="none" />
<text x="178.93984613811264" y="322.6789806190238" text-anchor="middle" dominant-baseline="central" font-family="'Virgil', 'Segoe Print', 'Comic Sans MS', 'Patrick Hand', cursive" font-size="13" fill="#e03131" font-style="italic">evaluates</text>
<path d="M 159.88875391409667,459.91145523954185 Q 124.10389629451828,529.7224851446779 89.09264204401431,600.372151500982" fill="none" stroke="#e03131" stroke-width="1.5" marker-end="url(#arrowhead-red)" />
<rect x="105.49069797905548" y="517.1418033702619" width="38" height="24" rx="3" fill="white" stroke="none" />
<text x="124.49069797905548" y="530.1418033702619" text-anchor="middle" dominant-baseline="central" font-family="'Virgil', 'Segoe Print', 'Comic Sans MS', 'Patrick Hand', cursive" font-size="13" fill="#e03131" font-style="italic">Yes</text>
<path d="M 92.07397499916425,646.372151500982 Q 128.67096375998517,703.7817350137339 164.780144958697,761.1137994841265" fill="none" stroke="#e03131" stroke-width="1.5" marker-end="url(#arrowhead-red)" />

<path d="M 198.3644038799282,459.91145523954185 Q 231.50114682255398,532.4545573786424 267.458227881862,607.6806317828596" fill="none" stroke="#e03131" stroke-width="1.5" marker-end="url(#arrowhead-red)" />
<rect x="217.9113158808951" y="520.7960435112007" width="30" height="24" rx="3" fill="white" stroke="none" />
<text x="232.9113158808951" y="533.7960435112007" text-anchor="middle" dominant-baseline="central" font-family="'Virgil', 'Segoe Print', 'Comic Sans MS', 'Patrick Hand', cursive" font-size="13" fill="#e03131" font-style="italic">No</text>
<path d="M 176.12796117320045,60 Q 178.78897061263973,140.05728982167784 177.92531268439063,218.64650599850575" fill="none" stroke="#e03131" stroke-width="1.5" marker-end="url(#arrowhead-red)" />

<path d="M 178.46239296531823,807.1137994841265 Q 174.79495037866582,862.4881611579185 174.28997708657587,914.7314515385951" fill="none" stroke="#e03131" stroke-width="1.5" marker-end="url(#arrowhead-red)" />
<rect x="89.37618502594705" y="847.9226255113608" width="174" height="24" rx="3" fill="white" stroke="none" />
<text x="176.37618502594705" y="860.9226255113608" text-anchor="middle" dominant-baseline="central" font-family="'Virgil', 'Segoe Print', 'Comic Sans MS', 'Patrick Hand', cursive" font-size="13" fill="#e03131" font-style="italic">performance feedback</text>
<g><path d="M 10.498105897917412,0.3907589794733212
    L 340.225566451365,-0.2826256960412138
    Q 345.8543780978158,-0.4049765688629122 345.50230644562106,4.881652546991245
    L 345.9957507132567,55.08079400138522
    Q 346.1030387009494,59.96324503400901 341.3070464965276,59.515017812979934
    L 11.058691339724465,60.56194546174665
    Q 6.361375331650924,60.56095382468775 5.706014539074386,55.07712532219593
    L 5.9604595348326255,4.87970798406459
    Q 6.2663756842172,0.29012429406138834 10.866468411227107,-0.11604050536116119 Z" fill="#ffffff" stroke="#1e1e1e" stroke-width="1.5" />
<text x="175.78808261743688" y="30" text-anchor="middle" dominant-baseline="central" font-family="'Virgil', 'Segoe Print', 'Comic Sans MS', 'Patrick Hand', cursive" font-size="18" font-weight="600" fill="#1e1e1e"><tspan x="175.78808261743688" dy="0">entry_long = rsi_14 &lt; 30 and close &gt; sma_50</tspan></text></g>
<g><path d="M 93.28555339093145,218.05629628585956
    L 263.6471814915305,218.7241832595784
    Q 268.22912021876834,218.04961683657893 268.0055828171975,223.63012812920206
    L 268.76126160035346,259.1677763810614
    Q 268.45924207373173,264.75117944015693 262.96864301549795,264.69964024983346
    L 93.44805250916106,264.81909532934077
    Q 88.29938800534146,264.6866465941479 87.9259233494231,259.7503802559833
    L 87.94329626609397,223.8758839443868
    Q 88.03298525889986,218.188379956469 92.76908624446078,218.08478291636857 Z" fill="#ffffff" stroke="#1e1e1e" stroke-width="1" />
<text x="178.18588624380936" y="241.64650599850575" text-anchor="middle" dominant-baseline="central" font-family="'Virgil', 'Segoe Print', 'Comic Sans MS', 'Patrick Hand', cursive" font-size="14" font-weight="normal" fill="#1e1e1e"><tspan x="178.18588624380936" dy="0">Expression Engine</tspan></text></g>
<g><path d="M 179.7541678824091,375.0169180984776
    L 291.27060507205533,420.3725155140655
    L 179.10282663328508,464.9903909589666
    L 68.1634035701561,421.0065077066429 Z" fill="#ffffff" stroke="#1e1e1e" stroke-width="1" />
<text x="179.84825934639957" y="420.31145523954183" text-anchor="middle" dominant-baseline="central" font-family="'Virgil', 'Segoe Print', 'Comic Sans MS', 'Patrick Hand', cursive" font-size="15" font-weight="normal" fill="#1e1e1e"><tspan x="179.84825934639957" dy="0">Signal?</tspan></text></g>
<g><path d="M 5.471463494503405,600.7242324209183
    L 150.27787287603132,600.9372868319376
    Q 154.81386132589688,600.0468197861744 155.44995214783924,605.4232658690598
    L 154.8356077857199,640.8450633147164
    Q 155.50242315883807,646.319116037327 150.49732583063306,646.7932529140307
    L 4.499015453562606,646.5705391947471
    Q -0.34647374912051415,646.8500893399294 -0.1323210386399296,641.0395544560175
    L -0.578212673444068,604.924369727673
    Q -0.57805035279016,600.8672692097185 4.430795272512478,599.8103014043998 Z" fill="#ffffff" stroke="#1e1e1e" stroke-width="1" />
<text x="77.5" y="623.372151500982" text-anchor="middle" dominant-baseline="central" font-family="'Virgil', 'Segoe Print', 'Comic Sans MS', 'Patrick Hand', cursive" font-size="14" font-weight="normal" fill="#1e1e1e"><tspan x="77.5" dy="0">Strategy Layer</tspan></text></g>
<g><path d="M 216.95455129346084,607.9441931404799
    L 336.2635423435495,607.835008661564
    Q 341.64870952404164,607.41572553078 341.67748638782615,613.0377811025537
    L 341.4561780916221,642.7839146502869
    Q 341.29822589349203,647.7534625772587 336.2940173573108,647.633813009932
    L 216.28367730072495,647.4662343587668
    Q 211.7211200348691,647.5042545032862 211.659572512671,642.9071929814847
    L 211.85185028691632,612.8641870337167
    Q 212.3277803253368,607.4227027604138 216.40838609536294,607.5101320899703 Z" fill="#d8f5a2" stroke="#2b8a3e" stroke-width="1" />
<text x="276.8098160301088" y="627.6806317828596" text-anchor="middle" dominant-baseline="central" font-family="'Virgil', 'Segoe Print', 'Comic Sans MS', 'Patrick Hand', cursive" font-size="13" font-weight="normal" fill="#2b8a3e"><tspan x="276.8098160301088" dy="0">HOLD</tspan></text></g>
<g><path d="M 109.83598860850324,760.9149472670448
    L 249.65228391382843,761.0031210746587
    Q 254.00440193236864,760.5903404707176 253.76123577099096,765.6631858194917
    L 254.77398980382424,801.8195819542613
    Q 254.00820146273182,807.4424888525776 249.57889540097386,806.9315891735866
    L 109.87521034256788,806.8406298941961
    Q 104.14195968222302,807.4948120965913 103.75438709968003,801.7796464823914
    L 104.3342909057159,766.3606910378585
    Q 104.18569476415287,760.6372020308511 109.09078425440676,761.1392520032532 Z" fill="#ffffff" stroke="#1e1e1e" stroke-width="1" />
<text x="179.35411995786126" y="784.1137994841265" text-anchor="middle" dominant-baseline="central" font-family="'Virgil', 'Segoe Print', 'Comic Sans MS', 'Patrick Hand', cursive" font-size="14" font-weight="normal" fill="#1e1e1e"><tspan x="179.35411995786126" dy="0">Execute Trade</tspan></text></g>
<g><path d="M 103.85117391124076,915.0288917850885
    L 243.71458696812914,914.6620158926322
    Q 247.8236101614704,914.5476938051667 248.54717381030133,919.9586337406741
    L 247.91580470736955,956.1783334392879
    Q 248.5932526395016,960.351670377166 243.41362386317343,961.0632696099608
    L 103.92828042521433,960.2450741502951
    Q 98.78984189284165,960.889359223214 98.92192313050327,955.7719830203496
    L 98.25586583521799,919.5506327845826
    Q 98.84929883020523,915.0450791486917 103.6430599282161,915.2229861066735 Z" fill="#ffffff" stroke="#1e1e1e" stroke-width="1" />
<text x="173.39825009403285" y="937.7314515385951" text-anchor="middle" dominant-baseline="central" font-family="'Virgil', 'Segoe Print', 'Comic Sans MS', 'Patrick Hand', cursive" font-size="14" font-weight="normal" fill="#1e1e1e"><tspan x="173.39825009403285" dy="0">Setup Agent</tspan></text></g>
<text x="-26.601749905967154" y="942.7314515385951" font-family="'Virgil', 'Segoe Print', 'Comic Sans MS', 'Patrick Hand', cursive" font-size="13" fill="#868e96" font-style="italic" opacity="0.85"><tspan x="-26.601749905967154" dy="0">~$0.005 / cycle</tspan><tspan x="-26.601749905967154" dy="19.5">no per-tick API calls</tspan></text>
<text x="-11.814113756190636" y="246.64650599850575" font-family="'Virgil', 'Segoe Print', 'Comic Sans MS', 'Patrick Hand', cursive" font-size="13" fill="#868e96" font-style="italic" opacity="0.85"><tspan x="-11.814113756190636" dy="0">pure math, zero latency</tspan></text>
<text x="339.35411995786126" y="784.1137994841265" font-family="'Virgil', 'Segoe Print', 'Comic Sans MS', 'Patrick Hand', cursive" font-size="13" fill="#868e96" font-style="italic" opacity="0.85"><tspan x="339.35411995786126" dy="0">closes the loop</tspan></text>
</g>
</svg>